<svg xmlns="http://www.w3.org/2000/svg" width="428" height="777" viewBox="0 0 428 777" xmlns:xlink="http://www.w3.org/1999/xlink">
  <defs>
    <rect id="c" width="388" height="737" rx="26"/>
    <filter id="b" width="200%" height="200%" x="-50%" y="-50%" filterUnits="objectBoundingBox">
      <feOffset dy="2" in="SourceAlpha" result="shadowOffsetOuter1"/>
      <feGaussianBlur stdDeviation="3" in="shadowOffsetOuter1" result="shadowBlurOuter1"/>
      <feColorMatrix values="0 0 0 0 0 0 0 0 0 0.0823529412 0 0 0 0 0.250980392 0 0 0 0.14 0" in="shadowBlurOuter1" result="shadowMatrixOuter1"/>
      <feOffset dy="10" in="SourceAlpha" result="shadowOffsetOuter2"/>
      <feGaussianBlur stdDeviation="10" in="shadowOffsetOuter2" result="shadowBlurOuter2"/>
      <feColorMatrix values="0 0 0 0 0 0 0 0 0 0.0823529412 0 0 0 0 0.250980392 0 0 0 0.05 0" in="shadowBlurOuter2" result="shadowMatrixOuter2"/>
      <feMerge>
        <feMergeNode in="shadowMatrixOuter1"/>
        <feMergeNode in="shadowMatrixOuter2"/>
      </feMerge>
    </filter>
    <filter id="d" width="200%" height="200%" x="-50%" y="-50%" filterUnits="objectBoundingBox">
      <feMorphology radius="1" in="SourceAlpha" result="shadowSpreadInner1"/>
      <feGaussianBlur stdDeviation="3.5" in="shadowSpreadInner1" result="shadowBlurInner1"/>
      <feOffset dy="4" in="shadowBlurInner1" result="shadowOffsetInner1"/>
      <feComposite in="shadowOffsetInner1" in2="SourceAlpha" operator="arithmetic" k2="-1" k3="1" result="shadowInnerInner1"/>
      <feColorMatrix values="0 0 0 0 1 0 0 0 0 1 0 0 0 0 1 0 0 0 0.5 0" in="shadowInnerInner1" result="shadowMatrixInner1"/>
      <feGaussianBlur stdDeviation="10" in="SourceAlpha" result="shadowBlurInner2"/>
      <feOffset dy="-5" in="shadowBlurInner2" result="shadowOffsetInner2"/>
      <feComposite in="shadowOffsetInner2" in2="SourceAlpha" operator="arithmetic" k2="-1" k3="1" result="shadowInnerInner2"/>
      <feColorMatrix values="0 0 0 0 0.678431373 0 0 0 0 0.729411765 0 0 0 0 0.8 0 0 0 0.25 0" in="shadowInnerInner2" result="shadowMatrixInner2"/>
      <feMerge>
        <feMergeNode in="shadowMatrixInner1"/>
        <feMergeNode in="shadowMatrixInner2"/>
      </feMerge>
    </filter>
    <rect id="e" width="363" height="607" rx="5"/>
    <rect id="h" width="360" height="60" y="19"/>
    <filter id="g" width="200%" height="200%" x="-50%" y="-50%" filterUnits="objectBoundingBox">
      <feOffset dy="1" in="SourceAlpha" result="shadowOffsetOuter1"/>
      <feGaussianBlur stdDeviation="2" in="shadowOffsetOuter1" result="shadowBlurOuter1"/>
      <feColorMatrix values="0 0 0 0 0 0 0 0 0 0 0 0 0 0 0 0 0 0 0.114130435 0" in="shadowBlurOuter1"/>
    </filter>
    <filter id="i" width="200%" height="200%" x="-50%" y="-50%" filterUnits="objectBoundingBox">
      <feOffset dy="3" in="SourceAlpha" result="shadowOffsetOuter1"/>
      <feGaussianBlur stdDeviation="5" in="shadowOffsetOuter1" result="shadowBlurOuter1"/>
      <feColorMatrix values="0 0 0 0 0 0 0 0 0 0 0 0 0 0 0 0 0 0 0.129444067 0" in="shadowBlurOuter1" result="shadowMatrixOuter1"/>
      <feMerge>
        <feMergeNode in="shadowMatrixOuter1"/>
        <feMergeNode in="SourceGraphic"/>
      </feMerge>
    </filter>
    <rect id="a" width="245.482" height="61.034" rx="3.591"/>
    <mask id="j" width="245.482" height="61.034" x="0" y="0" fill="white">
      <use xlink:href="#a"/>
    </mask>
  </defs>
  <g fill="none" fill-rule="evenodd" transform="translate(20 10)">
    <use fill="black" filter="url(#b)" xlink:href="#c"/>
    <use fill="#FFFFFF" xlink:href="#c"/>
    <use fill="black" filter="url(#d)" xlink:href="#c"/>
    <g transform="translate(12 64)">
      <mask id="f" fill="white">
        <use xlink:href="#e"/>
      </mask>
      <use fill="#FAF7EE" xlink:href="#e"/>
      <g transform="translate(2 1)" mask="url(#f)">
        <g>
          <use fill="black" filter="url(#g)" xlink:href="#h"/>
          <use fill="#F2BECE" xlink:href="#h"/>
          <g>
            <g transform="translate(30 24)">
              <g transform="translate(118.5 3)">
                <rect width="66.739" height="49.591" fill="#FAF8EE" opacity=".01"/>
                <path fill="#FAF7EE" d="M33,34.4366197 C35.8482133,34.4366197 38.2996759,33.4092435 40.354462,31.354462 C42.4092442,29.2996759 43.4366197,26.8482133 43.4366197,24 C43.4366197,21.1517867 42.4092442,18.7003241 40.354462,16.645538 C38.2996759,14.5907558 35.8482133,13.5633803 33,13.5633803 C30.1517867,13.5633803 27.7003241,14.5907558 25.645538,16.645538 C23.5907565,18.7003241 22.5633803,21.1517867 22.5633803,24 C22.5633803,26.8482133 23.5907565,29.2996759 25.645538,31.354462 C27.7003241,33.4092435 30.1517867,34.4366197 33,34.4366197 L33,34.4366197 Z M33,11 C36.5806116,11 39.6423989,12.2715069 42.185448,14.814552 C44.7284931,17.3576011 46,20.4193884 46,24 C46,27.5806116 44.7284931,30.6423989 42.185448,33.185446 C39.6423989,35.7284946 36.5806116,37 33,37 C29.4193884,37 26.3576011,35.7284946 23.814554,33.185446 C21.2715054,30.6423989 20,27.5806116 20,24 C20,20.4193884 21.2715054,17.3576011 23.814554,14.814552 C26.3576011,12.2715069 29.4193884,11 33,11 L33,11 Z M38.4929577,18.5070423 C40.0391301,20.0532146 40.8122066,21.8841849 40.8122066,24 C40.8122066,26.1158151 40.059477,27.9467854 38.5539906,29.4929577 C37.0485042,31.0391301 35.2175378,31.8122066 33.0610329,31.8122066 C30.9045279,31.8122066 29.0532146,31.0391301 27.5070423,29.4929577 L33,24 L33,16.1877934 C35.1158151,16.1877934 36.9467854,16.9608699 38.4929577,18.5070423 L38.4929577,18.5070423 Z"/>
              </g>
              <g transform="translate(0 3)">
                <rect width="66.739" height="49.591" fill="#FAF8EE" opacity=".01"/>
                <g transform="translate(22 10)">
                  <rect width="26.258" height="26.449"/>
                  <path fill="#FAF7EE" d="M8.4960395,19.1532661 L19.4439562,8.20534939 L17.7333442,6.43771701 L8.4960395,15.6750217 L4.16248915,11.3414714 L2.45187717,13.0520833 L8.4960395,19.1532661 Z M19.4439562,2.10416667 C20.1282046,2.10416667 20.7079077,2.35125385 21.1830802,2.84543186 C21.6582489,3.33960987 21.8958333,3.90981021 21.8958333,4.55604384 L21.8958333,21.5481228 C21.8958333,22.1943572 21.6582489,22.7645557 21.1830802,23.2587348 C20.7079077,23.7529141 20.1282046,24 19.4439562,24 L2.45187717,24 C1.76762909,24 1.18792742,23.7529141 0.712754991,23.2587348 C0.237582637,22.7645557 0,22.1943572 0,21.5481228 L0,4.55604384 C0,3.90981021 0.237582637,3.33960987 0.712754991,2.84543186 C1.18792742,2.35125385 1.76762909,2.10416667 2.45187717,2.10416667 L19.4439562,2.10416667 Z"/>
                </g>
              </g>
              <g transform="translate(243 3)">
                <rect width="56.96" height="49.591" x=".259" y=".201" fill="#FAF8EE" opacity=".01"/>
                <path stroke="#FAF7EE" stroke-width="2" d="M33.0941988,21.281259 L34.9654303,21.4924243 L36.042325,29.3659614 L26.101016,38.4701714 L26.1190055,34.1292315 L21.3544455,30.3681019 L25.430032,20.416371 L27.0749724,20.6019997 L26.6917261,11.2957667 L28.7361899,11.4855293 L30.2028962,14.7531797 L30.8765173,12.0836772 L33.0176898,12.4721924 L33.5195243,11.5248609 L35.9865602,12.8725582 L33.0941988,21.281259 Z" stroke-linecap="round" stroke-linejoin="round"/>
              </g>
              <g transform="translate(297.992 .212)">
                <rect width="10.875" height="21.82" x="6.344" y="16.062"/>
                <path fill="#FAF7EE" d="M16.781763,23.335401 C17.7786814,23.335401 18.5943419,22.5171467 18.5943419,21.517058 C18.5943419,20.5169694 17.7786814,19.6987151 16.781763,19.6987151 C15.7848446,19.6987151 14.9691841,20.5169694 14.9691841,21.517058 C14.9691841,22.5171467 15.7848446,23.335401 16.781763,23.335401 L16.781763,23.335401 Z M16.781763,25.1537439 C15.7848446,25.1537439 14.9691841,25.9719982 14.9691841,26.9720868 C14.9691841,27.9721755 15.7848446,28.7904298 16.781763,28.7904298 C17.7786814,28.7904298 18.5943419,27.9721755 18.5943419,26.9720868 C18.5943419,25.9719982 17.7786814,25.1537439 16.781763,25.1537439 L16.781763,25.1537439 Z M16.781763,30.6087727 C15.7848446,30.6087727 14.9691841,31.427027 14.9691841,32.4271156 C14.9691841,33.4272043 15.7848446,34.2454586 16.781763,34.2454586 C17.7786814,34.2454586 18.5943419,33.4272043 18.5943419,32.4271156 C18.5943419,31.427027 17.7786814,30.6087727 16.781763,30.6087727 L16.781763,30.6087727 Z"/>
                <rect width="25.074" height="54.55" fill="#FAF8EE" opacity=".01"/>
              </g>
            </g>
            <rect width="360" height="24" fill="#ED9DBB"/>
            <g transform="translate(242)">
              <rect width="118" height="24"/>
              <path fill="#FFFFFF" d="M4.703125,11 L3.04882812,11 L3.04882812,3.00878906 L0.608398438,3.84277344 L0.608398438,2.44140625 L4.49121094,1.01269531 L4.703125,1.01269531 L4.703125,11 Z M14.8544922,11 L8.16210938,11 L8.16210938,9.85839844 L11.4023438,6.32421875 C11.6757826,6.023436 11.9025056,5.75569779 12.0825195,5.52099609 C12.2625335,5.2862944 12.4060867,5.07210383 12.5131836,4.87841797 C12.6202805,4.6847321 12.695475,4.50358157 12.7387695,4.33496094 C12.782064,4.1663403 12.8037109,3.9977222 12.8037109,3.82910156 C12.8037109,3.60123584 12.7706709,3.39046321 12.7045898,3.19677734 C12.6385088,3.00309148 12.5428066,2.83561269 12.4174805,2.69433594 C12.2921543,2.55305919 12.1383473,2.44254597 11.9560547,2.36279297 C11.7737621,2.28303997 11.5641288,2.24316406 11.3271484,2.24316406 C11.0400376,2.24316406 10.7905284,2.28873652 10.5786133,2.37988281 C10.3666982,2.4710291 10.1912442,2.59749268 10.0522461,2.75927734 C9.913248,2.92106201 9.80843134,3.11474497 9.73779297,3.34033203 C9.66715459,3.5659191 9.63183594,3.8131497 9.63183594,4.08203125 L7.97070312,4.08203125 C7.97070312,3.64452906 8.04475837,3.2332376 8.19287109,2.84814453 C8.34098381,2.46305146 8.55859231,2.12695456 8.84570312,1.83984375 C9.13281394,1.55273294 9.48600051,1.32600995 9.90527344,1.15966797 C10.3245464,0.993325991 10.8030572,0.91015625 11.3408203,0.91015625 C11.8375676,0.91015625 12.2796205,0.975097007 12.6669922,1.10498047 C13.0543639,1.23486393 13.3813463,1.41829309 13.6479492,1.65527344 C13.9145521,1.89225379 14.1173496,2.1804996 14.2563477,2.52001953 C14.3953457,2.85953946 14.4648438,3.23665157 14.4648438,3.65136719 C14.4648438,3.96126457 14.414714,4.26773937 14.3144531,4.57080078 C14.2141922,4.87386219 14.0751962,5.17577975 13.8974609,5.4765625 C13.7197257,5.77734525 13.5078137,6.07926281 13.2617188,6.38232422 C13.0156238,6.68538563 12.7467462,6.98958181 12.4550781,7.29492187 L10.2333984,9.67382812 L14.8544922,9.67382812 L14.8544922,11 Z M16.2626953,10.1728516 C16.2626953,9.90852732 16.3470044,9.6886402 16.515625,9.51318359 C16.6842456,9.33772699 16.9212224,9.25 17.2265625,9.25 C17.5364599,9.25 17.7757153,9.33772699 17.9443359,9.51318359 C18.1129566,9.6886402 18.1972656,9.90852732 18.1972656,10.1728516 C18.1972656,10.4326185 18.1129566,10.6479484 17.9443359,10.8188477 C17.7757153,10.9897469 17.5364599,11.0751953 17.2265625,11.0751953 C17.0761711,11.0751953 16.9405931,11.0524091 16.8198242,11.0068359 C16.6990554,10.9612628 16.5976567,10.8974613 16.515625,10.8154297 C16.4335933,10.733398 16.3709312,10.6376959 16.3276367,10.5283203 C16.2843422,10.4189448 16.2626953,10.3004564 16.2626953,10.1728516 L16.2626953,10.1728516 Z M16.2626953,4.36914062 C16.2626953,4.10481639 16.3470044,3.88492926 16.515625,3.70947266 C16.6842456,3.53401605 16.9212224,3.44628906 17.2265625,3.44628906 C17.5364599,3.44628906 17.7757153,3.53401605 17.9443359,3.70947266 C18.1129566,3.88492926 18.1972656,4.10481639 18.1972656,4.36914062 C18.1972656,4.62890755 18.1129566,4.84423743 17.9443359,5.01513672 C17.7757153,5.18603601 17.5364599,5.27148438 17.2265625,5.27148438 C17.0761711,5.27148438 16.9405931,5.24869814 16.8198242,5.203125 C16.6990554,5.15755186 16.5976567,5.09375041 16.515625,5.01171875 C16.4335933,4.92968709 16.3709312,4.83398492 16.3276367,4.72460938 C16.2843422,4.61523383 16.2626953,4.49674543 16.2626953,4.36914062 L16.2626953,4.36914062 Z M21.7519531,5.26464844 L22.7363281,5.26464844 C23.0234389,5.26464844 23.2718088,5.22705116 23.4814453,5.15185547 C23.6910818,5.07665978 23.8665358,4.97298243 24.0078125,4.84082031 C24.1490892,4.70865819 24.2539059,4.54915458 24.3222656,4.36230469 C24.3906253,4.17545479 24.4248047,3.9681001 24.4248047,3.74023438 C24.4248047,3.26627367 24.3006197,2.89827605 24.0522461,2.63623047 C23.8038725,2.37418489 23.4244817,2.24316406 22.9140625,2.24316406 C22.6953114,2.24316406 22.492514,2.2762041 22.3056641,2.34228516 C22.1188142,2.40836622 21.9570319,2.50178976 21.8203125,2.62255859 C21.6835931,2.74332743 21.5764978,2.8891593 21.4990234,3.06005859 C21.4215491,3.23095789 21.3828125,3.42350153 21.3828125,3.63769531 L19.7216797,3.63769531 C19.7216797,3.24576627 19.8002922,2.88346521 19.9575195,2.55078125 C20.1147469,2.21809729 20.3334947,1.92985148 20.6137695,1.68603516 C20.8940444,1.44221883 21.229002,1.25195381 21.6186523,1.11523438 C22.0083027,0.978514941 22.4332659,0.91015625 22.8935547,0.91015625 C23.3675154,0.91015625 23.8004538,0.970539761 24.1923828,1.09130859 C24.5843119,1.21207743 24.9204088,1.39094934 25.2006836,1.62792969 C25.4809584,1.86491004 25.6985669,2.15999172 25.8535156,2.51318359 C26.0084643,2.86637546 26.0859375,3.2753883 26.0859375,3.74023438 C26.0859375,3.94075621 26.0540368,4.14355366 25.9902344,4.34863281 C25.926432,4.55371196 25.8307298,4.75081286 25.703125,4.93994141 C25.5755202,5.12906996 25.4160166,5.30680255 25.2246094,5.47314453 C25.0332022,5.63948651 24.8098971,5.77962183 24.5546875,5.89355469 C24.8600276,5.99837292 25.1186513,6.13167237 25.3305664,6.29345703 C25.5424815,6.45524169 25.7145176,6.63753154 25.8466797,6.84033203 C25.9788418,7.04313252 26.0756833,7.26074103 26.137207,7.49316406 C26.1987308,7.7255871 26.2294922,7.96484252 26.2294922,8.2109375 C26.2294922,8.67578357 26.1451831,9.09049297 25.9765625,9.45507812 C25.8079419,9.81966328 25.574383,10.1261381 25.2758789,10.3745117 C24.9773748,10.6228854 24.6241882,10.8120111 24.2163086,10.9418945 C23.808429,11.071778 23.3675154,11.1367188 22.8935547,11.1367188 C22.4606098,11.1367188 22.0470397,11.0774746 21.652832,10.9589844 C21.2586243,10.8404942 20.9111343,10.6639009 20.6103516,10.4291992 C20.3095688,10.1944975 20.0703134,9.90169446 19.8925781,9.55078125 C19.7148429,9.19986804 19.6259766,8.79427313 19.6259766,8.33398438 L21.2871094,8.33398438 C21.2871094,8.55273547 21.325846,8.7532543 21.4033203,8.93554688 C21.4807947,9.11783945 21.5901686,9.27392513 21.7314453,9.40380859 C21.8727221,9.53369206 22.0436188,9.63395147 22.2441406,9.70458984 C22.4446625,9.77522822 22.6679675,9.81054688 22.9140625,9.81054688 C23.429039,9.81054688 23.8346339,9.67382949 24.1308594,9.40039062 C24.4270848,9.12695176 24.5751953,8.73047135 24.5751953,8.2109375 C24.5751953,7.928384 24.5319015,7.68457134 24.4453125,7.47949219 C24.3587235,7.27441304 24.2356779,7.10465562 24.0761719,6.97021484 C23.9166659,6.83577407 23.7241222,6.73665396 23.4985352,6.67285156 C23.2729481,6.60904916 23.0188816,6.57714844 22.7363281,6.57714844 L21.7519531,6.57714844 L21.7519531,5.26464844 Z M34.2753906,6.80957031 C34.2753906,7.59798571 34.1979174,8.26676158 34.0429688,8.81591797 C33.8880201,9.36507436 33.6692722,9.81168448 33.3867188,10.1557617 C33.1041653,10.499839 32.7635111,10.7493482 32.3647461,10.9042969 C31.9659811,11.0592456 31.5205103,11.1367188 31.0283203,11.1367188 C30.5406877,11.1367188 30.0963562,11.0592456 29.6953125,10.9042969 C29.2942688,10.7493482 28.9501967,10.499839 28.6630859,10.1557617 C28.3759751,9.81168448 28.1538094,9.36507436 27.996582,8.81591797 C27.8393547,8.26676158 27.7607422,7.59798571 27.7607422,6.80957031 L27.7607422,5.203125 C27.7607422,4.4147096 27.8382154,3.74707305 27.9931641,3.20019531 C28.1481128,2.65331758 28.3679999,2.2101254 28.652832,1.87060547 C28.9376642,1.53108554 29.280597,1.28613356 29.6816406,1.13574219 C30.0826843,0.985350811 30.5270158,0.91015625 31.0146484,0.91015625 C31.5068384,0.91015625 31.9534485,0.985350811 32.3544922,1.13574219 C32.7555359,1.28613356 33.0984686,1.53108554 33.3833008,1.87060547 C33.6681329,2.2101254 33.8880201,2.65331758 34.0429688,3.20019531 C34.1979174,3.74707305 34.2753906,4.4147096 34.2753906,5.203125 L34.2753906,6.80957031 Z M32.6142578,4.95019531 C32.6142578,4.44433341 32.5789392,4.01937021 32.5083008,3.67529297 C32.4376624,3.33121573 32.3339851,3.05322372 32.1972656,2.84130859 C32.0605462,2.62939347 31.8930674,2.47672573 31.6948242,2.38330078 C31.496581,2.28987583 31.269858,2.24316406 31.0146484,2.24316406 C30.7594388,2.24316406 30.5327158,2.28987583 30.3344727,2.38330078 C30.1362295,2.47672573 29.9687507,2.62939347 29.8320312,2.84130859 C29.6953118,3.05322372 29.5916345,3.33121573 29.5209961,3.67529297 C29.4503577,4.01937021 29.4150391,4.44433341 29.4150391,4.95019531 L29.4150391,7.04882812 C29.4150391,7.55013271 29.451497,7.97623522 29.5244141,8.32714844 C29.5973311,8.67806165 29.7021478,8.96288953 29.8388672,9.18164062 C29.9755866,9.40039172 30.1442047,9.55989533 30.3447266,9.66015625 C30.5452484,9.76041717 30.7731107,9.81054688 31.0283203,9.81054688 C31.2880872,9.81054688 31.5159495,9.76041717 31.7119141,9.66015625 C31.9078786,9.55989533 32.0730788,9.40039172 32.2075195,9.18164062 C32.3419603,8.96288953 32.443359,8.67806165 32.5117188,8.32714844 C32.5800785,7.97623522 32.6142578,7.55013271 32.6142578,7.04882812 L32.6142578,4.95019531 Z" opacity=".9" transform="translate(75 6)"/>
              <g transform="translate(55 4)">
                <polygon points="0 0 16 0 16 16 0 16"/>
                <polygon fill="#FFFFFF" points="9 1.875 9 1 6 1 6 1.875 3 1.875 3 15 12 15 12 1.875"/>
              </g>
              <g transform="translate(35 4)">
                <polygon points="0 0 16 0 16 16 0 16"/>
                <polygon fill="#FFFFFF" points="0 15 14 15 14 1"/>
              </g>
              <g transform="translate(14 4)">
                <polygon points="2 0 18 0 18 16 2 16"/>
                <path fill="#FFFFFF" d="M19.0226279,4.01593123 C16.5117809,2.12256382 13.3869849,1 10,1 C6.61301513,1 3.48821908,2.12256382 0.977372085,4.01593123 L10,15 L19.0226279,4.01593123 Z"/>
              </g>
            </g>
          </g>
        </g>
        <g transform="translate(101 535)">
          <rect width="154" height="32" fill="#FAF8EE"/>
          <path fill="#EFC8D2" d="M3.89347959,2.28 C4.55347959,2.28 4.88947959,2.928 4.88947959,3.444 C4.88947959,3.984 4.52947959,4.608 3.84547959,4.608 L2.29747959,4.608 L2.29747959,2.28 L3.89347959,2.28 Z M0.545479594,8.244 C0.545479594,8.676 0.965479594,9.06 1.42147959,9.06 C1.90147959,9.06 2.29747959,8.688 2.29747959,8.244 L2.29747959,6.144 L3.92947959,6.144 C5.81347959,6.144 6.65347959,4.812 6.65347959,3.444 C6.65347959,2.088 5.81347959,0.732 3.92947959,0.732 L1.38547959,0.732 C0.857479594,0.732 0.557479594,1.14 0.545479594,1.632 L0.545479594,8.244 Z M12.2974796,7.044 L12.8614796,8.556 C13.0174796,8.964 13.5214796,9.156 13.9654796,9.012 C14.3974796,8.868 14.6374796,8.328 14.4934796,7.92 L12.1054796,1.488 C11.9134796,0.984 11.5294796,0.672 10.9174796,0.672 L10.8454796,0.672 C10.2334796,0.672 9.8494796,0.984 9.6574796,1.488 L7.2694796,7.92 C7.1254796,8.328 7.3654796,8.868 7.7974796,9.012 C8.2414796,9.156 8.7454796,8.964 8.9014796,8.556 L9.4654796,7.044 L12.2974796,7.044 Z M10.0414796,5.52 L10.8814796,2.64 L11.7214796,5.52 L10.0414796,5.52 Z M19.1174796,9.108 C20.8214796,9.108 22.3334796,7.908 22.3334796,6.036 L22.3334796,1.488 C22.3214796,1.056 21.9134796,0.672 21.4574796,0.672 C20.9774796,0.672 20.5814796,1.044 20.5814796,1.488 L20.5814796,6.036 C20.5814796,6.888 19.8614796,7.452 19.1414796,7.452 C18.3974796,7.452 17.6774796,6.888 17.6774796,6.036 L17.6774796,1.488 C17.6774796,1.044 17.2814796,0.672 16.8014796,0.672 C16.3454796,0.672 15.9374796,1.056 15.9254796,1.488 L15.9254796,6.036 C15.9254796,7.908 17.4374796,9.108 19.1414796,9.108 L19.1174796,9.108 Z M24.2094796,7.332 C24.5694796,8.4 25.6254796,9.108 27.0894796,9.108 C28.5534796,9.108 30.0414796,8.328 30.0654796,6.684 C30.0894796,5.892 29.8014796,4.764 27.7974796,4.188 L26.8134796,3.9 C26.0094796,3.672 25.9254796,3.276 25.9254796,3.06 C25.9254796,2.568 26.3814796,2.208 26.9934796,2.208 C27.3654796,2.208 27.8214796,2.34 28.1694796,2.784 C28.4574796,3.144 28.8414796,3.264 29.2734796,2.988 C29.5734796,2.796 29.7414796,2.412 29.5374796,2.016 C29.0934796,1.152 28.2054796,0.636 27.0174796,0.636 C25.4334796,0.636 24.1734796,1.632 24.1734796,3.108 C24.1734796,3.852 24.4854796,4.896 26.3094796,5.46 L27.3054796,5.736 C28.1454796,5.976 28.3134796,6.3 28.3014796,6.672 C28.2894796,7.212 27.7974796,7.548 27.0894796,7.548 C26.3454796,7.548 25.9374796,7.14 25.7574796,6.768 C25.5894796,6.42 25.1454796,6.168 24.6774796,6.348 C24.2694796,6.504 24.0774796,6.912 24.2094796,7.332 L24.2094796,7.332 Z M32.5174796,0.732 C32.0734796,0.732 31.8334796,1.068 31.8214796,1.476 L31.8214796,8.256 C31.8334796,8.664 32.0734796,9 32.5174796,9 L36.4414796,9 C36.8254796,9 37.1614796,8.628 37.1614796,8.232 C37.1614796,7.812 36.8374796,7.464 36.4414796,7.464 L33.5734796,7.464 L33.5734796,5.688 L35.9614796,5.688 C36.3454796,5.688 36.6814796,5.328 36.6814796,4.932 C36.6814796,4.512 36.3574796,4.176 35.9614796,4.176 L33.5734796,4.176 L33.5734796,2.28 L36.3334796,2.28 C36.7174796,2.28 37.0534796,1.908 37.0534796,1.512 C37.0534796,1.08 36.7294796,0.732 36.3334796,0.732 L32.5174796,0.732 Z M46.7934796,2.28 C47.1654796,2.28 47.5134796,1.908 47.5134796,1.512 C47.5134796,1.08 47.1894796,0.732 46.7934796,0.732 L41.8734796,0.732 C41.4774796,0.732 41.1534796,1.08 41.1534796,1.512 C41.1534796,1.908 41.5014796,2.28 41.8734796,2.28 L43.4574796,2.28 L43.4574796,8.244 C43.4574796,8.676 43.8774796,9.06 44.3334796,9.06 C44.8134796,9.06 45.2094796,8.688 45.2094796,8.244 L45.2094796,2.28 L46.7934796,2.28 Z M50.7574796,1.488 C50.7574796,1.044 50.3614796,0.672 49.8814796,0.672 C49.4254796,0.672 49.0174796,1.056 49.0054796,1.488 L49.0054796,8.244 C49.0054796,8.676 49.4254796,9.06 49.8814796,9.06 C50.3614796,9.06 50.7574796,8.688 50.7574796,8.244 L50.7574796,1.488 Z M57.6014796,6.06 L55.3214796,1.2 C55.1174796,0.744 54.8654796,0.672 54.5294796,0.672 L54.3494796,0.672 C53.9414796,0.672 53.6174796,1.044 53.5694796,1.452 L52.7414796,8.184 C52.6814796,8.604 53.0894796,9.024 53.5454796,9.06 C54.0134796,9.096 54.4334796,8.76 54.4814796,8.316 L54.9854796,4.044 L56.6414796,7.44 C56.7974796,7.776 57.0854796,8.172 57.6014796,8.172 C58.1174796,8.172 58.4174796,7.776 58.5734796,7.44 L60.2174796,4.044 L60.7214796,8.316 C60.7694796,8.76 61.1894796,9.096 61.6574796,9.06 C62.1134796,9.024 62.5094796,8.604 62.4614796,8.184 L61.6334796,1.452 C61.5854796,1.044 61.2614796,0.672 60.8534796,0.672 L60.6734796,0.672 C60.3374796,0.672 60.0974796,0.744 59.8814796,1.2 L57.6014796,6.06 Z M65.1534796,0.732 C64.7094796,0.732 64.4694796,1.068 64.4574796,1.476 L64.4574796,8.256 C64.4694796,8.664 64.7094796,9 65.1534796,9 L69.0774796,9 C69.4614796,9 69.7974796,8.628 69.7974796,8.232 C69.7974796,7.812 69.4734796,7.464 69.0774796,7.464 L66.2094796,7.464 L66.2094796,5.688 L68.5974796,5.688 C68.9814796,5.688 69.3174796,5.328 69.3174796,4.932 C69.3174796,4.512 68.9934796,4.176 68.5974796,4.176 L66.2094796,4.176 L66.2094796,2.28 L68.9694796,2.28 C69.3534796,2.28 69.6894796,1.908 69.6894796,1.512 C69.6894796,1.08 69.3654796,0.732 68.9694796,0.732 L65.1534796,0.732 Z M74.9854797,2.28 C75.6454797,2.28 75.9814797,2.928 75.9814797,3.444 C75.9814797,3.984 75.6214797,4.608 74.9374797,4.608 L73.3654797,4.608 L73.3654797,2.28 L74.9854797,2.28 Z M77.7334797,3.396 C77.7094797,2.052 76.8334797,0.732 74.9854797,0.732 L72.4534797,0.732 C71.9254797,0.732 71.6254797,1.14 71.6134797,1.632 L71.6134797,8.244 C71.6134797,8.676 72.0334797,9.06 72.4894797,9.06 C72.9694797,9.06 73.3654797,8.688 73.3654797,8.244 L73.3654797,6.084 L74.1694797,6.084 L75.7534797,8.7 C75.9814797,9.06 76.5094797,9.168 76.8934797,8.94 C77.3014797,8.7 77.4574797,8.16 77.2174797,7.8 L75.8734797,5.868 C77.0974797,5.508 77.6974797,4.476 77.7334797,3.396 L77.7334797,3.396 Z" transform="translate(37.672 11.227)"/>
        </g>
        <g transform="translate(37 126)">
          <circle cx="141.5" cy="141.5" r="141.5" stroke="#FFFFFF" stroke-width="16"/>
          <path fill="#ED9DBB" d="M90.7154,197.937 C90.7154,200.448 91.7198,202.5126 93.338,204.075 C90.1574,205.9164 88.0928,209.2644 88.0928,213.282 C88.0928,220.257 94.3424,225.5022 101.987,225.5022 C109.6316,225.5022 115.8812,220.257 115.8812,213.282 C115.8812,209.3202 113.8166,205.9164 110.636,204.075 C112.31,202.5684 113.3144,200.5038 113.3144,197.937 C113.3144,192.3012 108.1808,187.7256 101.987,187.7256 C95.7932,187.7256 90.7154,192.3012 90.7154,197.937 L90.7154,197.937 Z M95.9048,212.8914 C95.9048,210.1014 97.9694,207.423 101.9312,207.423 C106.0046,207.423 108.0692,210.1014 108.0692,212.8914 C108.0692,215.9604 105.2234,218.2482 101.987,218.2482 C98.7506,218.2482 95.9048,215.9604 95.9048,212.8914 L95.9048,212.8914 Z M98.2484,198.1602 C98.2484,196.3746 99.5876,194.7564 101.987,194.7564 C104.3864,194.7564 105.7256,196.3746 105.7256,198.1602 C105.7256,200.0016 104.498,201.6756 101.987,201.6756 C99.476,201.6756 98.2484,200.0016 98.2484,198.1602 L98.2484,198.1602 Z M121.9634,220.815 C121.9634,223.5492 124.1396,225.5022 126.7622,225.5022 C129.3848,225.5022 131.561,223.5492 131.561,220.815 C131.561,218.1366 129.3848,216.1836 126.7622,216.1836 C124.1396,216.1836 121.9634,218.1366 121.9634,220.815 L121.9634,220.815 Z M121.9634,203.1264 C121.9634,205.8048 124.1396,207.7578 126.7622,207.7578 C129.3848,207.7578 131.561,205.8048 131.561,203.1264 C131.561,200.3922 129.3848,198.4392 126.7622,198.4392 C124.1396,198.4392 121.9634,200.3922 121.9634,203.1264 L121.9634,203.1264 Z M145.1204,209.7666 L152.0396,198.6624 L152.0396,209.7666 L145.1204,209.7666 Z M137.2526,211.05 C136.7504,211.887 136.1924,212.6682 136.1924,213.84 C136.1924,215.3466 137.3642,216.351 138.9824,216.351 L152.0396,216.351 L152.0396,221.652 C152.0396,223.5492 153.9368,225.279 155.9456,225.279 C158.1218,225.279 159.9074,223.605 159.9074,221.652 L159.9074,216.351 L162.1952,216.351 C163.8134,216.351 165.2642,214.7328 165.2642,213.0588 C165.2642,211.2732 163.8692,209.7666 162.1952,209.7666 L159.9074,209.7666 L159.9074,192.5244 C159.9074,189.846 157.787,187.7256 154.8854,187.7256 C152.4302,187.7256 151.2026,188.8416 150.0308,190.683 L137.2526,211.05 Z M170.2304,206.6976 C170.2304,217.1322 173.2436,225.5022 183.9014,225.5022 C194.5592,225.5022 197.4608,217.1322 197.4608,206.6976 C197.4608,196.1514 194.5592,187.7256 183.9014,187.7256 C173.2436,187.7256 170.2304,196.1514 170.2304,206.6976 L170.2304,206.6976 Z M178.0424,206.6976 C178.0424,200.5038 179.4374,195.3144 183.9014,195.3144 C188.3096,195.3144 189.6488,200.5038 189.6488,206.6976 C189.6488,212.8356 188.3096,217.9134 183.9014,217.9134 C179.4374,217.9134 178.0424,212.8356 178.0424,206.6976 L178.0424,206.6976 Z"/>
          <path fill="#F2BECE" d="M102.669034,239.06 L100.389034,234.2 C100.185034,233.744 99.9330339,233.672 99.5970339,233.672 L99.4170339,233.672 C99.0090339,233.672 98.6850339,234.044 98.6370339,234.452 L97.8090339,241.184 C97.7490339,241.604 98.1570339,242.024 98.6130339,242.06 C99.0810339,242.096 99.5010339,241.76 99.5490339,241.316 L100.053034,237.044 L101.709034,240.44 C101.865034,240.776 102.153034,241.172 102.669034,241.172 C103.185034,241.172 103.485034,240.776 103.641034,240.44 L105.285034,237.044 L105.789034,241.316 C105.837034,241.76 106.257034,242.096 106.725034,242.06 C107.181034,242.024 107.577034,241.604 107.529034,241.184 L106.701034,234.452 C106.653034,234.044 106.329034,233.672 105.921034,233.672 L105.741034,233.672 C105.405034,233.672 105.165034,233.744 104.949034,234.2 L102.669034,239.06 Z M111.436462,234.488 C111.436462,234.044 111.040462,233.672 110.560462,233.672 C110.104462,233.672 109.696462,234.056 109.684462,234.488 L109.684462,241.244 C109.684462,241.676 110.104462,242.06 110.560462,242.06 C111.040462,242.06 111.436462,241.688 111.436462,241.244 L111.436462,234.488 Z M120.047891,234.488 C120.047891,234.044 119.651891,233.672 119.171891,233.672 C118.715891,233.672 118.295891,234.056 118.295891,234.488 L118.295891,238.676 L115.787891,234.284 C115.511891,233.792 115.187891,233.672 114.815891,233.672 L114.659891,233.672 C114.227891,233.672 113.855891,234.068 113.855891,234.572 L113.855891,241.244 C113.855891,241.676 114.275891,242.06 114.731891,242.06 C115.211891,242.06 115.607891,241.688 115.607891,241.244 L115.607891,236.996 L118.175891,241.46 C118.451891,241.94 118.751891,242.06 119.111891,242.06 L119.267891,242.06 C119.687891,242.06 120.047891,241.676 120.047891,241.184 L120.047891,234.488 Z M125.61132,242.108 C127.31532,242.108 128.82732,240.908 128.82732,239.036 L128.82732,234.488 C128.81532,234.056 128.40732,233.672 127.95132,233.672 C127.47132,233.672 127.07532,234.044 127.07532,234.488 L127.07532,239.036 C127.07532,239.888 126.35532,240.452 125.63532,240.452 C124.89132,240.452 124.17132,239.888 124.17132,239.036 L124.17132,234.488 C124.17132,234.044 123.77532,233.672 123.29532,233.672 C122.83932,233.672 122.43132,234.056 122.41932,234.488 L122.41932,239.036 C122.41932,240.908 123.93132,242.108 125.63532,242.108 L125.61132,242.108 Z M136.082748,235.28 C136.454748,235.28 136.802748,234.908 136.802748,234.512 C136.802748,234.08 136.478748,233.732 136.082748,233.732 L131.162748,233.732 C130.766748,233.732 130.442748,234.08 130.442748,234.512 C130.442748,234.908 130.790748,235.28 131.162748,235.28 L132.746748,235.28 L132.746748,241.244 C132.746748,241.676 133.166748,242.06 133.622748,242.06 C134.102748,242.06 134.498748,241.688 134.498748,241.244 L134.498748,235.28 L136.082748,235.28 Z M139.174177,233.732 C138.730177,233.732 138.490177,234.068 138.478177,234.476 L138.478177,241.256 C138.490177,241.664 138.730177,242 139.174177,242 L143.098177,242 C143.482177,242 143.818177,241.628 143.818177,241.232 C143.818177,240.812 143.494177,240.464 143.098177,240.464 L140.230177,240.464 L140.230177,238.688 L142.618177,238.688 C143.002177,238.688 143.338177,238.328 143.338177,237.932 C143.338177,237.512 143.014177,237.176 142.618177,237.176 L140.230177,237.176 L140.230177,235.28 L142.990177,235.28 C143.374177,235.28 143.710177,234.908 143.710177,234.512 C143.710177,234.08 143.386177,233.732 142.990177,233.732 L139.174177,233.732 Z M145.409605,240.332 C145.769605,241.4 146.825605,242.108 148.289605,242.108 C149.753605,242.108 151.241605,241.328 151.265605,239.684 C151.289605,238.892 151.001605,237.764 148.997605,237.188 L148.013605,236.9 C147.209605,236.672 147.125605,236.276 147.125605,236.06 C147.125605,235.568 147.581605,235.208 148.193605,235.208 C148.565605,235.208 149.021605,235.34 149.369605,235.784 C149.657605,236.144 150.041605,236.264 150.473605,235.988 C150.773605,235.796 150.941605,235.412 150.737605,235.016 C150.293605,234.152 149.405605,233.636 148.217605,233.636 C146.633605,233.636 145.373605,234.632 145.373605,236.108 C145.373605,236.852 145.685605,237.896 147.509605,238.46 L148.505605,238.736 C149.345605,238.976 149.513605,239.3 149.501605,239.672 C149.489605,240.212 148.997605,240.548 148.289605,240.548 C147.545605,240.548 147.137605,240.14 146.957605,239.768 C146.789605,239.42 146.345605,239.168 145.877605,239.348 C145.469605,239.504 145.277605,239.912 145.409605,240.332 L145.409605,240.332 Z M158.420463,234.488 C158.420463,234.044 158.024463,233.672 157.544463,233.672 C157.088463,233.672 156.680463,234.056 156.668463,234.488 L156.668463,241.256 C156.668463,241.664 156.920463,242 157.364463,242 L160.808463,242 C161.192463,241.988 161.528463,241.628 161.528463,241.232 C161.528463,240.812 161.204463,240.464 160.808463,240.464 L158.420463,240.464 L158.420463,234.488 Z M163.887891,233.732 C163.443891,233.732 163.203891,234.068 163.191891,234.476 L163.191891,241.256 C163.203891,241.664 163.443891,242 163.887891,242 L167.811891,242 C168.195891,242 168.531891,241.628 168.531891,241.232 C168.531891,240.812 168.207891,240.464 167.811891,240.464 L164.943891,240.464 L164.943891,238.688 L167.331891,238.688 C167.715891,238.688 168.051891,238.328 168.051891,237.932 C168.051891,237.512 167.727891,237.176 167.331891,237.176 L164.943891,237.176 L164.943891,235.28 L167.703891,235.28 C168.087891,235.28 168.423891,234.908 168.423891,234.512 C168.423891,234.08 168.099891,233.732 167.703891,233.732 L163.887891,233.732 Z M171.22732,233.732 C170.78332,233.732 170.54332,234.068 170.53132,234.476 L170.53132,241.244 C170.53132,241.676 170.95132,242.06 171.40732,242.06 C171.88732,242.06 172.28332,241.688 172.28332,241.244 L172.28332,238.688 L174.32332,238.688 C174.70732,238.688 175.04332,238.328 175.04332,237.932 C175.04332,237.512 174.71932,237.176 174.32332,237.176 L172.28332,237.176 L172.28332,235.28 L175.03132,235.28 C175.41532,235.268 175.75132,234.908 175.75132,234.512 C175.75132,234.08 175.42732,233.732 175.03132,233.732 L171.22732,233.732 Z M182.418748,235.28 C182.790748,235.28 183.138748,234.908 183.138748,234.512 C183.138748,234.08 182.814748,233.732 182.418748,233.732 L177.498748,233.732 C177.102748,233.732 176.778748,234.08 176.778748,234.512 C176.778748,234.908 177.126748,235.28 177.498748,235.28 L179.082748,235.28 L179.082748,241.244 C179.082748,241.676 179.502748,242.06 179.958748,242.06 C180.438748,242.06 180.834748,241.688 180.834748,241.244 L180.834748,235.28 L182.418748,235.28 Z"/>
        </g>
        <g transform="translate(153 175)">
          <polygon fill="#D1E882" stroke="#D1E882" stroke-width="2.919" points="18.68 .039 20.282 43.784 39.426 43.614 50.875 6.181 42.33 .931 40.592 4.621 33.175 3.108 28.479 21.048 25.762 .778" stroke-linejoin="round"/>
          <polygon fill="#ED9DBB" stroke="#ED9DBB" stroke-width="2.919" points="0 74.341 16.503 88.992 16.441 105.901 50.875 70.437 47.145 39.766 14.117 35.575" stroke-linejoin="round"/>
          <path stroke="#FAF8EE" stroke-width="2.484" d="M16.0117745,72.8173913 C20.336321,77.2722912 27.1933968,77.8866584 31.3425112,74.1909073" stroke-linecap="round"/>
        </g>
        <path stroke="#ED9DBB" stroke-width="16" d="M269.565421,375.383444 C300.115783,349.428438 319.5,310.727932 319.5,267.5 C319.5,189.351708 256.148292,126 178,126" stroke-linecap="round" stroke-linejoin="round"/>
        <g filter="url(#i)" transform="translate(55 469)">
          <use fill="#ED9DBB" stroke="#ED9DBB" stroke-width="3.8" mask="url(#j)" xlink:href="#a"/>
          <path fill="#FFFFFF" d="M65.9909684,26.2016488 C65.3189684,26.2016488 64.7909684,26.8016488 64.7909684,27.5216488 C64.7909684,28.2176488 65.3189684,28.8176488 65.9909684,28.8416488 L66.9029684,28.8416488 L66.9029684,36.0416488 C66.9269684,36.8576488 67.6949684,37.5296488 68.5829684,37.5296488 C69.4949684,37.5296488 70.2629684,36.8816488 70.2629684,36.0416488 L70.2629684,28.8416488 L71.5349684,28.8416488 C72.2069684,28.8176488 72.7349684,28.2176488 72.7349684,27.5216488 C72.7349684,26.8016488 72.2069684,26.2016488 71.5349684,26.2016488 L70.2629684,26.2016488 L70.2629684,23.2736488 C70.2629684,22.4336488 69.4949684,21.7856488 68.5829684,21.7856488 C67.6949684,21.7856488 66.9269684,22.4576488 66.9029684,23.2736488 L66.9029684,26.2016488 L65.9909684,26.2016488 Z M82.4789684,27.7856488 C81.5189684,26.2976488 79.8389684,25.9856488 79.1189684,25.9856488 C76.2629684,25.9856488 73.6709684,28.0736488 73.6709684,31.7936488 C73.6709684,35.5136488 76.2629684,37.6256488 79.1189684,37.6256488 C80.3909684,37.6256488 81.7589684,37.0016488 82.4789684,35.8256488 L82.4789684,36.0416488 C82.5029684,36.8576488 83.2709684,37.5296488 84.1589684,37.5296488 C85.0709684,37.5296488 85.8389684,36.8816488 85.8389684,36.0416488 L85.8389684,27.5696488 C85.8389684,26.7296488 85.0709684,26.0816488 84.1589684,26.0816488 C83.2709684,26.0816488 82.5029684,26.7536488 82.4789684,27.5696488 L82.4789684,27.7856488 L82.4789684,27.7856488 Z M77.1269684,31.8176488 C77.1269684,30.3296488 78.0869684,28.9856488 79.7669684,28.9856488 C81.2789684,28.9856488 82.5029684,30.3296488 82.5029684,31.8176488 C82.5029684,33.3056488 81.2789684,34.6496488 79.7669684,34.6496488 C78.0869684,34.6496488 77.1269684,33.3056488 77.1269684,31.8176488 L77.1269684,31.8176488 Z M95.8469684,37.0496488 C96.3269684,37.6256488 97.4549684,37.6976488 98.0549684,37.1936488 C98.7269684,36.6896488 98.7749684,35.6816488 98.1509684,35.0096488 L94.4549684,31.1456488 L97.0709684,28.6016488 C97.6469684,27.9296488 97.4789684,26.9696488 96.8549684,26.4656488 C96.2069684,25.9376488 95.2229684,26.0576488 94.6949684,26.6576488 L92.0789684,29.2976488 L92.0789684,21.4736488 C92.0789684,20.6336488 91.3109684,19.9856488 90.3989684,19.9856488 C89.5109684,19.9856488 88.7429684,20.6576488 88.7189684,21.4736488 L88.7189684,36.0416488 C88.7429684,36.8576488 89.5109684,37.5296488 90.3989684,37.5296488 C91.3109684,37.5296488 92.0789684,36.8816488 92.0789684,36.0416488 L92.0789684,32.9936488 L95.8469684,37.0496488 Z M103.118968,30.8096488 C103.406968,29.3936488 104.366968,28.7696488 105.614968,28.7696488 C106.862968,28.7696488 107.798968,29.4416488 107.966968,30.8096488 L103.118968,30.8096488 Z M109.886968,34.3856488 C109.406968,33.8336488 108.542968,33.6896488 107.774968,34.2176488 C107.078968,34.6976488 106.502968,34.7456488 105.830968,34.7456488 C104.654968,34.7456488 103.238968,34.1936488 103.070968,32.8976488 L110.294968,32.8976488 C110.822968,32.8976488 111.326968,32.4656488 111.326968,31.8656488 C111.326968,28.3376488 108.782968,25.9856488 105.590968,25.9856488 C102.374968,25.9856488 99.7349684,28.2416488 99.7349684,31.7696488 C99.7349684,35.2976488 102.374968,37.6256488 105.590968,37.6256488 C106.910968,37.6256488 108.326968,37.3616488 109.454968,36.6176488 C110.270968,36.1376488 110.510968,35.1056488 109.886968,34.3856488 L109.886968,34.3856488 Z M122.558968,27.7856488 L122.558968,21.4736488 C122.534968,20.6576488 121.766968,19.9856488 120.878968,19.9856488 C119.966968,19.9856488 119.198968,20.6336488 119.198968,21.4736488 L119.198968,36.0416488 C119.198968,36.8816488 119.966968,37.5296488 120.878968,37.5296488 C121.766968,37.5296488 122.534968,36.8576488 122.558968,36.0416488 L122.558968,35.8256488 C123.278968,37.0016488 124.646968,37.6256488 125.918968,37.6256488 C128.774968,37.6256488 131.366968,35.5136488 131.366968,31.7936488 C131.366968,28.0736488 128.774968,25.9856488 125.918968,25.9856488 C125.198968,25.9856488 123.518968,26.2976488 122.558968,27.7856488 L122.558968,27.7856488 Z M127.910968,31.8176488 C127.910968,33.3056488 126.950968,34.6496488 125.270968,34.6496488 C123.758968,34.6496488 122.534968,33.3056488 122.534968,31.8176488 C122.534968,30.3296488 123.758968,28.9856488 125.270968,28.9856488 C126.950968,28.9856488 127.910968,30.3296488 127.910968,31.8176488 L127.910968,31.8176488 Z M139.982968,25.9856488 C138.830968,25.9856488 137.654968,26.7056488 137.030968,28.7936488 L137.030968,27.5696488 C137.030968,26.7296488 136.262968,26.0816488 135.350968,26.0816488 C134.462968,26.0816488 133.694968,26.7536488 133.670968,27.5696488 L133.670968,36.0416488 C133.694968,36.8576488 134.462968,37.5296488 135.350968,37.5296488 C136.262968,37.5296488 137.030968,36.8816488 137.030968,36.0416488 L137.030968,33.2816488 C137.078968,30.4736488 137.702968,29.0336488 139.574968,29.0336488 C139.790968,29.0336488 140.150968,29.0576488 140.390968,29.0576488 C141.134968,29.0576488 141.926968,28.6736488 142.046968,27.8336488 C142.262968,26.2496488 141.086968,25.9856488 139.982968,25.9856488 L139.982968,25.9856488 Z M146.174968,30.8096488 C146.462968,29.3936488 147.422968,28.7696488 148.670968,28.7696488 C149.918968,28.7696488 150.854968,29.4416488 151.022968,30.8096488 L146.174968,30.8096488 Z M152.942968,34.3856488 C152.462968,33.8336488 151.598968,33.6896488 150.830968,34.2176488 C150.134968,34.6976488 149.558968,34.7456488 148.886968,34.7456488 C147.710968,34.7456488 146.294968,34.1936488 146.126968,32.8976488 L153.350968,32.8976488 C153.878968,32.8976488 154.382968,32.4656488 154.382968,31.8656488 C154.382968,28.3376488 151.838968,25.9856488 148.646968,25.9856488 C145.430968,25.9856488 142.790968,28.2416488 142.790968,31.7696488 C142.790968,35.2976488 145.430968,37.6256488 148.646968,37.6256488 C149.966968,37.6256488 151.382968,37.3616488 152.510968,36.6176488 C153.326968,36.1376488 153.566968,35.1056488 152.942968,34.3856488 L152.942968,34.3856488 Z M164.678968,27.7856488 C163.718968,26.2976488 162.038968,25.9856488 161.318968,25.9856488 C158.462968,25.9856488 155.870968,28.0736488 155.870968,31.7936488 C155.870968,35.5136488 158.462968,37.6256488 161.318968,37.6256488 C162.590968,37.6256488 163.958968,37.0016488 164.678968,35.8256488 L164.678968,36.0416488 C164.702968,36.8576488 165.470968,37.5296488 166.358968,37.5296488 C167.270968,37.5296488 168.038968,36.8816488 168.038968,36.0416488 L168.038968,27.5696488 C168.038968,26.7296488 167.270968,26.0816488 166.358968,26.0816488 C165.470968,26.0816488 164.702968,26.7536488 164.678968,27.5696488 L164.678968,27.7856488 L164.678968,27.7856488 Z M159.326968,31.8176488 C159.326968,30.3296488 160.286968,28.9856488 161.966968,28.9856488 C163.478968,28.9856488 164.702968,30.3296488 164.702968,31.8176488 C164.702968,33.3056488 163.478968,34.6496488 161.966968,34.6496488 C160.286968,34.6496488 159.326968,33.3056488 159.326968,31.8176488 L159.326968,31.8176488 Z M178.046968,37.0496488 C178.526968,37.6256488 179.654968,37.6976488 180.254968,37.1936488 C180.926968,36.6896488 180.974968,35.6816488 180.350968,35.0096488 L176.654968,31.1456488 L179.270968,28.6016488 C179.846968,27.9296488 179.678968,26.9696488 179.054968,26.4656488 C178.406968,25.9376488 177.422968,26.0576488 176.894968,26.6576488 L174.278968,29.2976488 L174.278968,21.4736488 C174.278968,20.6336488 173.510968,19.9856488 172.598968,19.9856488 C171.710968,19.9856488 170.942968,20.6576488 170.918968,21.4736488 L170.918968,36.0416488 C170.942968,36.8576488 171.710968,37.5296488 172.598968,37.5296488 C173.510968,37.5296488 174.278968,36.8816488 174.278968,36.0416488 L174.278968,32.9936488 L178.046968,37.0496488 Z"/>
        </g>
      </g>
    </g>
  </g>
</svg>
