<svg xmlns="http://www.w3.org/2000/svg" width="428" height="777" viewBox="0 0 428 777" xmlns:xlink="http://www.w3.org/1999/xlink">
  <defs>
    <rect id="c" width="388" height="737" rx="26"/>
    <filter id="b" width="200%" height="200%" x="-50%" y="-50%" filterUnits="objectBoundingBox">
      <feOffset dy="2" in="SourceAlpha" result="shadowOffsetOuter1"/>
      <feGaussianBlur stdDeviation="3" in="shadowOffsetOuter1" result="shadowBlurOuter1"/>
      <feColorMatrix values="0 0 0 0 0 0 0 0 0 0.0823529412 0 0 0 0 0.250980392 0 0 0 0.14 0" in="shadowBlurOuter1" result="shadowMatrixOuter1"/>
      <feOffset dy="10" in="SourceAlpha" result="shadowOffsetOuter2"/>
      <feGaussianBlur stdDeviation="10" in="shadowOffsetOuter2" result="shadowBlurOuter2"/>
      <feColorMatrix values="0 0 0 0 0 0 0 0 0 0.0823529412 0 0 0 0 0.250980392 0 0 0 0.05 0" in="shadowBlurOuter2" result="shadowMatrixOuter2"/>
      <feMerge>
        <feMergeNode in="shadowMatrixOuter1"/>
        <feMergeNode in="shadowMatrixOuter2"/>
      </feMerge>
    </filter>
    <filter id="d" width="200%" height="200%" x="-50%" y="-50%" filterUnits="objectBoundingBox">
      <feMorphology radius="1" in="SourceAlpha" result="shadowSpreadInner1"/>
      <feGaussianBlur stdDeviation="3.5" in="shadowSpreadInner1" result="shadowBlurInner1"/>
      <feOffset dy="4" in="shadowBlurInner1" result="shadowOffsetInner1"/>
      <feComposite in="shadowOffsetInner1" in2="SourceAlpha" operator="arithmetic" k2="-1" k3="1" result="shadowInnerInner1"/>
      <feColorMatrix values="0 0 0 0 1 0 0 0 0 1 0 0 0 0 1 0 0 0 0.5 0" in="shadowInnerInner1" result="shadowMatrixInner1"/>
      <feGaussianBlur stdDeviation="10" in="SourceAlpha" result="shadowBlurInner2"/>
      <feOffset dy="-5" in="shadowBlurInner2" result="shadowOffsetInner2"/>
      <feComposite in="shadowOffsetInner2" in2="SourceAlpha" operator="arithmetic" k2="-1" k3="1" result="shadowInnerInner2"/>
      <feColorMatrix values="0 0 0 0 0.678431373 0 0 0 0 0.729411765 0 0 0 0 0.8 0 0 0 0.25 0" in="shadowInnerInner2" result="shadowMatrixInner2"/>
      <feMerge>
        <feMergeNode in="shadowMatrixInner1"/>
        <feMergeNode in="shadowMatrixInner2"/>
      </feMerge>
    </filter>
    <rect id="e" width="363" height="607" rx="5"/>
    <rect id="h" width="362.994" height="60" y="19"/>
    <filter id="g" width="200%" height="200%" x="-50%" y="-50%" filterUnits="objectBoundingBox">
      <feOffset dy="1" in="SourceAlpha" result="shadowOffsetOuter1"/>
      <feGaussianBlur stdDeviation="2" in="shadowOffsetOuter1" result="shadowBlurOuter1"/>
      <feColorMatrix values="0 0 0 0 0 0 0 0 0 0 0 0 0 0 0 0 0 0 0.114130435 0" in="shadowBlurOuter1"/>
    </filter>
    <filter id="i" width="200%" height="200%" x="-50%" y="-50%" filterUnits="objectBoundingBox">
      <feOffset dy="3" in="SourceAlpha" result="shadowOffsetOuter1"/>
      <feGaussianBlur stdDeviation="5" in="shadowOffsetOuter1" result="shadowBlurOuter1"/>
      <feColorMatrix values="0 0 0 0 0 0 0 0 0 0 0 0 0 0 0 0 0 0 0.129444067 0" in="shadowBlurOuter1" result="shadowMatrixOuter1"/>
      <feMerge>
        <feMergeNode in="shadowMatrixOuter1"/>
        <feMergeNode in="SourceGraphic"/>
      </feMerge>
    </filter>
    <rect id="a" width="247.478" height="61.034" rx="3.591"/>
    <mask id="j" width="247.478" height="61.034" x="0" y="0" fill="white">
      <use xlink:href="#a"/>
    </mask>
  </defs>
  <g fill="none" fill-rule="evenodd" transform="translate(20 10)">
    <use fill="black" filter="url(#b)" xlink:href="#c"/>
    <use fill="#FFFFFF" xlink:href="#c"/>
    <use fill="black" filter="url(#d)" xlink:href="#c"/>
    <g transform="translate(12 64)">
      <mask id="f" fill="white">
        <use xlink:href="#e"/>
      </mask>
      <use fill="#FAF7EE" xlink:href="#e"/>
      <g mask="url(#f)">
        <use fill="black" filter="url(#g)" xlink:href="#h"/>
        <use fill="#F2BECE" xlink:href="#h"/>
        <g transform="translate(30.25 24)">
          <g transform="translate(119.486 3)">
            <rect width="67.294" height="49.591" fill="#FAF8EE" opacity=".01"/>
            <path fill="#FAF7EE" d="M33.2744936,34.4366197 C36.1463983,34.4366197 38.6182521,33.4092435 40.6901299,31.354462 C42.7620038,29.2996759 43.7979249,26.8482133 43.7979249,24 C43.7979249,21.1517867 42.7620038,18.7003241 40.6901299,16.645538 C38.6182521,14.5907558 36.1463983,13.5633803 33.2744936,13.5633803 C30.4025888,13.5633803 27.930735,14.5907558 25.8588572,16.645538 C23.7869841,18.7003241 22.7510622,21.1517867 22.7510622,24 C22.7510622,26.8482133 23.7869841,29.2996759 25.8588572,31.354462 C27.930735,33.4092435 30.4025888,34.4366197 33.2744936,34.4366197 L33.2744936,34.4366197 Z M33.2744936,11 C36.8848886,11 39.9721439,12.2715069 42.5363459,14.814552 C45.1005441,17.3576011 46.3826274,20.4193884 46.3826274,24 C46.3826274,27.5806116 45.1005441,30.6423989 42.5363459,33.185446 C39.9721439,35.7284946 36.8848886,37 33.2744936,37 C29.6640985,37 26.5768432,35.7284946 24.0126431,33.185446 C21.4484415,30.6423989 20.1663597,27.5806116 20.1663597,24 C20.1663597,20.4193884 21.4484415,17.3576011 24.0126431,14.814552 C26.5768432,12.2715069 29.6640985,11 33.2744936,11 L33.2744936,11 Z M38.8131416,18.5070423 C40.3721751,20.0532146 41.151682,21.8841849 41.151682,24 C41.151682,26.1158151 40.3926912,27.9467854 38.8746822,29.4929577 C37.3566731,31.0391301 35.5104768,31.8122066 33.3360341,31.8122066 C31.1615914,31.8122066 29.2948789,31.0391301 27.7358455,29.4929577 L33.2744936,24 L33.2744936,16.1877934 C35.4079079,16.1877934 37.2541082,16.9608699 38.8131416,18.5070423 L38.8131416,18.5070423 Z"/>
          </g>
          <g transform="translate(0 3)">
            <rect width="67.294" height="49.591" fill="#FAF8EE" opacity=".01"/>
            <g transform="translate(22.183 10)">
              <rect width="26.476" height="26.449"/>
              <path fill="#FAF7EE" d="M8.56670944,19.1532661 L19.6056907,8.20534939 L17.8808499,6.43771701 L8.56670944,15.6750217 L4.19711268,11.3414714 L2.47227185,13.0520833 L8.56670944,19.1532661 Z M19.6056907,2.10416667 C20.2956307,2.10416667 20.8801558,2.35125385 21.3592807,2.84543186 C21.838402,3.33960987 22.0779626,3.90981021 22.0779626,4.55604384 L22.0779626,21.5481228 C22.0779626,22.1943572 21.838402,22.7645557 21.3592807,23.2587348 C20.8801558,23.7529141 20.2956307,24 19.6056907,24 L2.47227185,24 C1.78233221,24 1.19780858,23.7529141 0.718683678,23.2587348 C0.239558846,22.7645557 0,22.1943572 0,21.5481228 L0,4.55604384 C0,3.90981021 0.239558846,3.33960987 0.718683678,2.84543186 C1.19780858,2.35125385 1.78233221,2.10416667 2.47227185,2.10416667 L19.6056907,2.10416667 Z"/>
            </g>
          </g>
          <g transform="translate(245.021 3)">
            <rect width="57.434" height="49.591" x=".261" y=".201" fill="#FAF8EE" opacity=".01"/>
            <path stroke="#FAF7EE" stroke-width="2" d="M33.3694759,21.281259 L35.2562723,21.4924243 L36.3421245,29.3659614 L26.3181239,38.4701714 L26.336263,34.1292315 L21.5320715,30.3681019 L25.6415587,20.416371 L27.3001816,20.6019997 L26.9137475,11.2957667 L28.9752172,11.4855293 L30.4541235,14.7531797 L31.1333477,12.0836772 L33.2923305,12.4721924 L33.7983392,11.5248609 L36.2858959,12.8725582 L33.3694759,21.281259 Z" stroke-linecap="round" stroke-linejoin="round"/>
          </g>
          <g transform="translate(300.47 .212)">
            <rect width="10.966" height="21.82" x="6.397" y="16.062"/>
            <path fill="#FAF7EE" d="M16.9213535,23.335401 C17.9265643,23.335401 18.7490094,22.5171467 18.7490094,21.517058 C18.7490094,20.5169694 17.9265643,19.6987151 16.9213535,19.6987151 C15.9161427,19.6987151 15.0936976,20.5169694 15.0936976,21.517058 C15.0936976,22.5171467 15.9161427,23.335401 16.9213535,23.335401 L16.9213535,23.335401 Z M16.9213535,25.1537439 C15.9161427,25.1537439 15.0936976,25.9719982 15.0936976,26.9720868 C15.0936976,27.9721755 15.9161427,28.7904298 16.9213535,28.7904298 C17.9265643,28.7904298 18.7490094,27.9721755 18.7490094,26.9720868 C18.7490094,25.9719982 17.9265643,25.1537439 16.9213535,25.1537439 L16.9213535,25.1537439 Z M16.9213535,30.6087727 C15.9161427,30.6087727 15.0936976,31.427027 15.0936976,32.4271156 C15.0936976,33.4272043 15.9161427,34.2454586 16.9213535,34.2454586 C17.9265643,34.2454586 18.7490094,33.4272043 18.7490094,32.4271156 C18.7490094,31.427027 17.9265643,30.6087727 16.9213535,30.6087727 L16.9213535,30.6087727 Z"/>
            <rect width="25.283" height="54.55" fill="#FAF8EE" opacity=".01"/>
          </g>
        </g>
        <rect width="362.994" height="24" fill="#ED9DBB"/>
        <g transform="translate(244.013)">
          <rect width="118.982" height="24"/>
          <path fill="#FFFFFF" d="M4.74224553,11 L3.07418824,11 L3.07418824,3.00878906 L0.613459087,3.84277344 L0.613459087,2.44140625 L4.52856877,1.01269531 L4.74224553,1.01269531 L4.74224553,11 Z M14.9780517,11 L8.23000169,11 L8.23000169,9.85839844 L11.4971883,6.32421875 C11.7729016,6.023436 12.0015105,5.75569779 12.1830218,5.52099609 C12.364533,5.2862944 12.5092804,5.07210383 12.6172681,4.87841797 C12.7252558,4.6847321 12.8010758,4.50358157 12.8447304,4.33496094 C12.8883851,4.1663403 12.910212,3.9977222 12.910212,3.82910156 C12.910212,3.60123584 12.8768972,3.39046321 12.8102665,3.19677734 C12.7436357,3.00309148 12.6471375,2.83561269 12.5207689,2.69433594 C12.3944003,2.55305919 12.2393139,2.44254597 12.055505,2.36279297 C11.8716961,2.28303997 11.6603191,2.24316406 11.4213675,2.24316406 C11.1318685,2.24316406 10.8802839,2.28873652 10.666606,2.37988281 C10.4529282,2.4710291 10.2760148,2.59749268 10.1358605,2.75927734 C9.99570627,2.92106201 9.89001774,3.11474497 9.8187918,3.34033203 C9.74756586,3.5659191 9.71195342,3.8131497 9.71195342,4.08203125 L8.03700333,4.08203125 C8.03700333,3.64452906 8.11167457,3.2332376 8.26101928,2.84814453 C8.410364,2.46305146 8.62978257,2.12695456 8.91928156,1.83984375 C9.20878056,1.55273294 9.56490493,1.32600995 9.98766537,1.15966797 C10.4104258,0.993325991 10.8929169,0.91015625 11.4351531,0.91015625 C11.9360323,0.91015625 12.3817622,0.975097007 12.7723561,1.10498047 C13.1629499,1.23486393 13.4926522,1.41829309 13.7614727,1.65527344 C14.0302932,1.89225379 14.2347775,2.1804996 14.3749318,2.52001953 C14.515086,2.85953946 14.5851621,3.23665157 14.5851621,3.65136719 C14.5851621,3.96126457 14.5346154,4.26773937 14.4335206,4.57080078 C14.3324257,4.87386219 14.1922735,5.17577975 14.0130598,5.4765625 C13.8338462,5.77734525 13.6201715,6.07926281 13.3720295,6.38232422 C13.1238876,6.68538563 12.8527735,6.98958181 12.5586793,7.29492188 L10.3185197,9.67382813 L14.9780517,9.67382813 L14.9780517,11 Z M16.3979682,10.1728516 C16.3979682,9.90852732 16.4829785,9.6886402 16.6530017,9.51318359 C16.823025,9.33772699 17.0619729,9.25 17.3698528,9.25 C17.6823279,9.25 17.9235735,9.33772699 18.0935967,9.51318359 C18.2636199,9.6886402 18.3486302,9.90852732 18.3486302,10.1728516 C18.3486302,10.4326185 18.2636199,10.6479484 18.0935967,10.8188477 C17.9235735,10.9897469 17.6823279,11.0751953 17.3698528,11.0751953 C17.2182105,11.0751953 17.0815047,11.0524091 16.9597313,11.0068359 C16.8379579,10.9612628 16.7357157,10.8974613 16.6530017,10.8154297 C16.5702877,10.733398 16.5071044,10.6376959 16.4634498,10.5283203 C16.4197952,10.4189448 16.3979682,10.3004564 16.3979682,10.1728516 L16.3979682,10.1728516 Z M16.3979682,4.36914062 C16.3979682,4.10481639 16.4829785,3.88492926 16.6530017,3.70947266 C16.823025,3.53401605 17.0619729,3.44628906 17.3698528,3.44628906 C17.6823279,3.44628906 17.9235735,3.53401605 18.0935967,3.70947266 C18.2636199,3.88492926 18.3486302,4.10481639 18.3486302,4.36914062 C18.3486302,4.62890755 18.2636199,4.84423743 18.0935967,5.01513672 C17.9235735,5.18603601 17.6823279,5.27148438 17.3698528,5.27148438 C17.2182105,5.27148438 17.0815047,5.24869814 16.9597313,5.203125 C16.8379579,5.15755186 16.7357157,5.09375041 16.6530017,5.01171875 C16.5702877,4.92968709 16.5071044,4.83398492 16.4634498,4.72460938 C16.4197952,4.61523383 16.3979682,4.49674543 16.3979682,4.36914062 L16.3979682,4.36914062 Z M21.9328856,5.26464844 L22.9254486,5.26464844 C23.2149476,5.26464844 23.4653834,5.22705116 23.6767637,5.15185547 C23.8881439,5.07665978 24.0650573,4.97298243 24.2075092,4.84082031 C24.349961,4.70865819 24.4556496,4.54915458 24.5245779,4.36230469 C24.5935062,4.17545479 24.6279699,3.9681001 24.6279699,3.74023438 C24.6279699,3.26627367 24.502752,2.89827605 24.2523124,2.63623047 C24.0018727,2.37418489 23.6193262,2.24316406 23.1046614,2.24316406 C22.8840907,2.24316406 22.6796064,2.2762041 22.4912023,2.34228516 C22.3027982,2.40836622 22.1396702,2.50178976 22.0018136,2.62255859 C21.8639569,2.74332743 21.7559708,2.8891593 21.677852,3.06005859 C21.5997332,3.23095789 21.5606744,3.42350153 21.5606744,3.63769531 L19.8857244,3.63769531 C19.8857244,3.24576627 19.9649907,2.88346521 20.1235259,2.55078125 C20.2820611,2.21809729 20.5026284,1.92985148 20.7852346,1.68603516 C21.0678407,1.44221883 21.4055845,1.25195381 21.798476,1.11523438 C22.1913675,0.978514941 22.6198655,0.91015625 23.083983,0.91015625 C23.5618861,0.91015625 23.9984256,0.970539761 24.3936147,1.09130859 C24.7888038,1.21207743 25.1276964,1.39094934 25.4103025,1.62792969 C25.6929087,1.86491004 25.9123273,2.15999172 26.0685648,2.51318359 C26.2248024,2.86637546 26.30292,3.2753883 26.30292,3.74023438 C26.30292,3.94075621 26.2707539,4.14355366 26.2064208,4.34863281 C26.1420877,4.55371196 26.0455895,4.75081286 25.9169232,4.93994141 C25.788257,5.12906996 25.6274267,5.30680255 25.4344273,5.47314453 C25.241428,5.63948651 25.0162655,5.77962183 24.7589331,5.89355469 C25.0668129,5.99837292 25.3275879,6.13167237 25.5412657,6.29345703 C25.7549435,6.45524169 25.9284106,6.63753154 26.061672,6.84033203 C26.1949335,7.04313252 26.2925805,7.26074103 26.354616,7.49316406 C26.4166515,7.7255871 26.4476687,7.96484252 26.4476687,8.2109375 C26.4476687,8.67578357 26.3626584,9.09049297 26.1926352,9.45507813 C26.022612,9.81966328 25.7871104,10.1261381 25.4861233,10.3745117 C25.1851363,10.6228854 24.8290119,10.8120111 24.4177395,10.9418945 C24.0064671,11.071778 23.5618861,11.1367188 23.083983,11.1367188 C22.6474369,11.1367188 22.2304267,11.0774746 21.83294,10.9589844 C21.4354533,10.8404942 21.0850728,10.6639009 20.7817882,10.4291992 C20.4785035,10.1944975 20.237258,9.90169446 20.0580443,9.55078125 C19.8788307,9.19986804 19.7892252,8.79427313 19.7892252,8.33398438 L21.4641753,8.33398438 C21.4641753,8.55273547 21.5032341,8.7532543 21.5813528,8.93554688 C21.6594716,9.11783945 21.7697553,9.27392513 21.9122072,9.40380859 C22.0546591,9.53369206 22.2269773,9.63395147 22.4291671,9.70458984 C22.6313569,9.77522822 22.8565194,9.81054688 23.1046614,9.81054688 C23.6239215,9.81054688 24.0328901,9.67382949 24.3315795,9.40039063 C24.630269,9.12695176 24.7796115,8.73047135 24.7796115,8.2109375 C24.7796115,7.928384 24.7359575,7.68457134 24.6486483,7.47949219 C24.5613391,7.27441304 24.4372699,7.10465562 24.2764371,6.97021484 C24.1156044,6.83577407 23.9214591,6.73665396 23.6939957,6.67285156 C23.4665322,6.60904916 23.2103524,6.57714844 22.9254486,6.57714844 L21.9328856,6.57714844 L21.9328856,5.26464844 Z M34.5604929,6.80957031 C34.5604929,7.59798571 34.4823753,8.26676158 34.3261377,8.81591797 C34.1699002,9.36507436 33.9493328,9.81168448 33.664429,10.1557617 C33.3795253,10.499839 33.0360376,10.7493482 32.6339556,10.9042969 C32.2318737,11.0592456 31.7826975,11.1367188 31.2864135,11.1367188 C30.7947247,11.1367188 30.3466973,11.0592456 29.9423177,10.9042969 C29.5379382,10.7493482 29.1910041,10.499839 28.9015051,10.1557617 C28.6120061,9.81168448 28.3879924,9.36507436 28.2294572,8.81591797 C28.0709221,8.26676158 27.9916557,7.59798571 27.9916557,6.80957031 L27.9916557,5.203125 C27.9916557,4.4147096 28.0697733,3.74707305 28.2260108,3.20019531 C28.3822484,2.65331758 28.6039645,2.2101254 28.8911659,1.87060547 C29.1783673,1.53108554 29.5241526,1.28613356 29.9285321,1.13574219 C30.3329117,0.985350811 30.7809391,0.91015625 31.2726279,0.91015625 C31.7689119,0.91015625 32.2192369,0.985350811 32.6236164,1.13574219 C33.027996,1.28613356 33.3737812,1.53108554 33.6609826,1.87060547 C33.948184,2.2101254 34.1699002,2.65331758 34.3261377,3.20019531 C34.4823753,3.74707305 34.5604929,4.4147096 34.5604929,5.203125 L34.5604929,6.80957031 Z M32.8855428,4.95019531 C32.8855428,4.44433341 32.8499303,4.01937021 32.7787044,3.67529297 C32.7074784,3.33121573 32.6029387,3.05322372 32.465082,2.84130859 C32.3272254,2.62939347 32.1583535,2.47672573 31.9584613,2.38330078 C31.7585692,2.28987583 31.5299603,2.24316406 31.2726279,2.24316406 C31.0152954,2.24316406 30.7866866,2.28987583 30.5867944,2.38330078 C30.3869022,2.47672573 30.2180303,2.62939347 30.0801737,2.84130859 C29.942317,3.05322372 29.8377773,3.33121573 29.7665513,3.67529297 C29.6953254,4.01937021 29.659713,4.44433341 29.659713,4.95019531 L29.659713,7.04882813 C29.659713,7.55013271 29.6964742,7.97623522 29.7699977,8.32714844 C29.8435213,8.67806165 29.9492098,8.96288953 30.0870665,9.18164063 C30.2249231,9.40039172 30.3949438,9.55989533 30.5971336,9.66015625 C30.7993234,9.76041717 31.029081,9.81054688 31.2864135,9.81054688 C31.5483411,9.81054688 31.7780988,9.76041717 31.9756933,9.66015625 C32.1732879,9.55989533 32.3398622,9.40039172 32.4754212,9.18164063 C32.6109803,8.96288953 32.7132225,8.67806165 32.7821508,8.32714844 C32.8510791,7.97623522 32.8855428,7.55013271 32.8855428,7.04882813 L32.8855428,4.95019531 Z" opacity=".9" transform="translate(75.624 6)"/>
          <g transform="translate(55.457 4)">
            <polygon points="0 0 16.133 0 16.133 16 0 16"/>
            <polygon fill="#FFFFFF" points="9.075 1.875 9.075 1 6.05 1 6.05 1.875 3.025 1.875 3.025 15 12.1 15 12.1 1.875"/>
          </g>
          <g transform="translate(35.291 4)">
            <polygon points="0 0 16.133 0 16.133 16 0 16"/>
            <polygon fill="#FFFFFF" points="0 15 14.116 15 14.116 1"/>
          </g>
          <g transform="translate(14.116 4)">
            <polygon points="2.017 0 18.15 0 18.15 16 2.017 16"/>
            <path fill="#FFFFFF" d="M19.1808579,4.01593123 C16.6491257,2.12256382 13.4983376,1 10.0831799,1 C6.6680221,1 3.51723404,2.12256382 0.985501853,4.01593123 L10.0831799,15 L19.1808579,4.01593123 Z"/>
          </g>
        </g>
        <g transform="translate(102 540)">
          <rect width="155" height="32" fill="#FAF8EE"/>
          <path fill="#EFC8D2" d="M3.91876193,2.28 C4.58304764,2.28 4.92122946,2.928 4.92122946,3.444 C4.92122946,3.984 4.5588918,4.608 3.87045024,4.608 L2.31239829,4.608 L2.31239829,2.28 L3.91876193,2.28 Z M0.549021669,8.244 C0.549021669,8.676 0.971748942,9.06 1.43070998,9.06 C1.91382686,9.06 2.31239829,8.688 2.31239829,8.244 L2.31239829,6.144 L3.9549957,6.144 C5.85122946,6.144 6.69668401,4.812 6.69668401,3.444 C6.69668401,2.088 5.85122946,0.732 3.9549957,0.732 L1.39447621,0.732 C0.863047643,0.732 0.561099591,1.14 0.549021669,1.632 L0.549021669,8.244 Z M12.3773334,7.044 L12.9449957,8.556 C13.1020087,8.964 13.6092814,9.156 14.0561645,9.012 C14.4909697,8.868 14.7325282,8.328 14.5875931,7.92 L12.1840866,1.488 C11.9908399,0.984 11.6043464,0.672 10.9883723,0.672 L10.9159048,0.672 C10.2999308,0.672 9.91343726,0.984 9.72019051,1.488 L7.31668401,7.92 C7.17174895,8.328 7.41330739,8.868 7.84811258,9.012 C8.2949957,9.156 8.80226843,8.964 8.95928142,8.556 L9.52694375,7.044 L12.3773334,7.044 Z M10.106684,5.52 L10.9521386,2.64 L11.7975931,5.52 L10.106684,5.52 Z M19.2416191,9.108 C20.956684,9.108 22.4785022,7.908 22.4785022,6.036 L22.4785022,1.488 C22.4664243,1.056 22.0557749,0.672 21.5968139,0.672 C21.113697,0.672 20.7151256,1.044 20.7151256,1.488 L20.7151256,6.036 C20.7151256,6.888 19.9904503,7.452 19.2657749,7.452 C18.5169438,7.452 17.7922684,6.888 17.7922684,6.036 L17.7922684,1.488 C17.7922684,1.044 17.393697,0.672 16.9105801,0.672 C16.4516191,0.672 16.0409697,1.056 16.0288918,1.488 L16.0288918,6.036 C16.0288918,7.908 17.55071,9.108 19.2657749,9.108 L19.2416191,9.108 Z M24.366684,7.332 C24.7290217,8.4 25.7918788,9.108 27.2653853,9.108 C28.7388918,9.108 30.2365542,8.328 30.26071,6.684 C30.2848658,5.892 29.9949957,4.764 27.9779827,4.188 L26.9875931,3.9 C26.1783723,3.672 26.0938269,3.276 26.0938269,3.06 C26.0938269,2.568 26.5527879,2.208 27.1687619,2.208 C27.5431775,2.208 28.0021386,2.34 28.3523983,2.784 C28.6422684,3.144 29.0287619,3.264 29.4635671,2.988 C29.7655152,2.796 29.9346061,2.412 29.7292814,2.016 C29.2823983,1.152 28.3886321,0.636 27.1929178,0.636 C25.5986321,0.636 24.3304503,1.632 24.3304503,3.108 C24.3304503,3.852 24.6444762,4.896 26.4803204,5.46 L27.4827879,5.736 C28.3282425,5.976 28.4973334,6.3 28.4852555,6.672 C28.4731775,7.212 27.9779827,7.548 27.2653853,7.548 C26.5165542,7.548 26.1059048,7.14 25.924736,6.768 C25.7556451,6.42 25.3087619,6.168 24.837723,6.348 C24.4270736,6.504 24.2338269,6.912 24.366684,7.332 L24.366684,7.332 Z M32.7286321,0.732 C32.281749,0.732 32.0401905,1.068 32.0281126,1.476 L32.0281126,8.256 C32.0401905,8.664 32.281749,9 32.7286321,9 L36.6781126,9 C37.0646061,9 37.4027879,8.628 37.4027879,8.232 C37.4027879,7.812 37.076684,7.464 36.6781126,7.464 L33.7914892,7.464 L33.7914892,5.688 L36.1949957,5.688 C36.5814892,5.688 36.919671,5.328 36.919671,4.932 C36.919671,4.512 36.5935671,4.176 36.1949957,4.176 L33.7914892,4.176 L33.7914892,2.28 L36.5694113,2.28 C36.9559048,2.28 37.2940866,1.908 37.2940866,1.512 C37.2940866,1.08 36.9679827,0.732 36.5694113,0.732 L32.7286321,0.732 Z M47.0973334,2.28 C47.471749,2.28 47.8220087,1.908 47.8220087,1.512 C47.8220087,1.08 47.4959048,0.732 47.0973334,0.732 L42.1453853,0.732 C41.7468139,0.732 41.42071,1.08 41.42071,1.512 C41.42071,1.908 41.7709698,2.28 42.1453853,2.28 L43.7396711,2.28 L43.7396711,8.244 C43.7396711,8.676 44.1623983,9.06 44.6213594,9.06 C45.1044763,9.06 45.5030477,8.688 45.5030477,8.244 L45.5030477,2.28 L47.0973334,2.28 Z M51.0870737,1.488 C51.0870737,1.044 50.6885022,0.672 50.2053853,0.672 C49.7464243,0.672 49.335775,1.056 49.323697,1.488 L49.323697,8.244 C49.323697,8.676 49.7464243,9.06 50.2053853,9.06 C50.6885022,9.06 51.0870737,8.688 51.0870737,8.244 L51.0870737,1.488 Z M57.9755152,6.06 L55.68071,1.2 C55.4753854,0.744 55.221749,0.672 54.8835672,0.672 L54.7023983,0.672 C54.291749,0.672 53.9656451,1.044 53.9173334,1.452 L53.0839568,8.184 C53.0235672,8.604 53.4342165,9.024 53.8931776,9.06 C54.3642165,9.096 54.7869438,8.76 54.8352555,8.316 L55.3425282,4.044 L57.0092815,7.44 C57.1662944,7.776 57.4561646,8.172 57.9755152,8.172 C58.4948659,8.172 58.7968139,7.776 58.9538269,7.44 L60.6085022,4.044 L61.115775,8.316 C61.1640867,8.76 61.5868139,9.096 62.0578529,9.06 C62.5168139,9.024 62.9153854,8.604 62.8670737,8.184 L62.033697,1.452 C61.9853854,1.044 61.6592815,0.672 61.2486321,0.672 L61.0674633,0.672 C60.7292815,0.672 60.487723,0.744 60.2703204,1.2 L57.9755152,6.06 Z M65.5765542,0.732 C65.1296711,0.732 64.8881126,1.068 64.8760347,1.476 L64.8760347,8.256 C64.8881126,8.664 65.1296711,9 65.5765542,9 L69.5260347,9 C69.9125282,9 70.25071,8.628 70.25071,8.232 C70.25071,7.812 69.9246061,7.464 69.5260347,7.464 L66.6394113,7.464 L66.6394113,5.688 L69.0429178,5.688 C69.4294113,5.688 69.7675932,5.328 69.7675932,4.932 C69.7675932,4.512 69.4414893,4.176 69.0429178,4.176 L66.6394113,4.176 L66.6394113,2.28 L69.4173334,2.28 C69.8038269,2.28 70.1420087,1.908 70.1420087,1.512 C70.1420087,1.08 69.8159048,0.732 69.4173334,0.732 L65.5765542,0.732 Z M75.4723984,2.28 C76.1366841,2.28 76.4748659,2.928 76.4748659,3.444 C76.4748659,3.984 76.1125282,4.608 75.4240867,4.608 L73.8418789,4.608 L73.8418789,2.28 L75.4723984,2.28 Z M78.2382425,3.396 C78.2140867,2.052 77.3323984,0.732 75.4723984,0.732 L72.9239568,0.732 C72.3925282,0.732 72.0905802,1.14 72.0785022,1.632 L72.0785022,8.244 C72.0785022,8.676 72.5012295,9.06 72.9601906,9.06 C73.4433074,9.06 73.8418789,8.688 73.8418789,8.244 L73.8418789,6.084 L74.6510997,6.084 L76.2453854,8.7 C76.4748659,9.06 77.0062945,9.168 77.392788,8.94 C77.8034373,8.7 77.9604503,8.16 77.7188919,7.8 L76.3661646,5.868 C77.5981126,5.508 78.2020087,4.476 78.2382425,3.396 L78.2382425,3.396 Z" transform="translate(37.917 11.227)"/>
        </g>
        <g transform="translate(37 127)">
          <ellipse cx="143" cy="142" stroke="#FFFFFF" stroke-width="16" rx="143" ry="142"/>
          <path fill="#ED9DBB" d="M91.6770473,198.636424 C91.6770473,201.156297 92.6920947,203.228192 94.3274488,204.796113 C91.1131322,206.64402 89.0266459,210.00385 89.0266459,214.035647 C89.0266459,221.035293 95.3424961,226.299028 103.068134,226.299028 C110.793772,226.299028 117.109623,221.035293 117.109623,214.035647 C117.109623,210.059847 115.023136,206.64402 111.80882,204.796113 C113.500565,203.284189 114.515613,201.212294 114.515613,198.636424 C114.515613,192.98071 109.327593,188.388941 103.068134,188.388941 C96.8086756,188.388941 91.6770473,192.98071 91.6770473,198.636424 L91.6770473,198.636424 Z M96.9214587,213.643666 C96.9214587,210.843808 99.0079449,208.155943 103.011743,208.155943 C107.128324,208.155943 109.21481,210.843808 109.21481,213.643666 C109.21481,216.723511 106.338842,219.019395 103.068134,219.019395 C99.7974261,219.019395 96.9214587,216.723511 96.9214587,213.643666 L96.9214587,213.643666 Z M99.2899025,198.860413 C99.2899025,197.068503 100.643299,195.444585 103.068134,195.444585 C105.49297,195.444585 106.846366,197.068503 106.846366,198.860413 C106.846366,200.708319 105.605753,202.388235 103.068134,202.388235 C100.530516,202.388235 99.2899025,200.708319 99.2899025,198.860413 L99.2899025,198.860413 Z M123.256298,221.595265 C123.256298,224.339127 125.455567,226.299028 128.105969,226.299028 C130.75637,226.299028 132.95564,224.339127 132.95564,221.595265 C132.95564,218.907401 130.75637,216.9475 128.105969,216.9475 C125.455567,216.9475 123.256298,218.907401 123.256298,221.595265 L123.256298,221.595265 Z M123.256298,203.844161 C123.256298,206.532025 125.455567,208.491927 128.105969,208.491927 C130.75637,208.491927 132.95564,206.532025 132.95564,203.844161 C132.95564,201.1003 130.75637,199.140399 128.105969,199.140399 C125.455567,199.140399 123.256298,201.1003 123.256298,203.844161 L123.256298,203.844161 Z M146.658779,210.507825 L153.651327,199.364387 L153.651327,210.507825 L146.658779,210.507825 Z M138.707575,211.79576 C138.200051,212.635717 137.636136,213.419678 137.636136,214.595618 C137.636136,216.107542 138.820358,217.115491 140.455712,217.115491 L153.651327,217.115491 L153.651327,222.435223 C153.651327,224.339127 155.568639,226.075039 157.598734,226.075039 C159.798003,226.075039 161.602531,224.395124 161.602531,222.435223 L161.602531,217.115491 L163.914584,217.115491 C165.549938,217.115491 167.016117,215.491573 167.016117,213.811658 C167.016117,212.019748 165.606329,210.507825 163.914584,210.507825 L161.602531,210.507825 L161.602531,193.204698 C161.602531,190.516834 159.459654,188.388941 156.527295,188.388941 C154.046068,188.388941 152.805454,189.508885 151.621233,191.356792 L138.707575,211.79576 Z M172.034963,207.42798 C172.034963,217.899452 175.080105,226.299028 185.850885,226.299028 C196.621665,226.299028 199.554024,217.899452 199.554024,207.42798 C199.554024,196.844514 196.621665,188.388941 185.850885,188.388941 C175.080105,188.388941 172.034963,196.844514 172.034963,207.42798 L172.034963,207.42798 Z M179.929775,207.42798 C179.929775,201.212294 181.339563,196.004557 185.850885,196.004557 C190.305815,196.004557 191.659211,201.212294 191.659211,207.42798 C191.659211,213.587669 190.305815,218.683412 185.850885,218.683412 C181.339563,218.683412 179.929775,213.587669 179.929775,207.42798 L179.929775,207.42798 Z"/>
          <path fill="#F2BECE" d="M103.757398,239.904735 L101.453229,235.027562 C101.247066,234.569951 100.992395,234.497696 100.652833,234.497696 L100.470925,234.497696 C100.0586,234.497696 99.731165,234.871011 99.6826561,235.280452 L98.8458787,242.03624 C98.7852427,242.457724 99.1975678,242.879208 99.6584017,242.915336 C100.131363,242.951463 100.555815,242.614276 100.604324,242.168707 L101.113667,237.881611 L102.787222,241.289611 C102.944875,241.626799 103.235928,242.024198 103.757398,242.024198 C104.278868,242.024198 104.582048,241.626799 104.739702,241.289611 L106.40113,237.881611 L106.910472,242.168707 C106.958981,242.614276 107.383434,242.951463 107.856395,242.915336 C108.317229,242.879208 108.717426,242.457724 108.668918,242.03624 L107.83214,235.280452 C107.783631,234.871011 107.456197,234.497696 107.043872,234.497696 L106.861964,234.497696 C106.522402,234.497696 106.279858,234.569951 106.061568,235.027562 L103.757398,239.904735 Z M112.617768,235.31658 C112.617768,234.871011 112.21757,234.497696 111.732481,234.497696 C111.271648,234.497696 110.859322,234.883053 110.847195,235.31658 L110.847195,242.096452 C110.847195,242.529979 111.271648,242.915336 111.732481,242.915336 C112.21757,242.915336 112.617768,242.542021 112.617768,242.096452 L112.617768,235.31658 Z M121.320484,235.31658 C121.320484,234.871011 120.920286,234.497696 120.435197,234.497696 C119.974363,234.497696 119.549911,234.883053 119.549911,235.31658 L119.549911,239.519378 L117.015325,235.111859 C116.736399,234.61812 116.408964,234.497696 116.033021,234.497696 L115.875367,234.497696 C115.438787,234.497696 115.062844,234.895095 115.062844,235.400876 L115.062844,242.096452 C115.062844,242.529979 115.487296,242.915336 115.94813,242.915336 C116.433219,242.915336 116.833416,242.542021 116.833416,242.096452 L116.833416,237.833442 L119.428639,242.313216 C119.707565,242.794912 120.010745,242.915336 120.374561,242.915336 L120.532215,242.915336 C120.956667,242.915336 121.320484,242.529979 121.320484,242.03624 L121.320484,235.31658 Z M126.942888,242.963505 C128.664952,242.963505 130.19298,241.759265 130.19298,239.88065 L130.19298,235.31658 C130.180853,234.883053 129.768528,234.497696 129.307694,234.497696 C128.822606,234.497696 128.422408,234.871011 128.422408,235.31658 L128.422408,239.88065 C128.422408,240.735661 127.694775,241.301654 126.967143,241.301654 C126.215256,241.301654 125.487623,240.735661 125.487623,239.88065 L125.487623,235.31658 C125.487623,234.871011 125.087426,234.497696 124.602337,234.497696 C124.141503,234.497696 123.729178,234.883053 123.717051,235.31658 L123.717051,239.88065 C123.717051,241.759265 125.245079,242.963505 126.967143,242.963505 L126.942888,242.963505 Z M137.525322,236.111378 C137.901265,236.111378 138.252954,235.738064 138.252954,235.340664 C138.252954,234.907138 137.925519,234.557908 137.525322,234.557908 L132.553166,234.557908 C132.152968,234.557908 131.825534,234.907138 131.825534,235.340664 C131.825534,235.738064 132.177223,236.111378 132.553166,236.111378 L134.153958,236.111378 L134.153958,242.096452 C134.153958,242.529979 134.57841,242.915336 135.039244,242.915336 C135.524332,242.915336 135.92453,242.542021 135.92453,242.096452 L135.92453,236.111378 L137.525322,236.111378 Z M140.649521,234.557908 C140.200815,234.557908 139.958271,234.895095 139.946143,235.304537 L139.946143,242.108495 C139.958271,242.517936 140.200815,242.855124 140.649521,242.855124 L144.615119,242.855124 C145.003189,242.855124 145.342751,242.481809 145.342751,242.08441 C145.342751,241.662926 145.015317,241.313696 144.615119,241.313696 L141.716716,241.313696 L141.716716,239.53142 L144.13003,239.53142 C144.518101,239.53142 144.857663,239.170148 144.857663,238.772749 C144.857663,238.351265 144.530228,238.014078 144.13003,238.014078 L141.716716,238.014078 L141.716716,236.111378 L144.505974,236.111378 C144.894044,236.111378 145.233606,235.738064 145.233606,235.340664 C145.233606,234.907138 144.906172,234.557908 144.505974,234.557908 L140.649521,234.557908 Z M146.95105,241.18123 C147.314866,242.253004 148.382061,242.963505 149.86158,242.963505 C151.341099,242.963505 152.844873,242.180749 152.869128,240.53094 C152.893382,239.736141 152.602329,238.604155 150.577085,238.02612 L149.582654,237.737102 C148.770131,237.508297 148.685241,237.110898 148.685241,236.894134 C148.685241,236.400396 149.146075,236.039124 149.764562,236.039124 C150.140506,236.039124 150.60134,236.17159 150.953029,236.617159 C151.244082,236.978431 151.632152,237.098855 152.068732,236.82188 C152.371912,236.629201 152.541693,236.243845 152.335531,235.846445 C151.886824,234.979392 150.98941,234.461569 149.788817,234.461569 C148.188025,234.461569 146.914668,235.461088 146.914668,236.942304 C146.914668,237.688933 147.229976,238.736622 149.073312,239.302615 L150.07987,239.57959 C150.928774,239.820438 151.098555,240.145583 151.086428,240.518898 C151.074301,241.060806 150.577085,241.397993 149.86158,241.397993 C149.109693,241.397993 148.697368,240.988551 148.51546,240.615237 C148.345679,240.266007 147.896972,240.013117 147.424011,240.193753 C147.011686,240.350304 146.817651,240.759746 146.95105,241.18123 L146.95105,241.18123 Z M160.099832,235.31658 C160.099832,234.871011 159.699634,234.497696 159.214545,234.497696 C158.753711,234.497696 158.341386,234.883053 158.329259,235.31658 L158.329259,242.108495 C158.329259,242.517936 158.58393,242.855124 159.032637,242.855124 L162.513146,242.855124 C162.901217,242.843081 163.240778,242.481809 163.240778,242.08441 C163.240778,241.662926 162.913344,241.313696 162.513146,241.313696 L160.099832,241.313696 L160.099832,235.31658 Z M165.625219,234.557908 C165.176512,234.557908 164.933968,234.895095 164.921841,235.304537 L164.921841,242.108495 C164.933968,242.517936 165.176512,242.855124 165.625219,242.855124 L169.590816,242.855124 C169.978887,242.855124 170.318448,242.481809 170.318448,242.08441 C170.318448,241.662926 169.991014,241.313696 169.590816,241.313696 L166.692413,241.313696 L166.692413,239.53142 L169.105728,239.53142 C169.493798,239.53142 169.83336,239.170148 169.83336,238.772749 C169.83336,238.351265 169.505925,238.014078 169.105728,238.014078 L166.692413,238.014078 L166.692413,236.111378 L169.481671,236.111378 C169.869742,236.111378 170.209304,235.738064 170.209304,235.340664 C170.209304,234.907138 169.881869,234.557908 169.481671,234.557908 L165.625219,234.557908 Z M173.04245,234.557908 C172.593744,234.557908 172.3512,234.895095 172.339072,235.304537 L172.339072,242.096452 C172.339072,242.529979 172.763525,242.915336 173.224359,242.915336 C173.709447,242.915336 174.109645,242.542021 174.109645,242.096452 L174.109645,239.53142 L176.17127,239.53142 C176.559341,239.53142 176.898903,239.170148 176.898903,238.772749 C176.898903,238.351265 176.571468,238.014078 176.17127,238.014078 L174.109645,238.014078 L174.109645,236.111378 L176.886776,236.111378 C177.274846,236.099336 177.614408,235.738064 177.614408,235.340664 C177.614408,234.907138 177.286973,234.557908 176.886776,234.557908 L173.04245,234.557908 Z M184.352516,236.111378 C184.72846,236.111378 185.080149,235.738064 185.080149,235.340664 C185.080149,234.907138 184.752714,234.557908 184.352516,234.557908 L179.380361,234.557908 C178.980163,234.557908 178.652728,234.907138 178.652728,235.340664 C178.652728,235.738064 179.004417,236.111378 179.380361,236.111378 L180.981152,236.111378 L180.981152,242.096452 C180.981152,242.529979 181.405604,242.915336 181.866438,242.915336 C182.351527,242.915336 182.751725,242.542021 182.751725,242.096452 L182.751725,236.111378 L184.352516,236.111378 Z"/>
        </g>
        <g transform="translate(154 176)">
          <polygon fill="#D1E882" stroke="#D1E882" stroke-width="2.919" points="18.68 .039 20.282 44.197 39.426 44.025 50.875 6.239 42.33 .94 40.592 4.665 33.175 3.137 28.479 21.247 25.762 .785" stroke-linejoin="round"/>
          <polygon fill="#ED9DBB" stroke="#ED9DBB" stroke-width="2.919" points="0 75.042 16.503 89.831 16.441 106.9 50.875 71.101 47.145 40.141 14.117 35.91" stroke-linejoin="round"/>
          <path stroke="#FAF8EE" stroke-width="2.484" d="M16.0117745,73.5043478 C20.336321,78.0012751 27.1933968,78.6214382 31.3425112,74.8908215" stroke-linecap="round"/>
        </g>
        <path stroke="#ED9DBB" stroke-width="16" d="M271.536079,378 C302.410296,351.876748 322,312.925377 322,269.417233 C322,190.762367 257.976719,127 179,127" stroke-linecap="round" stroke-linejoin="round"/>
        <g filter="url(#i)" transform="translate(55 473)">
          <use fill="#ED9DBB" stroke="#ED9DBB" stroke-width="3.8" mask="url(#j)" xlink:href="#a"/>
          <path fill="#FFFFFF" d="M66.5274803,26.2016488 C65.8500169,26.2016488 65.3177242,26.8016488 65.3177242,27.5216488 C65.3177242,28.2176488 65.8500169,28.8176488 66.5274803,28.8416488 L67.4468949,28.8416488 L67.4468949,36.0416488 C67.47109,36.8576488 68.245334,37.5296488 69.1405535,37.5296488 C70.0599681,37.5296488 70.834212,36.8816488 70.834212,36.0416488 L70.834212,28.8416488 L72.1165535,28.8416488 C72.7940169,28.8176488 73.3263096,28.2176488 73.3263096,27.5216488 C73.3263096,26.8016488 72.7940169,26.2016488 72.1165535,26.2016488 L70.834212,26.2016488 L70.834212,23.2736488 C70.834212,22.4336488 70.0599681,21.7856488 69.1405535,21.7856488 C68.245334,21.7856488 67.47109,22.4576488 67.4468949,23.2736488 L67.4468949,26.2016488 L66.5274803,26.2016488 Z M83.1495291,27.7856488 C82.1817242,26.2976488 80.4880657,25.9856488 79.762212,25.9856488 C76.8829925,25.9856488 74.2699193,28.0736488 74.2699193,31.7936488 C74.2699193,35.5136488 76.8829925,37.6256488 79.762212,37.6256488 C81.0445535,37.6256488 82.4236754,37.0016488 83.1495291,35.8256488 L83.1495291,36.0416488 C83.1737242,36.8576488 83.9479681,37.5296488 84.8431876,37.5296488 C85.7626022,37.5296488 86.5368461,36.8816488 86.5368461,36.0416488 L86.5368461,27.5696488 C86.5368461,26.7296488 85.7626022,26.0816488 84.8431876,26.0816488 C83.9479681,26.0816488 83.1737242,26.7536488 83.1495291,27.5696488 L83.1495291,27.7856488 L83.1495291,27.7856488 Z M77.7540169,31.8176488 C77.7540169,30.3296488 78.7218218,28.9856488 80.4154803,28.9856488 C81.939773,28.9856488 83.1737242,30.3296488 83.1737242,31.8176488 C83.1737242,33.3056488 81.939773,34.6496488 80.4154803,34.6496488 C78.7218218,34.6496488 77.7540169,33.3056488 77.7540169,31.8176488 L77.7540169,31.8176488 Z M96.626212,37.0496488 C97.1101144,37.6256488 98.2472852,37.6976488 98.8521632,37.1936488 C99.5296266,36.6896488 99.5780169,35.6816488 98.9489437,35.0096488 L95.2228949,31.1456488 L97.8601632,28.6016488 C98.4408461,27.9296488 98.2714803,26.9696488 97.6424071,26.4656488 C96.9891388,25.9376488 95.9971388,26.0576488 95.4648461,26.6576488 L92.8275779,29.2976488 L92.8275779,21.4736488 C92.8275779,20.6336488 92.053334,19.9856488 91.1339193,19.9856488 C90.2386998,19.9856488 89.4644559,20.6576488 89.4402608,21.4736488 L89.4402608,36.0416488 C89.4644559,36.8576488 90.2386998,37.5296488 91.1339193,37.5296488 C92.053334,37.5296488 92.8275779,36.8816488 92.8275779,36.0416488 L92.8275779,32.9936488 L96.626212,37.0496488 Z M103.957334,30.8096488 C104.247675,29.3936488 105.21548,28.7696488 106.473627,28.7696488 C107.731773,28.7696488 108.675383,29.4416488 108.844749,30.8096488 L103.957334,30.8096488 Z M110.780358,34.3856488 C110.296456,33.8336488 109.425432,33.6896488 108.651188,34.2176488 C107.949529,34.6976488 107.368846,34.7456488 106.691383,34.7456488 C105.505822,34.7456488 104.07831,34.1936488 103.908944,32.8976488 L111.191675,32.8976488 C111.723968,32.8976488 112.232066,32.4656488 112.232066,31.8656488 C112.232066,28.3376488 109.667383,25.9856488 106.449432,25.9856488 C103.207285,25.9856488 100.545822,28.2416488 100.545822,31.7696488 C100.545822,35.2976488 103.207285,37.6256488 106.449432,37.6256488 C107.780163,37.6256488 109.207675,37.3616488 110.344846,36.6176488 C111.16748,36.1376488 111.409432,35.1056488 110.780358,34.3856488 L110.780358,34.3856488 Z M123.555383,27.7856488 L123.555383,21.4736488 C123.531188,20.6576488 122.756944,19.9856488 121.861724,19.9856488 C120.94231,19.9856488 120.168066,20.6336488 120.168066,21.4736488 L120.168066,36.0416488 C120.168066,36.8816488 120.94231,37.5296488 121.861724,37.5296488 C122.756944,37.5296488 123.531188,36.8576488 123.555383,36.0416488 L123.555383,35.8256488 C124.281236,37.0016488 125.660358,37.6256488 126.9427,37.6256488 C129.821919,37.6256488 132.434992,35.5136488 132.434992,31.7936488 C132.434992,28.0736488 129.821919,25.9856488 126.9427,25.9856488 C126.216846,25.9856488 124.523188,26.2976488 123.555383,27.7856488 L123.555383,27.7856488 Z M128.950895,31.8176488 C128.950895,33.3056488 127.98309,34.6496488 126.289432,34.6496488 C124.765139,34.6496488 123.531188,33.3056488 123.531188,31.8176488 C123.531188,30.3296488 124.765139,28.9856488 126.289432,28.9856488 C127.98309,28.9856488 128.950895,30.3296488 128.950895,31.8176488 L128.950895,31.8176488 Z M141.121041,25.9856488 C139.959675,25.9856488 138.774114,26.7056488 138.145041,28.7936488 L138.145041,27.5696488 C138.145041,26.7296488 137.370797,26.0816488 136.451383,26.0816488 C135.556163,26.0816488 134.781919,26.7536488 134.757724,27.5696488 L134.757724,36.0416488 C134.781919,36.8576488 135.556163,37.5296488 136.451383,37.5296488 C137.370797,37.5296488 138.145041,36.8816488 138.145041,36.0416488 L138.145041,33.2816488 C138.193432,30.4736488 138.822505,29.0336488 140.709724,29.0336488 C140.92748,29.0336488 141.290407,29.0576488 141.532358,29.0576488 C142.282407,29.0576488 143.080846,28.6736488 143.201822,27.8336488 C143.419578,26.2496488 142.234017,25.9856488 141.121041,25.9856488 L141.121041,25.9856488 Z M147.363383,30.8096488 C147.653724,29.3936488 148.621529,28.7696488 149.879675,28.7696488 C151.137822,28.7696488 152.081432,29.4416488 152.250797,30.8096488 L147.363383,30.8096488 Z M154.186407,34.3856488 C153.702505,33.8336488 152.83148,33.6896488 152.057236,34.2176488 C151.355578,34.6976488 150.774895,34.7456488 150.097432,34.7456488 C148.911871,34.7456488 147.484358,34.1936488 147.314992,32.8976488 L154.597724,32.8976488 C155.130017,32.8976488 155.638114,32.4656488 155.638114,31.8656488 C155.638114,28.3376488 153.073432,25.9856488 149.85548,25.9856488 C146.613334,25.9856488 143.951871,28.2416488 143.951871,31.7696488 C143.951871,35.2976488 146.613334,37.6256488 149.85548,37.6256488 C151.186212,37.6256488 152.613724,37.3616488 153.750895,36.6176488 C154.573529,36.1376488 154.81548,35.1056488 154.186407,34.3856488 L154.186407,34.3856488 Z M166.017822,27.7856488 C165.050017,26.2976488 163.356358,25.9856488 162.630505,25.9856488 C159.751285,25.9856488 157.138212,28.0736488 157.138212,31.7936488 C157.138212,35.5136488 159.751285,37.6256488 162.630505,37.6256488 C163.912846,37.6256488 165.291968,37.0016488 166.017822,35.8256488 L166.017822,36.0416488 C166.042017,36.8576488 166.816261,37.5296488 167.71148,37.5296488 C168.630895,37.5296488 169.405139,36.8816488 169.405139,36.0416488 L169.405139,27.5696488 C169.405139,26.7296488 168.630895,26.0816488 167.71148,26.0816488 C166.816261,26.0816488 166.042017,26.7536488 166.017822,27.5696488 L166.017822,27.7856488 L166.017822,27.7856488 Z M160.62231,31.8176488 C160.62231,30.3296488 161.590114,28.9856488 163.283773,28.9856488 C164.808066,28.9856488 166.042017,30.3296488 166.042017,31.8176488 C166.042017,33.3056488 164.808066,34.6496488 163.283773,34.6496488 C161.590114,34.6496488 160.62231,33.3056488 160.62231,31.8176488 L160.62231,31.8176488 Z M179.494505,37.0496488 C179.978407,37.6256488 181.115578,37.6976488 181.720456,37.1936488 C182.397919,36.6896488 182.44631,35.6816488 181.817236,35.0096488 L178.091188,31.1456488 L180.728456,28.6016488 C181.309139,27.9296488 181.139773,26.9696488 180.5107,26.4656488 C179.857432,25.9376488 178.865432,26.0576488 178.333139,26.6576488 L175.695871,29.2976488 L175.695871,21.4736488 C175.695871,20.6336488 174.921627,19.9856488 174.002212,19.9856488 C173.106992,19.9856488 172.332749,20.6576488 172.308553,21.4736488 L172.308553,36.0416488 C172.332749,36.8576488 173.106992,37.5296488 174.002212,37.5296488 C174.921627,37.5296488 175.695871,36.8816488 175.695871,36.0416488 L175.695871,32.9936488 L179.494505,37.0496488 Z"/>
        </g>
      </g>
    </g>
  </g>
</svg>
