<svg xmlns="http://www.w3.org/2000/svg" width="121" height="31" viewBox="0 0 121 31">
  <g fill="#FFFFFF" fill-rule="evenodd">
    <path d="M4.80065238,4.91210938 C5.27526413,4.91210938 5.73082598,4.97656186 6.1673516,5.10546875 C6.60387722,5.23437564 7.01842386,5.43798689 7.41100395,5.71630859 C7.80358404,5.9946303 8.1390299,6.33447065 8.4173516,6.73583984 C8.69567331,7.13720904 8.90367904,7.63525093 9.04137504,8.22998047 C9.17907104,8.82471 9.21862143,9.47655896 9.16002738,10.1855469 L2.58580863,10.1855469 C2.71471553,10.8183625 3.00328686,11.2885727 3.45153129,11.5961914 C3.89977572,11.9038101 4.39928244,12.0576172 4.95006645,12.0576172 C5.17858321,12.0576172 5.39391309,12.0312503 5.59606254,11.9785156 C5.79821199,11.925781 5.96373768,11.8627933 6.09264457,11.7895508 C6.22155147,11.7163082 6.33287848,11.6430668 6.42662895,11.5698242 C6.52037942,11.4965817 6.58776155,11.433594 6.62877738,11.3808594 L6.69030082,11.3017578 L8.95787895,11.3017578 C8.6238929,12.1806685 8.08776545,12.8647436 7.34948051,13.3540039 C6.61119557,13.8432642 5.78796161,14.0878906 4.87975395,14.0878906 C4.07115615,14.0878906 3.32116365,13.8974628 2.62975395,13.5166016 C1.93834424,13.1357403 1.38024435,12.5864294 0.955437541,11.8686523 C0.530630729,11.1508753 0.31823051,10.3378952 0.31823051,9.4296875 C0.31823051,8.7499966 0.439811325,8.12451458 0.682976604,7.55322266 C0.926141882,6.98193074 1.2542636,6.50586128 1.6673516,6.125 C2.08043961,5.74413872 2.55797389,5.44677841 3.09996879,5.23291016 C3.64196369,5.0190419 4.20885255,4.91210938 4.80065238,4.91210938 L4.80065238,4.91210938 Z M4.87975395,6.87207031 C4.38756399,6.87207031 3.95250974,7.00390493 3.57457817,7.26757812 C3.19664659,7.53125132 2.91686423,7.89745859 2.7352227,8.36621094 L6.78698051,8.36621094 C6.52916672,7.37011221 5.89343089,6.87207031 4.87975395,6.87207031 L4.87975395,6.87207031 Z M17.9141346,14 L16.0772206,10.9589844 L15.8223377,10.9589844 L13.9766346,14 L11.3838612,14 L14.3545643,9.37695312 L11.5596424,5 L14.0996815,5 L15.8487049,7.69824219 L16.0596424,7.69824219 L17.7910877,5 L20.3223377,5 L17.5362049,9.37695312 L20.5069081,14 L17.9141346,14 Z M28.2590622,4.91210938 C28.8274244,4.91210938 29.3664815,5.02490122 29.8762497,5.25048828 C30.3860178,5.47607535 30.8313259,5.78661912 31.2121872,6.18212891 C31.5930485,6.5776387 31.8948032,7.06396196 32.1174606,7.64111328 C32.340118,8.2182646 32.451445,8.83788731 32.451445,9.5 C32.451445,10.1621127 32.340118,10.7817354 32.1174606,11.3588867 C31.8948032,11.936038 31.5930485,12.4223613 31.2121872,12.8178711 C30.8313259,13.2133809 30.3860178,13.5239247 29.8762497,13.7495117 C29.3664815,13.9750988 28.8274244,14.0878906 28.2590622,14.0878906 C27.2805417,14.0878906 26.5041822,13.7656282 25.9299606,13.1210938 L25.9299606,17.6035156 L23.6799606,17.6035156 L23.6799606,5 L25.4465622,5 L25.701445,5.86132812 L25.9651169,5.86132812 C26.5334791,5.22851246 27.2981199,4.91210938 28.2590622,4.91210938 L28.2590622,4.91210938 Z M27.9162887,11.8730469 C28.5080886,11.8730469 29.0207788,11.6650411 29.4543747,11.2490234 C29.8879706,10.8330057 30.1047653,10.2500037 30.1047653,9.5 C30.1047653,8.74999625 29.8879706,8.16699427 29.4543747,7.75097656 C29.0207788,7.33495886 28.5080886,7.12695312 27.9162887,7.12695312 C27.3244889,7.12695312 26.8454898,7.33788852 26.479277,7.75976562 C26.1130642,8.18164273 25.9299606,8.76171506 25.9299606,9.5 C25.9299606,10.2382849 26.1130642,10.8183573 26.479277,11.2402344 C26.8454898,11.6621115 27.3244889,11.8730469 27.9162887,11.8730469 L27.9162887,11.8730469 Z M40.0717632,4.91210938 C40.5463749,4.91210938 41.0019368,4.97656186 41.4384624,5.10546875 C41.874988,5.23437564 42.2895346,5.43798689 42.6821147,5.71630859 C43.0746948,5.9946303 43.4101407,6.33447065 43.6884624,6.73583984 C43.9667841,7.13720904 44.1747898,7.63525093 44.3124858,8.22998047 C44.4501818,8.82471 44.4897322,9.47655896 44.4311382,10.1855469 L37.8569194,10.1855469 C37.9858263,10.8183625 38.2743976,11.2885727 38.7226421,11.5961914 C39.1708865,11.9038101 39.6703932,12.0576172 40.2211772,12.0576172 C40.449694,12.0576172 40.6650239,12.0312503 40.8671733,11.9785156 C41.0693228,11.925781 41.2348485,11.8627933 41.3637553,11.7895508 C41.4926622,11.7163082 41.6039893,11.6430668 41.6977397,11.5698242 C41.7914902,11.4965817 41.8588723,11.433594 41.8998882,11.3808594 L41.9614116,11.3017578 L44.2289897,11.3017578 C43.8950037,12.1806685 43.3588762,12.8647436 42.6205913,13.3540039 C41.8823063,13.8432642 41.0590724,14.0878906 40.1508647,14.0878906 C39.3422669,14.0878906 38.5922744,13.8974628 37.9008647,13.5166016 C37.209455,13.1357403 36.6513551,12.5864294 36.2265483,11.8686523 C35.8017415,11.1508753 35.5893413,10.3378952 35.5893413,9.4296875 C35.5893413,8.7499966 35.7109221,8.12451458 35.9540874,7.55322266 C36.1972527,6.98193074 36.5253744,6.50586128 36.9384624,6.125 C37.3515504,5.74413872 37.8290847,5.44677841 38.3710796,5.23291016 C38.9130745,5.0190419 39.4799633,4.91210938 40.0717632,4.91210938 L40.0717632,4.91210938 Z M40.1508647,6.87207031 C39.6586748,6.87207031 39.2236205,7.00390493 38.8456889,7.26757812 C38.4677574,7.53125132 38.187975,7.89745859 38.0063335,8.36621094 L42.0580913,8.36621094 C41.8002775,7.37011221 41.1645417,6.87207031 40.1508647,6.87207031 L40.1508647,6.87207031 Z M53.0797766,4.91210938 L53.6422766,4.91210938 L53.6422766,7.21484375 C53.4079005,7.16796852 53.1442312,7.14453125 52.851261,7.14453125 C52.5231344,7.14453125 52.2111258,7.18847612 51.9152259,7.27636719 C51.6193259,7.36425825 51.3468677,7.49609287 51.0978431,7.671875 C50.8488184,7.84765713 50.6496016,8.0878891 50.5001868,8.39257812 C50.350772,8.69726715 50.2760657,9.04882613 50.2760657,9.44726562 L50.2760657,14 L47.8766516,14 L47.8766516,5 L49.7135657,5 L50.038761,5.99316406 L50.3288001,5.99316406 C51.0495068,5.27245733 51.9664898,4.91210938 53.0797766,4.91210938 L53.0797766,4.91210938 Z M58.2479464,3.98925781 C57.8260693,3.98925781 57.4627917,3.83838042 57.1581026,3.53662109 C56.8534136,3.23486177 56.7010714,2.88183796 56.7010714,2.47753906 C56.7010714,2.04980255 56.8519488,1.68798976 57.1537081,1.39208984 C57.4554674,1.09618993 57.8202099,0.948242188 58.2479464,0.948242188 C58.6639641,0.948242188 59.0213824,1.09618993 59.320212,1.39208984 C59.6190416,1.68798976 59.7684542,2.04980255 59.7684542,2.47753906 C59.7684542,2.88183796 59.6175768,3.23486177 59.3158175,3.53662109 C59.0140582,3.83838042 58.6581047,3.98925781 58.2479464,3.98925781 L58.2479464,3.98925781 Z M59.4081026,5 L59.4081026,14 L57.0965792,14 L57.0965792,5 L59.4081026,5 Z M73.5762724,4.89453125 C74.7071374,4.88867185 75.5567383,5.26513292 76.1251005,6.02392578 C76.6934627,6.78271864 76.9776396,7.81542315 76.9776396,9.12207031 L76.9776396,14 L74.5870146,14 L74.5870146,9.65820312 C74.5870146,8.90233997 74.5665069,8.40722773 74.5254911,8.17285156 C74.408303,7.46386364 74.0596737,7.07128944 73.4795927,6.99511719 C73.3506858,6.98339838 73.2100622,6.98339838 73.0577177,6.99511719 C72.9346702,7.006836 72.8204135,7.02587877 72.7149442,7.05224609 C72.609475,7.07861341 72.471781,7.14746038 72.3018583,7.25878906 C72.1319356,7.37011774 71.9883823,7.51806548 71.8711942,7.70263672 C71.7540062,7.88720795 71.6514681,8.15820134 71.5635771,8.515625 C71.475686,8.87304866 71.4317411,9.29198979 71.4317411,9.77246094 L71.4317411,14 L69.0586942,14 L69.0586942,9.65820312 C69.0586942,8.90233997 69.0381866,8.40722773 68.9971708,8.17285156 C68.8799827,7.46386364 68.5313534,7.07128944 67.9512724,6.99511719 C67.8223655,6.98339838 67.6817419,6.98339838 67.5293974,6.99511719 C66.451267,7.08300825 65.9122099,8.00878024 65.9122099,9.77246094 L65.9122099,14 L63.5303739,14 L63.5303739,5 L65.367288,5 L65.6397489,5.97558594 L65.929788,5.97558594 C66.1407265,5.69433453 66.4307627,5.44824324 66.7999052,5.23730469 C67.1690477,5.02636613 67.6055667,4.91796878 68.1094755,4.91210938 C69.1114336,4.89453116 69.9317379,5.30761297 70.570413,6.15136719 L70.8428739,6.15136719 C71.510846,5.32519118 72.4219697,4.90625006 73.5762724,4.89453125 L73.5762724,4.89453125 Z M84.9055749,4.91210938 C85.3801867,4.91210938 85.8357485,4.97656186 86.2722741,5.10546875 C86.7087998,5.23437564 87.1233464,5.43798689 87.5159265,5.71630859 C87.9085066,5.9946303 88.2439524,6.33447065 88.5222741,6.73583984 C88.8005958,7.13720904 89.0086016,7.63525093 89.1462976,8.22998047 C89.2839936,8.82471 89.323544,9.47655896 89.2649499,10.1855469 L82.6907312,10.1855469 C82.8196381,10.8183625 83.1082094,11.2885727 83.5564538,11.5961914 C84.0046983,11.9038101 84.504205,12.0576172 85.054989,12.0576172 C85.2835057,12.0576172 85.4988356,12.0312503 85.7009851,11.9785156 C85.9031345,11.925781 86.0686602,11.8627933 86.1975671,11.7895508 C86.326474,11.7163082 86.437801,11.6430668 86.5315515,11.5698242 C86.6253019,11.4965817 86.6926841,11.433594 86.7336999,11.3808594 L86.7952234,11.3017578 L89.0628015,11.3017578 C88.7288154,12.1806685 88.192688,12.8647436 87.454403,13.3540039 C86.7161181,13.8432642 85.8928841,14.0878906 84.9846765,14.0878906 C84.1760787,14.0878906 83.4260862,13.8974628 82.7346765,13.5166016 C82.0432668,13.1357403 81.4851669,12.5864294 81.0603601,11.8686523 C80.6355533,11.1508753 80.423153,10.3378952 80.423153,9.4296875 C80.423153,8.7499966 80.5447339,8.12451458 80.7878991,7.55322266 C81.0310644,6.98193074 81.3591861,6.50586128 81.7722741,6.125 C82.1853621,5.74413872 82.6628964,5.44677841 83.2048913,5.23291016 C83.7468862,5.0190419 84.3137751,4.91210938 84.9055749,4.91210938 L84.9055749,4.91210938 Z M84.9846765,6.87207031 C84.4924865,6.87207031 84.0574323,7.00390493 83.6795007,7.26757812 C83.3015691,7.53125132 83.0217868,7.89745859 82.8401452,8.36621094 L86.891903,8.36621094 C86.6340893,7.37011221 85.9983534,6.87207031 84.9846765,6.87207031 L84.9846765,6.87207031 Z M97.8960103,4.91210938 C99.0210159,4.91210938 99.8779409,5.29150011 100.466811,6.05029297 C101.055681,6.80908583 101.350112,7.83300137 101.350112,9.12207031 L101.350112,14 L98.9594868,14 L98.9594868,9.65820312 C98.9594868,9.65234372 98.9609517,9.59668021 98.9638814,9.49121094 C98.9668111,9.38574166 98.9682759,9.29052777 98.9682759,9.20556641 C98.9682759,9.12060504 98.9638814,9.00341872 98.9550923,8.85400391 C98.9463032,8.7045891 98.9272604,8.56835999 98.8979634,8.4453125 C98.8686664,8.32226501 98.8320457,8.18750073 98.7881001,8.04101562 C98.7441546,7.89453052 98.6840966,7.76562556 98.6079243,7.65429688 C98.5317521,7.54296819 98.4423975,7.43603567 98.3398579,7.33349609 C98.2373184,7.23095652 98.1098782,7.15185575 97.9575337,7.09619141 C97.8051892,7.04052707 97.635269,7.006836 97.4477681,6.99511719 C97.2602672,6.98339838 97.0698394,6.99658184 96.876479,7.03466797 C96.6831187,7.0727541 96.4765778,7.1533197 96.2568501,7.27636719 C96.0371225,7.39941468 95.843765,7.56054588 95.676772,7.75976562 C95.509779,7.95898537 95.3706202,8.23144358 95.2592915,8.57714844 C95.1479628,8.92285329 95.0922993,9.32128681 95.0922993,9.77246094 L95.0922993,14 L92.7104634,14 L92.7104634,5 L94.5473775,5 L94.8549947,6.09863281 L95.1626118,6.09863281 C95.8305839,5.30761323 96.7417076,4.91210938 97.8960103,4.91210938 L97.8960103,4.91210938 Z M110.420625,11.7324219 L111.290743,13.3320312 C111.267305,13.3496095 111.236543,13.3759764 111.198457,13.4111328 C111.160371,13.4462892 111.072481,13.5078121 110.934785,13.5957031 C110.797089,13.6835942 110.652071,13.7597653 110.499727,13.8242188 C110.347382,13.8886722 110.148166,13.9487302 109.902071,14.0043945 C109.655976,14.0600589 109.404025,14.0878906 109.146211,14.0878906 C108.249722,14.0878906 107.488011,13.8110379 106.861055,13.2573242 C106.234099,12.7036105 105.920625,11.9843794 105.920625,11.0996094 L105.920625,6.92480469 L104.118868,6.92480469 L104.118868,5.15820312 L105.024141,5.15820312 C105.334689,5.15820312 105.58371,5.06298923 105.771211,4.87255859 C105.958712,4.68212795 106.052461,4.42578286 106.052461,4.10351562 L106.052461,2.30175781 L108.22336,2.30175781 L108.22336,5 L110.490938,5 L110.490938,6.92480469 L108.22336,6.92480469 L108.22336,10.9589844 C108.22336,11.2636734 108.333222,11.5200185 108.55295,11.7280273 C108.772677,11.9360362 109.0466,12.0400391 109.374727,12.0400391 C109.532931,12.0400391 109.699921,12.015137 109.875703,11.965332 C110.051486,11.9155271 110.18625,11.8642581 110.28,11.8115234 L110.420625,11.7324219 Z M118.744069,7.64550781 C118.697193,7.43456926 118.574148,7.24414147 118.374928,7.07421875 C118.175708,6.90429603 117.873953,6.81933594 117.469654,6.81933594 C117.11809,6.81933594 116.850026,6.89257739 116.665455,7.0390625 C116.480884,7.18554761 116.3886,7.36425676 116.3886,7.57519531 C116.3886,7.72168042 116.429615,7.84912055 116.511647,7.95751953 C116.593678,8.06591851 116.713794,8.15380826 116.871998,8.22119141 C117.030202,8.28857456 117.167896,8.33837875 117.285084,8.37060547 C117.402272,8.40283219 117.551685,8.43652326 117.733326,8.47167969 C118.043875,8.53613313 118.310474,8.59912079 118.533131,8.66064453 C118.755788,8.72216828 119.00188,8.80419871 119.271412,8.90673828 C119.540945,9.00927786 119.767993,9.12646418 119.952565,9.25830078 C120.137136,9.39013738 120.309986,9.54687409 120.471119,9.72851562 C120.632253,9.91015716 120.753834,10.125487 120.835865,10.3745117 C120.917897,10.6235364 120.958912,10.9033188 120.958912,11.2138672 C120.958912,12.110356 120.63665,12.813474 119.992115,13.3232422 C119.347581,13.8330104 118.541925,14.0878906 117.575123,14.0878906 C116.52629,14.0878906 115.647392,13.7963896 114.938404,13.2133789 C114.229417,12.6303682 113.848561,11.8671922 113.795826,10.9238281 L116.01067,10.9238281 C116.045826,11.2519548 116.182056,11.5405261 116.419361,11.7895508 C116.656667,12.0385755 117.024339,12.1630859 117.522389,12.1630859 C117.932547,12.1630859 118.224048,12.0781258 118.396901,11.9082031 C118.569753,11.7382804 118.656178,11.536134 118.656178,11.3017578 C118.656178,11.0029282 118.546316,10.781739 118.326588,10.6381836 C118.10686,10.4946282 117.803641,10.3789067 117.41692,10.2910156 C116.590744,10.1093741 115.984305,9.92773528 115.597584,9.74609375 C114.578048,9.2656226 114.068287,8.54199702 114.068287,7.57519531 C114.068287,7.0126925 114.235278,6.52490441 114.569264,6.11181641 C114.90325,5.6987284 115.325121,5.39550878 115.834889,5.20214844 C116.344657,5.0087881 116.901292,4.91210938 117.504811,4.91210938 C118.489191,4.91210938 119.297776,5.17284896 119.930592,5.69433594 C120.563408,6.21582292 120.906178,6.86620704 120.958912,7.64550781 L118.744069,7.64550781 Z"/>
    <path d="M31.9437219,26.2421875 C31.7874711,26.815107 31.4863674,27.2594385 31.0404016,27.5751953 C30.5944358,27.8909521 30.0931388,28.0488281 29.5364954,28.0488281 C29.0775087,28.0488281 28.6543358,27.9405935 28.2669641,27.7241211 C27.8795924,27.5076487 27.5719783,27.2041035 27.3441125,26.8134766 C27.1162468,26.4228496 27.0023157,25.9882836 27.0023157,25.5097656 C27.0023157,25.0247372 27.1203158,24.5852884 27.3563196,24.1914062 C27.5923234,23.7975241 27.9064478,23.4923513 28.2987024,23.2758789 C28.690957,23.0594065 29.1198264,22.9511719 29.5853235,22.9511719 C30.1614982,22.9511719 30.6693057,23.120441 31.108761,23.4589844 C31.5482163,23.7975277 31.8362994,24.2548799 31.9730188,24.8310547 L30.6155969,24.8310547 C30.5081745,24.6227203 30.3633192,24.4591477 30.1810266,24.340332 C29.998734,24.2215163 29.7904028,24.1621094 29.5560266,24.1621094 C29.2012071,24.1621094 28.9025447,24.2882474 28.6600305,24.5405273 C28.4175163,24.7928073 28.296261,25.1126283 28.296261,25.5 C28.296261,25.8873717 28.4175163,26.2071927 28.6600305,26.4594727 C28.9025447,26.7117526 29.2012071,26.8378906 29.5560266,26.8378906 C30.0019924,26.8378906 30.3421582,26.6393249 30.5765344,26.2421875 L31.9437219,26.2421875 Z M36.2309429,28.0488281 C35.8891444,28.0488281 35.5644406,27.9894212 35.2568218,27.8706055 C34.9492031,27.7517898 34.6790235,27.5857758 34.446275,27.3725586 C34.2135264,27.1593414 34.0287952,26.8916032 33.8920757,26.5693359 C33.7553563,26.2470687 33.6869976,25.8938821 33.6869976,25.5097656 C33.6869976,25.1223939 33.7586115,24.7651384 33.9018414,24.4379883 C34.0450713,24.1108382 34.2371266,23.8406586 34.4780132,23.6274414 C34.7188999,23.4142242 34.9939622,23.2482102 35.3032086,23.1293945 C35.6124549,23.0105788 35.9347173,22.9511719 36.2700054,22.9511719 C36.7224817,22.9511719 37.1391442,23.0512685 37.5200054,23.2514648 C37.9008667,23.4516612 38.2092946,23.7478822 38.4452984,24.1401367 C38.6813022,24.5323913 38.7993023,24.9824193 38.7993023,25.4902344 C38.7993023,25.8776061 38.7285022,26.2340479 38.5869,26.5595703 C38.4452977,26.8850928 38.2564975,27.1552724 38.0204937,27.3701172 C37.7844899,27.584962 37.511869,27.7517898 37.2026226,27.8706055 C36.8933763,27.9894212 36.5694863,28.0488281 36.2309429,28.0488281 L36.2309429,28.0488281 Z M36.2700054,26.8916016 C36.641101,26.8916016 36.937322,26.7597669 37.1586773,26.4960938 C37.3800326,26.2324206 37.4907086,25.9003926 37.4907086,25.5 C37.4907086,25.0996074 37.3800326,24.7675794 37.1586773,24.5039062 C36.937322,24.2402331 36.641101,24.1083984 36.2700054,24.1083984 C35.8956546,24.1083984 35.5904819,24.2410469 35.3544781,24.5063477 C35.1184743,24.7716485 35.0004742,25.1028626 35.0004742,25.5 C35.0004742,25.8971374 35.1184743,26.2283515 35.3544781,26.4936523 C35.5904819,26.7589531 35.8956546,26.8916016 36.2700054,26.8916016 L36.2700054,26.8916016 Z M46.2847655,22.9414062 C46.9130239,22.938151 47.3850243,23.1472961 47.7007811,23.5688477 C48.0165379,23.9903992 48.1744139,24.564124 48.1744139,25.2900391 L48.1744139,28 L46.8462889,28 L46.8462889,25.5878906 C46.8462889,25.1679667 46.8348958,24.8929043 46.8121093,24.7626953 C46.7470048,24.3688131 46.5533218,24.1507164 46.2310546,24.1083984 C46.1594396,24.101888 46.0813154,24.101888 45.9966796,24.1083984 C45.9283199,24.1149089 45.8648439,24.1254882 45.8062499,24.1401367 C45.7476558,24.1547852 45.6711592,24.1930335 45.5767577,24.2548828 C45.4823562,24.3167321 45.4026044,24.3989253 45.3374999,24.5014648 C45.2723954,24.6040044 45.2154298,24.7545563 45.1666014,24.953125 C45.1177731,25.1516937 45.0933593,25.3844388 45.0933593,25.6513672 L45.0933593,28 L43.7749999,28 L43.7749999,25.5878906 C43.7749999,25.1679667 43.7636068,24.8929043 43.7408202,24.7626953 C43.6757157,24.3688131 43.4820327,24.1507164 43.1597655,24.1083984 C43.0881506,24.101888 43.0100264,24.101888 42.9253905,24.1083984 C42.3264292,24.1572268 42.026953,24.6715446 42.026953,25.6513672 L42.026953,28 L40.7037108,28 L40.7037108,23 L41.7242186,23 L41.8755858,23.5419922 L42.0367186,23.5419922 C42.1539067,23.3857414 42.3150379,23.249024 42.5201171,23.1318359 C42.7251962,23.0146479 42.9677068,22.9544271 43.2476561,22.9511719 C43.8042995,22.9414062 44.2600242,23.1708961 44.6148436,23.6396484 L44.7662108,23.6396484 C45.1373064,23.1806618 45.6434863,22.9479167 46.2847655,22.9414062 L46.2847655,22.9414062 Z M50.9186662,22.4384766 C50.68429,22.4384766 50.4824691,22.3546558 50.3131975,22.1870117 C50.1439258,22.0193677 50.0592912,21.8232433 50.0592912,21.5986328 C50.0592912,21.3610014 50.143112,21.1599943 50.3107561,20.9956055 C50.4784001,20.8312166 50.6810348,20.7490234 50.9186662,20.7490234 C51.1497872,20.7490234 51.3483529,20.8312166 51.5143693,20.9956055 C51.6803858,21.1599943 51.7633928,21.3610014 51.7633928,21.5986328 C51.7633928,21.8232433 51.679572,22.0193677 51.5119279,22.1870117 C51.3442839,22.3546558 51.1465319,22.4384766 50.9186662,22.4384766 L50.9186662,22.4384766 Z M51.5631975,23 L51.5631975,28 L50.2790178,28 L50.2790178,23 L51.5631975,23 Z M56.7342075,22.9511719 C57.3592107,22.9511719 57.8352801,23.1619445 58.1624302,23.5834961 C58.4895803,24.0050477 58.6531529,24.5738896 58.6531529,25.2900391 L58.6531529,28 L57.3250279,28 L57.3250279,25.5878906 C57.3250279,25.5846354 57.3258416,25.5537112 57.3274693,25.4951172 C57.3290969,25.4365231 57.3299107,25.3836265 57.3299107,25.3364258 C57.3299107,25.289225 57.3274693,25.2241215 57.3225864,25.1411133 C57.3177036,25.0581051 57.3071243,24.9824222 57.2908482,24.9140625 C57.274572,24.8457028 57.2542272,24.7708337 57.229813,24.6894531 C57.2053988,24.6080725 57.1720333,24.5364586 57.1297154,24.4746094 C57.0873974,24.4127601 57.037756,24.3533531 56.9807896,24.2963867 C56.9238231,24.2394203 56.8530231,24.1954754 56.7683872,24.1645508 C56.6837514,24.1336261 56.5893513,24.1149089 56.4851841,24.1083984 C56.3810169,24.101888 56.2752237,24.1092121 56.1678013,24.1303711 C56.0603789,24.1515301 55.9456339,24.1962887 55.823563,24.2646484 C55.7014921,24.3330082 55.5940713,24.4225255 55.5012974,24.5332031 C55.4085235,24.6438808 55.3312131,24.7952464 55.2693638,24.9873047 C55.2075145,25.1793629 55.1765904,25.4007149 55.1765904,25.6513672 L55.1765904,28 L53.8533482,28 L53.8533482,23 L54.873856,23 L55.0447544,23.6103516 L55.2156529,23.6103516 C55.5867485,23.1708962 56.0929283,22.9511719 56.7342075,22.9511719 L56.7342075,22.9511719 Z M63.4237723,26.8085938 C63.9478635,26.8085938 64.3531329,26.9624008 64.6395926,27.2700195 C64.9260524,27.5776383 65.0611422,27.9544249 65.0448661,28.4003906 C65.0318452,28.7617206 64.9187278,29.0693347 64.7055106,29.3232422 C64.4922934,29.5771497 64.2213,29.7618809 63.8925223,29.8774414 C63.5637446,29.9930019 63.1942822,30.0507812 62.7841239,30.0507812 C62.0224013,30.0507812 61.4340283,29.8595397 61.0189871,29.4770508 C60.603946,29.0945619 60.4550217,28.628258 60.5722098,28.078125 L61.1434989,27.6191406 C60.7886794,27.3977854 60.6112723,27.1048195 60.6112723,26.7402344 C60.6112723,26.3658835 60.817976,26.0696625 61.2313895,25.8515625 C60.8928461,25.5455714 60.723577,25.1451848 60.723577,24.6503906 C60.723577,24.1555965 60.9026117,23.7470719 61.2606864,23.4248047 C61.6187611,23.1025375 62.1054099,22.9414062 62.7206473,22.9414062 C63.1666131,22.9414062 63.5474686,23.0244132 63.8632254,23.1904297 C64.0227314,23.1155595 64.1732833,23.0244146 64.3148856,22.9169922 C64.4564879,22.8095698 64.5582121,22.7200524 64.6200614,22.6484375 L64.7128348,22.5410156 L65.332952,23.3710938 C65.1050863,23.5240893 64.8381619,23.647786 64.5321707,23.7421875 C64.724229,24.0026055 64.8202567,24.3020816 64.8202567,24.640625 C64.8202567,25.1223982 64.6208772,25.5276676 64.2221121,25.8564453 C63.8233471,26.185223 63.3130983,26.3496094 62.6913504,26.3496094 C62.4309325,26.3496094 62.1949322,26.3203128 61.9833426,26.2617188 C61.8824307,26.323568 61.8319754,26.406575 61.8319754,26.5107422 C61.8319754,26.5595706 61.841741,26.6027016 61.8612723,26.6401367 C61.8808037,26.6775718 61.910914,26.7068684 61.9516043,26.7280273 C61.9922946,26.7491863 62.0321705,26.766276 62.0712332,26.7792969 C62.1102959,26.7923178 62.1631925,26.8012695 62.2299246,26.8061523 C62.2966568,26.8110352 62.3503672,26.8134766 62.3910575,26.8134766 C62.4317478,26.8134766 62.4903409,26.8126628 62.5668387,26.8110352 C62.6433365,26.8094075 62.6946055,26.8085938 62.7206473,26.8085938 L63.4237723,26.8085938 Z M62.7743582,24.0009766 C62.4944089,24.0009766 62.2828225,24.0571283 62.1395926,24.1694336 C61.9963627,24.2817388 61.9247489,24.4355459 61.9247489,24.6308594 C61.9247489,24.8294281 61.9963627,24.9889317 62.1395926,25.109375 C62.2828225,25.2298183 62.4944089,25.2900391 62.7743582,25.2900391 C63.0510523,25.2900391 63.261825,25.2298183 63.4066825,25.109375 C63.55154,24.9889317 63.6239676,24.8294281 63.6239676,24.6308594 C63.6239676,24.4388011 63.55154,24.2858079 63.4066825,24.171875 C63.261825,24.0579421 63.0510523,24.0009766 62.7743582,24.0009766 L62.7743582,24.0009766 Z M62.8036551,28.8886719 C63.1259224,28.8886719 63.3749433,28.8414718 63.5507254,28.7470703 C63.7265076,28.6526688 63.8143973,28.5240894 63.8143973,28.3613281 C63.8143973,28.2180982 63.7509214,28.1017257 63.6239676,28.012207 C63.4970139,27.9226884 63.3000757,27.8779297 63.0331473,27.8779297 C62.5839263,27.8779297 62.2632915,27.8746745 62.0712332,27.8681641 L61.7343192,28.2294922 C61.6985117,28.3824877 61.768498,28.5305982 61.9442801,28.6738281 C62.1200622,28.817058 62.4065177,28.8886719 62.8036551,28.8886719 L62.8036551,28.8886719 Z M73.360519,24.4697266 C73.3344772,24.3525385 73.2661185,24.2467453 73.1554409,24.1523438 C73.0447633,24.0579422 72.8771217,24.0107422 72.6525112,24.0107422 C72.4571977,24.0107422 72.3082734,24.0514319 72.2057339,24.1328125 C72.1031943,24.2141931 72.0519253,24.313476 72.0519253,24.4306641 C72.0519253,24.5120447 72.0747115,24.5828448 72.1202846,24.6430664 C72.1658578,24.7032881 72.2325889,24.7521157 72.32048,24.7895508 C72.408371,24.8269859 72.4848677,24.8546549 72.5499721,24.8725586 C72.6150766,24.8904623 72.6980836,24.9091796 72.7989956,24.9287109 C72.9715225,24.9645184 73.119633,24.9995115 73.2433315,25.0336914 C73.3670301,25.0678713 73.5037474,25.1134437 73.6534878,25.1704102 C73.8032281,25.2273766 73.9293662,25.2924801 74.0319057,25.3657227 C74.1344453,25.4389652 74.230473,25.5260412 74.3199917,25.6269531 C74.4095104,25.7278651 74.4770553,25.8474928 74.5226284,25.9858398 C74.5682015,26.1241869 74.5909878,26.2796215 74.5909878,26.4521484 C74.5909878,26.9501978 74.4119531,27.3408189 74.0538784,27.6240234 C73.6958037,27.907228 73.248217,28.0488281 72.711105,28.0488281 C72.1284198,28.0488281 71.6401434,27.8868831 71.2462612,27.5629883 C70.852379,27.2390934 70.6407926,26.8151068 70.6114956,26.2910156 L71.8419643,26.2910156 C71.8614957,26.4733082 71.9371785,26.6336256 72.0690151,26.7719727 C72.2008517,26.9103197 72.405114,26.9794922 72.6818081,26.9794922 C72.9096738,26.9794922 73.0716188,26.9322921 73.1676479,26.8378906 C73.2636771,26.7434891 73.3116909,26.6311855 73.3116909,26.5009766 C73.3116909,26.3349601 73.2506564,26.2120772 73.1285854,26.1323242 C73.0065145,26.0525712 72.8380592,25.9882815 72.6232143,25.9394531 C72.1642277,25.8385412 71.827317,25.7376307 71.6124721,25.6367188 C71.0460631,25.3697903 70.7628628,24.9677761 70.7628628,24.4306641 C70.7628628,24.1181625 70.8556353,23.8471691 71.0411831,23.6176758 C71.2267309,23.3881824 71.4611035,23.2197271 71.7443081,23.1123047 C72.0275126,23.0048823 72.3367543,22.9511719 72.6720425,22.9511719 C73.2189202,22.9511719 73.6681345,23.0960272 74.0196987,23.3857422 C74.371263,23.6754572 74.5616908,24.0367817 74.5909878,24.4697266 L73.360519,24.4697266 Z M78.8098494,28.0488281 C78.4680508,28.0488281 78.143347,27.9894212 77.8357283,27.8706055 C77.5281096,27.7517898 77.25793,27.5857758 77.0251814,27.3725586 C76.7924329,27.1593414 76.6077017,26.8916032 76.4709822,26.5693359 C76.3342628,26.2470687 76.2659041,25.8938821 76.2659041,25.5097656 C76.2659041,25.1223939 76.337518,24.7651384 76.4807478,24.4379883 C76.6239777,24.1108382 76.8160331,23.8406586 77.0569197,23.6274414 C77.2978063,23.4142242 77.5728687,23.2482102 77.882115,23.1293945 C78.1913614,23.0105788 78.5136238,22.9511719 78.8489119,22.9511719 C79.3013881,22.9511719 79.7180506,23.0512685 80.0989119,23.2514648 C80.4797732,23.4516612 80.7882011,23.7478822 81.0242049,24.1401367 C81.2602087,24.5323913 81.3782088,24.9824193 81.3782088,25.4902344 C81.3782088,25.8776061 81.3074087,26.2340479 81.1658064,26.5595703 C81.0242042,26.8850928 80.835404,27.1552724 80.5994002,27.3701172 C80.3633964,27.584962 80.0907754,27.7517898 79.7815291,27.8706055 C79.4722828,27.9894212 79.1483928,28.0488281 78.8098494,28.0488281 L78.8098494,28.0488281 Z M78.8489119,26.8916016 C79.2200075,26.8916016 79.5162285,26.7597669 79.7375838,26.4960938 C79.9589391,26.2324206 80.069615,25.9003926 80.069615,25.5 C80.069615,25.0996074 79.9589391,24.7675794 79.7375838,24.5039062 C79.5162285,24.2402331 79.2200075,24.1083984 78.8489119,24.1083984 C78.4745611,24.1083984 78.1693884,24.2410469 77.9333846,24.5063477 C77.6973808,24.7716485 77.5793807,25.1028626 77.5793807,25.5 C77.5793807,25.8971374 77.6973808,26.2283515 77.9333846,26.4936523 C78.1693884,26.7589531 78.4745611,26.8916016 78.8489119,26.8916016 L78.8489119,26.8916016 Z M85.6654298,28.0488281 C85.3236312,28.0488281 84.9989274,27.9894212 84.6913087,27.8706055 C84.38369,27.7517898 84.1135104,27.5857758 83.8807618,27.3725586 C83.6480133,27.1593414 83.463282,26.8916032 83.3265626,26.5693359 C83.1898432,26.2470687 83.1214845,25.8938821 83.1214845,25.5097656 C83.1214845,25.1223939 83.1930984,24.7651384 83.3363282,24.4379883 C83.4795581,24.1108382 83.6716135,23.8406586 83.9125001,23.6274414 C84.1533867,23.4142242 84.4284491,23.2482102 84.7376954,23.1293945 C85.0469418,23.0105788 85.3692042,22.9511719 85.7044923,22.9511719 C86.1569685,22.9511719 86.573631,23.0512685 86.9544923,23.2514648 C87.3353536,23.4516612 87.6437815,23.7478822 87.8797853,24.1401367 C88.1157891,24.5323913 88.2337892,24.9824193 88.2337892,25.4902344 C88.2337892,25.8776061 88.1629891,26.2340479 88.0213868,26.5595703 C87.8797846,26.8850928 87.6909844,27.1552724 87.4549806,27.3701172 C87.2189768,27.584962 86.9463558,27.7517898 86.6371095,27.8706055 C86.3278632,27.9894212 86.0039732,28.0488281 85.6654298,28.0488281 L85.6654298,28.0488281 Z M85.7044923,26.8916016 C86.0755879,26.8916016 86.3718089,26.7597669 86.5931642,26.4960938 C86.8145194,26.2324206 86.9251954,25.9003926 86.9251954,25.5 C86.9251954,25.0996074 86.8145194,24.7675794 86.5931642,24.5039062 C86.3718089,24.2402331 86.0755879,24.1083984 85.7044923,24.1083984 C85.3301415,24.1083984 85.0249687,24.2410469 84.788965,24.5063477 C84.5529612,24.7716485 84.4349611,25.1028626 84.4349611,25.5 C84.4349611,25.8971374 84.5529612,26.2283515 84.788965,26.4936523 C85.0249687,26.7589531 85.3301415,26.8916016 85.7044923,26.8916016 L85.7044923,26.8916016 Z M93.0190571,22.9511719 C93.6440602,22.9511719 94.1201296,23.1619445 94.4472797,23.5834961 C94.7744298,24.0050477 94.9380024,24.5738896 94.9380024,25.2900391 L94.9380024,28 L93.6098774,28 L93.6098774,25.5878906 C93.6098774,25.5846354 93.6106912,25.5537112 93.6123188,25.4951172 C93.6139464,25.4365231 93.6147602,25.3836265 93.6147602,25.3364258 C93.6147602,25.289225 93.6123188,25.2241215 93.607436,25.1411133 C93.6025531,25.0581051 93.5919738,24.9824222 93.5756977,24.9140625 C93.5594216,24.8457028 93.5390767,24.7708337 93.5146625,24.6894531 C93.4902483,24.6080725 93.4568828,24.5364586 93.4145649,24.4746094 C93.372247,24.4127601 93.3226055,24.3533531 93.2656391,24.2963867 C93.2086727,24.2394203 93.1378726,24.1954754 93.0532368,24.1645508 C92.9686009,24.1336261 92.8742008,24.1149089 92.7700336,24.1083984 C92.6658664,24.101888 92.5600732,24.1092121 92.4526508,24.1303711 C92.3452284,24.1515301 92.2304835,24.1962887 92.1084125,24.2646484 C91.9863416,24.3330082 91.8789208,24.4225255 91.7861469,24.5332031 C91.693373,24.6438808 91.6160626,24.7952464 91.5542133,24.9873047 C91.492364,25.1793629 91.4614399,25.4007149 91.4614399,25.6513672 L91.4614399,28 L90.1381977,28 L90.1381977,23 L91.1587055,23 L91.3296039,23.6103516 L91.5005024,23.6103516 C91.871598,23.1708962 92.3777778,22.9511719 93.0190571,22.9511719 L93.0190571,22.9511719 Z" opacity=".4"/>
  </g>
</svg>
