<svg xmlns="http://www.w3.org/2000/svg" width="133" height="40" viewBox="0 0 133 40" xmlns:xlink="http://www.w3.org/1999/xlink">
  <defs>
    <path id="a" d="M121.650065,5.34834056 L126.961459,0.0369458128 L132.318602,5.39408867 L121.678208,16.0344828 L121.650065,16.0063392 L121.621921,16.0344828 L110.981527,5.39408867 L116.33867,0.0369458128 L121.650065,5.34834056 Z"/>
    <mask id="b" width="21.3" height="16.071" x="0" y="0" fill="white">
      <use xlink:href="#a"/>
    </mask>
  </defs>
  <g fill="none" fill-rule="evenodd">
    <path fill="#FF1C09" d="M5.07,31.925 C4.05999495,31.5749983 3.02000535,31.1200028 1.95,30.56 L1.95,12.86 C1.95,12.2299968 1.90750043,11.7925012 1.8225,11.5475 C1.73749958,11.3024988 1.5850011,11.1450004 1.365,11.075 C1.1449989,11.0049996 0.7150032,10.9300004 0.075,10.85 L0.075,9.95 C1.0950051,9.75999905 1.92749678,9.58250083 2.5725,9.4175 C3.21750323,9.25249918 3.8499969,9.0300014 4.47,8.75 C4.58000055,8.8500005 4.69999935,8.9599994 4.83,9.08 C4.96000065,9.2000006 5.04999975,9.28499975 5.1,9.335 L5.1,20.345 C6.03000465,19.4349955 6.95749538,18.7500023 7.8825,18.29 C8.80750463,17.8299977 9.5899968,17.6 10.23,17.6 C11.1800048,17.6 12.0149964,17.8799972 12.735,18.44 C13.4550036,19.0000028 14.012498,19.7974948 14.4075,20.8325 C14.802502,21.8675052 15,23.0799931 15,24.47 C15,25.6300058 14.6375036,26.8349938 13.9125,28.085 C13.1874964,29.3350063 12.2325059,30.3749959 11.0475,31.205 C9.86249408,32.0350042 8.62500645,32.45 7.335,32.45 C6.8349975,32.45 6.08000505,32.2750018 5.07,31.925 L5.07,31.925 Z M7.0875,20.5175 C6.46249688,20.8625017 5.8000035,21.4149962 5.1,22.175 L5.1,28.805 C5.8200036,29.2450022 6.52249658,29.5749989 7.2075,29.795 C7.89250343,30.0150011 8.4249981,30.125 8.805,30.125 C9.51500355,30.125 10.1199975,29.9300019 10.62,29.54 C11.1200025,29.1499981 11.4949988,28.6275033 11.745,27.9725 C11.9950013,27.3174967 12.12,26.5950039 12.12,25.805 C12.12,24.5249936 11.9650016,23.4500044 11.655,22.58 C11.3449985,21.7099956 10.9275026,21.0625021 10.4025,20.6375 C9.87749738,20.2124979 9.2950032,20 8.655,20 C8.2349979,20 7.71250313,20.1724983 7.0875,20.5175 L7.0875,20.5175 Z M20.0805,14.885 C19.7554984,14.6149986 19.593,14.2200026 19.593,13.7 C19.593,13.2799979 19.692999,12.9025017 19.893,12.5675 C20.093001,12.2324983 20.3654983,11.9725009 20.7105,11.7875 C21.0555018,11.6024991 21.432998,11.51 21.843,11.51 C22.3730027,11.51 22.8054984,11.6424987 23.1405,11.9075 C23.4755017,12.1725013 23.643,12.5649974 23.643,13.085 C23.643,13.7250032 23.4280022,14.2524979 22.998,14.6675 C22.5679979,15.0825021 22.0280033,15.29 21.378,15.29 C20.8379973,15.29 20.4055017,15.1550013 20.0805,14.885 L20.0805,14.885 Z M17.943,31.055 C18.5830032,30.9249994 19.0804983,30.7750009 19.4355,30.605 C19.7905018,30.4349992 19.968,30.2800007 19.968,30.14 L19.968,22.175 L19.968,21.725 C19.968,21.114997 19.9330004,20.6850013 19.863,20.435 C19.7929997,20.1849988 19.6230014,20.0025006 19.353,19.8875 C19.0829987,19.7724994 18.6130034,19.6850003 17.943,19.625 L17.943,18.725 C19.6130084,18.4649987 21.0679938,18.0900025 22.308,17.6 L23.118,17.6 L23.118,30.14 C23.118,30.2800007 23.2879983,30.4374991 23.628,30.6125 C23.9680017,30.7875009 24.4729967,30.9349994 25.143,31.055 L25.143,32 L17.943,32 L17.943,31.055 Z M33.5460001,27.575 C33.1859983,27.8950016 32.9260009,28.1749988 32.7660001,28.415 C32.6059993,28.6550012 32.5260001,28.8199996 32.5260001,28.91 C32.5260001,29.0600008 32.6109992,29.1949994 32.7810001,29.315 C32.9510009,29.4350006 33.2909975,29.5574994 33.8010001,29.6825 C34.3110026,29.8075006 35.0659951,29.9299994 36.0660001,30.05 C37.5460075,30.2300009 38.7134958,30.4849984 39.5685001,30.815 C40.4235043,31.1450017 41.0234983,31.5424977 41.3685001,32.0075 C41.7135018,32.4725023 41.8860001,33.0199969 41.8860001,33.65 C41.8860001,34.6100048 41.496004,35.5374955 40.7160001,36.4325 C39.9359962,37.3275045 38.9360062,38.0499973 37.7160001,38.6 C36.495994,39.1500028 35.2710062,39.425 34.0410001,39.425 C32.9409946,39.425 31.8485055,39.2800015 30.7635001,38.99 C29.6784946,38.6999986 28.7735037,38.2500031 28.0485001,37.64 C27.3234964,37.029997 26.9610001,36.2700046 26.9610001,35.36 C26.9610001,34.7999972 27.2309974,34.225003 27.7710001,33.635 C28.3110028,33.0449971 29.3209927,32.3450041 30.8010001,31.535 C30.2309972,31.3149989 29.8035015,31.0750013 29.5185001,30.815 C29.2334986,30.5549987 29.0910001,30.2850014 29.0910001,30.005 C29.0910001,29.7549988 29.293498,29.3950024 29.6985001,28.925 C30.1035021,28.4549977 30.7459957,27.920003 31.6260001,27.32 C30.5259946,27.0099985 29.6485033,26.4725038 28.9935001,25.7075 C28.3384968,24.9424962 28.0110001,24.0300053 28.0110001,22.97 C28.0110001,22.0099952 28.3059971,21.1175041 28.8960001,20.2925 C29.486003,19.4674959 30.2659952,18.8125024 31.2360001,18.3275 C32.2060049,17.8424976 33.2309947,17.6 34.3110001,17.6 C35.5910065,17.6 36.7309951,17.9399966 37.7310001,18.62 C38.5410041,18.5299996 39.2659969,18.3950009 39.9060001,18.215 C40.5460033,18.0349991 41.175997,17.8300012 41.7960001,17.6 L42.1710001,18.125 C41.9409989,18.7950034 41.6560018,19.3449979 41.3160001,19.775 C40.5359962,19.9050007 39.7910036,19.9849999 39.0810001,20.015 C39.5510024,20.7550037 39.7860001,21.5449958 39.7860001,22.385 C39.7860001,23.375005 39.5010029,24.2649961 38.9310001,25.055 C38.3609972,25.845004 37.6060048,26.4624978 36.6660001,26.9075 C35.7259954,27.3525022 34.7260054,27.575 33.6660001,27.575 L33.5460001,27.575 Z M32.2785001,19.5875 C31.9134982,19.8125011 31.6110013,20.1399979 31.3710001,20.57 C31.1309989,21.0000021 31.0110001,21.514997 31.0110001,22.115 C31.0110001,23.2050054 31.3009972,24.0999965 31.8810001,24.8 C32.461003,25.5000035 33.3159944,25.85 34.4460001,25.85 C34.8460021,25.85 35.2259983,25.7425011 35.5860001,25.5275 C35.9460019,25.3124989 36.235999,24.9900021 36.4560001,24.56 C36.6760012,24.1299978 36.7860001,23.610003 36.7860001,23 C36.7860001,22.2999965 36.6535014,21.6675028 36.3885001,21.1025 C36.1234987,20.5374972 35.7335026,20.0875017 35.2185001,19.7525 C34.7034975,19.4174983 34.0810037,19.25 33.3510001,19.25 C33.0009983,19.25 32.6435019,19.3624989 32.2785001,19.5875 L32.2785001,19.5875 Z M30.9285001,33.1775 C30.5834983,33.5125017 30.3610006,33.7999988 30.2610001,34.04 C30.1609996,34.2800012 30.1110001,34.5249988 30.1110001,34.775 C30.1110001,35.2550024 30.3309979,35.7024979 30.7710001,36.1175 C31.2110023,36.5325021 31.8059963,36.8624988 32.5560001,37.1075 C33.3060038,37.3525012 34.1259956,37.475 35.0160001,37.475 C35.8160041,37.475 36.5009972,37.3425013 37.0710001,37.0775 C37.6410029,36.8124987 38.0734986,36.4550023 38.3685001,36.005 C38.6635015,35.5549978 38.8110001,35.0550028 38.8110001,34.505 C38.8110001,34.0049975 38.5285029,33.5825017 37.9635001,33.2375 C37.3984972,32.8924983 36.3460078,32.625001 34.8060001,32.435 C33.9659959,32.3349995 33.1860037,32.2050008 32.4660001,32.045 C31.7859967,32.4650021 31.2735018,32.8424983 30.9285001,33.1775 L30.9285001,33.1775 Z M46.2390001,24.05 L47.9640001,22.16 C48.0740006,22.0199993 48.1939994,21.95 48.3240001,21.95 C48.3840004,21.95 48.4364999,21.9624999 48.4815001,21.9875 C48.5265003,22.0125001 48.5839997,22.0599996 48.6540001,22.13 C49.4640041,22.940004 50.1539972,23.5149983 50.7240001,23.855 C50.8640008,23.9450004 50.9340001,24.0599993 50.9340001,24.2 C50.9340001,24.2600003 50.9240002,24.3249996 50.9040001,24.395 C50.884,24.4650003 50.8540003,24.5199998 50.8140001,24.56 C50.5439987,24.9100017 50.2390018,25.279998 49.8990001,25.67 C49.5589984,26.0600019 49.2790012,26.3599989 49.0590001,26.57 C49.0189999,26.6100002 48.9665004,26.6474998 48.9015001,26.6825 C48.8364998,26.7175002 48.7790003,26.735 48.7290001,26.735 C48.6089995,26.735 48.5040005,26.6950004 48.4140001,26.615 C47.993998,26.3649987 47.5765022,26.0575018 47.1615001,25.6925 C46.746498,25.3274982 46.4290012,25.0000014 46.2090001,24.71 C46.1789999,24.6699998 46.1490002,24.6275002 46.1190001,24.5825 C46.0889999,24.5374998 46.0740001,24.4800003 46.0740001,24.41 C46.0740001,24.2599992 46.1289995,24.1400004 46.2390001,24.05 L46.2390001,24.05 Z M64.9920001,29.705 C64.3819971,30.3650033 63.8345025,30.8899981 63.3495001,31.28 C62.8644977,31.670002 62.3645027,31.962499 61.8495001,32.1575 C61.3344975,32.352501 60.7620033,32.45 60.1320001,32.45 C59.2719958,32.45 58.4295042,32.1600029 57.6045001,31.58 C56.779496,30.9999971 56.1045027,30.1700054 55.5795001,29.09 C55.0544975,28.0099946 54.7920001,26.7600071 54.7920001,25.34 C54.7920001,24.0499935 55.101997,22.8100059 55.7220001,21.62 C56.3420032,20.4299941 57.2019946,19.4625037 58.3020001,18.7175 C59.4020056,17.9724963 60.6369933,17.6 62.0070001,17.6 C62.5270027,17.6 63.0169978,17.6624994 63.4770001,17.7875 C63.9370024,17.9125006 64.4169976,18.1499983 64.9170001,18.5 L64.9170001,13.19 C64.9170001,12.3499958 64.8870004,11.7825015 64.8270001,11.4875 C64.7669998,11.1924985 64.6020015,10.9850006 64.3320001,10.865 C64.0619988,10.7449994 63.5570038,10.6600002 62.8170001,10.61 L62.8170001,9.725 C64.4570083,9.55499915 66.0269926,9.2300024 67.5270001,8.75 L68.0670001,9.275 L68.0670001,27.74 C68.0670001,28.4200034 68.0944998,28.9074985 68.1495001,29.2025 C68.2045004,29.4975015 68.2919995,29.6999995 68.4120001,29.81 C68.4920005,29.8700003 68.5919995,29.9 68.7120001,29.9 C68.9620014,29.9 69.4119969,29.7650014 70.0620001,29.495 L70.4070001,30.44 C69.5169957,31.030003 68.687004,31.5124981 67.9170001,31.8875 C67.1469963,32.2625019 66.6170016,32.45 66.3270001,32.45 C65.6169966,32.45 65.172001,31.5350092 64.9920001,29.705 L64.9920001,29.705 Z M63.5520001,19.9475 C62.9919973,19.6324984 62.3720035,19.475 61.6920001,19.475 C60.5519944,19.475 59.6420035,19.9074957 58.9620001,20.7725 C58.2819967,21.6375043 57.9420001,22.9299914 57.9420001,24.65 C57.9420001,25.6800052 58.1194983,26.594996 58.4745001,27.395 C58.8295019,28.195004 59.2794974,28.8124978 59.8245001,29.2475 C60.3695028,29.6825022 60.9269973,29.9 61.4970001,29.9 C62.0570029,29.9 62.5969975,29.7425016 63.1170001,29.4275 C63.6370027,29.1124984 64.2369967,28.6400032 64.9170001,28.01 L64.9170001,21.29 C64.5669984,20.7099971 64.1120029,20.2625016 63.5520001,19.9475 L63.5520001,19.9475 Z M81.0900002,31.79 C80.849999,31.3499978 80.7100004,30.7500038 80.6700002,29.99 C79.829996,30.8400043 78.9725045,31.462498 78.0975002,31.8575 C77.2224958,32.252502 76.4250038,32.45 75.7050002,32.45 C75.1449974,32.45 74.6100027,32.3250013 74.1000002,32.075 C73.5899976,31.8249988 73.1725018,31.4450026 72.8475002,30.935 C72.5224985,30.4249975 72.3600002,29.8000037 72.3600002,29.06 C72.3600002,28.3999967 72.474999,27.8250025 72.7050002,27.335 C72.9350013,26.8449976 73.2549981,26.3950021 73.6650002,25.985 C74.035002,25.6149982 74.4599978,25.2925014 74.9400002,25.0175 C75.4200026,24.7424986 76.1149956,24.4775013 77.0250002,24.2225 C77.9350047,23.9674987 79.1449926,23.7300011 80.6550002,23.51 L80.6550002,21.62 C80.6550002,20.9299966 80.4975017,20.387502 80.1825002,19.9925 C79.8674986,19.597498 79.3350039,19.4 78.5850002,19.4 C78.2049983,19.4 77.8425019,19.4799992 77.4975002,19.64 C77.1524984,19.8000008 76.8800012,20.0299985 76.6800002,20.33 C76.4799992,20.6300015 76.4,20.9749981 76.4400002,21.365 C76.4500002,21.4750006 76.2375023,21.6149992 75.8025002,21.785 C75.367498,21.9550009 74.8750029,22.1099993 74.3250002,22.25 C73.7749974,22.3900007 73.3750014,22.46 73.1250002,22.46 C73.0549998,22.46 73.0100003,22.4550001 72.9900002,22.445 L72.7050002,21.71 C73.0150017,20.9699963 73.5524963,20.2850032 74.3175002,19.655 C75.082504,19.0249969 75.9699951,18.5250019 76.9800002,18.155 C77.9900052,17.7849982 78.9949952,17.6 79.9950002,17.6 C81.2350064,17.6 82.1799969,17.9174968 82.8300002,18.5525 C83.4800034,19.1875032 83.8050002,20.0349947 83.8050002,21.095 L83.8050002,28.73 C83.8050002,29.5100039 84.0049982,29.9 84.4050002,29.9 C84.5550009,29.9 84.7299992,29.8725003 84.9300002,29.8175 C85.1300012,29.7624997 85.4199983,29.6550008 85.8000002,29.495 L86.1000002,30.47 C85.269996,31.0400029 84.4625041,31.5124981 83.6775002,31.8875 C82.8924962,32.2625019 82.3300019,32.45 81.9900002,32.45 C81.6299984,32.45 81.3300014,32.2300022 81.0900002,31.79 L81.0900002,31.79 Z M80.6550002,24.86 C79.3849938,25.060001 78.470003,25.264999 77.9100002,25.475 C77.3499974,25.6850011 76.9100018,25.9499984 76.5900002,26.27 C76.3099988,26.5500014 76.0950009,26.8499984 75.9450002,27.17 C75.7949994,27.4900016 75.7200002,27.854998 75.7200002,28.265 C75.7200002,28.9050032 75.8774986,29.3624986 76.1925002,29.6375 C76.5075017,29.9125014 76.8399984,30.05 77.1900002,30.05 C77.6800026,30.05 78.2024974,29.9225013 78.7575002,29.6675 C79.3125029,29.4124987 79.9449966,28.9800031 80.6550002,28.37 L80.6550002,24.86 Z M90.8730002,32.0225 C90.4229979,31.7374986 90.0655015,31.295003 89.8005002,30.695 C89.5354989,30.094997 89.4030002,29.3500045 89.4030002,28.46 L89.4030002,19.775 L87.5430002,19.775 L87.1530002,19.28 L88.3230002,18.05 L89.4030002,18.05 L89.4030002,14.735 L92.0130002,12.725 L92.5530002,13.175 L92.5530002,18.05 L97.2330002,18.05 L97.7430002,18.56 C97.5529992,18.8800016 97.3030017,19.2174982 96.9930002,19.5725 C96.6829986,19.9275018 96.4280012,20.1699994 96.2280002,20.3 C95.9479988,20.1599993 95.5630026,20.0375005 95.0730002,19.9325 C94.5829977,19.8274995 94.053003,19.775 93.4830002,19.775 L92.5530002,19.775 L92.5530002,27.095 C92.5530002,28.1450053 92.667999,28.8874978 92.8980002,29.3225 C93.1280013,29.7575022 93.4779978,29.975 93.9480002,29.975 C94.3280021,29.975 94.7654977,29.8950008 95.2605002,29.735 C95.7555027,29.5749992 96.3879963,29.2900021 97.1580002,28.88 L97.7430002,29.87 C96.5729943,30.7200043 95.5255048,31.3624978 94.6005002,31.7975 C93.6754956,32.2325022 92.9380029,32.45 92.3880002,32.45 C91.8279974,32.45 91.3230024,32.3075014 90.8730002,32.0225 L90.8730002,32.0225 Z M108.651,31.79 C108.410999,31.3499978 108.271,30.7500038 108.231,29.99 C107.390996,30.8400043 106.533505,31.462498 105.6585,31.8575 C104.783496,32.252502 103.986004,32.45 103.266,32.45 C102.705997,32.45 102.171003,32.3250013 101.661,32.075 C101.150998,31.8249988 100.733502,31.4450026 100.4085,30.935 C100.083499,30.4249975 99.9210002,29.8000037 99.9210002,29.06 C99.9210002,28.3999967 100.035999,27.8250025 100.266,27.335 C100.496001,26.8449976 100.815998,26.3950021 101.226,25.985 C101.596002,25.6149982 102.020998,25.2925014 102.501,25.0175 C102.981003,24.7424986 103.675996,24.4775013 104.586,24.2225 C105.496005,23.9674987 106.705993,23.7300011 108.216,23.51 L108.216,21.62 C108.216,20.9299966 108.058502,20.387502 107.7435,19.9925 C107.428499,19.597498 106.896004,19.4 106.146,19.4 C105.765998,19.4 105.403502,19.4799992 105.0585,19.64 C104.713498,19.8000008 104.441001,20.0299985 104.241,20.33 C104.040999,20.6300015 103.961,20.9749981 104.001,21.365 C104.011,21.4750006 103.798502,21.6149992 103.3635,21.785 C102.928498,21.9550009 102.436003,22.1099993 101.886,22.25 C101.335997,22.3900007 100.936001,22.46 100.686,22.46 C100.616,22.46 100.571,22.4550001 100.551,22.445 L100.266,21.71 C100.576002,20.9699963 101.113496,20.2850032 101.8785,19.655 C102.643504,19.0249969 103.530995,18.5250019 104.541,18.155 C105.551005,17.7849982 106.555995,17.6 107.556,17.6 C108.796006,17.6 109.740997,17.9174968 110.391,18.5525 C111.041003,19.1875032 111.366,20.0349947 111.366,21.095 L111.366,28.73 C111.366,29.5100039 111.565998,29.9 111.966,29.9 C112.116001,29.9 112.290999,29.8725003 112.491,29.8175 C112.691001,29.7624997 112.980998,29.6550008 113.361,29.495 L113.661,30.47 C112.830996,31.0400029 112.023504,31.5124981 111.2385,31.8875 C110.453496,32.2625019 109.891002,32.45 109.551,32.45 C109.190998,32.45 108.891001,32.2300022 108.651,31.79 L108.651,31.79 Z M108.216,24.86 C106.945994,25.060001 106.031003,25.264999 105.471,25.475 C104.910997,25.6850011 104.471002,25.9499984 104.151,26.27 C103.870999,26.5500014 103.656001,26.8499984 103.506,27.17 C103.355999,27.4900016 103.281,27.854998 103.281,28.265 C103.281,28.9050032 103.438499,29.3624986 103.7535,29.6375 C104.068502,29.9125014 104.400998,30.05 104.751,30.05 C105.241003,30.05 105.763497,29.9225013 106.3185,29.6675 C106.873503,29.4124987 107.505997,28.9800031 108.216,28.37 L108.216,24.86 Z"/>
    <use stroke="#FF1C09" stroke-width="4" mask="url(#b)" xlink:href="#a"/>
  </g>
</svg>
