<svg xmlns="http://www.w3.org/2000/svg" width="150" height="22" viewBox="0 0 150 22" xmlns:xlink="http://www.w3.org/1999/xlink">
  <defs>
    <rect id="a" width="74.257" height="22"/>
    <mask id="b" width="74.257" height="22" x="0" y="0" fill="white">
      <use xlink:href="#a"/>
    </mask>
  </defs>
  <g fill="none" fill-rule="evenodd">
    <polygon fill="#ED1D24" points=".072 21.805 69.933 21.805 69.933 .069 .072 .069 .072 21.805"/>
    <g fill="#FFFFFF" transform="translate(25.128 3.568)">
      <path d="M12.3847659,3.37987896e-14 L8.34183622,3.37987896e-14 L4.9594264,5.58527492 L3.57763545,5.58527492 L3.57763545,3.37987896e-14 L0.051090534,3.37987896e-14 L0.051090534,13.8454833 L6.23698742,13.8454833 C9.62118405,13.8454833 11.4365715,12.3981594 11.4365715,9.8412207 C11.4365715,7.24475665 9.57949208,6.14851058 8.58781883,5.90612743 L12.3847659,3.37987896e-14 L12.3847659,3.37987896e-14 Z M5.82661934,11.2315816 L3.55678946,11.2315816 L3.55678946,8.20324539 L5.82661934,8.20324539 C6.93860369,8.20324539 7.76291346,8.64790512 7.76291346,9.73426986 C7.76291346,10.8212159 6.93860369,11.2315816 5.82661934,11.2315816 L5.82661934,11.2315816 Z" transform="matrix(1 0 0 -1 0 14.27)"/>
      <path d="M12.9803655,2.4422378 C12.9803655,2.4422378 11.1631913,0.0259626551 6.91537531,0.0259626551 C2.66755934,0.0259626551 0.0886133054,2.8450472 0.0886133054,7.31256963 C0.0886133054,11.7806733 2.87304119,14.4788569 6.99756804,14.4788569 C11.1232861,14.4788569 12.5044815,11.9044805 12.6914997,11.4609833 L9.69980319,10.0903851 C9.51338053,10.5333011 8.77066789,11.7027852 7.03985561,11.7027852 C5.30606533,11.7027852 3.76108011,10.5333011 3.76108011,7.27362557 C3.76108011,4.01220632 5.2244682,2.8450472 6.99756804,2.8450472 C8.77066789,2.8450472 9.49372574,3.60939692 9.49372574,3.60939692 L9.49372574,5.90360861 L6.62531833,5.90360861 L6.62531833,8.5814483 L12.9803655,8.5814483 L12.9803655,2.4422378 L12.9803655,2.4422378 Z" transform="matrix(1 0 0 -1 13.162 14.865)"/>
      <path d="M5.6047173,3.37987896e-14 L0.0769579078,3.37987896e-14 L0.0769579078,13.8454833 L5.6047173,13.8454833 C10.0592063,13.8454833 12.7012859,11.2699444 12.7012859,6.92332288 C12.7012859,2.57612014 10.0592063,3.37987896e-14 5.6047173,3.37987896e-14 M5.02758134,11.068249 L3.60528962,11.068249 L3.60528962,2.77549045 L5.02758134,2.77549045 C7.8334508,2.77549045 9.00856871,4.18561398 9.00856871,6.92332288 C9.00856871,9.66103179 7.8334508,11.068249 5.02758134,11.068249" transform="matrix(1 0 0 -1 28.718 14.27)"/>
    </g>
    <g transform="translate(75)">
      <use stroke="#ED1D24" mask="url(#b)" xlink:href="#a"/>
      <path fill="#ED1D24" d="M7.562,8.866 C7.3819991,9.01400074 7.292,9.20999878 7.292,9.454 C7.292,9.69800122 7.4019989,9.89199928 7.622,10.036 C7.8420011,10.1800007 8.34999602,10.349999 9.146,10.546 C9.94200398,10.742001 10.5599978,11.035998 11,11.428 C11.4400022,11.820002 11.66,12.3919962 11.66,13.144 C11.66,13.8960038 11.3780028,14.5059977 10.814,14.974 C10.2499972,15.4420023 9.5080046,15.676 8.588,15.676 C7.25999336,15.676 6.06400532,15.1840049 5,14.2 L6.116,12.832 C7.02000452,13.624004 7.85599616,14.02 8.624,14.02 C8.96800172,14.02 9.23799902,13.9460007 9.434,13.798 C9.63000098,13.6499993 9.728,13.4500013 9.728,13.198 C9.728,12.9459987 9.62400104,12.7460007 9.416,12.598 C9.20799896,12.4499993 8.79600308,12.3000008 8.18,12.148 C7.20399512,11.9159988 6.49000226,11.6140019 6.038,11.242 C5.58599774,10.8699981 5.36,10.286004 5.36,9.49 C5.36,8.69399602 5.64599714,8.08000216 6.218,7.648 C6.79000286,7.21599784 7.50399572,7 8.36,7 C8.9200028,7 9.4799972,7.09599904 10.04,7.288 C10.6000028,7.48000096 11.0879979,7.75199824 11.504,8.104 L10.556,9.472 C9.82799636,8.91999724 9.07600388,8.644 8.3,8.644 C7.98799844,8.644 7.7420009,8.71799926 7.562,8.866 L7.562,8.866 Z M16.791,8.812 L16.791,15.58 L14.919,15.58 L14.919,8.812 L12.543,8.812 L12.543,7.192 L19.167,7.192 L19.167,8.812 L16.791,8.812 Z M24.07,13.996 C24.5980026,13.996 25.0159985,13.8020019 25.324,13.414 C25.6320015,13.0259981 25.786,12.4960034 25.786,11.824 L25.786,7.192 L27.658,7.192 L27.658,11.884 C27.658,13.1000061 27.3220034,14.0339967 26.65,14.686 C25.9779966,15.3380033 25.1180052,15.664 24.07,15.664 C23.0219948,15.664 22.1600034,15.3360033 21.484,14.68 C20.8079966,14.0239967 20.47,13.092006 20.47,11.884 L20.47,7.192 L22.342,7.192 L22.342,11.824 C22.342,12.4960034 22.4979984,13.0259981 22.81,13.414 C23.1220016,13.8020019 23.5419974,13.996 24.07,13.996 L24.07,13.996 Z M36.065,8.29 C36.865004,9.02200366 37.265,10.0399935 37.265,11.344 C37.265,12.6480065 36.8750039,13.6799962 36.095,14.44 C35.3149961,15.2000038 34.125008,15.58 32.525,15.58 L29.657,15.58 L29.657,7.192 L32.621,7.192 C34.1170075,7.192 35.264996,7.55799634 36.065,8.29 L36.065,8.29 Z M34.691,13.276 C35.1510023,12.8439978 35.381,12.2160041 35.381,11.392 C35.381,10.5679959 35.1510023,9.93400222 34.691,9.49 C34.2309977,9.04599778 33.5250048,8.824 32.573,8.824 L31.529,8.824 L31.529,13.924 L32.717,13.924 C33.5730043,13.924 34.2309977,13.7080022 34.691,13.276 L34.691,13.276 Z M44.988,7.192 L44.988,8.86 L40.812,8.86 L40.812,10.588 L44.568,10.588 L44.568,12.184 L40.812,12.184 L40.812,13.924 L45.12,13.924 L45.12,15.58 L38.94,15.58 L38.94,7.192 L44.988,7.192 Z M52.711,7.192 L54.583,7.192 L54.583,15.58 L52.711,15.58 L48.715,10.324 L48.715,15.58 L46.843,15.58 L46.843,7.192 L48.595,7.192 L52.711,12.592 L52.711,7.192 Z M60.254,8.812 L60.254,15.58 L58.382,15.58 L58.382,8.812 L56.006,8.812 L56.006,7.192 L62.63,7.192 L62.63,8.812 L60.254,8.812 Z M65.943,8.866 C65.7629991,9.01400074 65.673,9.20999878 65.673,9.454 C65.673,9.69800122 65.7829989,9.89199928 66.003,10.036 C66.2230011,10.1800007 66.730996,10.349999 67.527,10.546 C68.323004,10.742001 68.9409978,11.035998 69.381,11.428 C69.8210022,11.820002 70.041,12.3919962 70.041,13.144 C70.041,13.8960038 69.7590028,14.5059977 69.195,14.974 C68.6309972,15.4420023 67.8890046,15.676 66.969,15.676 C65.6409934,15.676 64.4450053,15.1840049 63.381,14.2 L64.497,12.832 C65.4010045,13.624004 66.2369962,14.02 67.005,14.02 C67.3490017,14.02 67.618999,13.9460007 67.815,13.798 C68.011001,13.6499993 68.109,13.4500013 68.109,13.198 C68.109,12.9459987 68.005001,12.7460007 67.797,12.598 C67.588999,12.4499993 67.1770031,12.3000008 66.561,12.148 C65.5849951,11.9159988 64.8710023,11.6140019 64.419,11.242 C63.9669977,10.8699981 63.741,10.286004 63.741,9.49 C63.741,8.69399602 64.0269971,8.08000216 64.599,7.648 C65.1710029,7.21599784 65.8849957,7 66.741,7 C67.3010028,7 67.8609972,7.09599904 68.421,7.288 C68.9810028,7.48000096 69.4689979,7.75199824 69.885,8.104 L68.937,9.472 C68.2089964,8.91999724 67.4570039,8.644 66.681,8.644 C66.3689984,8.644 66.1230009,8.71799926 65.943,8.866 L65.943,8.866 Z"/>
    </g>
  </g>
</svg>
