<svg xmlns="http://www.w3.org/2000/svg" width="227" height="152" viewBox="0 0 227 152" xmlns:xlink="http://www.w3.org/1999/xlink">
  <defs>
    <filter id="i" width="200%" height="200%" x="-50%" y="-50%" filterUnits="objectBoundingBox">
      <feOffset dy="10" in="SourceAlpha" result="shadowOffsetOuter1"/>
      <feGaussianBlur stdDeviation="15.5" in="shadowOffsetOuter1" result="shadowBlurOuter1"/>
      <feColorMatrix values="0 0 0 0 0 0 0 0 0 0 0 0 0 0 0 0 0 0 0.152145607 0" in="shadowBlurOuter1" result="shadowMatrixOuter1"/>
      <feMerge>
        <feMergeNode in="shadowMatrixOuter1"/>
        <feMergeNode in="SourceGraphic"/>
      </feMerge>
    </filter>
    <path id="a" d="M19.9954286,9.66385714 L19.9954286,8.91850252 C19.9954286,8.77833775 19.8849069,8.671875 19.7485714,8.671875 C19.6162232,8.671875 19.5017143,8.7822939 19.5017143,8.91850252 L19.5017143,9.66385714 L18.7563597,9.66385714 C18.6161949,9.66385714 18.5097321,9.77437885 18.5097321,9.91071429 C18.5097321,10.0430625 18.620151,10.1575714 18.7563597,10.1575714 L19.5017143,10.1575714 L19.5017143,10.902926 C19.5017143,11.0430908 19.612236,11.1495536 19.7485714,11.1495536 C19.8809196,11.1495536 19.9954286,11.0391347 19.9954286,10.902926 L19.9954286,10.1575714 L20.7407832,10.1575714 C20.880948,10.1575714 20.9874107,10.0470497 20.9874107,9.91071429 C20.9874107,9.77836607 20.8769918,9.66385714 20.7407832,9.66385714 L19.9954286,9.66385714 Z"/>
    <mask id="j" width="2.467" height="2.478" x="0" y="0" fill="white">
      <use xlink:href="#a"/>
    </mask>
    <path id="b" d="M0.740571429,10.4067054 L0.740571429,10.0250408 C0.740571429,9.96394566 0.685310575,9.91071429 0.617142857,9.91071429 C0.55096875,9.91071429 0.493714286,9.96189999 0.493714286,10.0250408 L0.493714286,10.4067054 L0.112049691,10.4067054 C0.0509545898,10.4067054 -0.00227678572,10.4619662 -0.00227678572,10.5301339 C-0.00227678572,10.596308 0.0489089216,10.6535625 0.112049691,10.6535625 L0.493714286,10.6535625 L0.493714286,11.0352271 C0.493714286,11.0963222 0.548975139,11.1495536 0.617142857,11.1495536 C0.683316964,11.1495536 0.740571429,11.0983679 0.740571429,11.0352271 L0.740571429,10.6535625 L1.12223602,10.6535625 C1.18333112,10.6535625 1.2365625,10.5983016 1.2365625,10.5301339 C1.2365625,10.4639598 1.18537679,10.4067054 1.12223602,10.4067054 L0.740571429,10.4067054 Z"/>
    <mask id="k" width="1.233" height="1.239" x="0" y="0" fill="white">
      <use xlink:href="#b"/>
    </mask>
    <path id="c" d="M74.5508571,6.93932143 L74.5508571,5.44861219 C74.5508571,5.16828265 74.3298137,4.95535714 74.0571429,4.95535714 C73.7924464,4.95535714 73.5634286,5.17619495 73.5634286,5.44861219 L73.5634286,6.93932143 L72.0727193,6.93932143 C71.7923898,6.93932143 71.5794643,7.16036484 71.5794643,7.43303571 C71.5794643,7.69773214 71.8003021,7.92675 72.0727193,7.92675 L73.5634286,7.92675 L73.5634286,9.41745924 C73.5634286,9.69778878 73.784472,9.91071429 74.0571429,9.91071429 C74.3218393,9.91071429 74.5508571,9.68987648 74.5508571,9.41745924 L74.5508571,7.92675 L76.0415664,7.92675 C76.3218959,7.92675 76.5348214,7.70570659 76.5348214,7.43303571 C76.5348214,7.16833929 76.3139836,6.93932143 76.0415664,6.93932143 L74.5508571,6.93932143 Z"/>
    <mask id="l" width="4.933" height="4.955" x="0" y="0" fill="white">
      <use xlink:href="#c"/>
    </mask>
    <path id="d" d="M66.4045714,15.1152054 L66.4045714,13.9971734 C66.4045714,13.7869263 66.2387889,13.6272321 66.0342857,13.6272321 C65.8357634,13.6272321 65.664,13.7928605 65.664,13.9971734 L65.664,15.1152054 L64.5459681,15.1152054 C64.3357209,15.1152054 64.1760268,15.2809879 64.1760268,15.4854911 C64.1760268,15.6840134 64.3416551,15.8557768 64.5459681,15.8557768 L65.664,15.8557768 L65.664,16.9738087 C65.664,17.1840559 65.8297826,17.34375 66.0342857,17.34375 C66.232808,17.34375 66.4045714,17.1781216 66.4045714,16.9738087 L66.4045714,15.8557768 L67.5226034,15.8557768 C67.7328505,15.8557768 67.8925446,15.6899942 67.8925446,15.4854911 C67.8925446,15.2869687 67.7269163,15.1152054 67.5226034,15.1152054 L66.4045714,15.1152054 Z"/>
    <mask id="m" width="3.7" height="3.717" x="0" y="0" fill="white">
      <use xlink:href="#d"/>
    </mask>
    <path id="e" d="M5.92457143,13.8763661 L5.92457143,12.7583341 C5.92457143,12.548087 5.75878887,12.3883929 5.55428571,12.3883929 C5.35576339,12.3883929 5.184,12.5540212 5.184,12.7583341 L5.184,13.8763661 L4.06596807,13.8763661 C3.85572091,13.8763661 3.69602679,14.0421486 3.69602679,14.2466518 C3.69602679,14.4451741 3.86165514,14.6169375 4.06596807,14.6169375 L5.184,14.6169375 L5.184,15.7349694 C5.184,15.9452166 5.34978256,16.1049107 5.55428571,16.1049107 C5.75280804,16.1049107 5.92457143,15.9392824 5.92457143,15.7349694 L5.92457143,14.6169375 L7.04260336,14.6169375 C7.25285052,14.6169375 7.41254464,14.4511549 7.41254464,14.2466518 C7.41254464,14.0481295 7.24691629,13.8763661 7.04260336,13.8763661 L5.92457143,13.8763661 Z"/>
    <mask id="n" width="3.7" height="3.717" x="0" y="0" fill="white">
      <use xlink:href="#e"/>
    </mask>
    <path id="f" d="M83.6845714,2.7268125 L83.6845714,1.60878057 C83.6845714,1.39853341 83.5187889,1.23883929 83.3142857,1.23883929 C83.1157634,1.23883929 82.944,1.40446764 82.944,1.60878057 L82.944,2.7268125 L81.8259681,2.7268125 C81.6157209,2.7268125 81.4560268,2.89259506 81.4560268,3.09709821 C81.4560268,3.29562054 81.6216551,3.46738393 81.8259681,3.46738393 L82.944,3.46738393 L82.944,4.58541586 C82.944,4.79566302 83.1097826,4.95535714 83.3142857,4.95535714 C83.512808,4.95535714 83.6845714,4.78972879 83.6845714,4.58541586 L83.6845714,3.46738393 L84.8026034,3.46738393 C85.0128505,3.46738393 85.1725446,3.30160137 85.1725446,3.09709821 C85.1725446,2.89857589 85.0069163,2.7268125 84.8026034,2.7268125 L83.6845714,2.7268125 Z"/>
    <mask id="o" width="3.7" height="3.717" x="0" y="0" fill="white">
      <use xlink:href="#f"/>
    </mask>
    <filter id="p" width="200%" height="200%" x="-50%" y="-50%" filterUnits="objectBoundingBox">
      <feOffset dy="1" in="SourceAlpha" result="shadowOffsetOuter1"/>
      <feGaussianBlur stdDeviation="1" in="shadowOffsetOuter1" result="shadowBlurOuter1"/>
      <feColorMatrix values="0 0 0 0 0 0 0 0 0 0 0 0 0 0 0 0 0 0 0.159391984 0" in="shadowBlurOuter1" result="shadowMatrixOuter1"/>
      <feMerge>
        <feMergeNode in="shadowMatrixOuter1"/>
        <feMergeNode in="SourceGraphic"/>
      </feMerge>
    </filter>
    <filter id="q" width="200%" height="200%" x="-50%" y="-50%" filterUnits="objectBoundingBox">
      <feOffset dy="1" in="SourceAlpha" result="shadowOffsetOuter1"/>
      <feGaussianBlur stdDeviation="1" in="shadowOffsetOuter1" result="shadowBlurOuter1"/>
      <feColorMatrix values="0 0 0 0 0 0 0 0 0 0 0 0 0 0 0 0 0 0 0.127972147 0" in="shadowBlurOuter1" result="shadowMatrixOuter1"/>
      <feMerge>
        <feMergeNode in="shadowMatrixOuter1"/>
        <feMergeNode in="SourceGraphic"/>
      </feMerge>
    </filter>
    <rect id="g" width="36.8" height="52.232" rx="2.509"/>
    <mask id="r" width="36.8" height="52.232" x="0" y="0" fill="white">
      <use xlink:href="#g"/>
    </mask>
    <filter id="s" width="200%" height="200%" x="-50%" y="-50%" filterUnits="objectBoundingBox">
      <feOffset dy="2" in="SourceAlpha" result="shadowOffsetOuter1"/>
      <feGaussianBlur stdDeviation="2.5" in="shadowOffsetOuter1" result="shadowBlurOuter1"/>
      <feColorMatrix values="0 0 0 0 0 0 0 0 0 0 0 0 0 0 0 0 0 0 0.127972147 0" in="shadowBlurOuter1" result="shadowMatrixOuter1"/>
      <feMerge>
        <feMergeNode in="shadowMatrixOuter1"/>
        <feMergeNode in="SourceGraphic"/>
      </feMerge>
    </filter>
    <rect id="h" width="36.8" height="52.232" rx="2.509"/>
    <mask id="t" width="36.8" height="52.232" x="0" y="0" fill="white">
      <use xlink:href="#h"/>
    </mask>
  </defs>
  <g fill="none" fill-rule="evenodd" transform="translate(5 20)">
    <g filter="url(#i)" transform="translate(68)">
      <g transform="translate(13.577 1.239)">
        <path fill="#FFFFFF" d="M31.4046199,0.191779922 L31.0624057,39.044212 C33.8991113,39.9075994 35.8555335,42.4437998 35.4643555,45.3577322 C35.1221413,48.0018561 32.7250452,50.1603245 29.7909442,50.4301331 C25.8781,50.807865 22.5517566,48.0558178 22.5517566,44.6022683 C22.5517566,42.0121061 24.4107834,39.799676 26.9537064,39.044212 L27.1985252,0.245741633 L23.7747865,0.13781821 C22.6007204,0.0838564992 21.5735455,0.731397034 21.1334038,1.70270784 L0.982681667,44.3864214 C0.248757263,46.0052727 0.248757263,47.7860092 1.080077,49.3508988 L15.4110287,77.3030653 L41.9206549,77.3030653 L57.0339626,49.5667457 C57.9142461,47.9478943 57.9632099,46.1671579 57.2292855,44.4943448 L37.5676689,1.75666955 C37.0785634,0.839320456 36.0513886,0.245741633 34.9262862,0.245741633 L31.4046199,0.191779922 Z"/>
        <path fill="#EAEAEA" d="M29.0273754,50.3293625 C29.2297332,50.3263542 29.4340952,50.315165 29.6400687,50.2954499 C32.5992854,50.0256413 35.0169005,47.8671729 35.3620441,45.223049 C35.7565705,42.3091166 33.7834015,39.7729162 30.9224138,38.9095288 L31.2675574,0.0570967191 L34.8193689,0.11105843 C35.9541021,0.11105843 36.9900695,0.704637254 37.4833618,1.62198634 L57.3132809,44.3596616 C58.0534876,46.0324747 58.0041047,47.8132111 57.116286,49.4320625 L41.8736092,77.168382 L29.0273754,77.168382 L29.0273754,50.3293625 Z"/>
        <path stroke="#4A4A4A" stroke-width="3.193" d="M32.4712888,0.201427194 C32.1761181,0.196099153 31.9346495,0.439883908 31.9321274,0.726224478 L31.5946206,39.044212 C34.4313263,39.9075994 35.8555335,42.4437998 35.4643555,45.3577322 C35.1221413,48.0018561 32.7250452,50.1603245 29.7909442,50.4301331 C25.8781,50.807865 22.5517566,48.0558178 22.5517566,44.6022683 C22.5517566,42.0121061 23.8785684,39.799676 26.4214914,39.044212 L26.6629426,0.779443905 C26.6648025,0.484688279 26.4197806,0.236540143 26.1359603,0.225946814 L23.7747865,0.13781821 C22.6007204,0.0838564992 21.5735455,0.731397034 21.1334038,1.70270784 L0.982681667,44.3864214 C0.248757263,46.0052727 0.248757263,47.7860092 1.080077,49.3508988 L15.4110287,77.3030653 L41.9206549,77.3030653 L57.0339626,49.5667457 C57.9142461,47.9478943 57.9632099,46.1671579 57.2292855,44.4943448 L37.5676689,1.75666955 C37.0785634,0.839320456 36.0513886,0.245741633 34.9262862,0.245741633 L32.4712888,0.201427194 Z"/>
        <path fill="#3AD9FF" d="M11.5362911,87.7417424 C10.4601525,87.7417424 9.57986894,86.8243934 9.57986894,85.7451591 L9.57986894,79.1618304 C9.57986894,78.0286344 10.4601525,77.165247 11.5362911,77.165247 L46.7518893,77.165247 C47.8280279,77.165247 48.7083114,78.0825961 48.7083114,79.1618304 L48.7083114,85.7451591 C48.7083114,86.8243934 47.8280279,87.7417424 46.7518893,87.7417424 L11.5362911,87.7417424 Z"/>
        <path fill="#3EC0DF" d="M29.2718218,77.165247 L46.7518893,77.165247 C47.8280279,77.165247 48.7083114,78.0825961 48.7083114,79.1618304 L48.7083114,85.7451591 C48.7083114,86.8243934 47.8280279,87.7417424 46.7518893,87.7417424 L29.2718218,87.7417424 L29.2718218,77.165247 Z"/>
        <path stroke="#4A4A4A" stroke-width="3.193" d="M11.4492207,87.9335224 C10.3730821,87.9335224 9.49279857,87.0161733 9.49279857,85.936939 L9.49279857,79.3536103 C9.49279857,78.2204143 10.3730821,77.357027 11.4492207,77.357027 L46.6648189,77.357027 C47.7409575,77.357027 48.621241,78.2743761 48.621241,79.3536103 L48.621241,85.936939 C48.621241,87.0161733 47.7409575,87.9335224 46.6648189,87.9335224 L11.4492207,87.9335224 Z"/>
        <path stroke="#4A4A4A" stroke-width="2.129" d="M17.5630856,44.2486032 C15.755851,45.6596908 13.0197488,45.6870416 11.1765063,44.3306553" stroke-linecap="round" stroke-linejoin="bevel" transform="scale(1 -1) rotate(7 746.65 0)"/>
        <path stroke="#4A4A4A" stroke-width="2.129" d="M46.8349223,44.2486032 C45.0276877,45.6596908 42.2915855,45.6870416 40.448343,44.3306553" stroke-linecap="round" stroke-linejoin="bevel" transform="scale(1 -1) rotate(-7 -688.64 0)"/>
        <path stroke="#4A4A4A" stroke-width="2.661" d="M34.5939712,56.6597968 C31.4313107,59.5498724 26.6431318,59.6058899 23.4174574,56.8278493" stroke-linecap="round" stroke-linejoin="bevel" opacity="0"/>
        <path fill="#FFFFFF" stroke="#4A4A4A" stroke-width="1.597" d="M29.0731208,63.6748192 C35.6239313,63.6748192 36.2734614,56.6597968 35.6239311,56.6597968 L22.378787,56.6597968 C21.7984101,56.6597968 22.378787,63.6748192 29.0731208,63.6748192 Z" stroke-linecap="round" stroke-linejoin="bevel"/>
      </g>
      <ellipse cx="17.897" cy="17.963" stroke="#F8E81C" stroke-width="1.064" rx="1.851" ry="1.858"/>
      <ellipse cx="78.377" cy="20.441" stroke="#3AD9FF" stroke-width="1.064" rx="1.851" ry="1.858"/>
      <ellipse cx="12.96" cy="9.291" stroke="#F11F5E" stroke-width="1.064" rx="1.851" ry="1.858"/>
      <ellipse cx="84.549" cy="13.008" stroke="#F6A623" stroke-width="1.064" rx=".617" ry=".619"/>
      <ellipse cx="8.023" cy="3.097" stroke="#B8E986" stroke-width="1.064" rx=".617" ry=".619"/>
      <ellipse cx="65.417" cy="7.433" stroke="#F6A623" stroke-width="1.064" rx="1.234" ry="1.239"/>
      <use fill="#F11F5E" stroke="#F11F5E" stroke-width="1.232" mask="url(#j)" xlink:href="#a"/>
      <use fill="#F11F5E" stroke="#F6A623" stroke-width="1.232" mask="url(#k)" xlink:href="#b"/>
      <use fill="#F11F5E" stroke="#F11F5E" stroke-width="1.232" mask="url(#l)" xlink:href="#c"/>
      <use fill="#F11F5E" stroke="#B8E986" stroke-width="1.232" mask="url(#m)" xlink:href="#d"/>
      <use fill="#F11F5E" stroke="#3AD9FF" stroke-width="1.232" mask="url(#n)" transform="rotate(45 5.554 14.247)" xlink:href="#e"/>
      <use fill="#F11F5E" stroke="#F8E81C" stroke-width="1.232" mask="url(#o)" transform="rotate(45 83.314 3.097)" xlink:href="#f"/>
    </g>
    <g stroke="#3AD9FF" stroke-width="1.68" filter="url(#p)" transform="translate(172 24.107)">
      <path fill="#3EC0DE" d="M27.2524175,5.06769537 C27.8930179,4.69423871 28.9276096,4.69189119 29.5722368,5.06769537 L45.7948087,14.5251163 C46.4354091,14.8985729 46.9547183,15.8021172 46.9547183,16.5537256 L46.9547183,35.4685674 C46.9547183,36.2154807 46.4394359,37.1213725 45.7948087,37.4971767 L29.5722368,46.9545976 C28.9316364,47.3280543 27.8970447,47.3304018 27.2524175,46.9545976 L11.0298456,37.4971767 C10.3892452,37.1237201 9.86993596,36.2201758 9.86993596,35.4685674 L9.86993596,16.5537256 C9.86993596,15.8068123 10.3852184,14.9009205 11.0298456,14.5251163 L27.2524175,5.06769537 Z"/>
      <path d="M45.7824813,25.5834232 C46.4230816,25.9568799 46.9423909,26.8604241 46.9423909,27.6120325 L46.9423912,46.5268747 C46.9423912,47.273788 46.4271087,47.578882 45.7824816,47.2030778 L29.5599096,37.7456569 C28.9193092,37.3722002 28.4,36.468656 28.4,35.7170476 L28.4,16.8022058 C28.4,16.0552925 28.9152825,15.7501985 29.5599096,16.1260026 L45.7824813,25.5834232 Z" transform="rotate(-120 37.671 31.665)"/>
      <path d="M27.0479358,25.5834232 C27.6885362,25.9568799 28.2078454,26.8604241 28.2078454,27.6120325 L28.2078457,46.5268747 C28.2078457,47.273788 27.6925633,47.578882 27.0479361,47.2030778 L10.8253642,37.7456569 C10.1847638,37.3722002 9.66545455,36.468656 9.66545455,35.7170476 L9.66545455,16.8022058 C9.66545455,16.0552925 10.180737,15.7501985 10.8253641,16.1260026 L27.0479358,25.5834232 Z" transform="scale(1 -1) rotate(60 73.781 0)"/>
      <path d="M27.769933,5.61485281 C28.4105334,5.24139615 29.4451251,5.23904863 30.0897522,5.61485281 L46.3123242,15.0722737 C46.9529246,15.4457304 46.9569513,16.0488757 46.3123242,16.4246799 L30.0897519,25.8821005 C29.4491515,26.2555571 28.9298423,27.1591014 28.9298423,27.9107098 L28.9298426,46.825552 C28.9298426,47.5724653 28.4145602,47.8775593 27.769933,47.5017551 L11.547361,38.0443342 C10.9067607,37.6708775 10.3874514,36.7673332 10.3874514,36.0157249 L10.3874514,17.100883 C10.3874514,16.3539697 10.9027339,15.4480779 11.547361,15.0722737 L27.769933,5.61485281 Z" transform="rotate(-120 28.59 26.498)"/>
    </g>
    <g transform="translate(0 21.696)">
      <g filter="url(#q)" transform="translate(4)">
        <use fill="#E3E3E3" stroke="#FFFFFF" stroke-width="5.52" mask="url(#r)" stroke-linecap="round" stroke-linejoin="round" xlink:href="#g"/>
        <g transform="translate(6.867 21.214)">
          <polygon fill="#000104" points="12.688 4.1 12.687 2.235 13.84 2.235 13.84 4.1"/>
          <g transform="translate(0 .023)">
            <path fill="#000104" d="M16.5495387,6.2999584 C15.7502901,6.39199798 15.028212,5.81319545 14.9369996,5.00692624 C14.8457872,4.20102011 15.4200052,3.47293312 16.2193138,3.38101456 C17.0187424,3.289096 17.7406405,3.86801955 17.8317929,4.6739862 C17.9229453,5.48031592 17.3489073,6.20822137 16.5495387,6.2999584 L16.5495387,6.2999584 Z M11.4307232,5.93488619 C11.1453844,6.32234804 10.6027307,6.40319281 10.2186185,6.1157582 C10.0574966,5.99515669 9.92907916,5.79637296 9.88755352,5.57822522 L9.8873735,5.57737805 L8.639864,5.57737805 C8.38782976,6.01579146 7.91730583,6.31175834 7.37861263,6.31175834 C7.29526131,6.31175834 7.21383025,6.30425479 7.13419943,6.29063946 L9.58331219,3.42724615 L11.2422976,4.66854007 C11.6398516,4.96614079 11.7156419,5.54730331 11.4307232,5.93488619 L11.4307232,5.93488619 Z M5.92191471,4.8427557 C5.92191471,4.03134292 6.57432336,3.37363203 7.37861263,3.37363203 C7.61846522,3.37363203 7.84265568,3.43493124 8.04218279,3.5384077 L6.19831227,5.70336517 C6.02470868,5.46161754 5.92191471,5.16444041 5.92191471,4.8427557 L5.92191471,4.8427557 Z M2.63304786,6.31018502 C1.84694105,6.31018502 1.20965446,5.65077977 1.20965446,4.83737008 C1.20965446,4.02383937 1.84694105,3.36455514 2.63304786,3.36455514 C3.41915466,3.36455514 4.05644125,4.02383937 4.05644125,4.83737008 C4.05644125,5.65077977 3.41915466,6.31018502 2.63304786,6.31018502 L2.63304786,6.31018502 Z M14.3800639,9.26041384 C14.3860047,9.29986803 14.4055674,9.39590144 14.4055674,9.39590144 C14.5304444,9.93210314 14.8658299,10.4167481 15.3759592,10.7139253 C16.3564324,11.2857084 17.6108429,10.9475037 18.1776799,9.95860764 C18.7226739,9.00807651 18.4309743,7.8039373 17.5367928,7.20443947 C18.082867,6.93376684 18.5150457,6.47877298 18.7634195,5.92829032 L18.7634195,7.42754924 L19.915276,7.42754924 L19.915276,4.27889976 C19.915276,3.77846098 20.3175706,3.37260331 20.8140181,3.37260331 C21.3102855,3.37260331 21.7127602,3.77846098 21.7127602,4.27889976 L21.7127602,7.42803334 L22.8646167,7.42803334 L22.8646167,4.27315107 C22.8646167,3.13109773 21.946432,2.20525573 20.8140181,2.20525573 C19.8244836,2.20525573 18.9988915,2.91186076 18.8060253,3.8518627 C18.376967,2.78206134 17.2809181,2.08659062 16.0885561,2.22383308 C14.9605828,2.35351147 14.0829636,3.18961336 13.8398705,4.2443471 L13.8398705,3.55958709 L12.6874139,3.55958709 L12.6874139,4.85086438 C12.570158,4.419894 12.3140432,4.02365783 11.9304711,3.73664681 L11.3843369,3.32746095 L12.4651437,3.32746095 L12.4651437,2.21136749 L11.1185608,2.21136749 L11.1185608,3.12825364 L10.0650576,2.33904897 C10.0650576,2.33904897 9.99868862,2.29560096 9.93940057,2.21136749 L8.60535931,2.21136749 C8.64778508,2.35587146 8.68733045,2.4838555 8.75159918,2.5981032 C8.35218491,2.35103046 7.88142095,2.2090075 7.37867264,2.2090075 C6.46102796,2.2090075 5.65403832,2.68626998 5.18819502,3.40812418 L5.18819502,0.174757135 L4.01143514,0.174757135 L4.01161516,2.64621067 C3.6335638,2.37081806 3.15145829,2.21039929 2.63310786,2.21039929 C1.22801696,2.21039929 0.0889421898,3.3889417 0.0889421898,4.84263467 C0.0889421898,6.29675123 1.22801696,7.47505159 2.63310786,7.47505159 C3.68457073,7.47505159 4.58703334,6.81516224 4.97474602,5.87358697 C5.37254007,6.81570685 6.29906596,7.47632235 7.37867264,7.47632235 C8.07182682,7.47632235 8.70179241,7.20437896 9.16931594,6.7604589 C9.26340872,6.86823175 9.3699832,6.9678354 9.48897937,7.05672834 C10.3984029,7.73737349 11.6828775,7.54585127 12.3578492,6.62872308 C12.5129702,6.41807889 12.6222451,6.18752608 12.6874139,5.94904612 L12.687534,7.43741278 L13.8398705,7.43741278 L13.8398705,5.4344474 C14.0260758,6.25027759 14.5808512,6.90544696 15.3014891,7.23723727 L16.8477792,8.13972143 C17.2761174,8.38957775 17.4257777,8.94363065 17.1780041,9.37587179 C16.9304104,9.80756831 16.382356,9.9555215 15.9539578,9.70584672 C15.7737533,9.60085745 15.6434156,9.44116483 15.5712858,9.26041384 L14.3800639,9.26041384 Z"/>
            <path fill="#ED1C24" d="M13.8819103,1.2978061 C13.9045934,1.28413027 13.9297368,1.26972828 13.95272,1.25538681 C14.0896586,1.17018514 14.1824312,1.01503096 14.1824312,0.840875843 C14.1824312,0.57328935 13.9673619,0.356533398 13.7021259,0.356533398 C13.4974381,0.356533398 13.3229944,0.485667178 13.253865,0.667567902 C13.1847356,0.485667178 13.0104119,0.356533398 12.8057841,0.356533398 C12.5403681,0.356533398 12.3253589,0.57328935 12.3253589,0.840875843 C12.3253589,1.01503096 12.4180114,1.17018514 12.5551301,1.25538681 C12.5779332,1.26972828 12.6033166,1.28413027 12.6258197,1.2978061 C12.8348881,1.42397477 13.0567382,1.55740494 13.2584856,1.6691111 C13.460053,1.55740494 13.6729619,1.42397477 13.8819103,1.2978061 Z"/>
          </g>
        </g>
      </g>
      <g filter="url(#s)" transform="translate(0 4.018)">
        <use fill="#E3E3E3" stroke="#FFFFFF" stroke-width="5.52" mask="url(#t)" stroke-linecap="round" stroke-linejoin="round" xlink:href="#h"/>
        <g transform="translate(6.867 21.214)">
          <polygon fill="#000104" points="12.688 4.1 12.687 2.235 13.84 2.235 13.84 4.1"/>
          <g transform="translate(0 .023)">
            <path fill="#000104" d="M16.5495387,6.2999584 C15.7502901,6.39199798 15.028212,5.81319545 14.9369996,5.00692624 C14.8457872,4.20102011 15.4200052,3.47293312 16.2193138,3.38101456 C17.0187424,3.289096 17.7406405,3.86801955 17.8317929,4.6739862 C17.9229453,5.48031592 17.3489073,6.20822137 16.5495387,6.2999584 L16.5495387,6.2999584 Z M11.4307232,5.93488619 C11.1453844,6.32234804 10.6027307,6.40319281 10.2186185,6.1157582 C10.0574966,5.99515669 9.92907916,5.79637296 9.88755352,5.57822522 L9.8873735,5.57737805 L8.639864,5.57737805 C8.38782976,6.01579146 7.91730583,6.31175834 7.37861263,6.31175834 C7.29526131,6.31175834 7.21383025,6.30425479 7.13419943,6.29063946 L9.58331219,3.42724615 L11.2422976,4.66854007 C11.6398516,4.96614079 11.7156419,5.54730331 11.4307232,5.93488619 L11.4307232,5.93488619 Z M5.92191471,4.8427557 C5.92191471,4.03134292 6.57432336,3.37363203 7.37861263,3.37363203 C7.61846522,3.37363203 7.84265568,3.43493124 8.04218279,3.5384077 L6.19831227,5.70336517 C6.02470868,5.46161754 5.92191471,5.16444041 5.92191471,4.8427557 L5.92191471,4.8427557 Z M2.63304786,6.31018502 C1.84694105,6.31018502 1.20965446,5.65077977 1.20965446,4.83737008 C1.20965446,4.02383937 1.84694105,3.36455514 2.63304786,3.36455514 C3.41915466,3.36455514 4.05644125,4.02383937 4.05644125,4.83737008 C4.05644125,5.65077977 3.41915466,6.31018502 2.63304786,6.31018502 L2.63304786,6.31018502 Z M14.3800639,9.26041384 C14.3860047,9.29986803 14.4055674,9.39590144 14.4055674,9.39590144 C14.5304444,9.93210314 14.8658299,10.4167481 15.3759592,10.7139253 C16.3564324,11.2857084 17.6108429,10.9475037 18.1776799,9.95860764 C18.7226739,9.00807651 18.4309743,7.8039373 17.5367928,7.20443947 C18.082867,6.93376684 18.5150457,6.47877298 18.7634195,5.92829032 L18.7634195,7.42754924 L19.915276,7.42754924 L19.915276,4.27889976 C19.915276,3.77846098 20.3175706,3.37260331 20.8140181,3.37260331 C21.3102855,3.37260331 21.7127602,3.77846098 21.7127602,4.27889976 L21.7127602,7.42803334 L22.8646167,7.42803334 L22.8646167,4.27315107 C22.8646167,3.13109773 21.946432,2.20525573 20.8140181,2.20525573 C19.8244836,2.20525573 18.9988915,2.91186076 18.8060253,3.8518627 C18.376967,2.78206134 17.2809181,2.08659062 16.0885561,2.22383308 C14.9605828,2.35351147 14.0829636,3.18961336 13.8398705,4.2443471 L13.8398705,3.55958709 L12.6874139,3.55958709 L12.6874139,4.85086438 C12.570158,4.419894 12.3140432,4.02365783 11.9304711,3.73664681 L11.3843369,3.32746095 L12.4651437,3.32746095 L12.4651437,2.21136749 L11.1185608,2.21136749 L11.1185608,3.12825364 L10.0650576,2.33904897 C10.0650576,2.33904897 9.99868862,2.29560096 9.93940057,2.21136749 L8.60535931,2.21136749 C8.64778508,2.35587146 8.68733045,2.4838555 8.75159918,2.5981032 C8.35218491,2.35103046 7.88142095,2.2090075 7.37867264,2.2090075 C6.46102796,2.2090075 5.65403832,2.68626998 5.18819502,3.40812418 L5.18819502,0.174757135 L4.01143514,0.174757135 L4.01161516,2.64621067 C3.6335638,2.37081806 3.15145829,2.21039929 2.63310786,2.21039929 C1.22801696,2.21039929 0.0889421898,3.3889417 0.0889421898,4.84263467 C0.0889421898,6.29675123 1.22801696,7.47505159 2.63310786,7.47505159 C3.68457073,7.47505159 4.58703334,6.81516224 4.97474602,5.87358697 C5.37254007,6.81570685 6.29906596,7.47632235 7.37867264,7.47632235 C8.07182682,7.47632235 8.70179241,7.20437896 9.16931594,6.7604589 C9.26340872,6.86823175 9.3699832,6.9678354 9.48897937,7.05672834 C10.3984029,7.73737349 11.6828775,7.54585127 12.3578492,6.62872308 C12.5129702,6.41807889 12.6222451,6.18752608 12.6874139,5.94904612 L12.687534,7.43741278 L13.8398705,7.43741278 L13.8398705,5.4344474 C14.0260758,6.25027759 14.5808512,6.90544696 15.3014891,7.23723727 L16.8477792,8.13972143 C17.2761174,8.38957775 17.4257777,8.94363065 17.1780041,9.37587179 C16.9304104,9.80756831 16.382356,9.9555215 15.9539578,9.70584672 C15.7737533,9.60085745 15.6434156,9.44116483 15.5712858,9.26041384 L14.3800639,9.26041384 Z"/>
            <path fill="#ED1C24" d="M13.8819103,1.2978061 C13.9045934,1.28413027 13.9297368,1.26972828 13.95272,1.25538681 C14.0896586,1.17018514 14.1824312,1.01503096 14.1824312,0.840875843 C14.1824312,0.57328935 13.9673619,0.356533398 13.7021259,0.356533398 C13.4974381,0.356533398 13.3229944,0.485667178 13.253865,0.667567902 C13.1847356,0.485667178 13.0104119,0.356533398 12.8057841,0.356533398 C12.5403681,0.356533398 12.3253589,0.57328935 12.3253589,0.840875843 C12.3253589,1.01503096 12.4180114,1.17018514 12.5551301,1.25538681 C12.5779332,1.26972828 12.6033166,1.28413027 12.6258197,1.2978061 C12.8348881,1.42397477 13.0567382,1.55740494 13.2584856,1.6691111 C13.460053,1.55740494 13.6729619,1.42397477 13.8819103,1.2978061 Z"/>
          </g>
        </g>
      </g>
    </g>
  </g>
</svg>
