<svg xmlns="http://www.w3.org/2000/svg" width="87" height="92" viewBox="0 0 87 92" xmlns:xlink="http://www.w3.org/1999/xlink">
  <defs>
    <path id="a" d="M21.4856964,8.24662752 C21.4856964,8.10646275 21.3751747,8 21.2388393,8 C21.1064911,8 20.9919821,8.1104189 20.9919821,8.24662752 L20.9919821,8.99198214 L20.2466275,8.99198214 C20.1064628,8.99198214 20,9.10250385 20,9.23883929 C20,9.3711875 20.1104189,9.48569643 20.2466275,9.48569643 L20.9919821,9.48569643 L20.9919821,10.231051 C20.9919821,10.3712158 21.1025039,10.4776786 21.2388393,10.4776786 C21.3711875,10.4776786 21.4856964,10.3672597 21.4856964,10.231051 L21.4856964,9.48569643 L22.231051,9.48569643 C22.3712158,9.48569643 22.4776786,9.37517472 22.4776786,9.23883929 C22.4776786,9.10649107 22.3672597,8.99198214 22.231051,8.99198214 L21.4856964,8.99198214 L21.4856964,8.24662752 Z"/>
    <mask id="g" width="2.478" height="2.478" x="0" y="0" fill="white">
      <use xlink:href="#a"/>
    </mask>
    <path id="b" d="M1.19926486,7.19907951 C1.19926486,7.0859375 1.11005095,7 1,7 C0.893167568,7 0.800735135,7.08913093 0.800735135,7.19907951 L0.800735135,7.80073514 L0.199079514,7.80073514 C0.0859375,7.80073514 0,7.88994905 0,8 C0,8.10683243 0.0891309342,8.19926486 0.199079514,8.19926486 L0.800735135,8.19926486 L0.800735135,8.80092049 C0.800735135,8.9140625 0.889949054,9 1,9 C1.10683243,9 1.19926486,8.91086907 1.19926486,8.80092049 L1.19926486,8.19926486 L1.80092049,8.19926486 C1.9140625,8.19926486 2,8.11005095 2,8 C2,7.89316757 1.91086907,7.80073514 1.80092049,7.80073514 L1.19926486,7.80073514 L1.19926486,7.19907951 Z"/>
    <mask id="h" width="2" height="2" x="0" y="0" fill="white">
      <use xlink:href="#b"/>
    </mask>
    <path id="c" d="M75.5508571,5.93932143 L75.5508571,4.44861219 C75.5508571,4.16828265 75.3298137,3.95535714 75.0571429,3.95535714 C74.7924464,3.95535714 74.5634286,4.17619495 74.5634286,4.44861219 L74.5634286,5.93932143 L73.0727193,5.93932143 C72.7923898,5.93932143 72.5794643,6.16036484 72.5794643,6.43303571 C72.5794643,6.69773214 72.8003021,6.92675 73.0727193,6.92675 L74.5634286,6.92675 L74.5634286,8.41745924 C74.5634286,8.69778878 74.784472,8.91071429 75.0571429,8.91071429 C75.3218393,8.91071429 75.5508571,8.68987648 75.5508571,8.41745924 L75.5508571,6.92675 L77.0415664,6.92675 C77.3218959,6.92675 77.5348214,6.70570659 77.5348214,6.43303571 C77.5348214,6.16833929 77.3139836,5.93932143 77.0415664,5.93932143 L75.5508571,5.93932143 L75.5508571,5.93932143 Z"/>
    <mask id="i" width="4.955" height="4.955" x="0" y="0" fill="white">
      <use xlink:href="#c"/>
    </mask>
    <path id="d" d="M67.4045714,14.1152054 L67.4045714,12.9971734 C67.4045714,12.7869263 67.2387889,12.6272321 67.0342857,12.6272321 C66.8357634,12.6272321 66.664,12.7928605 66.664,12.9971734 L66.664,14.1152054 L65.5459681,14.1152054 C65.3357209,14.1152054 65.1760268,14.2809879 65.1760268,14.4854911 C65.1760268,14.6840134 65.3416551,14.8557768 65.5459681,14.8557768 L66.664,14.8557768 L66.664,15.9738087 C66.664,16.1840559 66.8297826,16.34375 67.0342857,16.34375 C67.232808,16.34375 67.4045714,16.1781216 67.4045714,15.9738087 L67.4045714,14.8557768 L68.5226034,14.8557768 C68.7328505,14.8557768 68.8925446,14.6899942 68.8925446,14.4854911 C68.8925446,14.2869687 68.7269163,14.1152054 68.5226034,14.1152054 L67.4045714,14.1152054 L67.4045714,14.1152054 Z"/>
    <mask id="j" width="3.717" height="3.717" x="0" y="0" fill="white">
      <use xlink:href="#d"/>
    </mask>
    <path id="e" d="M7.07794879,13.2466518 L7.86851675,12.4560838 C8.01718394,12.3074166 8.01287877,12.0772699 7.8682732,11.9326643 C7.72789672,11.7922878 7.48932473,11.7879497 7.34485367,11.9324207 L6.55428571,12.7229887 L5.76371775,11.9324207 C5.61505056,11.7837536 5.38490379,11.7880587 5.24029822,11.9326643 C5.09992174,12.0730408 5.09558362,12.3116128 5.24005468,12.4560838 L6.03062264,13.2466518 L5.24005468,14.0372197 C5.09138749,14.1858869 5.09569266,14.4160337 5.24029822,14.5606393 C5.3806747,14.7010158 5.6192467,14.7053539 5.76371775,14.5608828 L6.55428571,13.7703149 L7.34485367,14.5608828 C7.49352086,14.70955 7.72366764,14.7052448 7.8682732,14.5606393 C8.00864968,14.4202628 8.01298781,14.1816908 7.86851675,14.0372197 L7.07794879,13.2466518 L7.07794879,13.2466518 Z"/>
    <mask id="k" width="2.848" height="2.848" x="0" y="0" fill="white">
      <use xlink:href="#e"/>
    </mask>
    <path id="f" d="M84.8379488,2.09709821 L85.6285168,1.30653025 C85.7771839,1.15786306 85.7728788,0.927716291 85.6282732,0.783110725 C85.4878967,0.642734245 85.2493247,0.638396118 85.1048537,0.782867175 L84.3142857,1.57343514 L83.5237178,0.782867175 C83.3750506,0.634199985 83.1449038,0.638505158 83.0002982,0.783110725 C82.8599217,0.923487204 82.8555836,1.1620592 83.0000547,1.30653025 L83.7906226,2.09709821 L83.0000547,2.88766617 C82.8513875,3.03633336 82.8556927,3.26648014 83.0002982,3.4110857 C83.1406747,3.55146218 83.3792467,3.55580031 83.5237178,3.41132925 L84.3142857,2.62076129 L85.1048537,3.41132925 C85.2535209,3.55999644 85.4836676,3.55569127 85.6282732,3.4110857 C85.7686497,3.27070922 85.7729878,3.03213723 85.6285168,2.88766617 L84.8379488,2.09709821 L84.8379488,2.09709821 Z"/>
    <mask id="l" width="2.848" height="2.848" x="0" y="0" fill="white">
      <use xlink:href="#f"/>
    </mask>
  </defs>
  <g fill="none" fill-rule="evenodd" transform="translate(0 2)">
    <g transform="translate(14.577 .239)">
      <path fill="#FFFFFF" d="M31.4046199,0.191779922 L31.0624057,39.044212 C33.8991113,39.9075994 35.8555335,42.4437998 35.4643555,45.3577322 C35.1221413,48.0018561 32.7250452,50.1603245 29.7909442,50.4301331 C25.8781,50.807865 22.5517566,48.0558178 22.5517566,44.6022683 C22.5517566,42.0121061 24.4107834,39.799676 26.9537064,39.044212 L27.1985252,0.245741633 L23.7747865,0.13781821 C22.6007204,0.0838564992 21.5735455,0.731397034 21.1334038,1.70270784 L0.982681667,44.3864214 C0.248757263,46.0052727 0.248757263,47.7860092 1.080077,49.3508988 L15.4110287,77.3030653 L41.9206549,77.3030653 L57.0339626,49.5667457 C57.9142461,47.9478943 57.9632099,46.1671579 57.2292855,44.4943448 L37.5676689,1.75666955 C37.0785634,0.839320456 36.0513886,0.245741633 34.9262862,0.245741633 L31.4046199,0.191779922 Z"/>
      <path fill="#EAEAEA" d="M29.0273754,50.3293625 C29.2297332,50.3263542 29.4340952,50.315165 29.6400687,50.2954499 C32.5992854,50.0256413 35.0169005,47.8671729 35.3620441,45.223049 C35.7565705,42.3091166 33.7834015,39.7729162 30.9224138,38.9095288 L31.2675574,0.0570967191 L34.8193689,0.11105843 C35.9541021,0.11105843 36.9900695,0.704637254 37.4833618,1.62198634 L57.3132809,44.3596616 C58.0534876,46.0324747 58.0041047,47.8132111 57.116286,49.4320625 L41.8736092,77.168382 L29.0273754,77.168382 L29.0273754,50.3293625 L29.0273754,50.3293625 Z"/>
      <path stroke="#4A4A4A" stroke-width="3.193" d="M32.4712888,0.201427194 C32.1761181,0.196099153 31.9346495,0.439883908 31.9321274,0.726224478 L31.5946206,39.044212 C34.4313263,39.9075994 35.8555335,42.4437998 35.4643555,45.3577322 C35.1221413,48.0018561 32.7250452,50.1603245 29.7909442,50.4301331 C25.8781,50.807865 22.5517566,48.0558178 22.5517566,44.6022683 C22.5517566,42.0121061 23.8785684,39.799676 26.4214914,39.044212 L26.6629426,0.779443905 C26.6648025,0.484688279 26.4197806,0.236540143 26.1359603,0.225946814 L23.7747865,0.13781821 C22.6007204,0.0838564992 21.5735455,0.731397034 21.1334038,1.70270784 L0.982681667,44.3864214 C0.248757263,46.0052727 0.248757263,47.7860092 1.080077,49.3508988 L15.4110287,77.3030653 L41.9206549,77.3030653 L57.0339626,49.5667457 C57.9142461,47.9478943 57.9632099,46.1671579 57.2292855,44.4943448 L37.5676689,1.75666955 C37.0785634,0.839320456 36.0513886,0.245741633 34.9262862,0.245741633 L32.4712888,0.201427194 Z"/>
      <path fill="#3AD9FF" d="M11.5362911,87.7417424 C10.4601525,87.7417424 9.57986894,86.8243934 9.57986894,85.7451591 L9.57986894,79.1618304 C9.57986894,78.0286344 10.4601525,77.165247 11.5362911,77.165247 L46.7518893,77.165247 C47.8280279,77.165247 48.7083114,78.0825961 48.7083114,79.1618304 L48.7083114,85.7451591 C48.7083114,86.8243934 47.8280279,87.7417424 46.7518893,87.7417424 L11.5362911,87.7417424 Z"/>
      <path fill="#3EC0DF" d="M29.2718218,77.165247 L46.7518893,77.165247 C47.8280279,77.165247 48.7083114,78.0825961 48.7083114,79.1618304 L48.7083114,85.7451591 C48.7083114,86.8243934 47.8280279,87.7417424 46.7518893,87.7417424 L29.2718218,87.7417424 L29.2718218,77.165247 L29.2718218,77.165247 Z"/>
      <path stroke="#4A4A4A" stroke-width="3.193" d="M11.4492207,87.9335224 C10.3730821,87.9335224 9.49279857,87.0161733 9.49279857,85.936939 L9.49279857,79.3536103 C9.49279857,78.2204143 10.3730821,77.357027 11.4492207,77.357027 L46.6648189,77.357027 C47.7409575,77.357027 48.621241,78.2743761 48.621241,79.3536103 L48.621241,85.936939 C48.621241,87.0161733 47.7409575,87.9335224 46.6648189,87.9335224 L11.4492207,87.9335224 Z"/>
      <path stroke="#4A4A4A" stroke-width="2.129" d="M17.6050461 44.9346511C15.639314 43.754328 12.9202731 44.0606281 11.2560717 45.6315388M46.7453572 45.7129793C45.1235618 44.0921632 42.4111873 43.7315694 40.4163821 44.8532106" stroke-linecap="round" stroke-linejoin="bevel"/>
      <path stroke="#4A4A4A" stroke-width="2.661" d="M34.5939712,56.6597968 C31.4313107,59.5498724 26.6431318,59.6058899 23.4174574,56.8278493" stroke-linecap="round" stroke-linejoin="bevel" opacity="0"/>
      <path fill="#FFFFFF" stroke="#4A4A4A" stroke-width="1.597" d="M29.0731208,63.6748192 C35.6239313,63.6748192 36.2734614,56.6597968 35.6239311,56.6597968 L22.378787,56.6597968 C21.7984101,56.6597968 22.378787,63.6748192 29.0731208,63.6748192 Z" stroke-linecap="round" stroke-linejoin="bevel"/>
    </g>
    <ellipse cx="18.897" cy="16.963" stroke="#F8E81C" stroke-width="1.064" rx="1.851" ry="1.858"/>
    <ellipse cx="79.377" cy="19.441" stroke="#3AD9FF" stroke-width="1.064" rx="1.851" ry="1.858"/>
    <ellipse cx="13.96" cy="8.291" stroke="#F11F5E" stroke-width="1.064" rx="1.851" ry="1.858"/>
    <ellipse cx="85.549" cy="12.008" stroke="#F6A623" stroke-width="1.064" rx=".617" ry=".619"/>
    <ellipse cx="9.023" cy="2.097" stroke="#B8E986" stroke-width="1.064" rx=".617" ry=".619"/>
    <ellipse cx="66.417" cy="6.433" stroke="#F6A623" stroke-width="1.064" rx="1.234" ry="1.239"/>
    <use fill="#F11F5E" stroke="#F11F5E" stroke-width="1.232" mask="url(#g)" xlink:href="#a"/>
    <use fill="#F5A623" stroke="#F6A623" stroke-width="1.232" mask="url(#h)" xlink:href="#b"/>
    <use fill="#F11F5E" stroke="#F11F5E" stroke-width="1.232" mask="url(#i)" xlink:href="#c"/>
    <use fill="#F11F5E" stroke="#B8E986" stroke-width="1.232" mask="url(#j)" xlink:href="#d"/>
    <use fill="#F11F5E" stroke="#3AD9FF" stroke-width="1.232" mask="url(#k)" xlink:href="#e"/>
    <use fill="#F11F5E" stroke="#F8E81C" stroke-width="1.232" mask="url(#l)" xlink:href="#f"/>
  </g>
</svg>
