<?xml version="1.0" encoding="utf-8"?>
<!-- Generator: Adobe Illustrator 19.2.0, SVG Export Plug-In . SVG Version: 6.00 Build 0)  -->
<svg version="1.1" xmlns="http://www.w3.org/2000/svg" xmlns:xlink="http://www.w3.org/1999/xlink" x="0px" y="0px"
	 viewBox="0 0 500 394.4" style="enable-background:new 0 0 500 394.4;" xml:space="preserve">
<style type="text/css">
	.st0{fill:#FFFFFF;}
	.st1{clip-path:url(#SVGID_2_);}
	.st2{fill:#C5C5C7;}
	.st3{opacity:0.2;fill:none;stroke:#231F20;stroke-miterlimit:10;}
	.st4{opacity:0.2;fill:none;stroke:#D3A62A;stroke-miterlimit:10;}
	.st5{clip-path:url(#SVGID_4_);}
	.st6{opacity:0.7;clip-path:url(#SVGID_4_);}
	.st7{fill:none;stroke:#231F20;stroke-width:0.5;stroke-miterlimit:10;}
	.st8{clip-path:url(#SVGID_4_);fill:none;stroke:#231F20;stroke-width:0.5;stroke-miterlimit:10;}
	.st9{clip-path:url(#SVGID_4_);fill:none;stroke:#D3A62A;stroke-width:0.5;stroke-miterlimit:10;}
	.st10{fill:none;stroke:#D3A62A;stroke-width:0.5;stroke-miterlimit:10;}
	.st11{clip-path:url(#SVGID_6_);}
	.st12{opacity:0.2;fill:none;stroke:#231F20;stroke-width:0.5;stroke-miterlimit:10;}
	.st13{opacity:0.7;clip-path:url(#SVGID_6_);}
	.st14{clip-path:url(#SVGID_8_);}
	.st15{opacity:0.2;fill:none;stroke:#231F20;stroke-width:0.75;stroke-miterlimit:10;}
	.st16{clip-path:url(#SVGID_10_);fill:#1A1A1A;}
	.st17{clip-path:url(#SVGID_10_);fill:#262626;stroke:#54B5E6;stroke-miterlimit:10;}
	.st18{clip-path:url(#SVGID_10_);fill:none;stroke:#C5C5C7;stroke-miterlimit:10;}
	.st19{clip-path:url(#SVGID_10_);}
	.st20{fill:none;stroke:#C5C5C7;stroke-miterlimit:10;}
	.st21{clip-path:url(#SVGID_10_);fill:#212120;}
	.st22{fill:#394D66;}
	.st23{fill:#F06EA2;}
	.st24{opacity:0.7;clip-path:url(#SVGID_10_);}
	.st25{clip-path:url(#SVGID_10_);fill:#191819;stroke:#191819;stroke-miterlimit:10;}
	.st26{clip-path:url(#SVGID_22_);}
	.st27{clip-path:url(#SVGID_26_);}
</style>
<g id="Layer_2">
</g>
<g id="Layer_1">
	<g>
		<path class="st2" d="M83,340.2v-63.3H70.9v-18.7h43.7v18.7h-12.1v63.3H83z"/>
		<path class="st2" d="M149,340.2l-1.2-9.1h-15.1l-0.9,9.1h-20.4l17.6-82h23l17.6,82H149z M141.9,289.4c-0.7-4.7-1.3-11.4-1.3-11.4
			h-0.2c0,0-0.7,6.7-1.4,11.4l-3.3,24.6h9.5L141.9,289.4z"/>
		<path class="st2" d="M207.2,340.2l-6.6-21.2c-1.3-4.2-2.5-9.3-2.5-9.3H198l-2.8,7.4v23.1h-19.4v-82h19.4v18.4
			c0,5.9-0.2,13.2-0.2,13.2h0.2c0,0,1.9-6.1,4.3-12.5l7.4-19.1H228L210.2,293l17.8,47.2H207.2z"/>
		<path class="st2" d="M234.4,340.2v-82H280V276h-26.1v15.7h21.8v17.1h-21.8v13.6H280v17.8H234.4z"/>
		<path class="st2" d="M339.8,340.2v-13.8h-32.3v-0.2l32.3-68.2h19.4v49.7h5.9v18.7h-5.9v13.8H339.8z M341.7,284.7h-0.2
			c0,0-1.6,5.3-3.2,9.5l-3.4,9.1c-1.3,3.4-2.7,5.7-2.7,5.7v0.2h9.5V284.7z"/>
		<path class="st2" d="M415.9,294.2c8.7,4,13.2,11.6,13.2,21.7c0,14.2-9,26-29.3,26c-20.3,0-29.3-11.8-29.3-26.1
			c0-10,4.3-17.2,13.2-21.6v-0.2c-5.4-3.5-8.1-10-8.1-16c0-10.4,7.8-21.3,24.1-21.3c16.3,0,24.1,10.9,24.1,21.3
			c0,6.1-2.7,12.5-8.1,16V294.2z M406.7,280.3c0-4.2-2.5-7.6-6.8-7.6c-4.5,0-6.9,3.4-6.9,7.6s2.5,7.7,6.9,7.7
			C404.3,288.1,406.7,284.6,406.7,280.3z M399.7,303.2c-7,0-10.5,5.2-10.5,10.3c0,5.2,3.5,10.4,10.5,10.4s10.5-5.3,10.5-10.4
			C410.2,308.3,406.7,303.2,399.7,303.2z"/>
	</g>
	<g>
		<path class="st3" d="M600.4-132.5c0,0-7,13.9-13.4,19c-6.5,5.1-41.4,7.6-67.8,41.2c-6.7,8.7-43.8,11.4-78.6,57
			c-2.4,0.5-10.1,5.8-11.9,4.5c-7.4-6.7-29.5,0.3-52.7,17c-53.2,18.3-7.7,45.3-27.8,68.4c0,0-51.7,16.4-32.6,42.6
			c20.9,24.9,49.2-21.4,49.2-21.4c27.3-13.9,42.6,36.6,73.1-10.6C459.6,66.6,471.7,46.8,467,38c-0.9-2.1,6.2-8.3,7.2-10.5
			c52.6-22.8,64-58.3,74.1-62.7c38.9-17.6,49.8-50.9,56.3-56c6.5-5.1,21.6-8.5,21.6-8.5s35,38.5,35.2,28.5
			c0.4-20.3-64-98.1-76.6-100.6C573.3-174.1,600.4-132.5,600.4-132.5z"/>
		<path class="st3" d="M595.8-136.9c0,0-6.5,14.1-12.8,19.4c-6.3,5.3-41.1,9.1-66.4,43.6c-6.4,8.9-43.4,12.9-76.5,59.7
			c-2.3,0.6-9.9,6.2-11.7,4.9c-7.6-6.4-29.5,1.3-52.1,18.8C323.9,29.6,370.2,55,351,78.8c0,0-51.1,18.2-31.1,43.8
			c21.7,24.1,48.4-23.1,48.4-23.1c26.8-14.9,43.8,35.1,72.7-13.2c21.1-19.3,32.4-39.5,27.4-48.1c-0.9-2,5.9-8.5,6.8-10.7
			c51.8-24.7,62-60.5,71.9-65.2c38.3-19,48-52.7,54.3-57.9c6.3-5.3,21.3-9.3,21.3-9.3s36.3,37.2,36.2,27.2
			c-0.3-20.3-67.4-95.8-80.1-97.9C567.3-177.5,595.8-136.9,595.8-136.9z"/>
		<path class="st3" d="M591.1-141.1c0,0-6,14.4-12.1,19.9s-40.8,10.5-64.8,45.9c-6.1,9.2-42.9,14.4-74.4,62.3
			c-2.3,0.6-9.7,6.5-11.5,5.3c-7.8-6.1-29.4,2.4-51.4,20.6c-51.7,22-4.5,45.7-22.9,70.2c0,0-50.4,20-29.5,44.8
			C347,151.2,372,103,372,103c26.3-15.8,45,33.6,72.2-15.7c20.4-20,31-40.6,25.7-49c-1-2,5.6-8.7,6.4-10.9
			c50.9-26.5,59.8-62.6,69.6-67.7c37.6-20.3,46.1-54.3,52.2-59.8s21-10,21-10s37.6,36,37.1,26c-1-20.3-70.7-93.4-83.4-95
			C561.2-180.7,591.1-141.1,591.1-141.1z"/>
		<path class="st3" d="M586.2-145.1c0,0-5.5,14.6-11.4,20.3c-5.9,5.7-40.4,11.9-63.2,48.1c-5.7,9.4-42.4,15.9-72.2,64.9
			c-2.3,0.7-9.4,6.8-11.4,5.7c-8.1-5.9-29.3,3.4-50.6,22.4C326.6,40,374.6,62,357,87.1c0,0-49.7,21.8-27.9,45.8
			c23.3,22.5,46.7-26.5,46.7-26.5c25.7-16.7,46.2,32,71.6-18.2c19.7-20.7,29.6-41.7,24-49.9c-1.1-2,5.3-8.9,6.1-11.2
			C527.3-1,535-37.4,544.6-42.8c36.9-21.6,44.2-55.9,50.1-61.6c5.9-5.7,20.6-10.7,20.6-10.7s38.8,34.6,38,24.6
			c-1.7-20.3-73.9-90.9-86.7-92.1C555-183.6,586.2-145.1,586.2-145.1z"/>
		<path class="st3" d="M581.2-149c0,0-5,14.7-10.7,20.6c-5.7,5.9-40,13.3-61.4,50.3c-5.4,9.6-41.8,17.4-69.9,67.4
			c-2.3,0.8-9.2,7.2-11.1,6.1c-8.3-5.6-29.2,4.4-49.8,24.2c-50.1,25.5-1.3,45.9-18,71.6c0,0-48.9,23.5-26.3,46.8
			c24.1,21.7,45.7-28.1,45.7-28.1c25.1-17.6,47.3,30.3,70.9-20.7c18.9-21.4,28.1-42.7,22.3-50.7c-1.1-1.9,4.9-9.1,5.7-11.4
			c48.9-29.9,55.3-66.6,64.7-72.4c36.1-22.9,42.2-57.4,47.9-63.3c5.7-5.9,20.2-11.4,20.2-11.4s40,33.2,38.8,23.3
			c-2.4-20.2-77-88.2-89.9-89C548.6-186.4,581.2-149,581.2-149z"/>
		<path class="st3" d="M576.1-152.7c0,0-4.5,14.9-9.9,21c-5.5,6.1-39.5,14.7-59.6,52.4c-5.1,9.7-41.2,18.8-67.5,69.8
			c-2.2,0.9-8.9,7.5-10.9,6.5c-8.4-5.3-29,5.4-49,25.9C330,50.1,379.4,68.7,363.7,95c0,0-48.1,25.2-24.7,47.6
			c24.9,20.9,44.7-29.6,44.7-29.6c24.5-18.5,48.3,28.7,70.1-23.1c18.2-22,26.6-43.6,20.5-51.5c-1.2-1.9,4.6-9.2,5.3-11.6
			c47.8-31.6,53-68.5,62.1-74.6c35.3-24.1,40.2-58.8,45.7-64.9c5.5-6.1,19.8-12.1,19.8-12.1s41.2,31.8,39.6,21.9
			c-3.1-20.1-80-85.5-92.9-85.8C542.2-188.9,576.1-152.7,576.1-152.7z"/>
		<path class="st3" d="M570.9-156.2c0,0-3.9,15-9.2,21.3c-5.3,6.3-38.9,16.1-57.8,54.4c-4.7,9.9-40.5,20.2-65,72.1
			c-2.2,1-8.7,7.8-10.7,6.8c-8.6-5-28.8,6.4-48,27.6C332,55,382,71.9,367.2,98.8c0,0-47.2,26.8-23,48.5c25.6,20,43.7-31.2,43.7-31.2
			c23.8-19.3,49.3,27,69.3-25.6c17.4-22.6,25.1-44.5,18.7-52.1c-1.3-1.8,4.3-9.4,4.9-11.7c46.7-33.3,50.5-70.3,59.5-76.7
			c34.4-25.3,38.1-60.2,43.4-66.5c5.3-6.3,19.4-12.8,19.4-12.8s42.2,30.4,40.4,20.5c-3.8-20-83-82.7-95.8-82.5
			C535.7-191.2,570.9-156.2,570.9-156.2z"/>
		<path class="st3" d="M565.5-159.5c0,0-3.4,15.2-8.4,21.7c-5,6.5-38.4,17.4-55.8,56.4c-4.4,10.1-39.8,21.6-62.5,74.3
			c-2.2,1-8.4,8.1-10.4,7.2c-8.8-4.7-28.6,7.4-47,29.2c-47.1,30.6,3.5,45.8-10.4,73.1c0,0-46.2,28.5-21.3,49.3
			c26.3,19.1,42.5-32.7,42.5-32.7c23.1-20.1,50.2,25.2,68.3-28c16.6-23.2,23.5-45.4,16.8-52.8c-1.3-1.8,4-9.5,4.4-11.9
			c45.5-34.9,48.1-72,56.7-78.7c33.5-26.5,36-61.5,41-68c5-6.5,18.9-13.5,18.9-13.5s43.3,28.9,41.1,19.1
			c-4.5-19.8-85.8-79.7-98.7-79.1C529.2-193.3,565.5-159.5,565.5-159.5z"/>
		<path class="st3" d="M560-162.7c0,0-2.9,15.3-7.7,21.9c-4.8,6.6-37.7,18.8-53.8,58.3c-4,10.2-39,23-59.8,76.4
			c-2.1,1.1-8.1,8.4-10.2,7.6c-9-4.4-28.3,8.4-46,30.9c-46,32.3,5.1,45.6-7.8,73.4c0,0-45.2,30.1-19.6,50
			c26.9,18.1,41.4-34.2,41.4-34.2c22.4-20.9,51,23.5,67.3-30.3c15.8-23.8,21.9-46.2,15-53.3c-1.4-1.7,3.6-9.7,4-12
			c44.3-36.5,45.5-73.7,54-80.7c32.6-27.7,33.8-62.7,38.7-69.3c4.8-6.6,18.4-14.1,18.4-14.1s44.3,27.4,41.7,17.7
			c-5.2-19.7-88.5-76.7-101.4-75.6C522.5-195.2,560-162.7,560-162.7z"/>
		<path class="st3" d="M554.4-165.6c0,0-2.3,15.4-6.9,22.2c-4.6,6.8-37,20.1-51.8,60.2c-3.7,10.4-38.2,24.4-57.1,78.5
			c-2.1,1.2-7.8,8.6-9.9,7.9c-9.1-4.1-28,9.4-44.9,32.4c-44.9,33.8,6.6,45.4-5.3,73.7c0,0-44.1,31.6-17.8,50.6
			c27.5,17.2,40.2-35.6,40.2-35.6c21.7-21.7,51.8,21.7,66.2-32.7c14.9-24.3,20.3-46.9,13.1-53.8c-1.5-1.7,3.3-9.8,3.6-12.2
			c43-38,42.9-75.2,51.1-82.5c31.6-28.8,31.6-63.8,36.2-70.7c4.6-6.8,17.9-14.8,17.9-14.8s45.2,25.8,42.3,16.2
			c-5.9-19.5-91.2-73.5-103.9-72C515.8-196.8,554.4-165.6,554.4-165.6z"/>
		<path class="st3" d="M548.7-168.4c0,0-1.8,15.5-6.1,22.4c-4.3,7-36.3,21.4-49.6,62c-3.3,10.5-37.3,25.7-54.3,80.4
			c-2,1.3-7.5,8.9-9.6,8.3c-9.2-3.7-27.6,10.4-43.7,34c-43.7,35.4,8.2,45.2-2.7,73.8c0,0-43,33.1-16,51.2c28.1,16.2,38.9-37,38.9-37
			c20.9-22.4,52.5,19.8,65.1-35c14.1-24.8,18.7-47.6,11.2-54.2c-1.5-1.6,2.9-9.9,3.2-12.3c41.6-39.4,40.3-76.6,48.2-84.2
			c30.6-29.9,29.4-64.9,33.7-71.9s17.4-15.4,17.4-15.4s46.1,24.2,42.8,14.7c-6.5-19.3-93.7-70.3-106.4-68.4
			C509.1-198.2,548.7-168.4,548.7-168.4z"/>
		<path class="st3" d="M542.9-170.9c0,0-1.3,15.5-5.4,22.6c-4.1,7.1-35.6,22.6-47.4,63.7c-2.9,10.6-36.4,27-51.5,82.3
			c-2,1.3-7.2,9.2-9.3,8.6c-9.4-3.4-27.3,11.4-42.5,35.5c-42.4,36.9,9.8,44.9-0.1,73.9c0,0-41.8,34.6-14.2,51.7
			C401.1,182.5,410,129,410,129c20.1-23.2,53.2,18,63.8-37.2c13.2-25.3,17-48.2,9.3-54.6c-1.6-1.6,2.6-10,2.7-12.4
			c40.2-40.9,37.6-78,45.2-85.9c29.5-30.9,27.1-65.9,31.2-73c4.1-7.1,16.9-16,16.9-16s46.9,22.6,43.3,13.2
			c-7.2-19-96.1-67-108.7-64.6C502.3-199.3,542.9-170.9,542.9-170.9z"/>
		<path class="st3" d="M537.1-173.2c0,0-0.7,15.5-4.6,22.8c-3.8,7.2-34.7,23.8-45.2,65.3c-2.6,10.7-35.4,28.2-48.6,84
			c-2,1.4-6.9,9.4-9,8.9c-9.5-3.1-26.9,12.3-41.2,37c-41.1,38.4,11.4,44.5,2.5,73.8c0,0-40.6,36.1-12.4,52.2
			c29.2,14.2,36.2-39.6,36.2-39.6c19.3-23.8,53.8,16.1,62.5-39.4c12.3-25.8,15.3-48.8,7.4-54.9c-1.6-1.5,2.2-10.1,2.3-12.5
			c38.7-42.3,34.8-79.3,42.2-87.4c28.4-31.9,24.8-66.8,28.6-74c3.8-7.2,16.3-16.6,16.3-16.6s47.6,20.9,43.8,11.7
			c-7.9-18.8-98.3-63.6-110.9-60.8C495.4-200.2,537.1-173.2,537.1-173.2z"/>
		<path class="st3" d="M531.1-175.4c0,0-0.2,15.6-3.8,22.9c-3.6,7.4-33.9,25-42.9,66.8c-2.2,10.8-34.4,29.4-45.6,85.6
			c-1.9,1.5-6.5,9.6-8.7,9.2c-9.6-2.8-26.4,13.2-39.9,38.4c-39.7,39.8,12.9,44.1,5,73.7c0,0-39.3,37.5-10.6,52.6
			c29.6,13.2,34.8-40.8,34.8-40.8c18.4-24.5,54.3,14.2,61-41.6c11.4-26.2,13.6-49.3,5.5-55.1c-1.7-1.5,1.9-10.2,1.9-12.6
			c37.3-43.6,32-80.4,39.1-88.8c27.3-32.9,22.4-67.6,26-75c3.6-7.4,15.7-17.1,15.7-17.1s48.3,19.2,44.1,10.2
			c-8.5-18.5-100.5-60.1-113-56.9C488.6-200.9,531.1-175.4,531.1-175.4z"/>
		<path class="st3" d="M525.1-177.3c0,0,0.4,15.6-3,23.1s-33,26.2-40.5,68.3c-1.8,10.8-33.3,30.6-42.6,87.2
			c-1.9,1.5-6.2,9.9-8.4,9.5c-9.7-2.4-25.9,14.1-38.6,39.7c-38.3,41.1,14.4,43.6,7.6,73.5c0,0-37.9,38.8-8.7,52.9
			c30.1,12.2,33.4-42,33.4-42c17.6-25.1,54.8,12.3,59.6-43.7c10.5-26.5,11.8-49.7,3.6-55.3c-1.7-1.4,1.5-10.2,1.4-12.6
			c35.7-44.9,29.2-81.5,36-90.1c26.1-33.8,20.1-68.4,23.4-75.9s15.1-17.7,15.1-17.7s49,17.6,44.5,8.6
			c-9.1-18.2-102.5-56.6-114.9-52.9C481.7-201.3,525.1-177.3,525.1-177.3z"/>
		<path class="st3" d="M519-179c0,0,0.9,15.5-2.2,23.1c-3.1,7.6-32.1,27.3-38.1,69.6c-1.4,10.9-32.3,31.8-39.6,88.6
			c-1.8,1.6-5.8,10.1-8.1,9.8c-9.7-2.1-25.4,15-37.2,41.1c-36.9,42.4,15.9,43.1,10.2,73.2c0,0-36.6,40.1-6.9,53.2
			c30.5,11.1,31.9-43.2,31.9-43.2c16.7-25.7,55.2,10.4,58-45.7c9.6-26.9,10.1-50.1,1.6-55.4c-1.8-1.3,1.2-10.3,1-12.7
			c34.1-46.1,26.3-82.5,32.8-91.3c24.9-34.7,17.7-69,20.7-76.6c3.1-7.6,14.5-18.2,14.5-18.2s49.6,15.8,44.8,7.1
			c-9.8-17.8-104.5-53-116.6-48.9C474.8-201.5,519-179,519-179z"/>
		<path class="st3" d="M512.9-180.5c0,0,1.5,15.5-1.3,23.2c-2.8,7.7-31.1,28.4-35.7,70.9c-1.1,10.9-31.1,32.9-36.4,90
			c-1.7,1.7-5.5,10.3-7.7,10.1c-9.8-1.7-24.9,15.9-35.7,42.3c-35.4,43.7,17.4,42.5,12.7,72.8c0,0-35.1,41.4-5,53.4
			c30.9,10,30.4-44.2,30.4-44.2c15.8-26.3,55.5,8.5,56.4-47.7c8.6-27.2,8.4-50.4-0.3-55.4c-1.8-1.3,0.8-10.3,0.5-12.7
			c32.5-47.2,23.4-83.3,29.6-92.4c23.7-35.6,15.2-69.6,18-77.3c2.8-7.7,13.8-18.7,13.8-18.7s50.1,14.1,45,5.5
			c-10.4-17.5-106.2-49.3-118.3-44.8C467.9-201.4,512.9-180.5,512.9-180.5z"/>
		<path class="st3" d="M506.7-181.8c0,0,2,15.4-0.5,23.2c-2.5,7.8-30.1,29.5-33.2,72.1c-0.7,11-30,33.9-33.3,91.2
			c-1.7,1.7-5.1,10.5-7.4,10.4c-9.9-1.4-24.3,16.8-34.2,43.6c-33.8,44.9,18.9,41.8,15.2,72.3c0,0-33.7,42.6-3.2,53.6
			c31.2,8.9,28.8-45.3,28.8-45.3c14.8-26.8,55.8,6.5,54.7-49.7c7.7-27.5,6.6-50.7-2.2-55.3c-1.9-1.2,0.5-10.3,0.1-12.7
			c30.8-48.3,20.5-84.1,26.4-93.4c22.4-36.4,12.8-70.1,15.3-77.9s13.2-19.1,13.2-19.1s50.5,12.3,45.1,3.9
			c-11-17.1-107.9-45.6-119.8-40.6C461-201.1,506.7-181.8,506.7-181.8z"/>
		<path class="st3" d="M500.5-182.9c0,0,2.5,15.3,0.3,23.2c-2.3,7.9-29,30.5-30.6,73.2c-0.3,11-28.8,35-30.1,92.3
			c-1.6,1.8-4.8,10.6-7,10.6c-9.9-1-23.7,17.6-32.7,44.7c-32.2,46.1,20.4,41.2,17.7,71.7c0,0-32.2,43.7-1.3,53.6
			c31.5,7.9,27.2-46.3,27.2-46.3c13.9-27.3,56,4.6,52.9-51.5c6.7-27.7,4.8-50.9-4.2-55.2c-1.9-1.2,0.1-10.3-0.3-12.7
			C521.6-28.6,510-64,515.6-73.4c21.2-37.1,10.4-70.5,12.6-78.4s12.5-19.6,12.5-19.6s50.9,10.6,45.2,2.3
			c-11.6-16.7-109.4-41.8-121.1-36.4C454.2-200.6,500.5-182.9,500.5-182.9z"/>
		<path class="st3" d="M494.2-183.7c0,0,3.1,15.2,1.1,23.2c-2,8-27.9,31.5-28.1,74.3c0.1,11-27.5,35.9-26.8,93.3
			c-1.6,1.8-4.4,10.8-6.6,10.8c-9.9-0.7-23.1,18.4-31.1,45.8c-30.6,47.2,21.8,40.4,20.2,71c0,0-30.6,44.8,0.6,53.7
			c31.7,6.7,25.6-47.2,25.6-47.2c12.9-27.8,56.1,2.6,51.1-53.4c5.7-28,3-51-6.1-55c-1.9-1.1-0.3-10.3-0.8-12.7
			c27.4-50.4,14.6-85.3,19.8-95c19.8-37.8,7.9-70.8,9.9-78.8c2-8,11.8-20,11.8-20s51.3,8.8,45.3,0.8
			c-12.2-16.3-110.8-37.9-122.3-32.1C447.3-199.8,494.2-183.7,494.2-183.7z"/>
		<path class="st3" d="M487.9-184.4c0,0,3.6,15.1,1.9,23.2c-1.7,8-26.8,32.5-25.5,75.2c0.5,11-26.3,36.9-23.6,94.1
			c-1.5,1.9-4,10.9-6.2,11.1c-10-0.4-22.4,19.2-29.5,46.9c-28.9,48.2,23.2,39.6,22.7,70.3c0,0-29.1,45.8,2.5,53.6
			c32,5.6,23.9-48,23.9-48c11.9-28.2,56.2,0.7,49.2-55.1c4.7-28.1,1.3-51.1-8-54.8c-2-1-0.6-10.3-1.2-12.6
			c25.6-51.3,11.6-85.8,16.5-95.6c18.5-38.5,5.4-71,7.1-79.1c1.7-8,11.1-20.4,11.1-20.4s51.6,7,45.3-0.8
			c-12.7-15.9-112.1-34-123.4-27.9C440.5-198.8,487.9-184.4,487.9-184.4z"/>
		<path class="st3" d="M481.6-184.8c0,0,4.1,15,2.7,23.1c-1.4,8.1-25.7,33.4-22.8,76c0.9,11-24.9,37.8-20.3,94.9
			c-1.4,1.9-3.6,11.1-5.8,11.3c-10,0-21.7,20-27.8,47.9c-27.2,49.2,24.5,38.8,25.1,69.4c0,0-27.4,46.8,4.3,53.5
			c32.1,4.5,22.2-48.8,22.2-48.8c11-28.6,56.1-1.3,47.2-56.8c3.8-28.3-0.5-51.1-9.9-54.5c-2-0.9-1-10.3-1.7-12.6
			c23.8-52.2,8.6-86.1,13.1-96.2c17.2-39.1,2.9-71.2,4.3-79.3c1.4-8.1,10.4-20.8,10.4-20.8s51.8,5.2,45.2-2.4
			c-13.3-15.4-113.2-30.1-124.3-23.5C433.7-197.5,481.6-184.8,481.6-184.8z"/>
		<path class="st3" d="M475.3-185c0,0,4.6,14.8,3.5,23s-24.5,34.3-20.1,76.8c1.2,10.9-23.6,38.6-16.9,95.6c-1.4,2-3.2,11.2-5.4,11.5
			c-10,0.3-21,20.7-26.1,48.8c-25.5,50.1,25.9,37.9,27.5,68.5c0,0-25.8,47.8,6.2,53.3c32.3,3.4,20.5-49.6,20.5-49.6
			c9.9-29,56.1-3.2,45.2-58.4c2.8-28.4-2.3-51.1-11.8-54.1c-2-0.9-1.3-10.2-2.1-12.5c22-53,5.6-86.4,9.8-96.6
			c15.8-39.7,0.4-71.2,1.6-79.4c1.1-8.1,9.6-21.1,9.6-21.1s51.9,3.4,45.1-4c-13.8-14.9-114.2-26.1-125-19.2
			C427-196.1,475.3-185,475.3-185z"/>
		<path class="st3" d="M469-184.9c0,0,5.2,14.7,4.3,22.8S450-127,455.9-84.7c1.6,10.9-22.3,39.4-13.6,96.1c-1.3,2-2.8,11.3-5,11.7
			c-9.9,0.7-20.3,21.5-24.4,49.7c-23.7,51,27.2,37,29.9,67.5c0,0-24.1,48.6,8,53c32.4,2.3,18.8-50.3,18.8-50.3
			c8.9-29.3,55.9-5.2,43.1-59.9c1.8-28.5-4.1-50.9-13.7-53.7c-2.1-0.8-1.7-10.2-2.5-12.4c20.1-53.7,2.6-86.5,6.4-96.8
			c14.4-40.2-2-71.2-1.2-79.4c0.8-8.2,8.9-21.5,8.9-21.5s52,1.6,45-5.6c-14.3-14.4-115-22.1-125.6-14.8
			C420.3-194.3,469-184.9,469-184.9z"/>
		<path class="st3" d="M462.7-184.7c0,0,5.7,14.5,5.1,22.7s-22,35.9-14.7,78c2,10.8-20.9,40.2-10.2,96.5c-1.2,2.1-2.4,11.4-4.6,11.8
			c-9.9,1-19.5,22.2-22.7,50.5c-22,51.8,28.5,36,32.3,66.4c0,0-22.4,49.4,9.9,52.7c32.4,1.1,17-50.9,17-50.9
			c7.9-29.6,55.7-7.1,41-61.4c0.8-28.5-5.9-50.8-15.5-53.2c-2.1-0.7-2-10.1-3-12.3c18.2-54.4-0.4-86.6,3-97c13-40.7-4.5-71.1-4-79.3
			s8.1-21.8,8.1-21.8s52-0.3,44.7-7.1c-14.8-13.9-115.7-18.1-126-10.4C413.7-192.4,462.7-184.7,462.7-184.7z"/>
		<path class="st3" d="M456.4-184.2c0,0,6.2,14.3,5.9,22.5c-0.3,8.2-20.8,36.7-12,78.5c2.4,10.7-19.4,40.9-6.9,96.8
			c-1.1,2.1-2,11.5-4.2,12c-9.9,1.4-18.7,22.8-20.9,51.3c-20.1,52.5,29.7,35,34.6,65.3c0,0-20.6,50.2,11.7,52.4
			c32.4,0,15.2-51.5,15.2-51.5c6.9-29.9,55.4-9.1,38.9-62.8c-0.2-28.5-7.6-50.5-17.4-52.6c-2.1-0.7-2.4-10-3.4-12.2
			c16.3-55-3.5-86.5-0.4-97.1c11.5-41.1-7-70.9-6.7-79.1c0.3-8.2,7.4-22,7.4-22s52-2.1,44.5-8.7c-15.3-13.4-116.3-14-126.3-6
			C407.2-190.2,456.4-184.2,456.4-184.2z"/>
		<path class="st3" d="M450.1-183.5c0,0,6.7,14.1,6.7,22.3c0,8.2-19.5,37.4-9.3,78.8c2.8,10.6-18,41.5-3.5,97
			c-1.1,2.2-1.6,11.5-3.8,12.1c-9.8,1.7-17.9,23.5-19.1,52c-18.3,53.2,30.9,33.9,36.8,64c0,0-18.9,50.9,13.5,51.9
			c32.4-1.1,13.4-52,13.4-52c5.8-30.1,55.1-11,36.6-64.1c-1.2-28.5-9.4-50.2-19.2-51.9c-2.1-0.6-2.7-10-3.8-12.1
			c14.4-55.5-6.5-86.3-3.8-97c10.1-41.5-9.5-70.6-9.5-78.8c0-8.2,6.6-22.3,6.6-22.3s51.9-3.9,44.1-10.2
			c-15.7-12.9-116.7-10-126.5-1.6C400.7-187.8,450.1-183.5,450.1-183.5z"/>
		<path class="st3" d="M443.9-182.6c0,0,7.1,13.8,7.4,22c0.3,8.2-18.2,38-6.5,79.1c3.1,10.5-16.6,42.1-0.1,97.1
			c-1,2.2-1.2,11.6-3.4,12.2c-9.7,2.1-17.1,24.1-17.2,52.6c-16.4,53.8,32.1,32.8,39,62.7c0,0-17.1,51.5,15.4,51.4
			c32.4-2.3,11.6-52.4,11.6-52.4c4.8-30.3,54.7-12.9,34.4-65.4c-2.2-28.5-11.1-49.9-21-51.2c-2.2-0.5-3.1-9.9-4.2-12
			c12.4-56-9.5-86.1-7.1-96.8c8.6-41.8-11.9-70.2-12.2-78.4c-0.3-8.2,5.8-22.5,5.8-22.5s51.7-5.7,43.8-11.8
			c-16.2-12.3-117-5.9-126.4,2.8C394.3-185.2,443.9-182.6,443.9-182.6z"/>
		<path class="st3" d="M437.6-181.5c0,0,7.6,13.6,8.2,21.7c0.6,8.2-16.8,38.6-3.7,79.3c3.5,10.4-15.1,42.7,3.3,97
			c-0.9,2.2-0.8,11.6-2.9,12.4c-9.7,2.4-16.3,24.7-15.4,53.2c-14.5,54.3,33.2,31.7,41.2,61.3c0,0-15.3,52.1,17.1,50.8
			c32.3-3.4,9.7-52.8,9.7-52.8c3.7-30.4,54.2-14.8,32.1-66.5c-3.2-28.4-12.9-49.5-22.8-50.5c-2.2-0.4-3.4-9.7-4.7-11.8
			c10.5-56.4-12.5-85.7-10.5-96.5c7.2-42.1-14.4-69.8-15-78c-0.6-8.2,5-22.7,5-22.7s51.5-7.5,43.3-13.3
			c-16.6-11.7-117.1-1.8-126.3,7.2C388.1-182.3,437.6-181.5,437.6-181.5z"/>
		<path class="st3" d="M431.5-180.2c0,0,8.1,13.3,9,21.4c0.9,8.2-15.5,39.2-1,79.4c3.8,10.3-13.6,43.2,6.7,96.8
			c-0.8,2.3-0.4,11.6-2.5,12.4c-9.6,2.7-15.4,25.2-13.5,53.7c-12.6,54.8,34.3,30.5,43.3,59.8c0,0-13.5,52.6,18.9,50.2
			c32.1-4.5,7.9-53.1,7.9-53.1c2.6-30.5,53.6-16.7,29.7-67.6c-4.2-28.2-14.6-49-24.5-49.6c-2.2-0.4-3.8-9.6-5.1-11.6
			c8.5-56.7-15.5-85.2-13.9-96.1c5.7-42.3-16.8-69.2-17.7-77.4c-0.9-8.2,4.2-22.8,4.2-22.8s51.2-9.3,42.8-14.8
			c-17-11.2-117.1,2.3-125.9,11.6C381.9-179.2,431.5-180.2,431.5-180.2z"/>
		<path class="st3" d="M425.3-178.6c0,0,8.6,13,9.7,21.1c1.2,8.1-14.1,39.7,1.8,79.4c4.2,10.1-12.1,43.6,10.1,96.5
			c-0.8,2.3,0,11.6-2.1,12.5c-9.5,3.1-14.5,25.7-11.6,54.1c-10.7,55.2,35.3,29.3,45.4,58.3c0,0-11.6,53,20.6,49.5
			c32-5.6,6-53.3,6-53.3c1.6-30.6,53-18.6,27.4-68.6c-5.2-28.1-16.3-48.4-26.3-48.8c-2.2-0.3-4.1-9.5-5.5-11.5
			c6.5-57-18.4-84.6-17.2-95.5c4.2-42.5-19.2-68.6-20.4-76.7c-1.2-8.1,3.4-23,3.4-23s50.8-11.1,42.3-16.3
			c-17.4-10.6-116.9,6.4-125.4,16C375.8-176,425.3-178.6,425.3-178.6z"/>
		<path class="st3" d="M419.3-176.9c0,0,9,12.7,10.4,20.8c1.4,8.1-12.7,40.2,4.6,79.3c4.6,10-10.5,44,13.4,96.1
			c-0.7,2.3,0.4,11.6-1.6,12.6c-9.4,3.4-13.6,26.2-9.8,54.5c-8.8,55.5,36.3,28.1,47.4,56.7c0,0-9.8,53.4,22.4,48.8
			c31.7-6.7,4.2-53.5,4.2-53.5c0.5-30.6,52.3-20.4,24.9-69.5C529,40.9,517.2,21,507.2,21c-2.2-0.2-4.4-9.3-5.9-11.3
			c4.5-57.2-21.4-83.9-20.5-94.9c2.7-42.6-21.6-67.9-23-76s2.6-23.1,2.6-23.1s50.4-12.8,41.7-17.7c-17.7-9.9-116.7,10.4-124.8,20.4
			C369.9-172.5,419.3-176.9,419.3-176.9z"/>
		<path class="st3" d="M413.3-174.9c0,0,9.4,12.4,11.2,20.4c1.7,8-11.3,40.6,7.3,79c4.9,9.8-9,44.4,16.8,95.6
			c-0.6,2.3,0.8,11.6-1.2,12.6c-9.2,3.7-12.7,26.7-7.8,54.8c-6.8,55.8,37.3,26.8,49.3,55c0,0-7.9,53.7,24,48
			c31.5-7.8,2.3-53.6,2.3-53.6c-0.6-30.6,51.6-22.2,22.5-70.3C530.6,39,518,19.4,508.1,19.8c-2.2-0.1-4.8-9.2-6.3-11
			c2.5-57.3-24.3-83.1-23.8-94.1c1.2-42.7-24-67.1-25.7-75.1c-1.7-8,1.8-23.2,1.8-23.2s49.9-14.6,41-19.2
			c-18.1-9.3-116.2,14.5-124,24.7C364.1-168.8,413.3-174.9,413.3-174.9z"/>
		<path class="st3" d="M407.4-172.7c0,0,9.9,12,11.9,20c2,8-9.9,41,10.1,78.7c5.2,9.7-7.4,44.7,20.1,94.9
			c-0.5,2.3,1.2,11.6-0.7,12.7c-9.1,4-11.7,27.1-5.9,55.1c-4.9,56,38.2,25.5,51.2,53.2c0,0-6,53.9,25.7,47.1
			c31.2-8.9,0.4-53.7,0.4-53.7c-1.6-30.6,50.8-24,20-71.1c-8.1-27.4-21.3-46.5-31.2-45.7c-2.2,0-5.1-9-6.6-10.8
			c0.5-57.3-27.2-82.2-27.1-93.2c-0.2-42.7-26.3-66.2-28.3-74.2c-2-8,1-23.2,1-23.2s49.4-16.3,40.4-20.6
			c-18.4-8.7-115.6,18.5-123.1,29C358.4-164.9,407.4-172.7,407.4-172.7z"/>
		<path class="st3" d="M401.5-170.3c0,0,10.3,11.7,12.6,19.6c2.3,7.9-8.4,41.3,12.8,78.3c5.6,9.5-5.9,44.9,23.4,94.2
			c-0.4,2.4,1.6,11.5-0.3,12.7c-9,4.4-10.8,27.5-4,55.2c-2.9,56.1,39.1,24.1,53,51.4c0,0-4.1,54.1,27.3,46.2
			c30.9-10-1.4-53.6-1.4-53.6c-2.7-30.5,49.9-25.8,17.5-71.7c-9-27.1-22.9-45.7-32.8-44.6c-2.2,0-5.4-8.8-7-10.6
			c-1.5-57.3-30-81.2-30.3-92.2c-1.7-42.7-28.6-65.3-30.8-73.2c-2.3-7.9,0.2-23.2,0.2-23.2s48.8-18,39.6-22
			c-18.7-8-114.9,22.6-122,33.3C352.8-160.8,401.5-170.3,401.5-170.3z"/>
		<path class="st3" d="M395.7-167.7c0,0,10.7,11.3,13.2,19.1c2.5,7.8-7,41.5,15.6,77.8c5.9,9.3-4.3,45.1,26.7,93.3
			c-0.4,2.4,2,11.5,0.1,12.7c-8.8,4.7-9.8,27.9-2.1,55.3c-1,56.2,39.9,22.7,54.8,49.5c0,0-2.2,54.2,28.9,45.2
			c30.5-11.1-3.3-53.6-3.3-53.6c-3.8-30.4,49-27.5,15-72.3c-10-26.7-24.5-44.9-34.3-43.5c-2.2,0.1-5.7-8.6-7.4-10.3
			c-3.5-57.2-32.8-80.1-33.5-91.1c-3.2-42.6-30.8-64.2-33.4-72c-2.5-7.8-0.6-23.2-0.6-23.2s48.1-19.7,38.8-23.4
			c-19-7.4-114.1,26.6-120.8,37.6C347.4-156.5,395.7-167.7,395.7-167.7z"/>
		<path class="st3" d="M390.1-164.9c0,0,11.1,10.9,13.9,18.6s-5.5,41.8,18.3,77.3c6.2,9.1-2.7,45.2,29.9,92.3
			c-0.3,2.4,2.4,11.4,0.6,12.7c-8.6,5-8.8,28.2-0.1,55.4c1,56.2,40.7,21.3,56.5,47.6c0,0-0.3,54.3,30.5,44.2
			c30.1-12.2-5.2-53.4-5.2-53.4c-4.8-30.3,48-29.2,12.5-72.8c-10.9-26.4-26-44-35.8-42.2c-2.2,0.2-6-8.4-7.7-10.1
			c-5.5-57.1-35.6-78.9-36.7-89.8c-4.7-42.5-33.1-63.1-35.9-70.8c-2.8-7.7-1.4-23.2-1.4-23.2s47.4-21.4,38-24.7
			c-19.2-6.7-113.1,30.5-119.4,41.7C342.2-152,390.1-164.9,390.1-164.9z"/>
		<path class="st3" d="M384.5-161.9c0,0,11.4,10.5,14.5,18.1c3.1,7.6-4.1,41.9,20.9,76.6c6.5,8.8-1.1,45.3,33.1,91.2
			c-0.2,2.4,2.8,11.3,1,12.7c-8.5,5.3-7.8,28.5,1.8,55.3c3,56.1,41.4,19.9,58.1,45.6c0,0,1.6,54.3,32,43.1c29.6-13.2-7-53.2-7-53.2
			c-5.9-30.1,46.9-30.8,9.9-73.2c-11.8-26-27.5-43.1-37.3-41c-2.2,0.3-6.3-8.2-8.1-9.8c-7.5-56.8-38.3-77.6-39.8-88.5
			c-6.2-42.3-35.2-61.9-38.3-69.5c-3.1-7.6-2.2-23.1-2.2-23.1s46.6-23,37.1-26c-19.4-6-111.9,34.5-117.8,45.9
			C337.1-147.3,384.5-161.9,384.5-161.9z"/>
		<path class="st3" d="M379.1-158.7c0,0,11.8,10.1,15.2,17.6s-2.6,42.1,23.6,75.8c6.8,8.6,0.4,45.3,36.3,90
			c-0.1,2.4,3.2,11.2,1.5,12.6c-8.3,5.6-6.8,28.7,3.7,55.3c4.9,56,42,18.4,59.7,43.5c0,0,3.4,54.2,33.5,41.9
			c29.2-14.2-8.9-52.9-8.9-52.9c-6.9-29.9,45.8-32.5,7.4-73.5C538.2,26,521.9,9.5,512.3,12c-2.2,0.3-6.6-8-8.4-9.5
			c-9.4-56.5-41-76.2-42.9-87.1c-7.7-42-37.4-60.7-40.7-68.1c-3.3-7.5-3-23-3-23s45.8-24.7,36.2-27.3c-19.6-5.4-110.7,38.3-116.2,50
			C332.2-142.5,379.1-158.7,379.1-158.7z"/>
		<path class="st3" d="M373.7-155.4c0,0,12.1,9.7,15.8,17.1c3.6,7.4-1.1,42.1,26.2,74.9c7.1,8.4,2,45.2,39.4,88.7
			c0,2.4,3.6,11.1,1.9,12.6c-8.1,5.9-5.8,29,5.7,55.1c6.9,55.8,42.7,17,61.2,41.4c0,0,5.3,54,34.9,40.7
			c28.7-15.2-10.7-52.6-10.7-52.6c-8-29.6,44.7-34,4.8-73.7c-13.6-25.1-30.5-41-40-38.3c-2.2,0.4-6.8-7.7-8.7-9.2
			c-11.4-56.2-43.7-74.8-45.9-85.5c-9.1-41.7-39.5-59.3-43.1-66.7c-3.6-7.4-3.8-22.9-3.8-22.9s44.9-26.2,35.2-28.5
			c-19.8-4.7-109.3,42.2-114.4,54C327.4-137.5,373.7-155.4,373.7-155.4z"/>
		<path class="st3" d="M368.5-151.8c0,0,12.5,9.3,16.3,16.5s0.3,42.1,28.8,74c7.4,8.1,3.6,45.1,42.5,87.3c0.1,2.4,4,11,2.3,12.5
			c-7.9,6.1-4.8,29.1,7.6,54.9c8.8,55.5,43.2,15.5,62.6,39.2c0,0,7.2,53.8,36.3,39.5c28.1-16.2-12.6-52.2-12.6-52.2
			c-9-29.3,43.5-35.6,2.2-73.8c-14.5-24.6-31.9-39.9-41.4-36.8c-2.2,0.5-7.1-7.5-9.1-8.9c-13.4-55.8-46.2-73.2-48.8-83.9
			c-10.6-41.4-41.5-57.9-45.4-65.1c-3.9-7.2-4.6-22.8-4.6-22.8s44-27.8,34.2-29.7c-19.9-4-107.7,46-112.4,58
			C322.9-132.4,368.5-151.8,368.5-151.8z"/>
		<path class="st3" d="M363.4-148.1c0,0,12.8,8.8,16.9,15.9c4.1,7.1,1.8,42.1,31.4,72.9c7.7,7.8,5.2,45,45.5,85.7
			c0.1,2.4,4.3,10.8,2.8,12.4c-7.6,6.4-3.8,29.3,9.5,54.6c10.7,55.2,43.7,13.9,63.9,37c0,0,9.1,53.5,37.7,38.2
			c27.5-17.2-14.4-51.7-14.4-51.7c-10-29,42.2-37.1-0.3-73.9C541,19,523.1,4.3,513.7,7.8c-2.2,0.6-7.4-7.3-9.4-8.6
			c-15.3-55.3-48.8-71.5-51.7-82.1c-12-41-43.5-56.4-47.6-63.5c-4.1-7.1-5.4-22.6-5.4-22.6s43-29.3,33.1-30.9
			c-20.1-3.3-106.1,49.7-110.3,61.8C318.5-127.1,363.4-148.1,363.4-148.1z"/>
		<path class="st3" d="M358.4-144.2c0,0,13.1,8.4,17.5,15.3c4.4,7,3.3,42,33.9,71.8c8,7.6,6.7,44.8,48.4,84.1
			c0.2,2.4,4.7,10.6,3.2,12.3c-7.4,6.7-2.8,29.4,11.4,54.2c12.7,54.8,44.2,12.4,65.1,34.8c0,0,10.9,53.2,39,36.8
			c26.9-18.1-16.2-51.2-16.2-51.2c-11-28.6,40.9-38.5-2.9-73.8c-16.1-23.5-34.6-37.6-43.8-33.9c-2.1,0.6-7.6-7-9.7-8.2
			c-17.2-54.7-51.2-69.8-54.6-80.3c-13.4-40.6-45.5-54.9-49.8-61.8s-6.2-22.4-6.2-22.4s41.9-30.8,32-32.1
			c-20.2-2.6-104.3,53.4-108.1,65.7C314.3-121.6,358.4-144.2,358.4-144.2z"/>
		<path class="st3" d="M353.6-140.1c0,0,13.4,7.9,18,14.7c4.6,6.8,4.7,41.9,36.4,70.5c8.2,7.3,8.3,44.5,51.4,82.4
			c0.3,2.4,5.1,10.5,3.6,12.2c-7.2,6.9-1.7,29.5,13.3,53.8c14.6,54.3,44.6,10.9,66.3,32.5c0,0,12.8,52.7,40.3,35.5
			c26.3-19.1-17.9-50.6-17.9-50.6c-12-28.2,39.5-39.9-5.5-73.6c-17-23-35.9-36.4-45-32.3c-2.1,0.7-7.8-6.7-9.9-7.9
			c-19.1-54.1-53.6-68-57.3-78.3c-14.8-40.1-47.3-53.2-51.9-60c-4.6-6.8-7-22.2-7-22.2s40.8-32.2,30.9-33.2
			c-20.2-1.9-102.3,57-105.7,69.4C310.3-116,353.6-140.1,353.6-140.1z"/>
		<path class="st3" d="M348.9-135.8c0,0,13.7,7.5,18.5,14.1c4.8,6.6,6.2,41.7,38.8,69.2c8.5,7,9.8,44.2,54.2,80.5
			c0.4,2.4,5.4,10.3,4.1,12c-6.9,7.2-0.7,29.5,15.1,53.3c16.5,53.8,45,9.3,67.4,30.2c0,0,14.6,52.3,41.5,34
			c25.6-20-19.7-49.9-19.7-49.9c-13-27.8,38.1-41.3-8.1-73.4C543.1,11.8,523.7-1,514.7,3.4c-2.1,0.8-8.1-6.4-10.2-7.5
			c-21-53.4-56-66-60-76.3c-16.2-39.5-49.2-51.6-54-58.2s-7.7-21.9-7.7-21.9s39.7-33.6,29.7-34.2c-20.3-1.2-100.3,60.5-103.2,73
			C306.5-110.2,348.9-135.8,348.9-135.8z"/>
		<path class="st3" d="M344.4-131.4c0,0,13.9,7,19,13.4c5.1,6.5,7.6,41.4,41.2,67.8c8.7,6.7,11.4,43.8,57,78.6
			c0.5,2.4,5.8,10.1,4.5,11.9c-6.7,7.4,0.3,29.5,17,52.7c18.3,53.2,45.3,7.7,68.4,27.8c0,0,16.4,51.7,42.6,32.6
			c24.9-20.9-21.4-49.2-21.4-49.2c-13.9-27.3,36.6-42.6-10.6-73.1C543.6,9.3,523.7-2.7,515,2c-2.1,0.9-8.3-6.2-10.5-7.2
			c-22.8-52.6-58.3-64-62.7-74.1c-17.6-38.9-50.9-49.8-56-56.3c-5.1-6.5-8.5-21.6-8.5-21.6s38.5-35,28.5-35.2
			c-20.3-0.4-98.1,64-100.6,76.6C302.9-104.4,344.4-131.4,344.4-131.4z"/>
	</g>
	<g>
		<path class="st4" d="M868.4,280.8c0,0-29.6-19.1-39.4-34.9c-9.8-15.8-7-95.1-76.1-162.8c-18-17.2-14.8-101.4-108.9-190.9
			c-0.5-5.4-10.6-24.2-7.1-27.8c16.8-15,6.6-66.6-25.2-122.8c-28.1-124.1-100-28.5-147.2-79.4c0,0-24.3-120.5-87.9-83.8
			c-61.1,40.8,36.1,116,36.1,116c24.7,64.9-92.9,86.8,5.9,167.1c36.3,53.5,78,85.5,98.9,77.1c4.8-1.4,17.2,15.9,21.8,18.7
			c38.4,124,115.3,158.5,122.8,182.2c30,92,102.4,124.7,112.2,140.4s13.8,50.8,13.8,50.8S692.8,400,715.3,403
			c45.6,6,236.6-119.8,245.4-147.6C968.6,230.2,868.4,280.8,868.4,280.8z"/>
		<path class="st4" d="M879.4,271.7c0,0-30.2-18.1-40.6-33.5s-10.3-94.8-81.7-160.1c-18.6-16.6-18.3-100.8-115.5-187
			c-0.7-5.4-11.4-23.8-8.1-27.6c16.3-15.6,4.3-66.7-29.5-121.9c-32.4-123.1-100.9-25-149.8-74.2c0,0-28.5-119.5-90.8-80.7
			c-59.6,42.9,40.1,114.7,40.1,114.7c26.9,64-89.8,90,11.7,166.8c38.2,52.2,80.9,82.8,101.5,73.6c4.8-1.6,17.7,15.3,22.4,18
			c42.7,122.6,120.8,154.4,129,177.8c33.2,90.9,106.7,121,117,136.4c10.3,15.4,15.6,50.3,15.6,50.3s-92.8,72.6-70.2,74.8
			c45.8,4.4,232.2-128,240.1-156C977.8,217.5,879.4,271.7,879.4,271.7z"/>
		<path class="st4" d="M890,262.1c0,0-30.8-17-41.7-32.1s-13.6-94.4-87.3-157.1C741.9,57,739.2-27.3,639.1-109.9
			c-0.9-5.4-12.2-23.4-9.1-27.3c15.8-16.1,1.9-66.8-33.7-120.8c-36.7-121.9-101.7-21.5-152.3-68.9c0,0-32.6-118.5-93.6-77.5
			c-58.1,45,44.1,113.2,44.1,113.2c29.1,63-86.6,93.1,17.5,166.3c40,50.8,83.7,79.9,104,70c4.7-1.8,18.2,14.7,23,17.2
			c47,121,126.1,150.1,135.2,173.2c36.4,89.6,110.8,117.2,121.7,132.3c10.9,15.1,17.3,49.7,17.3,49.7s-90.2,75.8-67.6,77.2
			c46,2.8,227.6-136,234.5-164.3C986.5,204.5,890,262.1,890,262.1z"/>
		<path class="st4" d="M900.3,252.1c0,0-31.4-15.9-42.8-30.6c-11.4-14.7-16.9-93.9-92.7-154c-19.7-15.2-25.3-99.3-128.2-178.4
			c-1.1-5.3-13-22.9-10-26.9c15.2-16.7-0.4-66.9-37.9-119.5c-41-120.5-102.4-17.9-154.6-63.6c0,0-36.7-117.3-96.2-74.2
			c-56.5,47,48,111.6,48,111.6c31.3,61.9-83.3,96.1,23.3,165.6c41.7,49.4,86.5,76.9,106.4,66.3c4.7-1.9,18.7,14,23.6,16.4
			c51.2,119.3,131.3,145.6,141.1,168.4c39.5,88.3,114.8,113.3,126.2,127.9c11.4,14.7,19,49,19,49s-87.5,78.9-64.8,79.5
			c46,1.2,222.7-143.9,228.6-172.4C994.7,191.3,900.3,252.1,900.3,252.1z"/>
		<path class="st4" d="M910.3,241.9c0,0-31.9-14.8-43.8-29.1s-20.2-93.2-98-150.7C748.2,47.6,739.6-36.3,634-111.7
			c-1.2-5.3-13.8-22.4-10.9-26.6c14.6-17.2-2.7-66.8-42.1-118.1c-45.1-119-103-14.3-156.8-58.1c0,0-40.8-115.9-98.7-70.8
			c-54.8,48.9,51.9,109.8,51.9,109.8c33.4,60.8-79.9,98.9,29.1,164.7c43.4,47.9,89.1,73.8,108.6,62.6c4.6-2.1,19.2,13.4,24.2,15.5
			c55.3,117.4,136.3,140.9,146.9,163.4c42.5,86.9,118.7,109.2,130.6,123.5s20.7,48.4,20.7,48.4s-84.7,81.9-62,81.7
			c46-0.4,217.6-151.6,222.4-180.3C1002.4,177.7,910.3,241.9,910.3,241.9z"/>
		<path class="st4" d="M919.8,231.2c0,0-32.4-13.7-44.8-27.5c-12.4-13.8-23.4-92.5-103.2-147.1c-20.7-13.8-32.2-97.3-140.3-169.1
			c-1.4-5.2-14.6-22-11.9-26.2c14-17.7-5.1-66.7-46.2-116.6C524.1-372.6,470-266,414.7-307.9c0,0-44.8-114.4-101.2-67.3
			c-53.1,50.8,55.7,108,55.7,108c35.5,59.6-76.4,101.6,34.8,163.5c45,46.3,91.6,70.7,110.8,58.8c4.5-2.3,19.7,12.7,24.7,14.7
			C598.9,85.2,680.6,105.8,692,127.9c45.5,85.4,122.5,105,134.9,118.8s22.4,47.6,22.4,47.6s-81.8,84.8-59.1,83.8
			c46-2,212.2-159.1,216-187.9C1009.7,163.9,919.8,231.2,919.8,231.2z"/>
		<path class="st4" d="M929,220.3c0,0-32.9-12.6-45.8-26S856.6,102.7,775,50.9c-21.1-13.1-35.6-96.1-146.2-164.1
			c-1.6-5.2-15.4-21.4-12.8-25.8c13.4-18.2-7.4-66.5-50.2-114.9c-53.3-115.6-103.7-7.1-160.4-47.1c0,0-48.8-112.8-103.4-63.7
			c-51.3,52.6,59.4,106,59.4,106c37.6,58.3-72.8,104.2,40.5,162.2c46.6,44.7,94,67.4,112.7,54.8c4.4-2.4,20.1,12,25.2,13.8
			c63.4,113.3,145.8,131.1,158,152.7c48.5,83.7,126.1,100.6,138.9,114s24.1,46.8,24.1,46.8s-78.8,87.6-56.2,85.8
			c45.9-3.6,206.5-166.4,209.3-195.4C1016.5,149.9,929,220.3,929,220.3z"/>
		<path class="st4" d="M937.8,209c0,0-33.3-11.4-46.6-24.3S861.4,94,778,45.1c-21.6-12.3-38.9-94.8-151.8-158.9
			c-1.8-5.1-16.1-20.9-13.7-25.3c12.7-18.6-9.7-66.2-54.2-113.1c-57.3-113.6-103.9-3.5-162-41.4c0,0-52.7-111-105.6-60
			c-49.4,54.4,63.1,103.8,63.1,103.8c39.6,57-69.1,106.7,46.1,160.7C448.1-46,496.3-25,514.5-38.2c4.3-2.6,20.5,11.3,25.7,12.9
			c67.3,111,150.2,125.9,163.2,147.1c51.4,82,129.5,96.2,142.8,109.1s25.7,45.9,25.7,45.9s-75.7,90.3-53.1,87.7
			c45.7-5.2,200.5-173.5,202.4-202.6C1022.8,135.6,937.8,209,937.8,209z"/>
		<path class="st4" d="M946.2,197.4c0,0-33.7-10.2-47.5-22.7c-13.8-12.5-32.9-89.5-118-135.5c-22-11.6-42.2-93.4-157.3-153.5
			c-2-5.1-16.8-20.3-14.5-24.8c12.1-19.1-12-65.8-58.1-111.1c-61.3-111.6-104,0.1-163.3-35.8c0,0-56.5-109.1-107.6-56.3
			c-47.5,56.1,66.7,101.5,66.7,101.5c41.6,55.6-65.4,109.1,51.7,159c49.6,41.4,98.5,60.7,116.3,46.9c4.2-2.7,20.9,10.6,26.1,12
			C611.8,85.7,695.2,97.7,708.9,118.5c54.2,80.1,132.8,91.6,146.5,104.1c13.8,12.5,27.3,45,27.3,45s-72.5,92.9-50.1,89.5
			c45.5-6.8,194.4-180.4,195.2-209.5C1028.6,121.1,946.2,197.4,946.2,197.4z"/>
		<path class="st4" d="M954.2,185.6c0,0-34-9-48.2-21c-14.2-12-36.1-88.3-122.7-131.3c-22.4-10.8-45.4-91.9-162.5-147.9
			c-2.1-5-17.5-19.7-15.4-24.3c11.4-19.5-14.3-65.3-61.9-109c-65.1-109.4-103.9,3.8-164.5-30c0,0-60.3-107.1-109.5-52.5
			c-45.5,57.7,70.2,99.2,70.2,99.2c43.5,54.1-61.5,111.3,57.2,157.1C447.9-34.6,497.4-17,514.7-31.5c4.2-2.9,21.2,9.8,26.5,11.1
			C616.1,85.6,699.9,94.7,714.3,115c57,78.2,135.9,86.9,150.1,98.9c14.2,12,28.8,44,28.8,44s-69.2,95.3-46.9,91.2
			c45.3-8.4,188-187,187.8-216.2C1033.9,106.4,954.2,185.6,954.2,185.6z"/>
		<path class="st4" d="M961.8,173.4c0,0-34.3-7.9-48.9-19.3s-39.1-87-127.2-127c-22.8-10-48.6-90.2-167.6-142.1
			c-2.3-4.9-18.2-19.1-16.2-23.7c10.7-19.9-16.6-64.8-65.7-106.8c-68.9-107-103.7,7.4-165.4-24.3c0,0-64-104.9-111.3-48.7
			C216-259.2,333-221.8,333-221.8c45.3,52.5-57.6,113.4,62.7,155C448.1-29,498.2-13.1,515-28.2c4-3,21.6,9.1,26.9,10.2
			C620.4,85.4,704.4,91.5,719.6,111.3c59.7,76.1,138.8,82.1,153.4,93.6s30.3,43,30.3,43s-65.8,97.7-43.7,92.8
			c45-10,181.3-193.5,180.1-222.6C1038.6,91.5,961.8,173.4,961.8,173.4z"/>
		<path class="st4" d="M969,161.1c0,0-34.6-6.7-49.6-17.6S877.3,57.9,787.8,21c-23.1-9.2-51.7-88.5-172.4-136.2
			c-2.5-4.8-18.8-18.4-17-23.1c10-20.2-18.8-64.2-69.4-104.4c-72.6-104.6-103.4,11-166.2-18.5c0,0-67.6-102.6-112.9-44.8
			c-41.4,60.7,76.9,94,76.9,94c47.2,50.9-53.6,115.3,68,152.7c53.7,36,104.3,50.1,120.6,34.4c3.9-3.1,21.9,8.3,27.2,9.2
			c82.1,100.5,166.3,103.8,182.1,123c62.3,74,141.6,77.2,156.6,88.2s31.8,41.9,31.8,41.9s-62.4,99.9-40.4,94.3
			c44.6-11.5,174.5-199.7,172.2-228.7C1042.9,76.5,969,161.1,969,161.1z"/>
		<path class="st4" d="M975.7,148.4c0,0-34.8-5.4-50.2-15.9c-15.4-10.4-45.1-84.1-135.8-117.8C766.4,6.3,735-71.9,612.7-115.3
			c-2.7-4.7-19.5-17.8-17.8-22.5c9.3-20.6-21.1-63.5-73-101.9c-76.2-102-102.9,14.6-166.7-12.7c0,0-71.2-100.2-114.4-40.8
			c-39.2,62.1,80.2,91.3,80.2,91.3c48.9,49.2-49.6,117.1,73.3,150.3c54.9,34.1,106,46.4,121.7,30.2c3.8-3.3,22.1,7.5,27.5,8.3
			c85.5,97.6,169.8,97.9,186.3,116.5c64.8,71.8,144.2,72.2,159.6,82.7s33.3,40.8,33.3,40.8s-58.8,102-37.1,95.6
			c44.1-13.1,167.4-205.7,164.1-234.6C1046.6,61.4,975.7,148.4,975.7,148.4z"/>
		<path class="st4" d="M982,135.6c0,0-35-4.2-50.7-14.1c-15.7-9.9-48-82.4-139.8-113C767.8,0.9,733.7-76.2,610-115.4
			c-2.8-4.6-20.1-17.1-18.6-21.9c8.6-20.9-23.3-62.7-76.5-99.3c-79.7-99.2-102.3,18.2-167.1-6.9c0,0-74.6-97.6-115.8-36.8
			c-37,63.5,83.3,88.4,83.3,88.4c50.6,47.5-45.4,118.8,78.5,147.6C449.9-12,501.4-1.5,516.5-18.2c3.7-3.4,22.4,6.8,27.8,7.3
			c88.9,94.6,173.1,91.9,190.2,110c67.3,69.5,146.7,67.2,162.4,77.1s34.7,39.6,34.7,39.6s-55.2,104-33.7,96.9
			c43.7-14.6,160.1-211.4,155.8-240.2C1049.8,46.1,982,135.6,982,135.6z"/>
		<path class="st4" d="M987.8,122.5c0,0-35.1-3-51.1-12.3c-16.1-9.3-50.8-80.7-143.6-108c-23.9-6.8-60.7-82.6-185.7-117.4
			c-3-4.5-20.7-16.4-19.4-21.2c7.8-21.2-25.4-61.9-79.9-96.6c-83.1-96.4-101.7,21.7-167.2-1c0,0-78-95-117-32.7
			c-34.8,64.7,86.3,85.5,86.3,85.5c52.2,45.7-41.3,120.3,83.6,144.8C450.9-6.4,502.7,2.3,517.2-15c3.6-3.5,22.6,6,28,6.3
			c92.1,91.4,176.2,85.8,193.9,103.3c69.7,67.1,148.9,62,165,71.3c16.1,9.3,36,38.3,36,38.3s-51.6,105.9-30.3,98
			c43.1-16.1,152.6-216.8,147.4-245.5C1052.4,30.7,987.8,122.5,987.8,122.5z"/>
		<path class="st4" d="M993.1,109.3c0,0-35.2-1.8-51.5-10.5S888,19.8,794.3-4.3c-24.2-5.9-63.5-80.4-189.7-110.9
			c-3.1-4.4-21.2-15.6-20.1-20.5c7.1-21.4-27.6-60.9-83.3-93.7c-86.4-93.4-100.8,25.3-167.1,4.8c0,0-81.2-92.2-118.1-28.6
			c-32.5,65.9,89.3,82.4,89.3,82.4C359-127,268.2-49.2,393.9-29C452.1-0.9,504.2,6.1,518.1-11.7c3.5-3.7,22.8,5.2,28.2,5.3
			c95.3,88.1,179.1,79.6,197.4,96.4c72,64.6,151,56.8,167.4,65.5s37.4,37.1,37.4,37.1s-47.8,107.6-26.9,99
			c42.5-17.6,145-222,138.7-250.5C1054.6,15.3,993.1,109.3,993.1,109.3z"/>
		<path class="st4" d="M998,95.8c0,0-35.2-0.5-51.9-8.7c-16.7-8.2-56.3-77-150.8-97.8C771-15.8,729-88.9,601.9-114.9
			c-3.3-4.3-21.8-14.9-20.8-19.8c6.3-21.7-29.7-59.9-86.5-90.8c-89.6-90.4-99.9,28.8-166.9,10.7c0,0-84.4-89.3-119-24.5
			c-30.2,67,92.1,79.2,92.1,79.2c55.3,41.9-32.8,122.9,93.5,138.6C453.5,4.6,505.8,9.7,519-8.5c3.3-3.8,23,4.4,28.4,4.4
			c98.3,84.8,181.8,73.3,200.7,89.5c74.2,62.1,152.9,51.5,169.5,59.7s38.6,35.7,38.6,35.7s-44.1,109.2-23.4,99.9
			c41.9-19.1,137.1-227,129.9-255.2C1056.1-0.3,998,95.8,998,95.8z"/>
		<path class="st4" d="M1002.4,82.2c0,0-35.2,0.7-52.2-6.9c-16.9-7.6-59-75-154.1-92.4c-24.5-4.2-69-75.8-197-97.4
			c-3.4-4.2-22.3-14.1-21.5-19.1c5.6-21.9-31.8-58.9-89.6-87.7c-92.7-87.2-98.8,32.2-166.4,16.5c0,0-87.5-86.3-119.8-20.3
			c-27.8,68,94.8,76,94.8,76c56.7,40-28.5,123.9,98.3,135.3c60,24,112.5,27.3,125.1,8.6c3.2-3.9,23.1,3.6,28.5,3.4
			C649.9,79.3,732.9,65,752.3,80.5c76.3,59.5,154.6,46.1,171.5,53.7c16.9,7.6,39.8,34.4,39.8,34.4s-40.2,110.7-19.9,100.6
			C985,248.6,1072.9,37.5,1064.7,9.6C1057.2-15.8,1002.4,82.2,1002.4,82.2z"/>
		<path class="st4" d="M1006.4,68.5c0,0-35.2,1.9-52.4-5.1s-61.6-72.8-157.3-87C772.1-27,725.2-97,596.5-114.1
			c-3.6-4.1-22.7-13.3-22.1-18.3c4.8-22-33.8-57.7-92.6-84.5c-95.7-83.9-97.6,35.7-165.7,22.3c0,0-90.4-83.2-120.4-16.1
			c-25.4,68.9,97.4,72.6,97.4,72.6c58.1,38-24.1,124.8,103,131.7c60.8,21.9,113.3,23.4,125.3,4.3c3.1-4,23.2,2.8,28.6,2.4
			c104,77.7,186.5,60.5,206.4,75.3c78.3,56.8,156.1,40.7,173.3,47.7c17.2,7,41,33,41,33s-36.3,112.1-16.4,101.2
			c40.5-22,121-236,111.8-263.6C1057.7-31.4,1006.4,68.5,1006.4,68.5z"/>
		<path class="st4" d="M1009.8,54.6c0,0-35.1,3.1-52.5-3.3s-64.1-70.7-160.2-81.5c-24.7-2.5-74.1-70.8-203.3-83.4
			c-3.7-4-23.2-12.5-22.8-17.5c4-22.2-35.8-56.5-95.5-81.2c-98.6-80.5-96.3,39.1-164.8,28c0,0-93.3-80-120.9-11.9
			c-23,69.8,99.9,69.2,99.9,69.2C349.1-91.1,269.9-1.4,397.2,1c61.5,19.8,114.1,19.4,125.4-0.1c2.9-4.1,23.3,2,28.7,1.4
			c106.6,74,188.5,53.9,208.9,68c80.3,54,157.4,35.2,174.9,41.6s42.1,31.5,42.1,31.5s-32.4,113.2-12.9,101.8
			C1004,221.8,1077,5.1,1066.8-22.2C1057.6-47,1009.8,54.6,1009.8,54.6z"/>
		<path class="st4" d="M1012.8,40.6c0,0-34.9,4.4-52.6-1.4s-66.5-68.4-163-75.8c-24.8-1.6-76.5-68.2-206.1-76.2
			c-3.9-3.8-23.6-11.7-23.4-16.7c3.3-22.3-37.7-55.2-98.3-77.9c-101.3-77-94.9,42.4-163.8,33.8c0,0-96-76.7-121.2-7.7
			c-20.6,70.5,102.2,65.7,102.2,65.7C347.3-81.9,271.4,10.5,398.7,8.5C460.9,26.1,513.4,23.9,524,4c2.8-4.2,23.4,1.1,28.7,0.4
			C661.9,74.6,742.9,51.6,763.9,65c82.1,51.2,158.6,29.7,176.2,35.5s43.2,30,43.2,30s-28.4,114.3-9.3,102.1
			c38.8-24.7,104.2-243.8,93.1-270.8C1057-62.6,1012.8,40.6,1012.8,40.6z"/>
		<path class="st4" d="M1015.3,26.5c0,0-34.8,5.6-52.6,0.4s-68.9-66-165.5-70.1c-24.9-0.8-78.9-65.5-208.6-69
			c-4-3.7-24-10.9-23.9-15.9c2.5-22.4-39.6-53.9-100.9-74.4c-104-73.4-93.4,45.7-162.5,39.5c0,0-98.6-73.3-121.4-3.4
			c-18.1,71.2,104.4,62,104.4,62C346-72.7,273.3,22.3,400.4,15.8C463.2,31.3,515.6,27.2,525.5,7c2.6-4.3,23.4,0.3,28.7-0.6
			C665.7,72.7,746,46.9,767.4,59.6c83.8,48.3,159.5,24.1,177.3,29.3c17.8,5.2,44.2,28.5,44.2,28.5s-24.4,115.2-5.7,102.4
			c38-26.1,95.6-247.3,83.6-273.9C1055.9-78.2,1015.3,26.5,1015.3,26.5z"/>
		<path class="st4" d="M1017.3,12.3c0,0-34.6,6.8-52.6,2.2S893.6-49,796.9-49.7c-24.9,0.1-81.1-62.7-210.9-61.7
			c-4.1-3.5-24.4-10-24.5-15.1c1.7-22.5-41.5-52.4-103.5-70.8c-106.5-69.8-91.7,48.9-161,45.1c0,0-101.1-69.8-121.5,0.8
			C160-79.6,282.1-93,282.1-93c62.8,29.5-6.5,127,120.3,116.1c63.3,13.2,115.5,7.4,124.7-13.2c2.5-4.4,23.4-0.5,28.7-1.7
			c113.8,62.5,193.1,33.9,214.9,45.8c85.5,45.3,160.2,18.6,178.2,23.1s45.2,26.9,45.2,26.9s-20.4,116-2.2,102.5
			c37-27.4,86.9-250.5,74-276.6C1054.2-93.7,1017.3,12.3,1017.3,12.3z"/>
		<path class="st4" d="M1018.8-1.9c0,0-34.3,8-52.5,4.1c-18.2-3.9-73.3-61-170-58.4c-24.8,1-83.2-59.8-212.9-54.3
			c-4.2-3.4-24.7-9.2-25-14.2c0.9-22.5-43.3-51-105.9-67.2c-108.8-66-90,52.1-159.3,50.7c0,0-103.5-66.2-121.4,5
			c-13.1,72.3,108.5,54.6,108.5,54.6c63.8,27.3-2.1,127.1,124.3,111.9c63.7,11,115.7,3.3,124.1-17.6c2.3-4.5,23.4-1.3,28.6-2.7
			c115.9,58.5,194.1,27.2,216.4,38.3c87,42.3,160.8,13,178.9,16.9c18.2,3.9,46.1,25.3,46.1,25.3s-16.3,116.7,1.4,102.6
			c36-28.7,78.1-253.4,64.3-279C1051.9-109.2,1018.8-1.9,1018.8-1.9z"/>
		<path class="st4" d="M1019.8-16.1c0,0-34,9.2-52.3,5.9c-18.3-3.3-75.4-58.5-171.9-52.4c-24.8,1.8-85.3-56.9-214.7-46.8
			c-4.4-3.3-25-8.3-25.5-13.3c0.1-22.6-45.1-49.4-108.1-63.4C336.2-248.4,359.2-131,289.8-130c0,0-105.8-62.6-121.1,9.3
			C158.1-48,279-69.9,279-69.9c64.7,25.1,2.4,127.1,128.1,107.5c64,8.8,115.7-0.7,123.5-21.9c2.2-4.6,23.3-2.1,28.5-3.6
			c117.9,54.4,195,20.4,217.6,30.7c88.4,39.2,161.1,7.3,179.4,10.6c18.3,3.3,47,23.7,47,23.7s-12.2,117.2,5,102.4
			c35-29.9,69.3-256,54.5-281.1C1049.2-124.5,1019.8-16.1,1019.8-16.1z"/>
		<path class="st4" d="M1020.3-30.4c0,0-33.7,10.4-52,7.7c-18.4-2.6-77.4-55.8-173.7-46.4c-24.7,2.7-87.2-53.8-216.2-39.3
			c-4.5-3.1-25.3-7.4-25.9-12.4c-0.7-22.5-46.8-47.8-110.3-59.6c-113.2-58.2-86.1,58.2-155.4,61.7c0,0-107.9-58.8-120.7,13.5
			c-8,73,112.1,46.9,112.1,46.9c65.5,22.8,6.8,127,131.8,102.9c64.3,6.5,115.6-4.7,122.6-26.2c2-4.6,23.2-2.9,28.4-4.6
			C680.6,64,756.4,27.3,779.4,36.8c89.7,36.1,161.3,1.7,179.7,4.3c18.4,2.6,47.8,22,47.8,22s-8.1,117.5,8.6,102.2
			c34-31.1,60.3-258.2,44.7-282.8C1045.9-139.8,1020.3-30.4,1020.3-30.4z"/>
		<path class="st4" d="M1020.3-44.7c0,0-33.3,11.5-51.7,9.5c-18.5-2-79.3-53.1-175.2-40.3c-24.6,3.6-89-50.8-217.4-31.7
			c-4.6-2.9-25.5-6.5-26.3-11.5c-1.5-22.5-48.4-46.2-112.3-55.7c-115.1-54.3-84,61.2-153.2,67.1c0,0-109.9-55-120.2,17.7
			c-5.5,73.3,113.6,43,113.6,43c66.3,20.5,11.2,126.7,135.3,98.3c64.5,4.3,115.4-8.8,121.6-30.5c1.8-4.7,23.1-3.7,28.2-5.6
			c121.4,46,195.9,6.7,219.2,15.5c91,33,161.3-3.9,179.7-1.9s48.5,20.4,48.5,20.4s-4,117.7,12.1,101.8
			c32.8-32.3,51.2-260.2,34.8-284.2C1042-154.9,1020.3-44.7,1020.3-44.7z"/>
		<path class="st4" d="M1019.8-59c0,0-32.9,12.7-51.4,11.3S887.3-98,791.9-81.9c-24.5,4.4-90.7-47.6-218.4-24.1
			c-4.7-2.8-25.8-5.6-26.7-10.6c-2.2-22.4-50-44.4-114.2-51.8c-117-50.2-81.8,64.1-150.7,72.4c0,0-111.7-51.2-119.5,21.9
			c-2.9,73.4,115.1,39,115.1,39c67,18.2,15.6,126.2,138.6,93.5c64.6,2,115-12.8,120.5-34.7c1.7-4.8,22.9-4.5,28-6.6
			c122.9,41.8,196-0.1,219.6,7.8c92,29.8,161-9.6,179.6-8.2c18.5,1.4,49.2,18.7,49.2,18.7s0.1,117.8,15.7,101.4
			c31.7-33.4,42.1-261.8,24.8-285.2C1037.7-169.9,1019.8-59,1019.8-59z"/>
		<path class="st4" d="M1018.8-73.3c0,0-32.4,13.8-51,13.1s-82.8-47.4-177.5-28c-24.3,5.3-92.4-44.4-219.1-16.5
			c-4.8-2.6-25.9-4.7-27.1-9.7c-3-22.4-51.5-42.7-115.9-47.8c-118.6-46.1-79.5,66.9-148.1,77.6c0,0-113.4-47.2-118.7,26
			C161.1,15,277.8-23.5,277.8-23.5c67.6,15.8,20,125.6,141.8,88.6c64.6-0.2,114.5-16.8,119.2-38.9c1.5-4.8,22.8-5.3,27.7-7.6
			c124.3,37.5,195.9-7,219.7,0.1c93,26.5,160.6-15.2,179.2-14.5s49.8,16.9,49.8,16.9s4.2,117.7,19.2,100.8
			c30.5-34.5,33-263.1,14.9-285.9C1032.8-184.7,1018.8-73.3,1018.8-73.3z"/>
		<path class="st4" d="M1017.3-87.5c0,0-31.9,14.9-50.5,14.9c-18.6-0.1-84.4-44.5-178.4-21.8c-24.1,6.1-93.8-41.2-219.5-8.8
			c-4.9-2.4-26.1-3.8-27.4-8.7c-3.8-22.2-53-40.8-117.5-43.7C303.8-197.5,346.8-86,278.6-72.9c0,0-115-43.3-117.7,30.2
			c2.2,73.4,117.5,30.9,117.5,30.9c68.1,13.5,24.4,124.8,144.8,83.6c64.6-2.5,113.8-20.8,117.8-43c1.3-4.9,22.6-6.1,27.4-8.5
			C694,53.3,764,6.4,788.1,12.6C882,35.9,948.1-8.1,966.6-8.1C985.2-8,1017,7.1,1017,7.1s8.3,117.5,22.7,100
			c29.3-35.5,23.8-264.1,4.9-286.3C1027.4-199.4,1017.3-87.5,1017.3-87.5z"/>
		<path class="st4" d="M1015.3-101.7c0,0-31.3,16-49.9,16.6c-18.6,0.6-85.9-41.5-179.1-15.5c-23.9,7-95.2-37.9-219.7-1.2
			c-4.9-2.3-26.2-2.9-27.7-7.7c-4.6-22.1-54.3-39-119-39.6c-121.6-37.7-74.7,72.3-142.3,87.7c0,0-116.4-39.2-116.6,34.3
			c4.8,73.3,118.5,26.7,118.5,26.7c68.5,11.1,28.7,123.9,147.7,78.5c64.5-4.7,113-24.7,116.2-47.1c1.2-4.9,22.3-6.9,27.1-9.5
			C697.1,50.3,765.5,1,789.8,6.4c94.7,20,159.1-26.3,177.7-26.9c18.6-0.6,50.9,13.4,50.9,13.4s12.4,117.1,26.2,99.2
			c28-36.5,14.5-264.8-5.1-286.3C1021.5-213.8,1015.3-101.7,1015.3-101.7z"/>
		<path class="st4" d="M1012.8-115.8c0,0-30.8,17.1-49.3,18.4c-18.5,1.2-87.3-38.5-179.5-9.3c-23.6,7.8-96.5-34.5-219.6,6.5
			c-5-2.1-26.3-2-27.9-6.8c-5.3-21.9-55.7-37.1-120.3-35.4C293.4-175.7,344.1-67.4,277-49.6c0,0-117.7-35.1-115.3,38.3
			c7.4,73.1,119.4,22.6,119.4,22.6c68.8,8.7,33,122.8,150.3,73.3c64.3-7,112.1-28.7,114.5-51.1c1-4.9,22.1-7.7,26.8-10.4
			C700.2,47.2,766.7-4.5,791.2,0.1C886.5,16.8,949.3-31.8,967.8-33c18.5-1.2,51.3,11.6,51.3,11.6s16.5,116.6,29.6,98.2
			c26.7-37.5,5.3-265.1-15.1-285.9C1015.1-228,1012.8-115.8,1012.8-115.8z"/>
		<path class="st4" d="M1009.9-129.8c0,0-30.2,18.2-48.6,20.1c-18.5,1.9-88.6-35.4-179.7-3c-23.3,8.6-97.6-31.2-219.3,14.2
			c-5.1-1.9-26.3-1.1-28.2-5.8c-6.1-21.7-56.9-35.1-121.4-31.2C288.7-164.6,343.2-58.1,276.8-38c0,0-118.9-31-113.9,42.3
			C172.8,77.1,283,22.7,283,22.7c69.1,6.3,37.3,121.6,152.8,68c64-9.2,111-32.6,112.6-55.1c0.8-5,21.8-8.5,26.4-11.4
			C703.1,44,767.8-9.9,792.4-6.2c95.8,13.3,156.9-37.4,175.4-39.3c18.5-1.9,51.7,9.8,51.7,9.8s20.5,116,33,97.1
			c25.4-38.4-4-265.1-25.1-285.2C1008.2-242,1009.9-129.8,1009.9-129.8z"/>
		<path class="st4" d="M1006.4-143.6c0,0-29.5,19.2-47.9,21.8s-89.8-32.3-179.7,3.3c-23,9.4-98.7-27.7-218.6,21.8
			c-5.2-1.7-26.4-0.2-28.3-4.8c-6.9-21.5-58.1-33.1-122.5-26.9C284.5-153.3,342.6-48.8,277-26.3c0,0-119.9-26.8-112.3,46.2
			c12.4,72.4,120.6,14.2,120.6,14.2c69.3,3.9,41.5,120.2,155,62.6c63.6-11.4,109.8-36.4,110.6-59c0.7-5,21.5-9.2,26-12.3
			c128.9,15.3,191.7-40.9,216.4-38c96.2,10,155.5-42.8,173.9-45.4c18.4-2.5,52,8,52,8s24.6,115.2,36.4,95.9
			c24.1-39.2-13.2-264.8-35-284.2C1000.8-255.8,1006.4-143.6,1006.4-143.6z"/>
		<path class="st4" d="M1002.5-157.4c0,0-28.8,20.3-47.1,23.4c-18.3,3.2-90.8-29.1-179.5,9.6c-22.7,10.2-99.6-24.3-217.7,29.4
			c-5.2-1.6-26.4,0.8-28.5-3.8c-7.6-21.2-59.2-31-123.3-22.6c-125.6-20.4-63.9,82-128.7,106.7c0,0-120.8-22.6-110.7,50.1
			c15,71.9,121.1,10,121.1,10c69.4,1.4,45.7,118.7,157.1,57.2c63.2-13.6,108.5-40.2,108.5-62.8c0.5-5,21.2-10,25.5-13.2
			C708.5,37.4,769.3-21,794.1-19c96.5,6.6,153.9-48.2,172.2-51.4c18.3-3.2,52.2,6.2,52.2,6.2s28.6,114.3,39.7,94.6
			c22.7-40.1-22.5-264.2-44.9-282.8C993-269.3,1002.5-157.4,1002.5-157.4z"/>
		<path class="st4" d="M998-171c0,0-28.1,21.2-46.3,25.1c-18.2,3.8-91.8-26-179,15.8c-22.3,11-100.4-20.8-216.6,37
			c-5.3-1.4-26.3,1.7-28.6-2.8c-8.3-21-60.3-28.9-124-18.3c-126.3-16-61,84.2-124.9,111.1c0,0-121.5-18.4-108.8,54
			c17.5,71.4,121.3,5.7,121.3,5.7c69.4-1,49.8,117,159,51.6c62.7-15.8,107-44,106.3-66.5c0.3-5,20.8-10.7,25.1-14.1
			c129.7,6.3,188.4-54.2,213.2-53C891.4-22.1,946.8-79,965-82.8c18.2-3.8,52.4,4.4,52.4,4.4s32.5,113.2,43,93.1
			c21.3-40.8-31.7-263.3-54.8-281C984.7-282.5,998-171,998-171z"/>
		<path class="st4" d="M993.1-184.4c0,0-27.3,22.2-45.4,26.7s-92.6-22.7-178.4,22.1c-21.9,11.8-101-17.3-215.2,44.5
			c-5.3-1.2-26.2,2.6-28.7-1.8c-9.1-20.7-61.3-26.8-124.6-14c-126.8-11.6-58,86.3-121,115.4c0,0-122.1-14.1-106.9,57.7
			c19.9,70.7,121.5,1.5,121.5,1.5c69.3-3.4,53.9,115.2,160.7,46.1c62.1-18,105.4-47.7,103.9-70.2c0.1-5,20.4-11.4,24.6-14.9
			C713.5,30.4,770.1-32.1,795-31.8c96.7-0.1,150.2-58.8,168.2-63.3s52.6,2.5,52.6,2.5s36.5,112,46.2,91.6
			c19.8-41.6-40.8-262-64.5-279C975.9-295.4,993.1-184.4,993.1-184.4z"/>
		<path class="st4" d="M987.8-197.7c0,0-26.5,23.2-44.4,28.2c-17.9,5.1-93.4-19.5-177.5,28.3c-21.5,12.5-101.6-13.7-213.5,52
			c-5.3-1-26.1,3.5-28.7-0.8c-9.8-20.3-62.2-24.7-125-9.6c-127.1-7.2-55,88.2-116.9,119.6c0,0-122.5-9.9-104.8,61.4
			c22.4,70,121.5-2.7,121.5-2.7c69.1-5.8,57.9,113.2,162.3,40.4C522.1,98.9,564.4,67.7,562,45.3c-0.1-5,20-12.1,24-15.8
			c129.8-2.8,184.2-67.2,209-67.8c96.7-3.5,148-64,165.9-69.1c17.9-5.1,52.6,0.7,52.6,0.7S1054,4,1063-16.8
			c18.4-42.2-50-260.4-74.2-276.5C966.7-308,987.8-197.7,987.8-197.7z"/>
		<path class="st4" d="M982-210.8c0,0-25.7,24.1-43.4,29.8c-17.7,5.7-94-16.2-176.4,34.4c-21,13.3-102-10.2-211.5,59.5
			c-5.4-0.8-26,4.4-28.7,0.2c-10.5-20-63-22.5-125.3-5.2C269.4-94.9,344.8-2.1,284,31.4c0,0-122.7-5.6-102.6,65
			c24.8,69.1,121.3-7,121.3-7c68.9-8.2,61.8,111.1,163.6,34.7c60.7-22.3,101.8-54.9,98.7-77.3c-0.2-5,19.6-12.8,23.5-16.6
			C718,23,770.1-43.2,794.9-44.7c96.5-6.9,145.7-69.2,163.4-74.9c17.7-5.7,52.6-1.1,52.6-1.1s44.2,109.2,52.5,88.1
			c16.9-42.8-59-258.5-83.8-273.8C957-320.3,982-210.8,982-210.8z"/>
		<path class="st4" d="M975.7-223.6c0,0-24.9,24.9-42.3,31.3c-17.5,6.3-94.5-12.9-175.1,40.6c-20.6,14-102.3-6.6-209.3,66.8
			c-5.4-0.6-25.8,5.3-28.7,1.2c-11.2-19.6-63.7-20.3-125.4-0.9C267.6-83,346.2,7.2,286.6,42.8c0,0-122.9-1.3-100.3,68.6
			c27.2,68.2,121-11.2,121-11.2c68.6-10.6,65.6,108.9,164.7,29c59.8-24.4,99.9-58.5,96-80.7c-0.4-5,19.1-13.5,22.9-17.4
			c129.3-11.8,179-79.8,203.8-82.2c96.2-10.2,143.2-74.2,160.7-80.5c17.5-6.3,52.5-3,52.5-3s48,107.6,55.5,86.2
			c15.4-43.4-68-256.3-93.3-270.7C947-332.2,975.7-223.6,975.7-223.6z"/>
		<path class="st4" d="M969-236.3c0,0-24,25.8-41.2,32.7c-17.2,6.9-94.9-9.6-173.6,46.7c-20.1,14.7-102.4-3-206.9,74.1
			c-5.4-0.4-25.6,6.2-28.7,2.2c-11.9-19.2-64.4-18-125.3,3.5C266.2-71,347.9,16.4,289.6,54c0,0-122.8,3-97.8,72
			c29.6,67.2,120.5-15.4,120.5-15.4c68.2-13,69.4,106.6,165.6,23.2c59-26.5,97.8-61.9,93.1-84c-0.6-5,18.6-14.1,22.2-18.2
			C722,15.4,769.3-54.3,794-57.5c95.8-13.6,140.5-79.2,157.8-86.1c17.2-6.9,52.4-4.8,52.4-4.8s51.7,105.8,58.5,84.2
			c13.9-43.9-76.9-253.8-102.7-267.3C936.5-343.7,969-236.3,969-236.3z"/>
		<path class="st4" d="M961.8-248.6c0,0-23.1,26.6-40,34.1s-95.2-6.3-171.8,52.7c-19.5,15.4-102.5,0.5-204.2,81.2
			c-5.4-0.3-25.4,7.1-28.6,3.2c-12.5-18.8-65-15.8-125.1,7.9c-126.8,10.6-42.2,95-99.1,134.7c0,0-122.7,7.3-95.2,75.4
			c31.9,66.2,119.9-19.6,119.9-19.6c67.7-15.4,73.1,104.1,166.3,17.4c58-28.5,95.5-65.3,90.1-87.2c-0.8-5,18.1-14.8,21.6-19
			c128.1-20.8,173-92.1,197.5-96.2c95.2-16.9,137.7-84,154.7-91.5c17-7.5,52.2-6.6,52.2-6.6s55.4,104,61.4,82.1
			c12.3-44.4-85.7-250.9-112-263.5C925.6-354.9,961.8-248.6,961.8-248.6z"/>
		<path class="st4" d="M954.3-260.8c0,0-22.1,27.4-38.8,35.5s-95.3-3-169.9,58.7c-19,16.1-102.4,4.1-201.2,88.3
			c-5.4-0.1-25.1,8-28.4,4.2c-13.2-18.3-65.5-13.5-124.8,12.3c-126.4,15-38.8,96.4-94.3,138.1c0,0-122.3,11.5-92.5,78.7
			c34.2,65,119.1-23.8,119.1-23.8c67.1-17.7,76.6,101.5,166.8,11.6c57-30.5,93.2-68.6,87-90.3c-0.9-5,17.6-15.4,20.9-19.7
			c127.3-25.3,169.7-98.1,194.1-103c94.6-20.2,134.7-88.8,151.4-96.9s51.9-8.4,51.9-8.4s59,102,64.3,79.9
			c10.8-44.8-94.4-247.8-121.1-259.4C914.3-365.7,954.3-260.8,954.3-260.8z"/>
		<path class="st4" d="M946.3-272.6c0,0-21.1,28.2-37.6,36.8c-16.4,8.7-95.4,0.3-167.7,64.6c-18.4,16.7-102.2,7.7-198,95.3
			c-5.4,0.1-24.8,8.9-28.3,5.2C500.9-88.6,448.7-82,390.4-54.2C264.6-34.8,355,43.5,300.9,87.1c0,0-121.9,15.8-89.7,81.9
			c36.4,63.8,118.2-27.9,118.2-27.9c66.4-20.1,80.1,98.7,167.1,5.8c55.9-32.5,90.8-71.8,83.8-93.3c-1.1-4.9,17.1-16,20.2-20.4
			C726.9,3.4,766.7-70.8,790.9-76.6c93.8-23.5,131.5-93.4,147.9-102.1c16.4-8.7,51.6-10.2,51.6-10.2s62.5,99.9,67,77.7
			c9.2-45.1-103-244.3-130.1-255.1C902.7-376.1,946.3-272.6,946.3-272.6z"/>
		<path class="st4" d="M937.9-284.2c0,0-20.1,28.9-36.3,38.1s-95.3,3.7-165.4,70.4c-17.8,17.4-101.9,11.3-194.5,102.1
			c-5.4,0.3-24.5,9.7-28.1,6.2c-14.4-17.4-66.3-8.9-123.6,20.9c-125,23.8-32,98.9-84.5,144.3c0,0-121.2,20-86.8,85
			c38.7,62.5,117.2-32,117.2-32c65.7-22.4,83.5,95.9,167.2,0c54.7-34.4,88.2-74.9,80.5-96.1C582.3,49.7,600,38,603,33.5
			C728.3-0.6,765.5-76.3,789.4-82.9c93-26.8,128.2-98,144.3-107.2c16.1-9.2,51.2-12,51.2-12s65.9,97.6,69.7,75.3
			c7.6-45.4-111.5-240.6-138.9-250.4C890.7-386.1,937.9-284.2,937.9-284.2z"/>
		<path class="st4" d="M929-295.5c0,0-19.1,29.6-34.9,39.4c-15.8,9.8-95.1,7-162.8,76.1c-17.2,18-101.4,14.8-190.9,108.9
			c-5.4,0.5-24.2,10.6-27.8,7.1c-15-16.8-66.6-6.6-122.8,25.2c-124.1,28.1-28.5,100-79.4,147.2c0,0-120.5,24.3-83.8,87.9
			c40.8,61.1,116-36.1,116-36.1c64.9-24.7,86.8,92.9,167.1-5.9c53.5-36.3,85.5-78,77.1-98.9c-1.4-4.8,15.9-17.2,18.7-21.8
			C729.5-4.8,764-81.6,787.8-89.1c92-30,124.7-102.4,140.4-112.2c15.8-9.8,50.8-13.8,50.8-13.8s69.3,95.3,72.3,72.8
			c6-45.6-119.8-236.6-147.6-245.4C878.4-395.7,929-295.5,929-295.5z"/>
	</g>
</g>
</svg>
