<?xml version="1.0" encoding="utf-8"?>
<!-- Generator: Adobe Illustrator 19.2.0, SVG Export Plug-In . SVG Version: 6.00 Build 0)  -->
<svg version="1.1" xmlns="http://www.w3.org/2000/svg" xmlns:xlink="http://www.w3.org/1999/xlink" x="0px" y="0px"
	 viewBox="0 0 266 446" style="enable-background:new 0 0 266 446;" xml:space="preserve">
<style type="text/css">
	.st0{opacity:0.2;fill:#CCCCCC;}
	.st1{fill:#FFFFFF;}
	.st2{fill:#F2F2F2;}
	.st3{clip-path:url(#SVGID_12_);}
	.st4{clip-path:url(#SVGID_14_);}
	.st5{clip-path:url(#SVGID_16_);}
	.st6{clip-path:url(#SVGID_18_);}
	.st7{clip-path:url(#SVGID_20_);}
	.st8{clip-path:url(#SVGID_22_);}
	.st9{clip-path:url(#SVGID_24_);}
	.st10{clip-path:url(#SVGID_26_);}
	.st11{clip-path:url(#SVGID_28_);}
	.st12{clip-path:url(#SVGID_30_);}
	.st13{clip-path:url(#SVGID_32_);}
	.st14{clip-path:url(#SVGID_34_);}
	.st15{clip-path:url(#SVGID_36_);}
	.st16{clip-path:url(#SVGID_38_);}
	.st17{clip-path:url(#SVGID_40_);}
	.st18{clip-path:url(#SVGID_42_);}
	.st19{clip-path:url(#SVGID_44_);}
	.st20{clip-path:url(#SVGID_46_);}
	.st21{clip-path:url(#SVGID_48_);}
	.st22{clip-path:url(#SVGID_50_);}
	.st23{clip-path:url(#SVGID_52_);}
	.st24{clip-path:url(#SVGID_54_);}
	.st25{clip-path:url(#SVGID_56_);}
	.st26{clip-path:url(#SVGID_58_);}
	.st27{fill:#CCCCCC;}
	.st28{fill:#E496B4;}
	.st29{fill:#455B65;}
	.st30{fill:#B0BEC5;}
	.st31{fill:#3CE6AD;}
	.st32{fill:#666666;}
	.st33{fill:#5D5D5D;}
	.st34{fill:#FAF7EE;}
	.st35{fill:#D1E882;}
	.st36{fill:none;stroke:#FAF7EE;stroke-width:8.9375;stroke-linecap:round;stroke-miterlimit:10;}
	.st37{fill:#B3B3B3;}
	.st38{fill:none;stroke:#FAF7EE;stroke-width:2.124;stroke-linecap:round;stroke-miterlimit:10;}
	.st39{fill:#5D5D5D;stroke:#5D5D5D;stroke-width:2;stroke-linecap:round;stroke-miterlimit:10;}
	.st40{opacity:0.38;fill:#29ABE2;}
	.st41{opacity:0.38;fill:#DFCEBF;}
	.st42{opacity:0.38;fill:#F6F7F9;}
	.st43{fill:#F6F7F9;}
	.st44{fill:#22B573;}
	.st45{fill:#29ABE2;}
	.st46{clip-path:url(#SVGID_60_);}
	.st47{fill:#DFCEBF;}
	.st48{clip-path:url(#SVGID_64_);}
	.st49{clip-path:url(#SVGID_66_);}
	.st50{clip-path:url(#SVGID_70_);}
	.st51{clip-path:url(#SVGID_72_);fill:#D1E882;}
	.st52{clip-path:url(#SVGID_74_);}
	.st53{clip-path:url(#SVGID_76_);fill:#E496B4;}
	.st54{clip-path:url(#SVGID_78_);fill:none;stroke:#FAF7EE;stroke-width:1.7136;stroke-linecap:round;stroke-miterlimit:10;}
	.st55{clip-path:url(#SVGID_80_);}
	.st56{clip-path:url(#SVGID_82_);fill:#E496B4;}
	.st57{clip-path:url(#SVGID_84_);}
	.st58{font-family:'MuseoSansRounded-500';}
	.st59{font-size:15.1453px;}
	.st60{clip-path:url(#SVGID_86_);}
	.st61{clip-path:url(#SVGID_88_);fill:#D1E882;}
	.st62{clip-path:url(#SVGID_90_);}
	.st63{clip-path:url(#SVGID_92_);fill:#E496B4;}
	.st64{clip-path:url(#SVGID_94_);}
	.st65{clip-path:url(#SVGID_96_);fill:#FFFFFF;}
	.st66{clip-path:url(#SVGID_98_);}
	.st67{clip-path:url(#SVGID_100_);fill:#EFC8D2;}
	.st68{clip-path:url(#SVGID_102_);}
	.st69{clip-path:url(#SVGID_104_);fill:#FAF7EE;}
	.st70{clip-path:url(#SVGID_106_);fill:none;stroke:#F3D3DB;stroke-width:0.5752;stroke-miterlimit:10;}
	.st71{clip-path:url(#SVGID_106_);}
	.st72{fill:#F3D3DB;}
	.st73{font-size:9.2028px;}
	.st74{clip-path:url(#SVGID_120_);}
	.st75{clip-path:url(#SVGID_122_);fill:#E496B4;}
	.st76{clip-path:url(#SVGID_124_);fill:none;stroke:#E496B4;stroke-width:0.3717;stroke-miterlimit:10;}
	.st77{clip-path:url(#SVGID_126_);}
	.st78{clip-path:url(#SVGID_128_);fill:#E496B4;}
	.st79{clip-path:url(#SVGID_130_);fill:none;stroke:#E496B4;stroke-width:0.3717;stroke-miterlimit:10;}
	.st80{clip-path:url(#SVGID_132_);}
	.st81{clip-path:url(#SVGID_134_);fill:#E496B4;}
	.st82{clip-path:url(#SVGID_136_);fill:none;stroke:#E496B4;stroke-width:0.3717;stroke-miterlimit:10;}
	.st83{clip-path:url(#SVGID_138_);}
	.st84{clip-path:url(#SVGID_140_);fill:#E496B4;}
	.st85{clip-path:url(#SVGID_142_);fill:none;stroke:#E496B4;stroke-width:0.3717;stroke-miterlimit:10;}
	.st86{opacity:0.4;fill:none;stroke:#E496B4;stroke-width:1.1152;stroke-miterlimit:10;}
	.st87{fill:none;}
	.st88{opacity:0.4;}
	.st89{clip-path:url(#SVGID_144_);}
	.st90{clip-path:url(#SVGID_146_);fill:#E496B4;}
	.st91{opacity:0.3;clip-path:url(#SVGID_148_);fill:none;stroke:#E496B4;stroke-width:0.9293;stroke-miterlimit:10;}
	.st92{clip-path:url(#SVGID_150_);}
	.st93{clip-path:url(#SVGID_152_);fill:#EFC8D2;}
	.st94{opacity:1.000000e-02;clip-path:url(#SVGID_154_);enable-background:new    ;}
	.st95{clip-path:url(#SVGID_156_);}
	.st96{clip-path:url(#SVGID_158_);}
	.st97{clip-path:url(#SVGID_160_);fill:#FAF7EE;}
	.st98{font-family:'MuseoSansRounded-900';}
	.st99{font-size:43.1062px;}
	.st100{fill:#EEC8D2;}
	.st101{fill:#E397B4;}
</style>
<g id="Layer_4">
</g>
<g id="Layer_1">
</g>
<g id="images">
</g>
<g id="Layer_2">
	<g>
		<defs>
			<rect id="SVGID_63_" x="-212.3" y="-55" width="497" height="501"/>
		</defs>
		<clipPath id="SVGID_2_">
			<use xlink:href="#SVGID_63_"  style="overflow:visible;"/>
		</clipPath>
		<g style="clip-path:url(#SVGID_2_);">
			<path class="st47" d="M212.8,516H52.5C31.2,516,14,498.8,14,477.5v-411C14,45.2,31.2,28,52.5,28h160.3
				c21.3,0,38.5,17.2,38.5,38.5v411C251.3,498.8,234.1,516,212.8,516z"/>
			<path class="st43" d="M209.8,511.1H55.5c-20.7,0-37.5-16.8-37.5-37.5V70.4c0-20.7,16.8-37.5,37.5-37.5h154.3
				c20.7,0,37.5,16.8,37.5,37.5v403.3C247.3,494.4,230.5,511.1,209.8,511.1z"/>
			<path d="M151.7,59.6c0,1.4-1.1,2.4-2.4,2.4h-33.1c-1.4,0-2.4-1.1-2.4-2.4v-0.1c0-1.4,1.1-2.4,2.4-2.4h33.1c1.4,0,2.4,1.1,2.4,2.4
				V59.6z"/>
			<circle cx="95.3" cy="59.4" r="4.2"/>
		</g>
	</g>
	<rect x="28.7" y="87" class="st34" width="206" height="359"/>
	<g>
		<g>
			<defs>
				<polygon id="SVGID_69_" points="124.6,142.6 125.9,181.4 142.3,181.3 152,148 144.7,143.4 143.3,146.6 136.9,145.3 132.9,161.2 
					130.6,143.2 				"/>
			</defs>
			<clipPath id="SVGID_4_">
				<use xlink:href="#SVGID_69_"  style="overflow:visible;"/>
			</clipPath>
			<g style="clip-path:url(#SVGID_4_);">
				<defs>
					<rect id="SVGID_71_" x="28.5" y="88.5" width="207.1" height="368.1"/>
				</defs>
				<clipPath id="SVGID_6_">
					<use xlink:href="#SVGID_71_"  style="overflow:visible;"/>
				</clipPath>
				<rect x="123.6" y="141.6" style="clip-path:url(#SVGID_6_);fill:#D1E882;" width="29.4" height="40.8"/>
			</g>
		</g>
		<g>
			<defs>
				<polygon id="SVGID_73_" points="108.6,208.5 122.7,221.6 122.6,236.6 152,205.1 148.8,177.8 120.7,174.1 				"/>
			</defs>
			<clipPath id="SVGID_8_">
				<use xlink:href="#SVGID_73_"  style="overflow:visible;"/>
			</clipPath>
			<g style="clip-path:url(#SVGID_8_);">
				<defs>
					<rect id="SVGID_75_" x="28.5" y="88.5" width="207.1" height="368.1"/>
				</defs>
				<clipPath id="SVGID_10_">
					<use xlink:href="#SVGID_75_"  style="overflow:visible;"/>
				</clipPath>
				<rect x="107.7" y="173.2" style="clip-path:url(#SVGID_10_);fill:#E496B4;" width="45.3" height="64.4"/>
			</g>
		</g>
		<g>
			<defs>
				<rect id="SVGID_77_" x="28.5" y="88.5" width="207.1" height="368.1"/>
			</defs>
			<clipPath id="SVGID_12_">
				<use xlink:href="#SVGID_77_"  style="overflow:visible;"/>
			</clipPath>
			
				<path style="clip-path:url(#SVGID_12_);fill:none;stroke:#FAF7EE;stroke-width:1.7136;stroke-linecap:round;stroke-miterlimit:10;" d="
				M122.3,207.2c3.7,4,9.5,4.5,13.1,1.2"/>
		</g>
		<g>
			<defs>
				<path id="SVGID_79_" d="M60.1,359c0-1.1,0.9-1.9,1.9-1.9h140c1.1,0,1.9,0.9,1.9,1.9v34.9c0,1.1-0.9,1.9-1.9,1.9H62
					c-1.1,0-1.9-0.9-1.9-1.9V359z"/>
			</defs>
			<clipPath id="SVGID_14_">
				<use xlink:href="#SVGID_79_"  style="overflow:visible;"/>
			</clipPath>
			<g class="st4">
				<defs>
					<rect id="SVGID_81_" x="28.5" y="88.5" width="207.1" height="368.1"/>
				</defs>
				<clipPath id="SVGID_16_">
					<use xlink:href="#SVGID_81_"  style="overflow:visible;"/>
				</clipPath>
				<rect x="59.1" y="356.1" style="clip-path:url(#SVGID_16_);fill:#E496B4;" width="145.7" height="40.6"/>
			</g>
		</g>
		<g>
			<defs>
				<rect id="SVGID_83_" x="28.5" y="88.5" width="207.1" height="368.1"/>
			</defs>
			<clipPath id="SVGID_18_">
				<use xlink:href="#SVGID_83_"  style="overflow:visible;"/>
			</clipPath>
			<g class="st6">
				<text transform="matrix(1 0 0 1 96.8128 381.0338)"><tspan x="0" y="0" class="st1 st58 st59">ta</tspan><tspan x="13" y="0" class="st1 st58 st59">k</tspan><tspan x="20.6" y="0" class="st1 st58 st59">e b</tspan><tspan x="41.6" y="0" class="st1 st58 st59">r</tspan><tspan x="46.8" y="0" class="st1 st58 st59">eak</tspan></text>
			</g>
		</g>
		<g>
			<defs>
				<polygon id="SVGID_85_" points="195.1,328.7 196.2,336.7 199.6,336.3 200.9,329.3 199.3,328.4 199,329.2 197.7,329 197.2,332.4 
					196.4,328.7 				"/>
			</defs>
			<clipPath id="SVGID_20_">
				<use xlink:href="#SVGID_85_"  style="overflow:visible;"/>
			</clipPath>
			<g class="st7">
				<defs>
					<rect id="SVGID_87_" x="28.5" y="88.5" width="207.1" height="368.1"/>
				</defs>
				<clipPath id="SVGID_22_">
					<use xlink:href="#SVGID_87_"  style="overflow:visible;"/>
				</clipPath>
				
					<rect x="194.5" y="327.4" transform="matrix(0.9945 -0.1045 0.1045 0.9945 -33.6616 22.5537)" style="clip-path:url(#SVGID_22_);fill:#D1E882;" width="7.6" height="10"/>
			</g>
		</g>
		<g>
			<defs>
				<polygon id="SVGID_89_" points="193.2,342.7 196.4,345 196.7,348.1 202.1,341 200.9,335.5 195,335.3 				"/>
			</defs>
			<clipPath id="SVGID_24_">
				<use xlink:href="#SVGID_89_"  style="overflow:visible;"/>
			</clipPath>
			<g class="st9">
				<defs>
					<rect id="SVGID_91_" x="28.5" y="88.5" width="207.1" height="368.1"/>
				</defs>
				<clipPath id="SVGID_26_">
					<use xlink:href="#SVGID_91_"  style="overflow:visible;"/>
				</clipPath>
				
					<rect x="192.2" y="334.1" transform="matrix(0.9945 -0.1045 0.1045 0.9945 -34.6163 22.53)" style="clip-path:url(#SVGID_26_);fill:#E496B4;" width="10.9" height="14.9"/>
			</g>
		</g>
		<g>
			<defs>
				<path id="SVGID_93_" d="M61.1,334.3c0-1.1,0.9-1.9,1.9-1.9h121.2c1.1,0,1.9,0.9,1.9,1.9v8.2c0,1.1-0.9,1.9-1.9,1.9H63
					c-1.1,0-1.9-0.9-1.9-1.9V334.3z"/>
			</defs>
			<clipPath id="SVGID_28_">
				<use xlink:href="#SVGID_93_"  style="overflow:visible;"/>
			</clipPath>
			<g class="st11">
				<defs>
					<rect id="SVGID_95_" x="28.5" y="88.5" width="207.1" height="368.1"/>
				</defs>
				<clipPath id="SVGID_30_">
					<use xlink:href="#SVGID_95_"  style="overflow:visible;"/>
				</clipPath>
				<rect x="60.1" y="331.4" style="clip-path:url(#SVGID_30_);fill:#FFFFFF;" width="126.9" height="14"/>
			</g>
		</g>
		<g>
			<defs>
				<path id="SVGID_97_" d="M61.1,334.3c0-1.1,0.9-1.9,1.9-1.9h22.2c1.1,0,1.9,0.9,1.9,1.9v8.2c0,1.1-0.9,1.9-1.9,1.9H63
					c-1.1,0-1.9-0.9-1.9-1.9V334.3z"/>
			</defs>
			<clipPath id="SVGID_32_">
				<use xlink:href="#SVGID_97_"  style="overflow:visible;"/>
			</clipPath>
			<g class="st13">
				<defs>
					<rect id="SVGID_99_" x="28.5" y="88.5" width="207.1" height="368.1"/>
				</defs>
				<clipPath id="SVGID_34_">
					<use xlink:href="#SVGID_99_"  style="overflow:visible;"/>
				</clipPath>
				<rect x="60.1" y="331.4" style="clip-path:url(#SVGID_34_);fill:#EFC8D2;" width="28" height="14"/>
			</g>
		</g>
		<g>
			<defs>
				<rect id="SVGID_101_" x="94.8" y="398.7" width="74.4" height="23.4"/>
			</defs>
			<clipPath id="SVGID_36_">
				<use xlink:href="#SVGID_101_"  style="overflow:visible;"/>
			</clipPath>
			<g class="st15">
				<defs>
					<rect id="SVGID_103_" x="28.5" y="88.5" width="207.1" height="368.1"/>
				</defs>
				<clipPath id="SVGID_38_">
					<use xlink:href="#SVGID_103_"  style="overflow:visible;"/>
				</clipPath>
				<rect x="93.8" y="397.7" style="clip-path:url(#SVGID_38_);fill:#FAF7EE;" width="76.3" height="25.3"/>
			</g>
		</g>
		<g>
			<defs>
				<rect id="SVGID_105_" x="28.5" y="88.5" width="207.1" height="368.1"/>
			</defs>
			<clipPath id="SVGID_40_">
				<use xlink:href="#SVGID_105_"  style="overflow:visible;"/>
			</clipPath>
			
				<line style="clip-path:url(#SVGID_40_);fill:none;stroke:#F3D3DB;stroke-width:0.5752;stroke-miterlimit:10;" x1="109.6" y1="411.6" x2="156.2" y2="411.6"/>
			<g class="st17">
				<text transform="matrix(1 0 0 1 107.4651 410.3687)" class="st72 st58 st73">pause timer</text>
			</g>
		</g>
	</g>
	<g>
		<g>
			<defs>
				<rect id="SVGID_107_" x="31.5" y="87.8" width="200.7" height="39.2"/>
			</defs>
			<clipPath id="SVGID_42_">
				<use xlink:href="#SVGID_107_"  style="overflow:visible;"/>
			</clipPath>
		</g>
		<g>
			<defs>
				<rect id="SVGID_109_" x="31.5" y="87.8" width="200.7" height="39.2"/>
			</defs>
			<clipPath id="SVGID_44_">
				<use xlink:href="#SVGID_109_"  style="overflow:visible;"/>
			</clipPath>
		</g>
		<g>
			<defs>
				<rect id="SVGID_111_" x="31.5" y="87.8" width="200.7" height="39.2"/>
			</defs>
			<clipPath id="SVGID_46_">
				<use xlink:href="#SVGID_111_"  style="overflow:visible;"/>
			</clipPath>
		</g>
		<g>
			<defs>
				<rect id="SVGID_113_" x="31.5" y="87.8" width="200.7" height="39.2"/>
			</defs>
			<clipPath id="SVGID_48_">
				<use xlink:href="#SVGID_113_"  style="overflow:visible;"/>
			</clipPath>
		</g>
		<g>
			<defs>
				<rect id="SVGID_115_" x="31.5" y="87.8" width="200.7" height="39.2"/>
			</defs>
			<clipPath id="SVGID_50_">
				<use xlink:href="#SVGID_115_"  style="overflow:visible;"/>
			</clipPath>
		</g>
		<g>
			<defs>
				<rect id="SVGID_117_" x="31.5" y="87.8" width="200.7" height="39.2"/>
			</defs>
			<clipPath id="SVGID_52_">
				<use xlink:href="#SVGID_117_"  style="overflow:visible;"/>
			</clipPath>
		</g>
		<g>
			<defs>
				<path id="SVGID_119_" d="M132.2,115c-4.1,0-7.5-3.4-7.5-7.5s3.3-7.5,7.5-7.5c4.1,0,7.5,3.4,7.5,7.5S136.3,115,132.2,115z
					 M132.2,100.8c-3.7,0-6.6,3-6.6,6.7c0,3.7,3,6.7,6.6,6.7c3.7,0,6.6-3,6.6-6.7C138.8,103.8,135.8,100.8,132.2,100.8z"/>
			</defs>
			<clipPath id="SVGID_54_">
				<use xlink:href="#SVGID_119_"  style="overflow:visible;"/>
			</clipPath>
			<g class="st24">
				<defs>
					<rect id="SVGID_121_" x="31.5" y="87.8" width="200.7" height="39.2"/>
				</defs>
				<clipPath id="SVGID_56_">
					<use xlink:href="#SVGID_121_"  style="overflow:visible;"/>
				</clipPath>
				<rect x="123.8" y="99" style="clip-path:url(#SVGID_56_);fill:#E496B4;" width="16.8" height="16.9"/>
			</g>
		</g>
		<g>
			<defs>
				<rect id="SVGID_123_" x="31.5" y="87.8" width="200.7" height="39.2"/>
			</defs>
			<clipPath id="SVGID_58_">
				<use xlink:href="#SVGID_123_"  style="overflow:visible;"/>
			</clipPath>
			<path style="clip-path:url(#SVGID_58_);fill:none;stroke:#E496B4;stroke-width:0.3717;stroke-miterlimit:10;" d="M132.2,115
				c-4.1,0-7.5-3.4-7.5-7.5s3.3-7.5,7.5-7.5s7.5,3.4,7.5,7.5S136.3,115,132.2,115z M132.2,100.8c-3.7,0-6.6,3-6.6,6.7s3,6.7,6.6,6.7
				s6.6-3,6.6-6.7S135.8,100.8,132.2,100.8z"/>
		</g>
		<g>
			<defs>
				<rect id="SVGID_125_" x="131.7" y="102" width="0.8" height="5.5"/>
			</defs>
			<clipPath id="SVGID_60_">
				<use xlink:href="#SVGID_125_"  style="overflow:visible;"/>
			</clipPath>
			<g class="st46">
				<defs>
					<rect id="SVGID_127_" x="31.5" y="87.8" width="200.7" height="39.2"/>
				</defs>
				<clipPath id="SVGID_62_">
					<use xlink:href="#SVGID_127_"  style="overflow:visible;"/>
				</clipPath>
				<rect x="130.8" y="101" style="clip-path:url(#SVGID_62_);fill:#E496B4;" width="2.7" height="7.4"/>
			</g>
		</g>
		<g>
			<defs>
				<rect id="SVGID_129_" x="31.5" y="87.8" width="200.7" height="39.2"/>
			</defs>
			<clipPath id="SVGID_64_">
				<use xlink:href="#SVGID_129_"  style="overflow:visible;"/>
			</clipPath>
			
				<rect x="131.7" y="102" style="clip-path:url(#SVGID_64_);fill:none;stroke:#E496B4;stroke-width:0.3717;stroke-miterlimit:10;" width="0.8" height="5.5"/>
		</g>
		<g>
			<defs>
				<polygon id="SVGID_131_" points="132.5,107.7 131.8,107.2 135.3,102.9 135.9,103.5 				"/>
			</defs>
			<clipPath id="SVGID_66_">
				<use xlink:href="#SVGID_131_"  style="overflow:visible;"/>
			</clipPath>
			<g class="st49">
				<defs>
					<rect id="SVGID_133_" x="31.5" y="87.8" width="200.7" height="39.2"/>
				</defs>
				<clipPath id="SVGID_68_">
					<use xlink:href="#SVGID_133_"  style="overflow:visible;"/>
				</clipPath>
				<rect x="130.9" y="102" style="clip-path:url(#SVGID_68_);fill:#E496B4;" width="5.9" height="6.7"/>
			</g>
		</g>
		<g>
			<defs>
				<rect id="SVGID_135_" x="31.5" y="87.8" width="200.7" height="39.2"/>
			</defs>
			<clipPath id="SVGID_70_">
				<use xlink:href="#SVGID_135_"  style="overflow:visible;"/>
			</clipPath>
			<polygon style="clip-path:url(#SVGID_70_);fill:none;stroke:#E496B4;stroke-width:0.3717;stroke-miterlimit:10;" points="
				132.5,107.7 131.8,107.2 135.3,102.9 135.9,103.5 			"/>
		</g>
		<g>
			<defs>
				<ellipse id="SVGID_137_" cx="132.1" cy="107.5" rx="0.4" ry="0.4"/>
			</defs>
			<clipPath id="SVGID_72_">
				<use xlink:href="#SVGID_137_"  style="overflow:visible;"/>
			</clipPath>
			<g style="clip-path:url(#SVGID_72_);">
				<defs>
					<rect id="SVGID_139_" x="31.5" y="87.8" width="200.7" height="39.2"/>
				</defs>
				<clipPath id="SVGID_74_">
					<use xlink:href="#SVGID_139_"  style="overflow:visible;"/>
				</clipPath>
				<rect x="130.8" y="106.2" style="clip-path:url(#SVGID_74_);fill:#E496B4;" width="2.7" height="2.7"/>
			</g>
		</g>
		<g>
			<defs>
				<rect id="SVGID_141_" x="31.5" y="87.8" width="200.7" height="39.2"/>
			</defs>
			<clipPath id="SVGID_76_">
				<use xlink:href="#SVGID_141_"  style="overflow:visible;"/>
			</clipPath>
			
				<ellipse style="clip-path:url(#SVGID_76_);fill:none;stroke:#E496B4;stroke-width:0.3717;stroke-miterlimit:10;" cx="132.1" cy="107.5" rx="0.4" ry="0.4"/>
		</g>
		<path class="st86" d="M67.9,100.6H57.5c-0.8,0-1.5,0.7-1.5,1.5v10.4c0,0.8,0.7,1.5,1.5,1.5h10.4c0.8,0,1.5-0.7,1.5-1.5v-10.4
			C69.4,101.3,68.7,100.6,67.9,100.6z"/>
		<rect x="31.5" y="87.8" class="st87" width="200.7" height="39.2"/>
		<g class="st88">
			<defs>
				<polygon id="SVGID_143_" class="st88" points="57.5,107.5 58.5,106.5 61.2,109 66.9,103.6 67.9,104.6 61.2,111 				"/>
			</defs>
			<clipPath id="SVGID_78_">
				<use xlink:href="#SVGID_143_"  style="overflow:visible;"/>
			</clipPath>
			<g style="clip-path:url(#SVGID_78_);">
				<defs>
					<rect id="SVGID_145_" x="31.5" y="87.8" width="200.7" height="39.2"/>
				</defs>
				<clipPath id="SVGID_80_">
					<use xlink:href="#SVGID_145_"  style="overflow:visible;"/>
				</clipPath>
				<rect x="56.6" y="102.7" style="clip-path:url(#SVGID_80_);fill:#E496B4;" width="12.3" height="9.3"/>
			</g>
		</g>
		<g>
			<defs>
				<rect id="SVGID_147_" x="31.5" y="87.8" width="200.7" height="39.2"/>
			</defs>
			<clipPath id="SVGID_82_">
				<use xlink:href="#SVGID_147_"  style="overflow:visible;"/>
			</clipPath>
			
				<polygon style="opacity:0.3;clip-path:url(#SVGID_82_);fill:none;stroke:#E496B4;stroke-width:0.9293;stroke-miterlimit:10;" points="
				199.9,104.3 201.1,104.4 201.9,109.7 195.1,115.9 195.1,112.9 191.9,110.4 194.6,103.7 195.8,103.8 195.5,97.5 196.9,97.7 
				197.4,101.2 198.3,98.1 199.8,98.3 200.1,97.7 201.8,98.6 			"/>
		</g>
		<g>
			<defs>
				<path id="SVGID_149_" d="M223.8,109.4c-0.6,0-1.1,0.5-1.1,1.1c0,0.6,0.5,1.1,1.1,1.1s1.1-0.5,1.1-1.1
					C225,109.9,224.5,109.4,223.8,109.4z M223.8,106c-0.6,0-1.1,0.5-1.1,1.1c0,0.6,0.5,1.1,1.1,1.1s1.1-0.5,1.1-1.1
					C225,106.5,224.5,106,223.8,106z M223.8,104.9c0.6,0,1.1-0.5,1.1-1.1c0-0.6-0.5-1.1-1.1-1.1s-1.1,0.5-1.1,1.1
					C222.7,104.4,223.2,104.9,223.8,104.9z"/>
			</defs>
			<clipPath id="SVGID_84_">
				<use xlink:href="#SVGID_149_"  style="overflow:visible;"/>
			</clipPath>
			<g class="st57">
				<defs>
					<rect id="SVGID_151_" x="31.5" y="87.8" width="200.7" height="39.2"/>
				</defs>
				<clipPath id="SVGID_86_">
					<use xlink:href="#SVGID_151_"  style="overflow:visible;"/>
				</clipPath>
				<rect x="221.8" y="101.8" style="clip-path:url(#SVGID_86_);fill:#EFC8D2;" width="4.1" height="10.8"/>
			</g>
		</g>
		<g>
			<defs>
				<rect id="SVGID_153_" x="31.5" y="87.8" width="200.7" height="39.2"/>
			</defs>
			<clipPath id="SVGID_88_">
				<use xlink:href="#SVGID_153_"  style="overflow:visible;"/>
			</clipPath>
			<g style="opacity:1.000000e-02;clip-path:url(#SVGID_88_);enable-background:new    ;">
				<g>
					<defs>
						<rect id="SVGID_155_" x="216.6" y="90.6" width="15.4" height="33.5"/>
					</defs>
					<clipPath id="SVGID_90_">
						<use xlink:href="#SVGID_155_"  style="overflow:visible;"/>
					</clipPath>
					<g class="st62">
						<defs>
							<rect id="SVGID_157_" x="216.6" y="90.6" width="15.4" height="33.5"/>
						</defs>
						<clipPath id="SVGID_92_">
							<use xlink:href="#SVGID_157_"  style="overflow:visible;"/>
						</clipPath>
						<g style="clip-path:url(#SVGID_92_);">
							<defs>
								<rect id="SVGID_159_" x="216.6" y="90.4" width="15.4" height="33.6"/>
							</defs>
							<clipPath id="SVGID_94_">
								<use xlink:href="#SVGID_159_"  style="overflow:visible;"/>
							</clipPath>
							<rect x="215.7" y="89.7" style="clip-path:url(#SVGID_94_);fill:#FAF7EE;" width="17.3" height="35.3"/>
						</g>
					</g>
				</g>
			</g>
		</g>
	</g>
	<text transform="matrix(1 0 0 1 75.8938 312.0591)" class="st32 st98 st99">24:20</text>
	<rect x="29.2" y="427.5" class="st100" width="206.4" height="29.9"/>
	<rect x="29.2" y="432" class="st101" width="206.4" height="26.8"/>
</g>
<g id="Isolation_Mode">
</g>
</svg>
