<?xml version="1.0" encoding="utf-8"?>
<!-- Generator: Adobe Illustrator 17.1.0, SVG Export Plug-In . SVG Version: 6.00 Build 0)  -->
<!DOCTYPE svg PUBLIC "-//W3C//DTD SVG 1.1//EN" "http://www.w3.org/Graphics/SVG/1.1/DTD/svg11.dtd">
<svg version="1.1" id="Layer_1" xmlns="http://www.w3.org/2000/svg" xmlns:xlink="http://www.w3.org/1999/xlink" x="0px" y="0px"
	 viewBox="0 0 150.1 98.9" enable-background="new 0 0 150.1 98.9" xml:space="preserve">
<path fill="#FFFFFF" d="M117.6,32.4c-0.6-0.8-1.5-1.4-2.4-1.4H91c-0.8-7-4.9-18.5-16.1-18.5C63.6,12.5,59.6,24,58.8,31H35
	c-1,0-1.9,0.6-2.4,1.4c-0.6,0.8-0.7,1.9-0.4,2.8l13.5,39.9c0.4,1.2,1.6,1.9,2.8,1.9h53.2c1.3,0,2.4-0.7,2.8-1.9L118,35.1
	C118.3,34.2,118.1,33.2,117.6,32.4z M108.1,46H97v-9h13.9L108.1,46z M43.3,50H53v9h-6.5L43.3,50z M57,50h16v9H57V50z M93,37v9H77v-9
	H93z M73,46H57v-9h16V46z M73,63v8H57v-8H73z M77,63h16v8H77V63z M77,59v-9h16v9H77z M97,50h9.8l-3.1,9H97V50z M74.9,18.5
	c7.4,0,9.5,8.5,10.1,12.5H64.9C65.5,27,67.6,18.5,74.9,18.5z M53,37v9H42l-2.8-9H53z M47.8,63H53v8h-2.4L47.8,63z M99.5,71H97v-8
	h5.3L99.5,71z"/>
</svg>
