<?xml version="1.0" encoding="utf-8"?>
<!-- Generator: Adobe Illustrator 17.1.0, SVG Export Plug-In . SVG Version: 6.00 Build 0)  -->
<!DOCTYPE svg PUBLIC "-//W3C//DTD SVG 1.1//EN" "http://www.w3.org/Graphics/SVG/1.1/DTD/svg11.dtd">
<svg version="1.1" id="Layer_1" xmlns="http://www.w3.org/2000/svg" xmlns:xlink="http://www.w3.org/1999/xlink" x="0px" y="0px"
	 viewBox="0 0 640 480" enable-background="new 0 0 640 480" xml:space="preserve">
<path fill="#FFFFFF" d="M320,82.5c-87,0-157.5,70.5-157.5,157.5c0,87,70.5,157.5,157.5,157.5c87,0,157.5-70.5,157.5-157.5
	C477.5,153,407,82.5,320,82.5z M337.1,340.5c0,3.2-2.6,5.8-5.8,5.8H307c-3.2,0-5.8-2.6-5.8-5.8v-21.9c0-3.2,2.6-5.8,5.8-5.8h24.3
	c3.2,0,5.8,2.6,5.8,5.8V340.5z M383.9,213.4c-1.4,4.9-3.4,9.1-5.8,12.7c-2.4,3.6-5.1,6.7-8.2,9.5c-3.1,2.8-6.2,5.5-9.2,8.2
	c-3.7,3.1-7,6.1-10.1,8.9c-3.1,2.9-5.8,6.1-8.1,9.7c-2.3,3.6-4.1,7.7-5.3,12.5c-0.8,3.1-1.3,6.6-1.6,10.6c-0.5,5.7-3.6,7-6.1,7
	c-2.6,0-19,0-19,0c-3.4,0-6.2-2.8-6.1-6.2c0,0,0.3-9.4,1.1-15.2c0.9-5.9,2.3-11,4.2-15.4c1.9-4.4,4.3-8.3,7.1-11.7
	c2.8-3.4,6.1-6.7,9.9-10c3.1-2.7,6-5.2,8.8-7.5c2.8-2.3,5.3-4.9,7.5-7.6c2.2-2.8,3.9-5.9,5.2-9.4c1.2-3.5,1.9-7.6,1.9-12.4
	c0-5.8-1-10.7-3-14.9c-2-4.1-4.5-7.4-7.3-10c-2.9-2.5-6-4.3-9.2-5.5c-3.3-1.2-6.2-1.7-8.7-1.7c-11.9,0-20.7,3.9-26.4,11.7
	c-4.4,6.1-6.8,13.9-8.1,23.2c-1,6.6-4.8,8.1-7.2,8.1c-2.4,0-19.8,0-19.8,0c-3.4,0-6-2.8-5.8-6.2c0,0,1.1-14,4.3-22.6
	c3.2-8.7,7.8-16.1,13.9-22.2c6.1-6.1,13.4-10.9,21.9-14.3c8.6-3.4,18.1-5,28.7-5c8.8,0,17.1,1.3,24.7,3.9
	c7.6,2.6,14.2,6.3,19.9,11.2c5.7,4.9,10.1,11,13.4,18.3c3.3,7.3,4.9,15.6,4.9,24.8C386.1,202.7,385.3,208.5,383.9,213.4z"/>
</svg>
