<?xml version="1.0" encoding="utf-8"?>
<!-- Generator: Adobe Illustrator 17.1.0, SVG Export Plug-In . SVG Version: 6.00 Build 0)  -->
<!DOCTYPE svg PUBLIC "-//W3C//DTD SVG 1.1//EN" "http://www.w3.org/Graphics/SVG/1.1/DTD/svg11.dtd">
<svg version="1.1" id="Layer_1" xmlns="http://www.w3.org/2000/svg" xmlns:xlink="http://www.w3.org/1999/xlink" x="0px" y="0px"
	 viewBox="0 0 233 259.8" enable-background="new 0 0 233 259.8" xml:space="preserve">
<rect x="28" y="19" fill="#FFFFFF" width="177" height="110"/>
<g>
	<path fill="#FFFFFF" d="M204.7,193c0,1.6-1.2,3.6-2.6,4.4l-82.9,47.5c-1.4,0.8-3.7,0.8-5.1,0l-83-47.5c-1.4-0.8-2.6-2.8-2.6-4.4V98
		c0-1.6,1.2-3.6,2.6-4.4L114,46.1c1.4-0.8,3.7-0.8,5.1,0l82.9,47.5c1.4,0.8,2.6,2.8,2.6,4.4V193z"/>
</g>
<g>
	<path fill="#9CCCB2" d="M116.6,59.4c0,0-1.2-10.2,10.6-18.7c14-8.6,32.1-2,32.1-2s-9.4,20.1-20.7,24.6
		C124.4,68.6,116.6,59.4,116.6,59.4"/>
	<path fill="#6E614D" d="M117.1,70c1,0.1,2.7,0,4.4,0.6c-0.6-3.1-2.4-12.6-8.8-23.1c-1.5-2.3-8.8,1.6-6.5,4c4.3,4.4,7.7,15.4,8,19.2
		C116,70,115.2,70.4,117.1,70"/>
	<path fill="#E66765" d="M188,185c0,1.3-0.9,2.9-2.1,3.6l-67.2,38.5c-1.1,0.7-3,0.7-4.2,0l-67.2-38.5c-1.1-0.7-2.1-2.3-2.1-3.6V108
		c0-1.3,1-2.9,2.1-3.6L114.5,66c1.1-0.7,3-0.7,4.2,0l67.2,38.5c1.1,0.7,2.1,2.3,2.1,3.6V185z"/>
	<path fill="#CF5D5C" d="M184.2,103.6l-65-37.4c-1-0.6-1.6-0.8-2.8-0.7v162.1c1.2,0,1.8-0.1,3.6-1.2l64.1-36.9
		c2-1.1,3.5-3.9,3.5-6.2v-73.4C187.6,107.5,186.2,104.7,184.2,103.6"/>
	<path fill="#AC9777" d="M116.7,189.4c-8.6-0.2-19.2,2-23.6-24.8c-2.9-31.6,17.4-65.9,23.6-65.9c4.9,0,25.1,42.4,23.2,65.9
		C137,189.7,125.3,189.5,116.7,189.4"/>
	<path fill="#CCB38B" d="M116.4,98.7c-6,0.7-26.2,34.6-23.4,65.9c4.4,26.5,15.4,24.7,23.4,24.8V98.7z"/>
</g>
</svg>
