<?xml version="1.0" encoding="utf-8"?>
<!-- Generator: Adobe Illustrator 19.2.0, SVG Export Plug-In . SVG Version: 6.00 Build 0)  -->
<svg version="1.1" xmlns="http://www.w3.org/2000/svg" xmlns:xlink="http://www.w3.org/1999/xlink" x="0px" y="0px"
	 viewBox="0 0 2754.3 1883.5" style="enable-background:new 0 0 2754.3 1883.5;" xml:space="preserve">
<style type="text/css">
	.st0{fill:#FAF7EE;}
	.st1{fill:#EFC8D2;}
	.st2{clip-path:url(#SVGID_2_);fill:#FAF7EE;}
	.st3{clip-path:url(#SVGID_2_);fill:#EFC8D2;}
	.st4{clip-path:url(#SVGID_2_);fill:#E496B4;}
	.st5{clip-path:url(#SVGID_4_);fill:#FAF7EE;}
	.st6{clip-path:url(#SVGID_4_);fill:#EFC8D2;}
	.st7{clip-path:url(#SVGID_4_);fill:#E496B4;}
	.st8{clip-path:url(#SVGID_6_);fill:#EFC8D2;}
	.st9{clip-path:url(#SVGID_6_);fill:#E496B4;}
	.st10{clip-path:url(#SVGID_8_);fill:#EFC8D2;}
	.st11{clip-path:url(#SVGID_8_);fill:#E496B4;}
	.st12{clip-path:url(#SVGID_10_);fill:#EFC8D2;}
	.st13{clip-path:url(#SVGID_10_);fill:#E496B4;}
	.st14{clip-path:url(#SVGID_12_);fill:#EFC8D2;}
	.st15{clip-path:url(#SVGID_12_);fill:#E496B4;}
	.st16{clip-path:url(#SVGID_14_);fill:#EFC8D2;}
	.st17{clip-path:url(#SVGID_14_);fill:#E496B4;}
	.st18{fill:#E496B4;}
	.st19{fill:#B3B3B3;}
	.st20{fill:url(#SVGID_15_);}
	.st21{fill:#666666;}
	.st22{opacity:0.57;fill:#B0D530;}
	.st23{opacity:0.76;fill:none;stroke:#000000;stroke-width:4;stroke-miterlimit:10;}
	.st24{fill:#D1E882;}
	.st25{fill:url(#SVGID_16_);}
	.st26{fill:url(#SVGID_17_);}
	.st27{fill:#D1E882;stroke:#000000;stroke-width:3;stroke-miterlimit:10;}
	.st28{fill:url(#SVGID_18_);stroke:#000000;stroke-width:3;stroke-miterlimit:10;}
	.st29{fill:url(#SVGID_19_);}
	.st30{fill:url(#SVGID_20_);}
	.st31{fill:url(#SVGID_21_);}
	.st32{opacity:0.76;fill:none;stroke:#000000;stroke-width:3;stroke-miterlimit:10;}
	.st33{opacity:0.46;fill:#95B822;}
	.st34{fill:url(#SVGID_22_);}
	.st35{fill:url(#SVGID_23_);stroke:#000000;stroke-width:4;stroke-miterlimit:10;}
	.st36{fill:url(#SVGID_24_);stroke:#000000;stroke-width:4;stroke-miterlimit:10;}
	.st37{fill:#D1E882;stroke:#000000;stroke-width:4;stroke-miterlimit:10;}
	.st38{fill:url(#SVGID_25_);stroke:#000000;stroke-width:4;stroke-miterlimit:10;}
	.st39{fill:#E496B4;stroke:#000000;stroke-width:4;stroke-miterlimit:10;}
	.st40{fill:none;stroke:#000000;stroke-width:4;stroke-miterlimit:10;}
	.st41{opacity:0.76;fill:none;stroke:#B31663;stroke-width:4.4583;stroke-miterlimit:10;}
	.st42{clip-path:url(#SVGID_29_);fill:#FEFAD4;}
	.st43{clip-path:url(#SVGID_29_);fill:#E496B4;}
	.st44{clip-path:url(#SVGID_35_);fill:#FEFAD4;}
	.st45{clip-path:url(#SVGID_35_);fill:#F7E0CC;}
	.st46{clip-path:url(#SVGID_35_);fill:#F1C8C4;}
	.st47{clip-path:url(#SVGID_35_);fill:#ECB3BD;}
	.st48{clip-path:url(#SVGID_35_);fill:#E7A2B8;}
	.st49{clip-path:url(#SVGID_35_);fill:#E496B4;}
	.st50{clip-path:url(#SVGID_41_);fill:#FEFAD4;}
	.st51{clip-path:url(#SVGID_41_);fill:#F7E0CC;}
	.st52{clip-path:url(#SVGID_41_);fill:#F1C8C4;}
	.st53{clip-path:url(#SVGID_41_);fill:#ECB3BD;}
	.st54{clip-path:url(#SVGID_41_);fill:#E7A2B8;}
	.st55{clip-path:url(#SVGID_41_);fill:#E496B4;}
	.st56{clip-path:url(#SVGID_47_);fill:#FEFAD4;}
	.st57{clip-path:url(#SVGID_47_);fill:#F3D0C7;}
	.st58{clip-path:url(#SVGID_47_);fill:#EAADBB;}
	.st59{clip-path:url(#SVGID_47_);fill:#E496B4;}
	.st60{clip-path:url(#SVGID_53_);fill:#FEFAD4;}
	.st61{clip-path:url(#SVGID_53_);fill:#F9E7CE;}
	.st62{clip-path:url(#SVGID_53_);fill:#F5D6C8;}
	.st63{clip-path:url(#SVGID_53_);fill:#F0C5C3;}
	.st64{clip-path:url(#SVGID_53_);fill:#ECB6BE;}
	.st65{clip-path:url(#SVGID_53_);fill:#E9A9BA;}
	.st66{clip-path:url(#SVGID_53_);fill:#E69DB6;}
	.st67{clip-path:url(#SVGID_53_);fill:#E496B4;}
	.st68{clip-path:url(#SVGID_59_);fill:#FEFAD4;}
	.st69{clip-path:url(#SVGID_59_);fill:#E496B4;}
	.st70{fill:#E496B4;stroke:#FFFFFF;stroke-width:21.1722;stroke-miterlimit:10;}
	.st71{opacity:0.7;fill:none;stroke:#B31663;stroke-width:8;stroke-miterlimit:10;}
	.st72{opacity:0.7;}
	.st73{fill:#B31663;}
	.st74{fill:none;stroke:#000000;stroke-width:3;stroke-miterlimit:10;}
	.st75{opacity:0.7;fill:#B31663;}
	.st76{fill:#4D4D4D;}
	.st77{fill:#FFFFFF;}
	.st78{fill:#E6E6E6;}
	.st79{opacity:0.7;fill:none;stroke:#B31663;stroke-width:5.3921;stroke-miterlimit:10;}
	.st80{fill:#CCCCCC;}
	.st81{opacity:0.7;fill:none;stroke:#CCCCCC;stroke-width:5.3921;stroke-miterlimit:10;}
	.st82{opacity:0.7;fill:none;stroke:#000000;stroke-width:8;stroke-miterlimit:10;}
	.st83{fill:none;stroke:#000000;stroke-width:5.7619;stroke-miterlimit:10;}
	.st84{fill:none;stroke:#000000;stroke-width:3.9215;stroke-miterlimit:10;}
	.st85{opacity:0.46;}
	.st86{fill:none;stroke:#FFFFFF;stroke-width:30;stroke-miterlimit:10;}
	.st87{fill:#E496B4;stroke:#E496B4;stroke-width:2;stroke-miterlimit:10;}
	.st88{fill:none;stroke:#FFFFFF;stroke-width:2.858;stroke-miterlimit:10;}
	.st89{opacity:0.8;}
	.st90{fill:none;stroke:#EFC8D2;stroke-width:4.3342;stroke-miterlimit:10;}
	.st91{opacity:0.6;}
	.st92{fill:#EFC8D2;stroke:#EFC8D2;stroke-width:2;stroke-miterlimit:10;}
	.st93{opacity:0.59;}
	.st94{fill:none;stroke:#E496B4;stroke-width:4.3342;stroke-miterlimit:10;}
	.st95{fill:#FFFFFF;stroke:#FFFFFF;stroke-width:2;stroke-miterlimit:10;}
	.st96{fill:none;stroke:#EFC8D2;stroke-width:5.1358;stroke-miterlimit:10;}
	.st97{fill:none;stroke:#EFC8D2;stroke-width:19.0757;stroke-miterlimit:10;}
	.st98{fill:none;stroke:#FAF7EE;stroke-width:8.9375;stroke-linecap:round;stroke-miterlimit:10;}
	.st99{clip-path:url(#SVGID_63_);fill:#FFFFFF;}
	.st100{clip-path:url(#SVGID_63_);fill:none;stroke:#E396B5;stroke-width:7.9131;stroke-miterlimit:10;}
	.st101{clip-path:url(#SVGID_65_);fill:none;stroke:#E396B5;stroke-width:7.9131;stroke-miterlimit:10;}
	.st102{clip-path:url(#SVGID_65_);fill:#FFFFFF;}
	.st103{fill:#E396B5;}
	.st104{clip-path:url(#SVGID_67_);fill:#FFFFFF;}
	.st105{clip-path:url(#SVGID_67_);fill:none;stroke:#E396B5;stroke-width:7.9131;stroke-miterlimit:10;}
	.st106{clip-path:url(#SVGID_69_);fill:#FFFFFF;}
	.st107{clip-path:url(#SVGID_69_);fill:none;stroke:#E396B5;stroke-width:7.9131;stroke-miterlimit:10;}
	.st108{fill:none;stroke:#E396B5;stroke-width:7.9131;stroke-miterlimit:10;}
	.st109{clip-path:url(#SVGID_71_);fill:none;stroke:#E396B5;stroke-width:7.9131;stroke-miterlimit:10;}
	.st110{clip-path:url(#SVGID_73_);fill:none;stroke:#E396B5;stroke-width:7.9131;stroke-miterlimit:10;}
	.st111{clip-path:url(#SVGID_75_);fill:none;stroke:#E396B5;stroke-width:7.9131;stroke-miterlimit:10;}
	.st112{clip-path:url(#SVGID_77_);fill:none;stroke:#E396B5;stroke-width:7.9131;stroke-miterlimit:10;}
</style>
<g id="Layer_2">
	<g>
		<defs>
			<rect id="SVGID_11_" x="2548.9" y="-2029.8" width="1080" height="1840.4"/>
		</defs>
		<clipPath id="SVGID_2_">
			<use xlink:href="#SVGID_11_"  style="overflow:visible;"/>
		</clipPath>
		<polygon class="st4" points="3632.5,94.4 2379.1,1.4 2415.8,-453.6 3669.2,-360.5 		"/>
	</g>
</g>
<g id="Layer_1">
	<g>
		<defs>
			<rect id="SVGID_62_" x="135.6" y="90.4" width="2475.5" height="1698.7"/>
		</defs>
		<clipPath id="SVGID_4_">
			<use xlink:href="#SVGID_62_"  style="overflow:visible;"/>
		</clipPath>
		<path style="clip-path:url(#SVGID_4_);fill:#FFFFFF;" d="M1356.8,226.1H912.6c-8.1,0-14.7-6.6-14.7-14.6V109
			c0-8.1,6.6-14.6,14.7-14.6h444.2c8.1,0,14.7,6.6,14.7,14.6v102.5C1371.4,219.6,1364.9,226.1,1356.8,226.1"/>
		<path style="clip-path:url(#SVGID_4_);fill:none;stroke:#E396B5;stroke-width:7.9131;stroke-miterlimit:10;" d="M1356.8,226.1
			H912.6c-8.1,0-14.7-6.6-14.7-14.6V109c0-8.1,6.6-14.6,14.7-14.6h444.2c8.1,0,14.7,6.6,14.7,14.6v102.5
			C1371.4,219.6,1364.9,226.1,1356.8,226.1z"/>
		<path style="clip-path:url(#SVGID_4_);fill:#FFFFFF;" d="M1387.4,476.2H881.9c-8.6,0-15.6-7-15.6-15.6V360c0-8.6,7-15.6,15.6-15.6
			h505.5c8.6,0,15.6,7,15.6,15.6v100.6C1403.1,469.2,1396.1,476.2,1387.4,476.2"/>
		<path style="clip-path:url(#SVGID_4_);fill:none;stroke:#E396B5;stroke-width:7.9131;stroke-miterlimit:10;" d="M1387.4,476.2
			H881.9c-8.6,0-15.6-7-15.6-15.6V360c0-8.6,7-15.6,15.6-15.6h505.5c8.6,0,15.6,7,15.6,15.6v100.6
			C1403.1,469.2,1396.1,476.2,1387.4,476.2z"/>
		<path style="clip-path:url(#SVGID_4_);fill:#FFFFFF;" d="M2069.4,476.2h-505.5c-8.6,0-15.6-7-15.6-15.6V360
			c0-8.6,7-15.6,15.6-15.6h505.5c8.6,0,15.6,7,15.6,15.6v100.6C2085,469.2,2078,476.2,2069.4,476.2"/>
		<path style="clip-path:url(#SVGID_4_);fill:none;stroke:#E396B5;stroke-width:7.9131;stroke-miterlimit:10;" d="M2069.4,476.2
			h-505.5c-8.6,0-15.6-7-15.6-15.6V360c0-8.6,7-15.6,15.6-15.6h505.5c8.6,0,15.6,7,15.6,15.6v100.6
			C2085,469.2,2078,476.2,2069.4,476.2z"/>
		<path style="clip-path:url(#SVGID_4_);fill:#FFFFFF;" d="M717.8,476.2H212.3c-8.6,0-15.6-7-15.6-15.6V360c0-8.6,7-15.6,15.6-15.6
			h505.5c8.6,0,15.6,7,15.6,15.6v100.6C733.4,469.2,726.4,476.2,717.8,476.2"/>
		<path style="clip-path:url(#SVGID_4_);fill:none;stroke:#E396B5;stroke-width:7.9131;stroke-miterlimit:10;" d="M717.8,476.2
			H212.3c-8.6,0-15.6-7-15.6-15.6V360c0-8.6,7-15.6,15.6-15.6h505.5c8.6,0,15.6,7,15.6,15.6v100.6
			C733.4,469.2,726.4,476.2,717.8,476.2z"/>
	</g>
	<rect x="139.6" y="1091.9" class="st77" width="268.2" height="131.8"/>
	<g>
		<defs>
			<rect id="SVGID_64_" x="135.6" y="90.4" width="2475.5" height="1698.7"/>
		</defs>
		<clipPath id="SVGID_6_">
			<use xlink:href="#SVGID_64_"  style="overflow:visible;"/>
		</clipPath>
		
			<rect x="139.6" y="1091.9" style="clip-path:url(#SVGID_6_);fill:none;stroke:#E396B5;stroke-width:7.9131;stroke-miterlimit:10;" width="268.2" height="131.8"/>
		<path style="clip-path:url(#SVGID_6_);fill:#FFFFFF;" d="M548,935.4l-87,87c-3.1,3.1-8.2,3.1-11.4,0l-84.5-84.5
			c-3.1-3.1-3.1-8.2,0-11.4l87-87c3.1-3.1,8.2-3.1,11.4,0L548,924C551.2,927.2,551.2,932.3,548,935.4"/>
		<path style="clip-path:url(#SVGID_6_);fill:none;stroke:#E396B5;stroke-width:7.9131;stroke-miterlimit:10;" d="M548,935.4l-87,87
			c-3.1,3.1-8.2,3.1-11.4,0l-84.5-84.5c-3.1-3.1-3.1-8.2,0-11.4l87-87c3.1-3.1,8.2-3.1,11.4,0L548,924
			C551.2,927.2,551.2,932.3,548,935.4z"/>
	</g>
	<g>
		<path class="st103" d="M1024.2,169l1.2-1.7c0.9-1.2,1.8-1.2,3.1-0.5c1.2,0.9,4,2.8,7.8,2.8c3.6,0,5.7-1.8,5.7-4.4
			c0-7.3-17.9-5.8-17.9-17.8c0-6.8,5.6-11.2,13-11.2c4.6,0,8.3,1.7,9.9,2.9c1.2,0.9,1.4,1.9,0.7,3.1l-1,1.8c-0.8,1.6-2,1.4-3.1,0.8
			c-1.6-0.9-3.7-2.1-6.7-2.1c-3.6,0-5.9,1.7-5.9,4.3c0,7.2,17.9,5.4,17.9,17.6c0,6.2-4.7,11.4-12.7,11.4c-5.5,0-9.9-2.4-11.8-3.9
			C1023.6,171.4,1023.1,170.5,1024.2,169z"/>
		<path class="st103" d="M1056.1,153.6h-1.5c-1.5,0-2.2-0.8-2.2-2.3v-0.9c0-1.5,0.8-2.3,2.3-2.3h1.6v-5.6c0-1.5,0.8-2.3,2.3-2.3h2.2
			c1.5,0,2.3,0.8,2.3,2.3v5.6h4c1.5,0,2.3,0.8,2.3,2.3v0.9c0,1.5-0.8,2.3-2.2,2.3h-4.1v10.7c0,4.1,2.5,4.9,4.4,5.1
			c1.7,0.2,2.3,0.7,2.3,2.2v1.7c0,1.6-0.9,2.3-2.8,2.3c-4.9,0-10.8-2.7-10.8-10.1V153.6z"/>
		<path class="st103" d="M1088.3,158.3h1.1v-0.7c0-3.6-2.3-4.9-5.1-4.9c-2.3,0-4.4,0.9-5.7,1.6c-1.4,0.6-2.4,0.4-3-0.9l-0.5-1
			c-0.7-1.2-0.4-2.3,0.9-3c1.8-0.9,4.9-2.3,9.1-2.3c7.2,0,11.4,4,11.4,11v15c0,1.5-0.8,2.3-2.3,2.3h-1.8c-1.5,0-2.2-0.8-2.2-2.3
			v-1.1c0-0.8,0.1-1.2,0.1-1.2h-0.1c0,0-2.6,5.2-8.7,5.2c-5,0-9.2-3.3-9.2-8.3C1072.2,159.7,1082.2,158.3,1088.3,158.3z
			 M1083.2,170.8c3.8,0,6.3-3.9,6.3-7.3v-1h-1.1c-3.5,0-9.4,0.5-9.4,4.7C1079,169,1080.4,170.8,1083.2,170.8z"/>
		<path class="st103" d="M1102.7,150.1c0-1.5,0.8-2.3,2.2-2.3h2.1c1.5,0,2.3,0.8,2.3,2.3v2.6c0,1-0.2,1.9-0.2,1.9h0.1
			c1.1-3.3,4.1-7,8-7c1.5,0,2.1,0.8,2.1,2.3v2.1c0,1.5-0.9,2.3-2.3,2.3c-5,0-7.5,5-7.5,10v8.9c0,1.5-0.8,2.3-2.2,2.3h-2.4
			c-1.5,0-2.2-0.8-2.2-2.3V150.1z"/>
		<path class="st103" d="M1124.6,153.6h-1.5c-1.5,0-2.2-0.8-2.2-2.3v-0.9c0-1.5,0.8-2.3,2.3-2.3h1.6v-5.6c0-1.5,0.8-2.3,2.3-2.3h2.2
			c1.5,0,2.3,0.8,2.3,2.3v5.6h4c1.5,0,2.3,0.8,2.3,2.3v0.9c0,1.5-0.8,2.3-2.2,2.3h-4.1v10.7c0,4.1,2.5,4.9,4.4,5.1
			c1.7,0.2,2.3,0.7,2.3,2.2v1.7c0,1.6-0.9,2.3-2.8,2.3c-4.9,0-10.8-2.7-10.8-10.1V153.6z"/>
		<path class="st103" d="M1157.4,139.2c0-1.5,0.8-2.3,2.2-2.3h10.9c11.9,0,19.6,7,19.6,19.2s-7.8,19.3-19.6,19.3h-10.9
			c-1.5,0-2.2-0.8-2.2-2.3V139.2z M1170.1,169.4c7.8,0,12.8-4.6,12.8-13.3c0-8.6-5.1-13.2-12.8-13.2h-5.8v26.4H1170.1z"/>
		<path class="st103" d="M1209.8,158.3h1.1v-0.7c0-3.6-2.3-4.9-5.1-4.9c-2.3,0-4.4,0.9-5.7,1.6c-1.4,0.6-2.4,0.4-3-0.9l-0.5-1
			c-0.7-1.2-0.4-2.3,0.9-3c1.8-0.9,4.9-2.3,9.1-2.3c7.2,0,11.4,4,11.4,11v15c0,1.5-0.8,2.3-2.3,2.3h-1.8c-1.5,0-2.2-0.8-2.2-2.3
			v-1.1c0-0.8,0.1-1.2,0.1-1.2h-0.1c0,0-2.6,5.2-8.7,5.2c-5,0-9.2-3.3-9.2-8.3C1193.7,159.7,1203.7,158.3,1209.8,158.3z
			 M1204.7,170.8c3.8,0,6.3-3.9,6.3-7.3v-1h-1.1c-3.5,0-9.4,0.5-9.4,4.7C1200.5,169,1201.9,170.8,1204.7,170.8z"/>
	</g>
	<g>
		<path class="st103" d="M1223.8,180.6c0.5,0.2,1.1,0.5,2,0.5c2,0,3.6-1.7,4.4-3.7l1-2.4l-10.5-24.6c-0.7-1.6,0-2.7,1.7-2.7h2.9
			c1.4,0,2.1,0.6,2.5,1.8l5.2,14.1c0.5,1.5,1,3.7,1,3.7h0.1c0,0,0.5-2.2,0.9-3.6l4.9-14.1c0.4-1.3,1.2-1.9,2.5-1.9h2.7
			c1.7,0,2.4,1,1.8,2.6l-11.4,29.2c-1.9,5-5.9,7.3-10,7.3c-1.5,0-2.9-0.4-3.8-0.8c-1.3-0.5-1.6-1.7-1-2.9l0.5-1.2
			C1222,180.6,1222.9,180.4,1223.8,180.6z"/>
	</g>
	<g>
		<path class="st103" d="M922.8,393.5c-0.4-1.5,0.3-2.5,2-2.5h2.7c1.3,0,2.1,0.7,2.4,2l5.6,24.6c0.5,2.2,0.6,4.1,0.6,4.1h0.1
			c0,0,0.2-1.8,0.8-4.1l6.4-24.7c0.4-1.3,1.2-2,2.5-2h1.8c1.4,0,2.2,0.7,2.4,2l6.3,24.7c0.6,2.2,0.8,4.1,0.8,4.1h0.1
			c0,0,0.2-1.9,0.7-4.1L964,393c0.3-1.4,1.1-2,2.5-2h2.5c1.6,0,2.4,1,2,2.5l-8.8,34.1c-0.4,1.3-1.2,1.9-2.5,1.9h-3.8
			c-1.4,0-2.2-0.7-2.5-2l-5.5-20.8c-0.7-2.5-1-5-1-5h-0.2c0,0-0.4,2.5-1,5l-5.5,20.8c-0.3,1.3-1.1,2-2.5,2h-3.9
			c-1.4,0-2.2-0.7-2.5-2L922.8,393.5z"/>
		<path class="st103" d="M989.8,401.2c8.4,0,15.2,6,15.2,14.5c0,8.5-6.8,14.5-15.2,14.5c-8.4,0-15.2-6-15.2-14.5
			C974.6,407.2,981.4,401.2,989.8,401.2z M989.8,424.3c4.5,0,8.2-3.5,8.2-8.6c0-5.1-3.7-8.6-8.2-8.6c-4.5,0-8.2,3.5-8.2,8.6
			C981.6,420.8,985.3,424.3,989.8,424.3z"/>
	</g>
	<g>
		<path class="st103" d="M1008.3,404.1c0-1.5,0.8-2.3,2.2-2.3h2.1c1.5,0,2.3,0.8,2.3,2.3v2.6c0,1-0.2,1.9-0.2,1.9h0.1
			c1.1-3.3,4.1-7,8-7c1.5,0,2.1,0.8,2.1,2.3v2.1c0,1.5-0.9,2.3-2.3,2.3c-5,0-7.5,5-7.5,10v8.9c0,1.5-0.8,2.3-2.2,2.3h-2.4
			c-1.5,0-2.2-0.8-2.2-2.3V404.1z"/>
		<path class="st103" d="M1028.6,393.3c0-1.5,0.8-2.3,2.3-2.3h2.3c1.5,0,2.3,0.8,2.3,2.3v18.3h3.4l5.7-8.2c0.7-1.1,1.5-1.5,2.7-1.5
			h2.6c1.8,0,2.4,1.2,1.4,2.7l-6.9,9.6v0.1l8.1,12.5c0.9,1.6,0.3,2.7-1.5,2.7h-2.9c-1.2,0-2.1-0.5-2.7-1.6l-6.4-10.5h-3.6v9.8
			c0,1.5-0.8,2.3-2.3,2.3h-2.3c-1.5,0-2.3-0.8-2.3-2.3V393.3z"/>
		<path class="st103" d="M1080.6,397h-10.4c-1.5,0-2.3-0.8-2.3-2.2v-1.5c0-1.5,0.8-2.3,2.3-2.3h27.6c1.5,0,2.2,0.8,2.2,2.3v1.5
			c0,1.5-0.8,2.2-2.2,2.2h-10.4v30.2c0,1.5-0.8,2.3-2.3,2.3h-2.4c-1.5,0-2.2-0.8-2.2-2.3V397z"/>
		<path class="st103" d="M1103.8,394.9v-1.6c0-1.5,0.8-2.3,2.2-2.3h2.4c1.5,0,2.3,0.8,2.3,2.3v1.6c0,1.5-0.8,2.2-2.3,2.2h-2.4
			C1104.6,397.1,1103.8,396.4,1103.8,394.9z M1103.8,404.1c0-1.5,0.8-2.3,2.2-2.3h2.4c1.5,0,2.2,0.8,2.2,2.3v23.1
			c0,1.5-0.8,2.3-2.2,2.3h-2.4c-1.5,0-2.2-0.8-2.2-2.3V404.1z"/>
		<path class="st103" d="M1117.5,404.1c0-1.5,0.8-2.3,2.2-2.3h2.1c1.5,0,2.2,0.8,2.2,2.3v1.7c0,0.6-0.1,1.2-0.1,1.2h0.1
			c1.4-2.7,4.7-5.9,9.1-5.9c4.2,0,6.9,2,8.1,5.7h0.1c1.5-2.9,5.1-5.7,9.4-5.7c5.7,0,9.1,3.3,9.1,10.5v15.5c0,1.5-0.8,2.3-2.3,2.3
			h-2.3c-1.5,0-2.3-0.8-2.3-2.3V413c0-3.1-0.6-5.5-3.8-5.5c-4.7,0-7,4.8-7,9.6v10.1c0,1.5-0.8,2.3-2.2,2.3h-2.4
			c-1.5,0-2.3-0.8-2.3-2.3V413c0-3-0.4-5.5-3.7-5.5c-4.9,0-7.2,5-7.2,9.6v10.1c0,1.5-0.8,2.3-2.2,2.3h-2.4c-1.5,0-2.2-0.8-2.2-2.3
			V404.1z"/>
		<path class="st103" d="M1178.5,401.2c7.9,0,12.2,5.6,12.2,13.2c0,1.2-1,2.3-2.4,2.3h-16.9c0.4,5,4.1,7.6,8.3,7.6
			c2.5,0,4.7-1,6-1.8c1.4-0.7,2.3-0.5,3,0.8l0.7,1.1c0.7,1.2,0.4,2.3-0.8,3c-1.8,1.1-5,2.8-9.4,2.8c-9.2,0-14.9-6.6-14.9-14.5
			C1164.5,407.2,1170.2,401.2,1178.5,401.2z M1183.9,412.5c-0.1-3.8-2.4-6.1-5.6-6.1c-3.5,0-6,2.4-6.7,6.1H1183.9z"/>
		<path class="st103" d="M1195.7,404.1c0-1.5,0.8-2.3,2.2-2.3h2.1c1.5,0,2.3,0.8,2.3,2.3v2.6c0,1-0.2,1.9-0.2,1.9h0.1
			c1.1-3.3,4.1-7,8-7c1.5,0,2.1,0.8,2.1,2.3v2.1c0,1.5-0.9,2.3-2.3,2.3c-5,0-7.5,5-7.5,10v8.9c0,1.5-0.8,2.3-2.2,2.3h-2.4
			c-1.5,0-2.2-0.8-2.2-2.3V404.1z"/>
		<path class="st103" d="M1230.6,393.3c0-1.5,0.8-2.3,2.2-2.3h12.6c7.2,0,12.2,5,12.2,12.5c0,7.5-5,12.7-12.2,12.7h-7.9v11
			c0,1.5-0.8,2.3-2.2,2.3h-2.5c-1.5,0-2.2-0.8-2.2-2.3V393.3z M1244.1,410.1c4.1,0,6.5-2.6,6.5-6.6c0-4-2.3-6.5-6.3-6.5h-6.7v13.1
			H1244.1z"/>
		<path class="st103" d="M1276.4,412.4h1.1v-0.7c0-3.6-2.3-4.9-5.1-4.9c-2.3,0-4.4,0.9-5.7,1.6c-1.4,0.6-2.4,0.4-3-0.9l-0.5-1
			c-0.7-1.2-0.4-2.3,0.9-3c1.8-0.9,4.9-2.3,9.1-2.3c7.2,0,11.4,4,11.4,11v15c0,1.5-0.8,2.3-2.3,2.3h-1.8c-1.5,0-2.2-0.8-2.2-2.3
			v-1.1c0-0.8,0.1-1.2,0.1-1.2h-0.1c0,0-2.6,5.2-8.7,5.2c-5,0-9.2-3.3-9.2-8.3C1260.2,413.8,1270.2,412.4,1276.4,412.4z
			 M1271.2,424.9c3.8,0,6.3-3.9,6.3-7.3v-1h-1.1c-3.5,0-9.4,0.5-9.4,4.7C1267.1,423.1,1268.5,424.9,1271.2,424.9z"/>
		<path class="st103" d="M1295.9,434c1.3,0.5,3,1,5.6,1c4.2,0,7.8-1.8,7.8-6.7v-2.1c0-0.7,0.1-1.4,0.1-1.4h-0.1
			c-1.5,2.6-3.9,4.1-7.6,4.1c-8.1,0-12.5-6.4-12.5-14c0-7.5,4.2-13.7,12.5-13.7c6.4,0,8.2,4.2,8.2,4.2h0.1c0,0-0.1-0.3-0.1-0.7v-1
			c0-1,0.8-1.8,2.2-1.8h1.8c1.5,0,2.2,0.8,2.2,2.3v23.7c0,9.5-7.5,13.1-14.3,13.1c-3.1,0-6.2-0.7-8.1-1.5c-1.4-0.6-1.8-1.5-1.2-2.9
			l0.4-1.2C1293.7,433.9,1294.5,433.5,1295.9,434z M1309.5,415.1c0-6.3-3.1-8-6.7-8c-4.3,0-6.6,3-6.6,7.6c0,5,2.5,8.5,6.9,8.5
			C1306.4,423.1,1309.5,421.2,1309.5,415.1z"/>
		<path class="st103" d="M1335.4,401.2c7.9,0,12.2,5.6,12.2,13.2c0,1.2-1,2.3-2.4,2.3h-16.9c0.4,5,4.1,7.6,8.3,7.6
			c2.5,0,4.7-1,6-1.8c1.4-0.7,2.3-0.5,3,0.8l0.7,1.1c0.7,1.2,0.4,2.3-0.8,3c-1.8,1.1-5,2.8-9.4,2.8c-9.2,0-14.9-6.6-14.9-14.5
			C1321.4,407.2,1327.1,401.2,1335.4,401.2z M1340.8,412.5c-0.1-3.8-2.4-6.1-5.6-6.1c-3.5,0-6,2.4-6.7,6.1H1340.8z"/>
	</g>
	<g>
		<path class="st103" d="M366.2,390.4c6.3,0,10.9,2.4,12.6,3.5c1.2,0.9,1.3,1.9,0.5,3.1l-1,1.5c-0.8,1.2-1.8,1.4-3.1,0.6
			c-1.7-1-4.4-2.4-8.6-2.4c-8.4,0-13.1,6.1-13.1,13.3c0,8.1,5.7,13.7,12.8,13.7c6.4,0,9.8-4.2,9.8-4.2v-4.3h-3.7
			c-1.5,0-2.3-0.8-2.3-2.3v-1.5c0-1.5,0.8-2.3,2.3-2.3h7.7c1.5,0,2.2,0.8,2.2,2.3v15.7c0,1.5-0.8,2.3-2.2,2.3h-1.4
			c-1.5,0-2.2-0.8-2.2-1.8v-0.9c0-0.5,0.1-0.9,0.1-0.9h-0.1c0,0-3.8,4.3-11.3,4.3c-10.2,0-18.9-8-18.9-19.7
			C346.3,398.9,354.7,390.4,366.2,390.4z"/>
		<path class="st103" d="M401.8,401.2c8.4,0,15.2,6,15.2,14.5c0,8.5-6.8,14.5-15.2,14.5s-15.2-6-15.2-14.5
			C386.7,407.2,393.4,401.2,401.8,401.2z M401.8,424.3c4.5,0,8.2-3.5,8.2-8.6c0-5.1-3.7-8.6-8.2-8.6s-8.2,3.5-8.2,8.6
			C393.7,420.8,397.3,424.3,401.8,424.3z"/>
		<path class="st103" d="M436.1,412.4h1.1v-0.7c0-3.6-2.3-4.9-5.1-4.9c-2.3,0-4.4,0.9-5.7,1.6c-1.4,0.6-2.4,0.4-3-0.9l-0.5-1
			c-0.7-1.2-0.4-2.3,0.9-3c1.8-0.9,4.9-2.3,9.1-2.3c7.2,0,11.4,4,11.4,11v15c0,1.5-0.8,2.3-2.3,2.3H440c-1.5,0-2.2-0.8-2.2-2.3v-1.1
			c0-0.8,0.1-1.2,0.1-1.2h-0.1c0,0-2.6,5.2-8.7,5.2c-5,0-9.2-3.3-9.2-8.3C420,413.8,430,412.4,436.1,412.4z M431,424.9
			c3.8,0,6.3-3.9,6.3-7.3v-1h-1.1c-3.5,0-9.4,0.5-9.4,4.7C426.8,423.1,428.2,424.9,431,424.9z"/>
		<path class="st103" d="M450.5,393.3c0-1.5,0.8-2.3,2.2-2.3h2.4c1.5,0,2.2,0.8,2.2,2.3v27c0,2.7,1.1,3.2,2.2,3.3
			c1,0.1,1.7,0.7,1.7,2v1.8c0,1.4-0.7,2.3-2.3,2.3c-3.7,0-8.4-1-8.4-8.9V393.3z"/>
		<path class="st103" d="M464.5,424.2l0.7-1c0.8-1.1,1.7-1.2,3.1-0.5c1.3,0.7,3.4,1.9,6.2,1.9c2.4,0,3.8-1.1,3.8-2.8
			c0-4.5-13.7-2.8-13.7-12.3c0-5.4,4.8-8.3,10.6-8.3c3.7,0,6.2,1.2,7.7,2c1.2,0.7,1.4,1.8,0.8,3l-0.5,1c-0.7,1.3-1.7,1.5-3,0.9
			c-1.2-0.5-3-1.4-5.3-1.4c-2.4,0-3.7,1-3.7,2.7c0,4.6,13.7,2.8,13.7,12.2c0,4.9-4.1,8.5-10.5,8.5c-4.4,0-7.5-1.7-9.2-2.8
			C463.8,426.6,463.7,425.4,464.5,424.2z"/>
		<path class="st103" d="M504.5,393.3c0-1.5,0.8-2.3,2.2-2.3h2.5c1.5,0,2.2,0.8,2.2,2.3v30.2h14.4c1.5,0,2.3,0.8,2.3,2.2v1.5
			c0,1.5-0.8,2.3-2.3,2.3h-19.1c-1.5,0-2.2-0.8-2.2-2.3V393.3z"/>
		<path class="st103" d="M531.7,394.9v-1.6c0-1.5,0.8-2.3,2.2-2.3h2.4c1.5,0,2.3,0.8,2.3,2.3v1.6c0,1.5-0.8,2.2-2.3,2.2h-2.4
			C532.4,397.1,531.7,396.4,531.7,394.9z M531.7,404.1c0-1.5,0.8-2.3,2.2-2.3h2.4c1.5,0,2.2,0.8,2.2,2.3v23.1c0,1.5-0.8,2.3-2.2,2.3
			h-2.4c-1.5,0-2.2-0.8-2.2-2.3V404.1z"/>
		<path class="st103" d="M544.2,424.2l0.7-1c0.8-1.1,1.7-1.2,3.1-0.5c1.3,0.7,3.4,1.9,6.2,1.9c2.4,0,3.8-1.1,3.8-2.8
			c0-4.5-13.7-2.8-13.7-12.3c0-5.4,4.8-8.3,10.6-8.3c3.7,0,6.2,1.2,7.7,2c1.2,0.7,1.4,1.8,0.8,3l-0.5,1c-0.7,1.3-1.7,1.5-3,0.9
			c-1.2-0.5-3-1.4-5.3-1.4c-2.4,0-3.7,1-3.7,2.7c0,4.6,13.7,2.8,13.7,12.2c0,4.9-4.1,8.5-10.5,8.5c-4.4,0-7.5-1.7-9.2-2.8
			C543.4,426.6,543.3,425.4,544.2,424.2z"/>
		<path class="st103" d="M571.1,407.7h-1.5c-1.5,0-2.2-0.8-2.2-2.3v-0.9c0-1.5,0.8-2.3,2.3-2.3h1.6v-5.6c0-1.5,0.8-2.3,2.3-2.3h2.2
			c1.5,0,2.3,0.8,2.3,2.3v5.6h4c1.5,0,2.3,0.8,2.3,2.3v0.9c0,1.5-0.8,2.3-2.2,2.3H578v10.7c0,4.1,2.5,4.9,4.4,5.1
			c1.7,0.2,2.3,0.7,2.3,2.2v1.7c0,1.6-0.9,2.3-2.8,2.3c-4.9,0-10.8-2.7-10.8-10.1V407.7z"/>
	</g>
	<g>
		<path class="st103" d="M1680.8,423.1l1.2-1.7c0.9-1.2,1.8-1.2,3.1-0.5c1.2,0.9,4,2.8,7.8,2.8c3.6,0,5.7-1.8,5.7-4.4
			c0-7.3-17.9-5.8-17.9-17.8c0-6.8,5.6-11.2,13-11.2c4.6,0,8.3,1.7,9.9,2.9c1.2,0.9,1.4,1.9,0.7,3.1l-1,1.8c-0.8,1.6-2,1.4-3.1,0.8
			c-1.6-0.9-3.7-2.1-6.7-2.1c-3.6,0-5.9,1.7-5.9,4.3c0,7.2,17.9,5.4,17.9,17.6c0,6.2-4.7,11.4-12.7,11.4c-5.5,0-9.9-2.4-11.8-3.9
			C1680.3,425.5,1679.8,424.6,1680.8,423.1z"/>
		<path class="st103" d="M1724.5,401.2c4.4,0,7.4,1.6,9.1,2.8c1.1,0.8,1.2,1.9,0.4,3.1l-0.7,1.1c-0.8,1.2-1.7,1.2-3,0.6
			c-1.1-0.8-3-1.7-5.4-1.7c-5.1,0-8.4,3.8-8.4,8.6c0,4.7,3.3,8.7,8.6,8.7c2.7,0,4.9-1.2,6.2-2.1c1.4-0.8,2.4-0.6,3.1,0.7l0.5,1
			c0.7,1.2,0.5,2.3-0.6,3c-1.7,1.2-5,3.2-9.8,3.2c-9.2,0-15-6.5-15-14.5C1709.5,407.8,1715.4,401.2,1724.5,401.2z"/>
		<path class="st103" d="M1753.4,401.2c8.4,0,15.2,6,15.2,14.5c0,8.5-6.8,14.5-15.2,14.5c-8.4,0-15.2-6-15.2-14.5
			C1738.2,407.2,1745,401.2,1753.4,401.2z M1753.4,424.3c4.5,0,8.2-3.5,8.2-8.6c0-5.1-3.7-8.6-8.2-8.6c-4.5,0-8.2,3.5-8.2,8.6
			C1745.2,420.8,1748.9,424.3,1753.4,424.3z"/>
		<path class="st103" d="M1773.7,404.1c0-1.5,0.8-2.3,2.2-2.3h2.1c1.5,0,2.3,0.8,2.3,2.3v2.6c0,1-0.2,1.9-0.2,1.9h0.1
			c1.1-3.3,4.1-7,8-7c1.5,0,2.1,0.8,2.1,2.3v2.1c0,1.5-0.9,2.3-2.3,2.3c-5,0-7.5,5-7.5,10v8.9c0,1.5-0.8,2.3-2.2,2.3h-2.4
			c-1.5,0-2.2-0.8-2.2-2.3V404.1z"/>
	</g>
	<g>
		<path class="st103" d="M1805.2,401.2c7.9,0,12.2,5.6,12.2,13.2c0,1.2-1,2.3-2.4,2.3h-16.9c0.4,5,4.1,7.6,8.3,7.6
			c2.5,0,4.7-1,6-1.8c1.4-0.7,2.3-0.5,3,0.8l0.7,1.1c0.7,1.2,0.4,2.3-0.8,3c-1.8,1.1-5,2.8-9.4,2.8c-9.2,0-14.9-6.6-14.9-14.5
			C1791.1,407.2,1796.9,401.2,1805.2,401.2z M1810.6,412.5c-0.1-3.8-2.4-6.1-5.6-6.1c-3.5,0-6,2.4-6.7,6.1H1810.6z"/>
		<path class="st103" d="M1837,393.3c0-1.5,0.8-2.3,2.2-2.3h12.6c7.2,0,12.2,5,12.2,12.5c0,7.5-5,12.7-12.2,12.7h-7.9v11
			c0,1.5-0.8,2.3-2.2,2.3h-2.5c-1.5,0-2.2-0.8-2.2-2.3V393.3z M1850.5,410.1c4.1,0,6.4-2.6,6.4-6.6c0-4-2.3-6.5-6.3-6.5h-6.7v13.1
			H1850.5z"/>
		<path class="st103" d="M1882.7,412.4h1.1v-0.7c0-3.6-2.3-4.9-5.1-4.9c-2.3,0-4.4,0.9-5.7,1.6c-1.4,0.6-2.4,0.4-3-0.9l-0.5-1
			c-0.7-1.2-0.4-2.3,0.9-3c1.8-0.9,4.9-2.3,9.1-2.3c7.2,0,11.4,4,11.4,11v15c0,1.5-0.8,2.3-2.3,2.3h-1.8c-1.5,0-2.2-0.8-2.2-2.3
			v-1.1c0-0.8,0.1-1.2,0.1-1.2h-0.1c0,0-2.6,5.2-8.7,5.2c-5,0-9.2-3.3-9.2-8.3C1866.6,413.8,1876.5,412.4,1882.7,412.4z
			 M1877.6,424.9c3.8,0,6.3-3.9,6.3-7.3v-1h-1.1c-3.5,0-9.4,0.5-9.4,4.7C1873.4,423.1,1874.8,424.9,1877.6,424.9z"/>
		<path class="st103" d="M1902.3,434c1.3,0.5,3,1,5.6,1c4.2,0,7.8-1.8,7.8-6.7v-2.1c0-0.7,0.1-1.4,0.1-1.4h-0.1
			c-1.5,2.6-3.9,4.1-7.6,4.1c-8.1,0-12.5-6.4-12.5-14c0-7.5,4.2-13.7,12.5-13.7c6.5,0,8.2,4.2,8.2,4.2h0.1c0,0-0.1-0.3-0.1-0.7v-1
			c0-1,0.8-1.8,2.2-1.8h1.8c1.5,0,2.2,0.8,2.2,2.3v23.7c0,9.5-7.5,13.1-14.3,13.1c-3.1,0-6.2-0.7-8.1-1.5c-1.4-0.6-1.8-1.5-1.2-2.9
			l0.4-1.2C1900,433.9,1900.8,433.5,1902.3,434z M1915.8,415.1c0-6.3-3.1-8-6.7-8c-4.3,0-6.6,3-6.6,7.6c0,5,2.5,8.5,6.9,8.5
			C1912.7,423.1,1915.8,421.2,1915.8,415.1z"/>
		<path class="st103" d="M1941.7,401.2c7.9,0,12.2,5.6,12.2,13.2c0,1.2-1,2.3-2.4,2.3h-16.9c0.4,5,4.1,7.6,8.3,7.6
			c2.5,0,4.7-1,6-1.8c1.4-0.7,2.3-0.5,3,0.8l0.7,1.1c0.7,1.2,0.4,2.3-0.8,3c-1.8,1.1-5,2.8-9.4,2.8c-9.2,0-14.9-6.6-14.9-14.5
			C1927.7,407.2,1933.4,401.2,1941.7,401.2z M1947.2,412.5c-0.1-3.8-2.4-6.1-5.6-6.1c-3.5,0-6,2.4-6.7,6.1H1947.2z"/>
	</g>
	<g>
		<defs>
			<rect id="SVGID_66_" x="135.6" y="90.4" width="2475.5" height="1698.7"/>
		</defs>
		<clipPath id="SVGID_8_">
			<use xlink:href="#SVGID_66_"  style="overflow:visible;"/>
		</clipPath>
		<path style="clip-path:url(#SVGID_8_);fill:#FFFFFF;" d="M2510.4,476.2h-351.1c-7.2,0-13.1-5.9-13.1-13.1V357.5
			c0-7.2,5.9-13.1,13.1-13.1h351.1c7.2,0,13.1,5.9,13.1,13.1v105.6C2523.5,470.4,2517.7,476.2,2510.4,476.2"/>
		<path style="clip-path:url(#SVGID_8_);fill:none;stroke:#E396B5;stroke-width:7.9131;stroke-miterlimit:10;" d="M2510.4,476.2
			h-351.1c-7.2,0-13.1-5.9-13.1-13.1V357.5c0-7.2,5.9-13.1,13.1-13.1h351.1c7.2,0,13.1,5.9,13.1,13.1v105.6
			C2523.5,470.4,2517.7,476.2,2510.4,476.2z"/>
	</g>
	<g>
		<path class="st103" d="M2237.1,423.1l1.2-1.7c0.9-1.2,1.8-1.2,3.1-0.5c1.2,0.9,4,2.8,7.8,2.8c3.6,0,5.7-1.8,5.7-4.4
			c0-7.3-17.9-5.8-17.9-17.8c0-6.8,5.6-11.2,13-11.2c4.6,0,8.3,1.7,9.9,2.9c1.2,0.9,1.4,1.9,0.7,3.1l-1,1.8c-0.8,1.6-2,1.4-3.1,0.8
			c-1.6-0.9-3.7-2.1-6.7-2.1c-3.6,0-5.9,1.7-5.9,4.3c0,7.2,17.9,5.4,17.9,17.6c0,6.2-4.7,11.4-12.7,11.4c-5.5,0-9.9-2.4-11.8-3.9
			C2236.5,425.5,2236,424.5,2237.1,423.1z"/>
		<path class="st103" d="M2279.8,401.2c7.9,0,12.2,5.6,12.2,13.2c0,1.2-1,2.3-2.4,2.3h-16.9c0.4,5,4.1,7.6,8.3,7.6
			c2.5,0,4.7-1,6-1.8c1.4-0.7,2.3-0.5,3,0.8l0.7,1.1c0.7,1.2,0.4,2.3-0.8,3c-1.8,1.1-5,2.8-9.4,2.8c-9.2,0-14.9-6.6-14.9-14.5
			C2265.8,407.1,2271.5,401.2,2279.8,401.2z M2285.2,412.5c-0.1-3.8-2.4-6.1-5.6-6.1c-3.5,0-6,2.4-6.7,6.1H2285.2z"/>
		<path class="st103" d="M2298.6,407.7h-1.5c-1.5,0-2.2-0.8-2.2-2.3v-0.9c0-1.5,0.8-2.3,2.3-2.3h1.6v-5.6c0-1.5,0.8-2.3,2.3-2.3h2.2
			c1.5,0,2.3,0.8,2.3,2.3v5.6h4c1.5,0,2.3,0.8,2.3,2.3v0.9c0,1.5-0.8,2.3-2.2,2.3h-4.1v10.7c0,4.1,2.5,4.9,4.4,5.1
			c1.7,0.2,2.3,0.7,2.3,2.2v1.7c0,1.6-0.9,2.3-2.8,2.3c-4.9,0-10.8-2.7-10.8-10.1V407.7z"/>
		<path class="st103" d="M2318.3,407.7h-1.5c-1.5,0-2.2-0.8-2.2-2.3v-0.9c0-1.5,0.8-2.3,2.3-2.3h1.6v-5.6c0-1.5,0.8-2.3,2.3-2.3h2.2
			c1.5,0,2.3,0.8,2.3,2.3v5.6h4c1.5,0,2.3,0.8,2.3,2.3v0.9c0,1.5-0.8,2.3-2.2,2.3h-4.1v10.7c0,4.1,2.5,4.9,4.4,5.1
			c1.7,0.2,2.3,0.7,2.3,2.2v1.7c0,1.6-0.9,2.3-2.8,2.3c-4.9,0-10.8-2.7-10.8-10.1V407.7z"/>
		<path class="st103" d="M2336.5,394.9v-1.6c0-1.5,0.8-2.3,2.2-2.3h2.4c1.5,0,2.3,0.8,2.3,2.3v1.6c0,1.5-0.8,2.2-2.3,2.2h-2.4
			C2337.3,397.1,2336.5,396.4,2336.5,394.9z M2336.5,404.1c0-1.5,0.8-2.3,2.2-2.3h2.4c1.5,0,2.2,0.8,2.2,2.3v23.1
			c0,1.5-0.8,2.3-2.2,2.3h-2.4c-1.5,0-2.2-0.8-2.2-2.3V404.1z"/>
		<path class="st103" d="M2350.2,404.1c0-1.5,0.8-2.3,2.2-2.3h2.1c1.5,0,2.2,0.8,2.2,2.3v1.7c0,0.6-0.1,1.2-0.1,1.2h0.1
			c1.2-2.3,4.2-5.9,9.8-5.9c6.1,0,9.6,3.2,9.6,10.5v15.5c0,1.5-0.8,2.3-2.3,2.3h-2.3c-1.5,0-2.3-0.8-2.3-2.3v-14.1
			c0-3.4-0.9-5.6-4.3-5.6c-4.9,0-8,4.1-8,9.1v10.7c0,1.5-0.8,2.3-2.2,2.3h-2.4c-1.5,0-2.2-0.8-2.2-2.3V404.1z"/>
		<path class="st103" d="M2387.8,434c1.3,0.5,3,1,5.6,1c4.2,0,7.8-1.8,7.8-6.7v-2.1c0-0.7,0.1-1.4,0.1-1.4h-0.1
			c-1.5,2.6-3.9,4.1-7.6,4.1c-8.1,0-12.5-6.4-12.5-14c0-7.5,4.2-13.7,12.5-13.7c6.4,0,8.2,4.2,8.2,4.2h0.1c0,0-0.1-0.3-0.1-0.7v-1
			c0-1,0.8-1.8,2.2-1.8h1.8c1.5,0,2.2,0.8,2.2,2.3v23.7c0,9.5-7.5,13.1-14.3,13.1c-3.1,0-6.2-0.7-8.1-1.5c-1.4-0.6-1.8-1.5-1.2-2.9
			l0.4-1.2C2385.5,433.9,2386.3,433.5,2387.8,434z M2401.3,415.1c0-6.3-3.1-8-6.7-8c-4.3,0-6.6,3-6.6,7.6c0,5,2.5,8.5,6.9,8.5
			C2398.2,423.1,2401.3,421.2,2401.3,415.1z"/>
		<path class="st103" d="M2413.7,424.2l0.7-1c0.8-1.1,1.7-1.2,3.1-0.5c1.3,0.7,3.4,1.9,6.2,1.9c2.4,0,3.8-1.1,3.8-2.8
			c0-4.5-13.7-2.8-13.7-12.3c0-5.4,4.8-8.3,10.6-8.3c3.7,0,6.2,1.2,7.7,2c1.2,0.7,1.4,1.8,0.8,3l-0.5,1c-0.7,1.3-1.7,1.5-3,0.9
			c-1.2-0.5-3-1.4-5.3-1.4c-2.4,0-3.7,1-3.7,2.7c0,4.6,13.7,2.8,13.7,12.2c0,4.9-4.1,8.5-10.5,8.5c-4.4,0-7.5-1.7-9.2-2.8
			C2413,426.6,2412.9,425.4,2413.7,424.2z"/>
	</g>
	<g>
		<path class="st103" d="M196.6,1143.8c0.3-0.9,0.9-1.4,1.9-1.4h2.6c1,0,1.6,0.4,1.9,1.4l9,25.5c0.4,1.2-0.1,2-1.4,2h-1.9
			c-1,0-1.6-0.4-1.9-1.4l-2-6h-10.1l-2,6c-0.3,1-0.9,1.4-1.9,1.4H189c-1.3,0-1.8-0.8-1.4-2L196.6,1143.8z M203.5,1159.7l-2.6-7.7
			c-0.5-1.6-1.1-4.5-1.1-4.5h-0.1c0,0-0.7,2.8-1.1,4.5l-2.6,7.7H203.5z"/>
		<path class="st103" d="M223.4,1150.1c4.6,0,6.1,3,6.1,3h0.1c0,0-0.1-0.5-0.1-1.2v-7.7c0-1.1,0.6-1.7,1.7-1.7h1.8
			c1.1,0,1.7,0.6,1.7,1.7v25.4c0,1.1-0.6,1.7-1.7,1.7h-1.5c-1.1,0-1.7-0.5-1.7-1.5v-0.8c0-0.4,0.1-0.7,0.1-0.7h-0.1
			c0,0-1.7,3.6-6.5,3.6c-5.6,0-9.2-4.4-9.2-10.9C214,1154.4,217.9,1150.1,223.4,1150.1z M224.4,1167.5c2.7,0,5.2-2,5.2-6.5
			c0-3.2-1.7-6.4-5.2-6.4c-2.8,0-5.2,2.3-5.2,6.4C219.2,1164.9,221.3,1167.5,224.4,1167.5z"/>
		<path class="st103" d="M247.9,1150.1c4.6,0,6.1,3,6.1,3h0.1c0,0-0.1-0.5-0.1-1.2v-7.7c0-1.1,0.6-1.7,1.7-1.7h1.8
			c1.1,0,1.7,0.6,1.7,1.7v25.4c0,1.1-0.6,1.7-1.7,1.7h-1.5c-1.1,0-1.7-0.5-1.7-1.5v-0.8c0-0.4,0.1-0.7,0.1-0.7h-0.1
			c0,0-1.7,3.6-6.5,3.6c-5.6,0-9.2-4.4-9.2-10.9C238.5,1154.4,242.4,1150.1,247.9,1150.1z M248.9,1167.5c2.7,0,5.2-2,5.2-6.5
			c0-3.2-1.7-6.4-5.2-6.4c-2.8,0-5.2,2.3-5.2,6.4C243.7,1164.9,245.9,1167.5,248.9,1167.5z"/>
		<path class="st103" d="M288.4,1142c4.8,0,8.2,1.8,9.4,2.6c0.9,0.7,1,1.4,0.4,2.4l-0.7,1.1c-0.6,0.9-1.3,1-2.4,0.4
			c-1.3-0.7-3.3-1.8-6.4-1.8c-6.3,0-9.8,4.6-9.8,10c0,6.1,4.3,10.2,9.6,10.2c4.8,0,7.3-3.2,7.3-3.2v-3.2h-2.8
			c-1.1,0-1.7-0.6-1.7-1.7v-1.1c0-1.1,0.6-1.7,1.7-1.7h5.8c1.1,0,1.7,0.6,1.7,1.7v11.8c0,1.1-0.6,1.7-1.7,1.7h-1
			c-1.1,0-1.7-0.6-1.7-1.4v-0.7c0-0.4,0-0.7,0-0.7h-0.1c0,0-2.9,3.3-8.5,3.3c-7.6,0-14.2-6-14.2-14.8
			C273.5,1148.4,279.8,1142,288.4,1142z"/>
		<path class="st103" d="M315.2,1150.1c6.3,0,11.4,4.5,11.4,10.9c0,6.4-5.1,10.9-11.4,10.9s-11.4-4.5-11.4-10.9
			C303.8,1154.6,308.9,1150.1,315.2,1150.1z M315.2,1167.4c3.4,0,6.2-2.6,6.2-6.5c0-3.8-2.8-6.5-6.2-6.5s-6.1,2.6-6.1,6.5
			C309,1164.8,311.8,1167.4,315.2,1167.4z"/>
		<path class="st103" d="M340.9,1158.5h0.9v-0.5c0-2.7-1.7-3.7-3.9-3.7c-1.7,0-3.3,0.7-4.3,1.2c-1,0.4-1.8,0.3-2.3-0.7l-0.4-0.8
			c-0.5-0.9-0.3-1.7,0.7-2.3c1.3-0.7,3.7-1.7,6.8-1.7c5.4,0,8.6,3,8.6,8.3v11.3c0,1.1-0.6,1.7-1.7,1.7h-1.4c-1.1,0-1.7-0.6-1.7-1.7
			v-0.8c0-0.6,0.1-0.9,0.1-0.9h-0.1c0,0-2,3.9-6.5,3.9c-3.8,0-6.9-2.4-6.9-6.2C328.8,1159.5,336.3,1158.5,340.9,1158.5z M337,1167.9
			c2.9,0,4.8-2.9,4.8-5.4v-0.8h-0.9c-2.6,0-7,0.4-7,3.5C333.9,1166.5,335,1167.9,337,1167.9z"/>
		<path class="st103" d="M351.7,1144.2c0-1.1,0.6-1.7,1.7-1.7h1.8c1.1,0,1.7,0.6,1.7,1.7v20.3c0,2,0.9,2.4,1.6,2.5
			c0.7,0.1,1.3,0.5,1.3,1.5v1.4c0,1.1-0.5,1.7-1.7,1.7c-2.8,0-6.3-0.7-6.3-6.7V1144.2z"/>
	</g>
	<g>
		<path class="st103" d="M447.7,941.2v-1.7c0-13.5,17.5-17,17.5-27.8c0-5-4.5-8.8-10.3-8.8c-3.2,0-5.9,1.2-7.9,2.1
			c-2.4,1.3-4.9,1.3-6.4-1.1l-1.8-2.7c-1.7-2.3-1.7-4.4,0.7-5.9c3.2-2.1,8.9-4.9,16.4-4.9c12,0,23.2,7.4,23.2,20
			c0,16.7-17.2,19.5-18.5,30.2l-0.2,1.8c-0.5,2.2-1.7,3.1-4.2,3.1h-4.2C449.3,945.5,447.7,944.1,447.7,941.2z M447.7,959.1
			c0-2.9,1.6-4.5,4.5-4.5h4.2c2.9,0,4.4,1.6,4.4,4.5v3.7c0,3-1.5,4.5-4.4,4.5h-4.2c-2.9,0-4.5-1.5-4.5-4.5V959.1z"/>
	</g>
	<g>
		<defs>
			<rect id="SVGID_68_" x="135.6" y="90.4" width="2475.5" height="1698.7"/>
		</defs>
		<clipPath id="SVGID_10_">
			<use xlink:href="#SVGID_68_"  style="overflow:visible;"/>
		</clipPath>
		<path style="clip-path:url(#SVGID_10_);fill:#FFFFFF;" d="M1405.3,1027.4l-87,87c-3.1,3.1-8.2,3.1-11.4,0l-84.5-84.5
			c-3.1-3.1-3.1-8.2,0-11.4l87-87c3.1-3.1,8.2-3.1,11.4,0l84.5,84.5C1408.5,1019.2,1408.5,1024.3,1405.3,1027.4"/>
		<path style="clip-path:url(#SVGID_10_);fill:none;stroke:#E396B5;stroke-width:7.9131;stroke-miterlimit:10;" d="M1405.3,1027.4
			l-87,87c-3.1,3.1-8.2,3.1-11.4,0l-84.5-84.5c-3.1-3.1-3.1-8.2,0-11.4l87-87c3.1-3.1,8.2-3.1,11.4,0l84.5,84.5
			C1408.5,1019.2,1408.5,1024.3,1405.3,1027.4z"/>
	</g>
	<g>
		<path class="st103" d="M1305,1033.2v-1.7c0-13.5,17.5-17,17.5-27.8c0-5-4.5-8.8-10.3-8.8c-3.2,0-5.9,1.2-7.9,2.1
			c-2.4,1.3-4.9,1.3-6.4-1.1l-1.8-2.7c-1.7-2.3-1.7-4.4,0.7-5.9c3.2-2.1,8.9-4.9,16.4-4.9c12,0,23.2,7.4,23.2,20
			c0,16.7-17.2,19.5-18.5,30.2l-0.2,1.8c-0.5,2.2-1.7,3.1-4.2,3.1h-4.2C1306.6,1037.6,1305,1036.1,1305,1033.2z M1305,1051.2
			c0-2.9,1.6-4.5,4.5-4.5h4.2c2.9,0,4.4,1.6,4.4,4.5v3.7c0,3-1.5,4.5-4.4,4.5h-4.2c-2.9,0-4.5-1.5-4.5-4.5V1051.2z"/>
	</g>
	<rect x="497.6" y="1091.9" class="st77" width="268.2" height="131.8"/>
	<rect x="497.6" y="1091.9" class="st108" width="268.2" height="131.8"/>
	<g>
		<path class="st103" d="M555.8,1117.1c4.7,0,7.9,1.8,9.4,2.9c0.9,0.7,0.9,1.5,0.3,2.4l-0.7,1.2c-0.6,0.9-1.3,1-2.3,0.4
			c-1.3-0.8-3.5-2-6.5-2c-6.3,0-9.7,4.6-9.7,9.9c0,5.4,3.5,10.3,9.7,10.3c3.3,0,5.7-1.5,7.1-2.5c0.9-0.7,1.7-0.7,2.4,0.3l0.8,1.1
			c0.6,0.8,0.6,1.7-0.2,2.4c-1.6,1.3-5.1,3.6-10.2,3.6c-9.1,0-14.9-6.5-14.9-15C541,1123.5,547.1,1117.1,555.8,1117.1z"/>
		<path class="st103" d="M580.6,1125.3c6.3,0,11.4,4.5,11.4,10.9c0,6.4-5.1,10.9-11.4,10.9c-6.3,0-11.4-4.5-11.4-10.9
			C569.2,1129.8,574.3,1125.3,580.6,1125.3z M580.6,1142.6c3.4,0,6.2-2.6,6.2-6.5c0-3.8-2.8-6.5-6.2-6.5c-3.4,0-6.1,2.6-6.1,6.5
			C574.4,1140,577.2,1142.6,580.6,1142.6z"/>
		<path class="st103" d="M595.8,1127.4c0-1.1,0.6-1.7,1.7-1.7h1.6c1.1,0,1.7,0.6,1.7,1.7v1.3c0,0.4-0.1,0.9-0.1,0.9h0.1
			c1-2,3.5-4.4,6.8-4.4c3.1,0,5.2,1.5,6.1,4.3h0.1c1.1-2.2,3.8-4.3,7.1-4.3c4.3,0,6.8,2.4,6.8,7.9v11.6c0,1.1-0.6,1.7-1.7,1.7H624
			c-1.1,0-1.7-0.6-1.7-1.7v-10.7c0-2.4-0.4-4.1-2.8-4.1c-3.5,0-5.3,3.6-5.3,7.2v7.6c0,1.1-0.6,1.7-1.7,1.7h-1.8
			c-1.1,0-1.7-0.6-1.7-1.7v-10.7c0-2.2-0.3-4.1-2.8-4.1c-3.7,0-5.4,3.7-5.4,7.2v7.6c0,1.1-0.6,1.7-1.7,1.7h-1.8
			c-1.1,0-1.7-0.6-1.7-1.7V1127.4z"/>
		<path class="st103" d="M632.3,1127.4c0-1.1,0.6-1.7,1.7-1.7h1.3c1.1,0,1.7,0.6,1.7,1.4v0.9c0,0.4,0,0.8,0,0.8h0.1
			c0,0,1.8-3.7,6.7-3.7c5.6,0,9.2,4.4,9.2,10.9c0,6.6-4.1,10.9-9.5,10.9c-4.3,0-6-3.2-6-3.2h-0.1c0,0,0.1,0.7,0.1,1.8v7.3
			c0,1.1-0.6,1.7-1.7,1.7H634c-1.1,0-1.7-0.6-1.7-1.7V1127.4z M642.4,1142.6c2.8,0,5.2-2.3,5.2-6.4c0-3.9-2.1-6.5-5.1-6.5
			c-2.7,0-5.2,2-5.2,6.5C637.3,1139.4,639.1,1142.6,642.4,1142.6z"/>
		<path class="st103" d="M656.8,1119.3c0-1.1,0.6-1.7,1.7-1.7h1.8c1.1,0,1.7,0.6,1.7,1.7v20.3c0,2,0.9,2.4,1.6,2.5
			c0.7,0.1,1.3,0.5,1.3,1.5v1.4c0,1.1-0.5,1.7-1.7,1.7c-2.8,0-6.3-0.7-6.3-6.7V1119.3z"/>
		<path class="st103" d="M677.4,1125.3c5.9,0,9.2,4.2,9.2,9.9c0,0.9-0.8,1.7-1.8,1.7h-12.6c0.3,3.7,3.1,5.7,6.2,5.7
			c1.9,0,3.5-0.7,4.5-1.3c1-0.5,1.7-0.4,2.3,0.6l0.5,0.8c0.5,0.9,0.3,1.7-0.6,2.3c-1.3,0.9-3.8,2.1-7,2.1c-6.9,0-11.1-5-11.1-10.9
			C666.9,1129.7,671.2,1125.3,677.4,1125.3z M681.5,1133.7c-0.1-2.9-1.8-4.6-4.2-4.6c-2.6,0-4.5,1.8-5,4.6H681.5z"/>
		<path class="st103" d="M691.5,1130.1h-1.1c-1.1,0-1.7-0.6-1.7-1.7v-0.7c0-1.1,0.6-1.7,1.7-1.7h1.2v-4.2c0-1.1,0.6-1.7,1.7-1.7h1.6
			c1.1,0,1.7,0.6,1.7,1.7v4.2h3c1.1,0,1.7,0.6,1.7,1.7v0.7c0,1.1-0.6,1.7-1.7,1.7h-3v8c0,3.1,1.9,3.7,3.3,3.9
			c1.3,0.1,1.7,0.5,1.7,1.7v1.3c0,1.2-0.7,1.7-2.1,1.7c-3.7,0-8.1-2-8.1-7.6V1130.1z"/>
		<path class="st103" d="M714.4,1125.3c5.9,0,9.2,4.2,9.2,9.9c0,0.9-0.8,1.7-1.8,1.7h-12.6c0.3,3.7,3.1,5.7,6.2,5.7
			c1.9,0,3.5-0.7,4.5-1.3c1-0.5,1.7-0.4,2.3,0.6l0.5,0.8c0.5,0.9,0.3,1.7-0.6,2.3c-1.3,0.9-3.8,2.1-7,2.1c-6.9,0-11.1-5-11.1-10.9
			C703.9,1129.7,708.2,1125.3,714.4,1125.3z M718.5,1133.7c-0.1-2.9-1.8-4.6-4.2-4.6c-2.6,0-4.5,1.8-5,4.6H718.5z"/>
	</g>
	<g>
		<path class="st103" d="M604,1165.9c4.8,0,8.2,1.8,9.4,2.6c0.9,0.7,1,1.4,0.4,2.4l-0.7,1.1c-0.6,0.9-1.3,1-2.4,0.4
			c-1.3-0.7-3.3-1.8-6.4-1.8c-6.3,0-9.8,4.6-9.8,10c0,6.1,4.3,10.2,9.6,10.2c4.8,0,7.3-3.2,7.3-3.2v-3.2h-2.8
			c-1.1,0-1.7-0.6-1.7-1.7v-1.1c0-1.1,0.6-1.7,1.7-1.7h5.8c1.1,0,1.7,0.6,1.7,1.7v11.8c0,1.1-0.6,1.7-1.7,1.7h-1
			c-1.1,0-1.7-0.6-1.7-1.4v-0.7c0-0.4,0-0.7,0-0.7h-0.1c0,0-2.9,3.3-8.5,3.3c-7.6,0-14.2-6-14.2-14.8
			C589.1,1172.3,595.4,1165.9,604,1165.9z"/>
		<path class="st103" d="M630.7,1174c6.3,0,11.4,4.5,11.4,10.9c0,6.4-5.1,10.9-11.4,10.9c-6.3,0-11.4-4.5-11.4-10.9
			C619.4,1178.5,624.4,1174,630.7,1174z M630.7,1191.3c3.4,0,6.2-2.6,6.2-6.5c0-3.8-2.8-6.5-6.2-6.5c-3.4,0-6.1,2.6-6.1,6.5
			C624.6,1188.7,627.4,1191.3,630.7,1191.3z"/>
		<path class="st103" d="M656.5,1182.4h0.9v-0.5c0-2.7-1.7-3.7-3.9-3.7c-1.7,0-3.3,0.7-4.3,1.2c-1,0.4-1.8,0.3-2.3-0.7l-0.4-0.8
			c-0.5-0.9-0.3-1.7,0.7-2.3c1.3-0.7,3.7-1.7,6.8-1.7c5.4,0,8.6,3,8.6,8.3v11.3c0,1.1-0.6,1.7-1.7,1.7h-1.4c-1.1,0-1.7-0.6-1.7-1.7
			v-0.8c0-0.6,0.1-0.9,0.1-0.9h-0.1c0,0-2,3.9-6.5,3.9c-3.8,0-6.9-2.4-6.9-6.2C644.4,1183.5,651.8,1182.4,656.5,1182.4z
			 M652.6,1191.8c2.9,0,4.8-2.9,4.8-5.4v-0.8h-0.9c-2.6,0-7,0.4-7,3.5C649.5,1190.4,650.5,1191.8,652.6,1191.8z"/>
		<path class="st103" d="M667.2,1168.1c0-1.1,0.6-1.7,1.7-1.7h1.8c1.1,0,1.7,0.6,1.7,1.7v20.3c0,2,0.9,2.4,1.6,2.5
			c0.7,0.1,1.3,0.5,1.3,1.5v1.4c0,1.1-0.5,1.7-1.7,1.7c-2.8,0-6.3-0.7-6.3-6.7V1168.1z"/>
	</g>
	<rect x="791.3" y="670.2" class="st77" width="328.1" height="131.8"/>
	<rect x="791.3" y="670.2" class="st108" width="328.1" height="131.8"/>
	<g>
		<path class="st103" d="M813.7,697.6c0-1.1,0.6-1.7,1.7-1.7h9.4c5.4,0,9.2,3.8,9.2,9.4c0,5.6-3.8,9.5-9.2,9.5h-5.9v8.3
			c0,1.1-0.6,1.7-1.7,1.7h-1.9c-1.1,0-1.7-0.6-1.7-1.7V697.6z M823.8,710.2c3.1,0,4.8-2,4.8-5c0-3-1.7-4.9-4.8-4.9h-5v9.8H823.8z"/>
		<path class="st103" d="M848,712h0.9v-0.5c0-2.7-1.7-3.7-3.9-3.7c-1.7,0-3.3,0.7-4.3,1.2c-1,0.4-1.8,0.3-2.3-0.7l-0.4-0.8
			c-0.5-0.9-0.3-1.7,0.7-2.3c1.3-0.7,3.7-1.7,6.8-1.7c5.4,0,8.6,3,8.6,8.3v11.3c0,1.1-0.6,1.7-1.7,1.7h-1.4c-1.1,0-1.7-0.6-1.7-1.7
			v-0.8c0-0.6,0.1-0.9,0.1-0.9h-0.1c0,0-2,3.9-6.5,3.9c-3.8,0-6.9-2.4-6.9-6.2C835.9,713,843.4,712,848,712z M844.1,721.3
			c2.9,0,4.8-2.9,4.8-5.4v-0.8H848c-2.6,0-7,0.4-7,3.5C841,720,842.1,721.3,844.1,721.3z"/>
		<path class="st103" d="M858.5,705.7c0-1.1,0.6-1.7,1.7-1.7h1.7c1.1,0,1.7,0.6,1.7,1.7v10.6c0,2.5,0.7,4.2,3.2,4.2
			c3.7,0,5.8-3.3,5.8-7v-7.8c0-1.1,0.6-1.7,1.7-1.7h1.7c1.1,0,1.7,0.6,1.7,1.7v17.3c0,1.1-0.6,1.7-1.7,1.7h-1.6
			c-1.1,0-1.7-0.6-1.7-1.7v-1.2c0-0.5,0.1-0.9,0.1-0.9h-0.1c-1,2.1-3.7,4.3-7.2,4.3c-4.4,0-7.2-2.2-7.2-7.9V705.7z"/>
		<path class="st103" d="M882.1,720.8l0.5-0.7c0.6-0.9,1.3-0.9,2.3-0.4c1,0.5,2.5,1.4,4.6,1.4c1.8,0,2.9-0.8,2.9-2.1
			c0-3.4-10.3-2.1-10.3-9.2c0-4.1,3.6-6.2,7.9-6.2c2.8,0,4.7,0.9,5.8,1.5c0.9,0.5,1.1,1.3,0.6,2.3l-0.4,0.7c-0.5,1-1.3,1.1-2.3,0.7
			c-0.9-0.4-2.2-1-3.9-1c-1.8,0-2.8,0.7-2.8,2c0,3.4,10.3,2.1,10.3,9.1c0,3.7-3.1,6.4-7.9,6.4c-3.3,0-5.7-1.3-6.9-2.1
			C881.5,722.6,881.4,721.7,882.1,720.8z"/>
		<path class="st103" d="M910.4,703.5c5.9,0,9.2,4.2,9.2,9.9c0,0.9-0.8,1.7-1.8,1.7h-12.6c0.3,3.7,3.1,5.7,6.2,5.7
			c1.9,0,3.5-0.7,4.5-1.3c1-0.5,1.7-0.4,2.3,0.6l0.5,0.8c0.5,0.9,0.3,1.7-0.6,2.3c-1.3,0.9-3.8,2.1-7,2.1c-6.9,0-11.1-5-11.1-10.9
			C899.9,708,904.2,703.5,910.4,703.5z M914.5,712c-0.1-2.9-1.8-4.6-4.2-4.6c-2.6,0-4.5,1.8-5,4.6H914.5z"/>
		<path class="st103" d="M931.5,695.8c0.3-0.9,0.9-1.4,2-1.4h0.9c1.2,0,1.8,0.7,1.4,1.9l-9.3,28.7c-0.3,0.9-0.9,1.4-1.9,1.4h-0.9
			c-1.2,0-1.8-0.7-1.4-1.9L931.5,695.8z"/>
		<path class="st103" d="M940.3,697.6c0-1.1,0.6-1.7,1.7-1.7h1.8c1.1,0,1.7,0.6,1.7,1.7v16.7c0,3.9,2.5,6.1,6.4,6.1
			c3.9,0,6.4-2.2,6.4-6.1v-16.7c0-1.1,0.6-1.7,1.7-1.7h1.9c1.1,0,1.7,0.6,1.7,1.7v16.8c0,6.5-4.6,10.9-11.6,10.9
			c-7,0-11.6-4.4-11.6-10.9V697.6z"/>
		<path class="st103" d="M969,705.7c0-1.1,0.6-1.7,1.7-1.7h1.6c1.1,0,1.7,0.6,1.7,1.7v1.3c0,0.4-0.1,0.9-0.1,0.9h0.1
			c0.9-1.7,3.2-4.4,7.4-4.4c4.6,0,7.2,2.4,7.2,7.9v11.6c0,1.1-0.6,1.7-1.7,1.7h-1.7c-1.1,0-1.7-0.6-1.7-1.7v-10.6
			c0-2.5-0.7-4.2-3.3-4.2c-3.7,0-6,3-6,6.8v8c0,1.1-0.6,1.7-1.7,1.7h-1.8c-1.1,0-1.7-0.6-1.7-1.7V705.7z"/>
		<path class="st103" d="M993.4,705.7c0-1.1,0.6-1.7,1.7-1.7h1.3c1.1,0,1.7,0.6,1.7,1.4v0.9c0,0.4,0,0.8,0,0.8h0.1
			c0,0,1.8-3.7,6.7-3.7c5.6,0,9.2,4.4,9.2,10.9c0,6.6-4.1,10.9-9.5,10.9c-4.3,0-6-3.2-6-3.2h-0.1c0,0,0.1,0.7,0.1,1.8v7.3
			c0,1.1-0.6,1.7-1.7,1.7h-1.7c-1.1,0-1.7-0.6-1.7-1.7V705.7z M1003.6,720.9c2.8,0,5.2-2.3,5.2-6.4c0-3.9-2.1-6.5-5.1-6.5
			c-2.7,0-5.2,2-5.2,6.5C998.4,717.7,1000.2,720.9,1003.6,720.9z"/>
		<path class="st103" d="M1028.4,712h0.9v-0.5c0-2.7-1.7-3.7-3.9-3.7c-1.7,0-3.3,0.7-4.3,1.2c-1,0.4-1.8,0.3-2.3-0.7l-0.4-0.8
			c-0.5-0.9-0.3-1.7,0.7-2.3c1.3-0.7,3.7-1.7,6.8-1.7c5.4,0,8.6,3,8.6,8.3v11.3c0,1.1-0.6,1.7-1.7,1.7h-1.4c-1.1,0-1.7-0.6-1.7-1.7
			v-0.8c0-0.6,0.1-0.9,0.1-0.9h-0.1c0,0-2,3.9-6.5,3.9c-3.8,0-6.9-2.4-6.9-6.2C1016.3,713,1023.8,712,1028.4,712z M1024.6,721.3
			c2.9,0,4.8-2.9,4.8-5.4v-0.8h-0.9c-2.6,0-7,0.4-7,3.5C1021.4,720,1022.5,721.3,1024.6,721.3z"/>
		<path class="st103" d="M1039,705.7c0-1.1,0.6-1.7,1.7-1.7h1.7c1.1,0,1.7,0.6,1.7,1.7v10.6c0,2.5,0.7,4.2,3.2,4.2
			c3.7,0,5.8-3.3,5.8-7v-7.8c0-1.1,0.6-1.7,1.7-1.7h1.7c1.1,0,1.7,0.6,1.7,1.7v17.3c0,1.1-0.6,1.7-1.7,1.7h-1.6
			c-1.1,0-1.7-0.6-1.7-1.7v-1.2c0-0.5,0.1-0.9,0.1-0.9h-0.1c-1,2.1-3.7,4.3-7.2,4.3c-4.4,0-7.2-2.2-7.2-7.9V705.7z"/>
		<path class="st103" d="M1062.5,720.8l0.5-0.7c0.6-0.9,1.3-0.9,2.3-0.4c1,0.5,2.5,1.4,4.6,1.4c1.8,0,2.9-0.8,2.9-2.1
			c0-3.4-10.3-2.1-10.3-9.2c0-4.1,3.6-6.2,7.9-6.2c2.8,0,4.7,0.9,5.8,1.5c0.9,0.5,1.1,1.3,0.6,2.3l-0.4,0.7c-0.5,1-1.3,1.1-2.3,0.7
			c-0.9-0.4-2.2-1-3.9-1c-1.8,0-2.8,0.7-2.8,2c0,3.4,10.3,2.1,10.3,9.1c0,3.7-3.1,6.4-7.9,6.4c-3.3,0-5.7-1.3-6.9-2.1
			C1062,722.6,1061.9,721.7,1062.5,720.8z"/>
		<path class="st103" d="M1090.8,703.5c5.9,0,9.2,4.2,9.2,9.9c0,0.9-0.8,1.7-1.8,1.7h-12.6c0.3,3.7,3.1,5.7,6.2,5.7
			c1.9,0,3.5-0.7,4.5-1.3c1-0.5,1.7-0.4,2.3,0.6l0.5,0.8c0.5,0.9,0.3,1.7-0.6,2.3c-1.3,0.9-3.8,2.1-7,2.1c-6.9,0-11.1-5-11.1-10.9
			C1080.3,708,1084.6,703.5,1090.8,703.5z M1094.9,712c-0.1-2.9-1.8-4.6-4.2-4.6c-2.6,0-4.5,1.8-5,4.6H1094.9z"/>
	</g>
	<g>
		<path class="st103" d="M910.8,749.2h-7.8c-1.1,0-1.7-0.6-1.7-1.7v-1.1c0-1.1,0.6-1.7,1.7-1.7h20.7c1.1,0,1.7,0.6,1.7,1.7v1.1
			c0,1.1-0.6,1.7-1.7,1.7H916v22.6c0,1.1-0.6,1.7-1.7,1.7h-1.8c-1.1,0-1.7-0.6-1.7-1.7V749.2z"/>
		<path class="st103" d="M928.3,747.6v-1.2c0-1.1,0.6-1.7,1.7-1.7h1.8c1.1,0,1.7,0.6,1.7,1.7v1.2c0,1.1-0.6,1.7-1.7,1.7h-1.8
			C928.8,749.3,928.3,748.7,928.3,747.6z M928.3,754.5c0-1.1,0.6-1.7,1.7-1.7h1.8c1.1,0,1.7,0.6,1.7,1.7v17.3c0,1.1-0.6,1.7-1.7,1.7
			h-1.8c-1.1,0-1.7-0.6-1.7-1.7V754.5z"/>
		<path class="st103" d="M938.5,754.5c0-1.1,0.6-1.7,1.7-1.7h1.6c1.1,0,1.7,0.6,1.7,1.7v1.3c0,0.4-0.1,0.9-0.1,0.9h0.1
			c1-2,3.5-4.4,6.8-4.4c3.1,0,5.2,1.5,6.1,4.3h0.1c1.1-2.2,3.8-4.3,7.1-4.3c4.3,0,6.8,2.4,6.8,7.9v11.6c0,1.1-0.6,1.7-1.7,1.7h-1.7
			c-1.1,0-1.7-0.6-1.7-1.7v-10.7c0-2.4-0.4-4.1-2.8-4.1c-3.5,0-5.3,3.6-5.3,7.2v7.6c0,1.1-0.6,1.7-1.7,1.7h-1.8
			c-1.1,0-1.7-0.6-1.7-1.7v-10.7c0-2.2-0.3-4.1-2.8-4.1c-3.7,0-5.4,3.7-5.4,7.2v7.6c0,1.1-0.6,1.7-1.7,1.7h-1.8
			c-1.1,0-1.7-0.6-1.7-1.7V754.5z"/>
		<path class="st103" d="M984.3,752.3c5.9,0,9.2,4.2,9.2,9.9c0,0.9-0.8,1.7-1.8,1.7H979c0.3,3.7,3.1,5.7,6.2,5.7
			c1.9,0,3.5-0.7,4.5-1.3c1-0.5,1.7-0.4,2.3,0.6l0.5,0.8c0.5,0.9,0.3,1.7-0.6,2.3c-1.3,0.9-3.8,2.1-7,2.1c-6.9,0-11.1-5-11.1-10.9
			C973.8,756.8,978.1,752.3,984.3,752.3z M988.3,760.8c-0.1-2.9-1.8-4.6-4.2-4.6c-2.6,0-4.5,1.8-5,4.6H988.3z"/>
	</g>
	<g>
		<path class="st103" d="M997,754.5c0-1.1,0.6-1.7,1.7-1.7h1.6c1.1,0,1.7,0.6,1.7,1.7v2c0,0.8-0.1,1.4-0.1,1.4h0.1
			c0.8-2.5,3.1-5.2,6-5.2c1.1,0,1.5,0.6,1.5,1.7v1.6c0,1.1-0.7,1.7-1.7,1.7c-3.8,0-5.6,3.7-5.6,7.5v6.7c0,1.1-0.6,1.7-1.7,1.7h-1.8
			c-1.1,0-1.7-0.6-1.7-1.7V754.5z"/>
	</g>
	<rect x="1149.9" y="670.2" class="st77" width="328.1" height="131.8"/>
	<rect x="1149.9" y="670.2" class="st108" width="328.1" height="131.8"/>
	<rect x="911.4" y="1231.3" class="st77" width="328.1" height="131.8"/>
	<rect x="911.4" y="1231.3" class="st108" width="328.1" height="131.8"/>
	<g>
		<path class="st103" d="M1223.3,725.3h-7.8c-1.1,0-1.7-0.6-1.7-1.7v-1.1c0-1.1,0.6-1.7,1.7-1.7h20.7c1.1,0,1.7,0.6,1.7,1.7v1.1
			c0,1.1-0.6,1.7-1.7,1.7h-7.8v22.6c0,1.1-0.6,1.7-1.7,1.7h-1.8c-1.1,0-1.7-0.6-1.7-1.7V725.3z"/>
		<path class="st103" d="M1251.2,736.8h0.9v-0.5c0-2.7-1.7-3.7-3.9-3.7c-1.7,0-3.3,0.7-4.3,1.2c-1,0.4-1.8,0.3-2.3-0.7l-0.4-0.8
			c-0.5-0.9-0.3-1.7,0.7-2.3c1.3-0.7,3.7-1.7,6.8-1.7c5.4,0,8.6,3,8.6,8.3v11.3c0,1.1-0.6,1.7-1.7,1.7h-1.4c-1.1,0-1.7-0.6-1.7-1.7
			v-0.8c0-0.6,0.1-0.9,0.1-0.9h-0.1c0,0-2,3.9-6.5,3.9c-3.8,0-6.9-2.4-6.9-6.2C1239.1,737.8,1246.6,736.8,1251.2,736.8z
			 M1247.4,746.1c2.9,0,4.8-2.9,4.8-5.4v-0.8h-0.9c-2.6,0-7,0.4-7,3.5C1244.2,744.8,1245.3,746.1,1247.4,746.1z"/>
	</g>
	<g>
		<path class="st103" d="M1259,722.4c0-1.1,0.6-1.7,1.7-1.7h1.7c1.1,0,1.7,0.6,1.7,1.7v13.7h2.6l4.3-6.2c0.5-0.8,1.1-1.1,2-1.1h2
			c1.4,0,1.8,0.9,1.1,2l-5.2,7.2v0.1l6.1,9.3c0.7,1.2,0.2,2-1.1,2h-2.2c-0.9,0-1.5-0.4-2-1.2l-4.8-7.9h-2.7v7.4
			c0,1.1-0.6,1.7-1.7,1.7h-1.7c-1.1,0-1.7-0.6-1.7-1.7V722.4z"/>
		<path class="st103" d="M1289.9,728.4c5.9,0,9.2,4.2,9.2,9.9c0,0.9-0.8,1.7-1.8,1.7h-12.6c0.3,3.7,3.1,5.7,6.2,5.7
			c1.9,0,3.5-0.7,4.5-1.3c1-0.5,1.7-0.4,2.3,0.6l0.5,0.8c0.5,0.9,0.3,1.7-0.6,2.3c-1.3,0.9-3.8,2.1-7,2.1c-6.9,0-11.1-5-11.1-10.9
			C1279.4,732.9,1283.7,728.4,1289.9,728.4z M1294,736.9c-0.1-2.9-1.8-4.6-4.2-4.6c-2.6,0-4.5,1.8-5,4.6H1294z"/>
		<path class="st103" d="M1313.7,722.4c0-1.1,0.6-1.7,1.7-1.7h8.6c5.2,0,8.9,2.7,8.9,7.4c0,2.7-1.3,5-3.5,6.2v0.1
			c3.1,0.9,4.6,3.9,4.6,6.8c0,5.8-4.6,8.4-10,8.4h-8.7c-1.1,0-1.7-0.6-1.7-1.7V722.4z M1324.1,732.5c2.3,0,3.5-1.6,3.5-3.7
			s-1.2-3.6-3.7-3.6h-5v7.3H1324.1z M1324.6,745.1c2.7,0,4.2-1.7,4.2-4.2c0-2.4-1.5-4.1-4.2-4.1h-5.6v8.3H1324.6z"/>
		<path class="st103" d="M1338.3,730.6c0-1.1,0.6-1.7,1.7-1.7h1.6c1.1,0,1.7,0.6,1.7,1.7v2c0,0.8-0.1,1.4-0.1,1.4h0.1
			c0.8-2.5,3.1-5.2,6-5.2c1.1,0,1.5,0.6,1.5,1.7v1.6c0,1.1-0.7,1.7-1.7,1.7c-3.8,0-5.6,3.7-5.6,7.5v6.7c0,1.1-0.6,1.7-1.7,1.7h-1.8
			c-1.1,0-1.7-0.6-1.7-1.7V730.6z"/>
		<path class="st103" d="M1362.8,728.4c5.9,0,9.2,4.2,9.2,9.9c0,0.9-0.8,1.7-1.8,1.7h-12.6c0.3,3.7,3.1,5.7,6.2,5.7
			c1.9,0,3.5-0.7,4.5-1.3c1-0.5,1.7-0.4,2.3,0.6l0.5,0.8c0.5,0.9,0.3,1.7-0.6,2.3c-1.3,0.9-3.8,2.1-7,2.1c-6.9,0-11.1-5-11.1-10.9
			C1352.3,732.9,1356.6,728.4,1362.8,728.4z M1366.9,736.9c-0.1-2.9-1.8-4.6-4.2-4.6c-2.6,0-4.5,1.8-5,4.6H1366.9z"/>
		<path class="st103" d="M1386.3,736.8h0.9v-0.5c0-2.7-1.7-3.7-3.9-3.7c-1.7,0-3.3,0.7-4.3,1.2c-1,0.4-1.8,0.3-2.3-0.7l-0.4-0.8
			c-0.5-0.9-0.3-1.7,0.7-2.3c1.3-0.7,3.7-1.7,6.8-1.7c5.4,0,8.6,3,8.6,8.3v11.3c0,1.1-0.6,1.7-1.7,1.7h-1.4c-1.1,0-1.7-0.6-1.7-1.7
			v-0.8c0-0.6,0.1-0.9,0.1-0.9h-0.1c0,0-2,3.9-6.5,3.9c-3.8,0-6.9-2.4-6.9-6.2C1374.2,737.8,1381.7,736.8,1386.3,736.8z
			 M1382.4,746.1c2.9,0,4.8-2.9,4.8-5.4v-0.8h-0.9c-2.6,0-7,0.4-7,3.5C1379.3,744.8,1380.4,746.1,1382.4,746.1z"/>
		<path class="st103" d="M1397.1,722.4c0-1.1,0.6-1.7,1.7-1.7h1.7c1.1,0,1.7,0.6,1.7,1.7v13.7h2.6l4.3-6.2c0.5-0.8,1.1-1.1,2-1.1h2
			c1.4,0,1.8,0.9,1.1,2l-5.2,7.2v0.1l6.1,9.3c0.7,1.2,0.2,2-1.1,2h-2.2c-0.9,0-1.5-0.4-2-1.2l-4.8-7.9h-2.7v7.4
			c0,1.1-0.6,1.7-1.7,1.7h-1.7c-1.1,0-1.7-0.6-1.7-1.7V722.4z"/>
	</g>
	<g>
		<path class="st103" d="M938.8,1282.4c0-1.1,0.6-1.7,1.7-1.7h7.8c2.8,0,4.3,0.2,5.5,0.8c2.9,1.2,4.8,4,4.8,7.9
			c0,3.4-1.8,6.7-4.8,7.9v0.1c0,0,0.4,0.4,0.9,1.5l4.8,8.7c0.7,1.2,0.2,2-1.2,2h-2.2c-0.9,0-1.5-0.4-2-1.2l-5.1-9.6h-5v9.1
			c0,1.1-0.6,1.7-1.7,1.7h-1.9c-1.1,0-1.7-0.6-1.7-1.7V1282.4z M948.7,1294.3c2.8,0,4.6-1.7,4.6-4.6c0-1.8-0.7-3.3-2.3-3.9
			c-0.7-0.3-1.6-0.5-3.1-0.5H944v9H948.7z"/>
		<path class="st103" d="M972.7,1288.4c5.9,0,9.2,4.2,9.2,9.9c0,0.9-0.8,1.7-1.8,1.7h-12.6c0.3,3.7,3.1,5.7,6.2,5.7
			c1.9,0,3.5-0.7,4.5-1.3c1-0.5,1.7-0.4,2.3,0.6l0.5,0.8c0.5,0.9,0.3,1.7-0.6,2.3c-1.3,0.9-3.8,2.1-7,2.1c-6.9,0-11.1-5-11.1-10.9
			C962.2,1292.8,966.5,1288.4,972.7,1288.4z M976.8,1296.9c-0.1-2.9-1.8-4.6-4.2-4.6c-2.6,0-4.5,1.8-5,4.6H976.8z"/>
		<path class="st103" d="M986.8,1293.2h-1.1c-1.1,0-1.7-0.6-1.7-1.7v-0.7c0-1.1,0.6-1.7,1.7-1.7h1.2v-4.2c0-1.1,0.6-1.7,1.7-1.7h1.6
			c1.1,0,1.7,0.6,1.7,1.7v4.2h3c1.1,0,1.7,0.6,1.7,1.7v0.7c0,1.1-0.6,1.7-1.7,1.7h-3v8c0,3.1,1.9,3.7,3.3,3.9
			c1.3,0.1,1.7,0.5,1.7,1.7v1.3c0,1.2-0.7,1.7-2.1,1.7c-3.7,0-8.1-2-8.1-7.6V1293.2z"/>
		<path class="st103" d="M1000.2,1290.6c0-1.1,0.6-1.7,1.7-1.7h1.7c1.1,0,1.7,0.6,1.7,1.7v10.6c0,2.5,0.7,4.2,3.2,4.2
			c3.7,0,5.8-3.3,5.8-7v-7.8c0-1.1,0.6-1.7,1.7-1.7h1.7c1.1,0,1.7,0.6,1.7,1.7v17.3c0,1.1-0.6,1.7-1.7,1.7h-1.6
			c-1.1,0-1.7-0.6-1.7-1.7v-1.2c0-0.5,0.1-0.9,0.1-0.9h-0.1c-1,2.1-3.7,4.3-7.2,4.3c-4.4,0-7.2-2.2-7.2-7.9V1290.6z"/>
		<path class="st103" d="M1024.6,1290.6c0-1.1,0.6-1.7,1.7-1.7h1.6c1.1,0,1.7,0.6,1.7,1.7v2c0,0.8-0.1,1.4-0.1,1.4h0.1
			c0.8-2.5,3.1-5.2,6-5.2c1.1,0,1.5,0.6,1.5,1.7v1.6c0,1.1-0.7,1.7-1.7,1.7c-3.8,0-5.6,3.7-5.6,7.5v6.7c0,1.1-0.6,1.7-1.7,1.7h-1.8
			c-1.1,0-1.7-0.6-1.7-1.7V1290.6z"/>
		<path class="st103" d="M1039.8,1290.6c0-1.1,0.6-1.7,1.7-1.7h1.6c1.1,0,1.7,0.6,1.7,1.7v1.3c0,0.4-0.1,0.9-0.1,0.9h0.1
			c0.9-1.7,3.2-4.4,7.4-4.4c4.6,0,7.2,2.4,7.2,7.9v11.6c0,1.1-0.6,1.7-1.7,1.7h-1.7c-1.1,0-1.7-0.6-1.7-1.7v-10.6
			c0-2.5-0.7-4.2-3.3-4.2c-3.7,0-6,3-6,6.8v8c0,1.1-0.6,1.7-1.7,1.7h-1.8c-1.1,0-1.7-0.6-1.7-1.7V1290.6z"/>
		<path class="st103" d="M1075.5,1293.2h-1.1c-1.1,0-1.7-0.6-1.7-1.7v-0.7c0-1.1,0.6-1.7,1.7-1.7h1.2v-4.2c0-1.1,0.6-1.7,1.7-1.7
			h1.6c1.1,0,1.7,0.6,1.7,1.7v4.2h3c1.1,0,1.7,0.6,1.7,1.7v0.7c0,1.1-0.6,1.7-1.7,1.7h-3v8c0,3.1,1.9,3.7,3.3,3.9
			c1.3,0.1,1.7,0.5,1.7,1.7v1.3c0,1.2-0.7,1.7-2.1,1.7c-3.7,0-8.1-2-8.1-7.6V1293.2z"/>
		<path class="st103" d="M1099.2,1288.4c6.3,0,11.4,4.5,11.4,10.9c0,6.4-5.1,10.9-11.4,10.9c-6.3,0-11.4-4.5-11.4-10.9
			C1087.8,1292.9,1092.9,1288.4,1099.2,1288.4z M1099.2,1305.7c3.4,0,6.2-2.6,6.2-6.5c0-3.8-2.8-6.5-6.2-6.5s-6.1,2.6-6.1,6.5
			C1093.1,1303.1,1095.8,1305.7,1099.2,1305.7z"/>
		<path class="st103" d="M1122.9,1290.8c-0.3-1.1,0.2-1.9,1.4-1.9h2c1,0,1.6,0.5,1.8,1.5l3.3,12.1c0.2,1.1,0.4,2.2,0.4,2.2h0.1
			c0,0,0.2-1.1,0.4-2.2l3.5-12.1c0.2-1,0.9-1.5,1.9-1.5h1.5c1,0,1.6,0.5,1.9,1.5l3.5,12.1c0.3,1.1,0.4,2.2,0.4,2.2h0.1
			c0,0,0.2-1.1,0.4-2.2l3.3-12.1c0.2-1,0.9-1.5,1.9-1.5h1.9c1.2,0,1.7,0.8,1.4,1.9l-5.3,17.4c-0.3,1-0.9,1.4-1.9,1.4h-2.7
			c-1,0-1.7-0.5-1.9-1.5l-3.1-10.4c-0.3-1.1-0.5-2.2-0.5-2.2h-0.1c0,0-0.2,1.1-0.5,2.2l-3.1,10.4c-0.2,1-0.9,1.5-1.9,1.5h-2.8
			c-1,0-1.6-0.4-1.9-1.4L1122.9,1290.8z"/>
		<path class="st103" d="M1167.6,1288.4c6.3,0,11.4,4.5,11.4,10.9c0,6.4-5.1,10.9-11.4,10.9s-11.4-4.5-11.4-10.9
			C1156.2,1292.9,1161.3,1288.4,1167.6,1288.4z M1167.6,1305.7c3.4,0,6.2-2.6,6.2-6.5c0-3.8-2.8-6.5-6.2-6.5c-3.4,0-6.1,2.6-6.1,6.5
			C1161.4,1303.1,1164.2,1305.7,1167.6,1305.7z"/>
		<path class="st103" d="M1182.8,1290.6c0-1.1,0.6-1.7,1.7-1.7h1.6c1.1,0,1.7,0.6,1.7,1.7v2c0,0.8-0.1,1.4-0.1,1.4h0.1
			c0.8-2.5,3.1-5.2,6-5.2c1.1,0,1.5,0.6,1.5,1.7v1.6c0,1.1-0.7,1.7-1.7,1.7c-3.8,0-5.6,3.7-5.6,7.5v6.7c0,1.1-0.6,1.7-1.7,1.7h-1.8
			c-1.1,0-1.7-0.6-1.7-1.7V1290.6z"/>
	</g>
	<g>
		<path class="st103" d="M1197.2,1282.4c0-1.1,0.6-1.7,1.7-1.7h1.7c1.1,0,1.7,0.6,1.7,1.7v13.7h2.6l4.3-6.2c0.5-0.8,1.1-1.1,2-1.1h2
			c1.4,0,1.8,0.9,1.1,2l-5.2,7.2v0.1l6.1,9.3c0.7,1.2,0.2,2-1.1,2h-2.2c-0.9,0-1.5-0.4-2-1.2l-4.8-7.9h-2.7v7.4
			c0,1.1-0.6,1.7-1.7,1.7h-1.7c-1.1,0-1.7-0.6-1.7-1.7V1282.4z"/>
	</g>
	<rect x="1391.1" y="1231.3" class="st77" width="328.1" height="131.8"/>
	<rect x="1391.1" y="1231.3" class="st108" width="328.1" height="131.8"/>
	<g>
		<path class="st103" d="M1454.1,1282.4c0-1.1,0.6-1.7,1.7-1.7h1.9c1.1,0,1.7,0.6,1.7,1.7v22.6h10.8c1.1,0,1.7,0.6,1.7,1.7v1.1
			c0,1.1-0.6,1.7-1.7,1.7h-14.3c-1.1,0-1.7-0.6-1.7-1.7V1282.4z"/>
	</g>
	<g>
		<path class="st103" d="M1484,1288.4c6.3,0,11.4,4.5,11.4,10.9c0,6.4-5.1,10.9-11.4,10.9c-6.3,0-11.4-4.5-11.4-10.9
			C1472.6,1292.9,1477.7,1288.4,1484,1288.4z M1484,1305.7c3.4,0,6.2-2.6,6.2-6.5c0-3.8-2.8-6.5-6.2-6.5s-6.1,2.6-6.1,6.5
			C1477.8,1303.1,1480.6,1305.7,1484,1305.7z"/>
		<path class="st103" d="M1499.2,1290.6c0-1.1,0.6-1.7,1.7-1.7h1.6c1.1,0,1.7,0.6,1.7,1.7v1.3c0,0.4-0.1,0.9-0.1,0.9h0.1
			c0.9-1.7,3.2-4.4,7.4-4.4c4.6,0,7.2,2.4,7.2,7.9v11.6c0,1.1-0.6,1.7-1.7,1.7h-1.7c-1.1,0-1.7-0.6-1.7-1.7v-10.6
			c0-2.5-0.7-4.2-3.3-4.2c-3.7,0-6,3-6,6.8v8c0,1.1-0.6,1.7-1.7,1.7h-1.8c-1.1,0-1.7-0.6-1.7-1.7V1290.6z"/>
		<path class="st103" d="M1527.4,1313c1,0.4,2.3,0.8,4.2,0.8c3.2,0,5.9-1.3,5.9-5v-1.5c0-0.5,0.1-1.1,0.1-1.1h-0.1
			c-1.1,2-2.9,3.1-5.7,3.1c-6.1,0-9.4-4.8-9.4-10.5c0-5.7,3.2-10.3,9.3-10.3c4.8,0,6.1,3.2,6.1,3.2h0.1c0,0,0-0.2,0-0.5v-0.8
			c0-0.8,0.6-1.4,1.7-1.4h1.4c1.1,0,1.7,0.6,1.7,1.7v17.8c0,7.1-5.6,9.8-10.7,9.8c-2.3,0-4.6-0.5-6.1-1.1c-1.1-0.4-1.3-1.1-0.9-2.2
			l0.3-0.9C1525.7,1312.9,1526.3,1312.6,1527.4,1313z M1537.5,1298.8c0-4.8-2.4-6-5-6c-3.2,0-5,2.3-5,5.7c0,3.7,1.9,6.4,5.2,6.4
			C1535.2,1304.8,1537.5,1303.4,1537.5,1298.8z"/>
		<path class="st103" d="M1558.6,1282.4c0-1.1,0.6-1.7,1.7-1.7h8.6c5.2,0,8.9,2.7,8.9,7.4c0,2.7-1.3,5-3.5,6.2v0.1
			c3.1,0.9,4.6,3.9,4.6,6.8c0,5.8-4.6,8.4-10,8.4h-8.7c-1.1,0-1.7-0.6-1.7-1.7V1282.4z M1568.9,1292.5c2.3,0,3.5-1.6,3.5-3.7
			s-1.2-3.6-3.7-3.6h-5v7.3H1568.9z M1569.4,1305.1c2.7,0,4.2-1.7,4.2-4.2c0-2.4-1.5-4.1-4.2-4.1h-5.6v8.3H1569.4z"/>
		<path class="st103" d="M1583.2,1290.6c0-1.1,0.6-1.7,1.7-1.7h1.6c1.1,0,1.7,0.6,1.7,1.7v2c0,0.8-0.1,1.4-0.1,1.4h0.1
			c0.8-2.5,3.1-5.2,6-5.2c1.1,0,1.5,0.6,1.5,1.7v1.6c0,1.1-0.7,1.7-1.7,1.7c-3.8,0-5.6,3.7-5.6,7.5v6.7c0,1.1-0.6,1.7-1.7,1.7h-1.8
			c-1.1,0-1.7-0.6-1.7-1.7V1290.6z"/>
	</g>
	<g>
		<path class="st103" d="M1606.9,1288.4c5.9,0,9.2,4.2,9.2,9.9c0,0.9-0.8,1.7-1.8,1.7h-12.6c0.3,3.7,3.1,5.7,6.2,5.7
			c1.9,0,3.5-0.7,4.5-1.3c1-0.5,1.7-0.4,2.3,0.6l0.5,0.8c0.5,0.9,0.3,1.7-0.6,2.3c-1.3,0.9-3.8,2.1-7,2.1c-6.9,0-11.1-5-11.1-10.9
			C1596.4,1292.9,1600.7,1288.4,1606.9,1288.4z M1611,1296.9c-0.1-2.9-1.8-4.6-4.2-4.6c-2.6,0-4.5,1.8-5,4.6H1611z"/>
		<path class="st103" d="M1630.4,1296.8h0.9v-0.5c0-2.7-1.7-3.7-3.9-3.7c-1.7,0-3.3,0.7-4.3,1.2c-1,0.4-1.8,0.3-2.3-0.7l-0.4-0.8
			c-0.5-0.9-0.3-1.7,0.7-2.3c1.3-0.7,3.7-1.7,6.8-1.7c5.4,0,8.6,3,8.6,8.3v11.3c0,1.1-0.6,1.7-1.7,1.7h-1.4c-1.1,0-1.7-0.6-1.7-1.7
			v-0.8c0-0.6,0.1-0.9,0.1-0.9h-0.1c0,0-2,3.9-6.5,3.9c-3.8,0-6.9-2.4-6.9-6.2C1618.3,1297.8,1625.7,1296.8,1630.4,1296.8z
			 M1626.5,1306.1c2.9,0,4.8-2.9,4.8-5.4v-0.8h-0.9c-2.6,0-7,0.4-7,3.5C1623.4,1304.8,1624.4,1306.1,1626.5,1306.1z"/>
		<path class="st103" d="M1641.2,1282.4c0-1.1,0.6-1.7,1.7-1.7h1.7c1.1,0,1.7,0.6,1.7,1.7v13.7h2.6l4.3-6.2c0.5-0.8,1.1-1.1,2-1.1h2
			c1.4,0,1.8,0.9,1.1,2l-5.2,7.2v0.1l6.1,9.3c0.7,1.2,0.2,2-1.1,2h-2.2c-0.9,0-1.5-0.4-2-1.2l-4.8-7.9h-2.7v7.4
			c0,1.1-0.6,1.7-1.7,1.7h-1.7c-1.1,0-1.7-0.6-1.7-1.7V1282.4z"/>
	</g>
	<rect x="1391.1" y="1423.3" class="st77" width="328.1" height="131.8"/>
	<rect x="1391.1" y="1423.3" class="st108" width="328.1" height="131.8"/>
	<g>
		<path class="st103" d="M1418.4,1474.4c0-1.1,0.6-1.7,1.7-1.7h7.8c2.8,0,4.3,0.2,5.5,0.8c2.9,1.2,4.8,4,4.8,7.9
			c0,3.4-1.8,6.7-4.8,7.9v0.1c0,0,0.4,0.4,0.9,1.5l4.8,8.7c0.7,1.2,0.2,2-1.2,2h-2.2c-0.9,0-1.5-0.4-2-1.2l-5.1-9.6h-5v9.1
			c0,1.1-0.6,1.7-1.7,1.7h-1.9c-1.1,0-1.7-0.6-1.7-1.7V1474.4z M1428.4,1486.2c2.8,0,4.6-1.7,4.6-4.6c0-1.8-0.7-3.3-2.3-3.9
			c-0.7-0.3-1.6-0.5-3.1-0.5h-3.9v9H1428.4z"/>
		<path class="st103" d="M1452.4,1480.3c5.9,0,9.2,4.2,9.2,9.9c0,0.9-0.8,1.7-1.8,1.7h-12.6c0.3,3.7,3.1,5.7,6.2,5.7
			c1.9,0,3.5-0.7,4.5-1.3c1-0.5,1.7-0.4,2.3,0.6l0.5,0.8c0.5,0.9,0.3,1.7-0.6,2.3c-1.3,0.9-3.8,2.1-7,2.1c-6.9,0-11.1-5-11.1-10.9
			C1441.8,1484.8,1446.2,1480.3,1452.4,1480.3z M1456.4,1488.8c-0.1-2.9-1.8-4.6-4.2-4.6c-2.6,0-4.5,1.8-5,4.6H1456.4z"/>
		<path class="st103" d="M1466.4,1485.2h-1.1c-1.1,0-1.7-0.6-1.7-1.7v-0.7c0-1.1,0.6-1.7,1.7-1.7h1.2v-4.2c0-1.1,0.6-1.7,1.7-1.7
			h1.6c1.1,0,1.7,0.6,1.7,1.7v4.2h3c1.1,0,1.7,0.6,1.7,1.7v0.7c0,1.1-0.6,1.7-1.7,1.7h-3v8c0,3.1,1.9,3.7,3.3,3.9
			c1.3,0.1,1.7,0.5,1.7,1.7v1.3c0,1.2-0.7,1.7-2.1,1.7c-3.7,0-8.1-2-8.1-7.6V1485.2z"/>
		<path class="st103" d="M1479.8,1482.5c0-1.1,0.6-1.7,1.7-1.7h1.7c1.1,0,1.7,0.6,1.7,1.7v10.6c0,2.5,0.7,4.2,3.2,4.2
			c3.7,0,5.8-3.3,5.8-7v-7.8c0-1.1,0.6-1.7,1.7-1.7h1.7c1.1,0,1.7,0.6,1.7,1.7v17.3c0,1.1-0.6,1.7-1.7,1.7h-1.6
			c-1.1,0-1.7-0.6-1.7-1.7v-1.2c0-0.5,0.1-0.9,0.1-0.9h-0.1c-1,2.1-3.7,4.3-7.2,4.3c-4.4,0-7.2-2.2-7.2-7.9V1482.5z"/>
		<path class="st103" d="M1504.2,1482.5c0-1.1,0.6-1.7,1.7-1.7h1.6c1.1,0,1.7,0.6,1.7,1.7v2c0,0.8-0.1,1.4-0.1,1.4h0.1
			c0.8-2.5,3.1-5.2,6-5.2c1.1,0,1.5,0.6,1.5,1.7v1.6c0,1.1-0.7,1.7-1.7,1.7c-3.8,0-5.6,3.7-5.6,7.5v6.7c0,1.1-0.6,1.7-1.7,1.7h-1.8
			c-1.1,0-1.7-0.6-1.7-1.7V1482.5z"/>
		<path class="st103" d="M1519.5,1482.5c0-1.1,0.6-1.7,1.7-1.7h1.6c1.1,0,1.7,0.6,1.7,1.7v1.3c0,0.4-0.1,0.9-0.1,0.9h0.1
			c0.9-1.7,3.2-4.4,7.4-4.4c4.6,0,7.2,2.4,7.2,7.9v11.6c0,1.1-0.6,1.7-1.7,1.7h-1.7c-1.1,0-1.7-0.6-1.7-1.7v-10.6
			c0-2.5-0.7-4.2-3.3-4.2c-3.7,0-6,3-6,6.8v8c0,1.1-0.6,1.7-1.7,1.7h-1.8c-1.1,0-1.7-0.6-1.7-1.7V1482.5z"/>
		<path class="st103" d="M1555.1,1485.2h-1.1c-1.1,0-1.7-0.6-1.7-1.7v-0.7c0-1.1,0.6-1.7,1.7-1.7h1.2v-4.2c0-1.1,0.6-1.7,1.7-1.7
			h1.6c1.1,0,1.7,0.6,1.7,1.7v4.2h3c1.1,0,1.7,0.6,1.7,1.7v0.7c0,1.1-0.6,1.7-1.7,1.7h-3v8c0,3.1,1.9,3.7,3.3,3.9
			c1.3,0.1,1.7,0.5,1.7,1.7v1.3c0,1.2-0.7,1.7-2.1,1.7c-3.7,0-8.1-2-8.1-7.6V1485.2z"/>
		<path class="st103" d="M1578.9,1480.3c6.3,0,11.4,4.5,11.4,10.9c0,6.4-5.1,10.9-11.4,10.9s-11.4-4.5-11.4-10.9
			C1567.5,1484.8,1572.6,1480.3,1578.9,1480.3z M1578.9,1497.7c3.4,0,6.2-2.6,6.2-6.5c0-3.8-2.8-6.5-6.2-6.5c-3.4,0-6.1,2.6-6.1,6.5
			C1572.7,1495.1,1575.5,1497.7,1578.9,1497.7z"/>
		<path class="st103" d="M1602.6,1482.7c-0.3-1.1,0.2-1.9,1.4-1.9h2c1,0,1.6,0.5,1.8,1.5l3.3,12.1c0.2,1.1,0.4,2.2,0.4,2.2h0.1
			c0,0,0.2-1.1,0.4-2.2l3.5-12.1c0.2-1,0.9-1.5,1.9-1.5h1.5c1,0,1.6,0.5,1.9,1.5l3.5,12.1c0.3,1.1,0.4,2.2,0.4,2.2h0.1
			c0,0,0.2-1.1,0.4-2.2l3.3-12.1c0.2-1,0.9-1.5,1.9-1.5h1.9c1.2,0,1.7,0.8,1.4,1.9l-5.3,17.4c-0.3,1-0.9,1.4-1.9,1.4h-2.7
			c-1,0-1.7-0.5-1.9-1.5l-3.1-10.4c-0.3-1.1-0.5-2.2-0.5-2.2h-0.1c0,0-0.2,1.1-0.5,2.2l-3.1,10.4c-0.2,1-0.9,1.5-1.9,1.5h-2.8
			c-1,0-1.6-0.4-1.9-1.4L1602.6,1482.7z"/>
		<path class="st103" d="M1647.2,1480.3c6.3,0,11.4,4.5,11.4,10.9c0,6.4-5.1,10.9-11.4,10.9c-6.3,0-11.4-4.5-11.4-10.9
			C1635.8,1484.8,1640.9,1480.3,1647.2,1480.3z M1647.2,1497.7c3.4,0,6.2-2.6,6.2-6.5c0-3.8-2.8-6.5-6.2-6.5s-6.1,2.6-6.1,6.5
			C1641.1,1495.1,1643.9,1497.7,1647.2,1497.7z"/>
		<path class="st103" d="M1662.4,1482.5c0-1.1,0.6-1.7,1.7-1.7h1.6c1.1,0,1.7,0.6,1.7,1.7v2c0,0.8-0.1,1.4-0.1,1.4h0.1
			c0.8-2.5,3.1-5.2,6-5.2c1.1,0,1.5,0.6,1.5,1.7v1.6c0,1.1-0.7,1.7-1.7,1.7c-3.8,0-5.6,3.7-5.6,7.5v6.7c0,1.1-0.6,1.7-1.7,1.7h-1.8
			c-1.1,0-1.7-0.6-1.7-1.7V1482.5z"/>
	</g>
	<g>
		<path class="st103" d="M1676.9,1474.4c0-1.1,0.6-1.7,1.7-1.7h1.7c1.1,0,1.7,0.6,1.7,1.7v13.7h2.6l4.3-6.2c0.5-0.8,1.1-1.1,2-1.1h2
			c1.4,0,1.8,0.9,1.1,2l-5.2,7.2v0.1l6.1,9.3c0.7,1.2,0.2,2-1.1,2h-2.2c-0.9,0-1.5-0.4-2-1.2l-4.8-7.9h-2.7v7.4
			c0,1.1-0.6,1.7-1.7,1.7h-1.7c-1.1,0-1.7-0.6-1.7-1.7V1474.4z"/>
	</g>
	<rect x="1530.1" y="555" class="st77" width="268.2" height="131.8"/>
	<rect x="1530.1" y="555" class="st108" width="268.2" height="131.8"/>
	<g>
		<path class="st103" d="M1602.6,580.2c8.7,0,14.9,6.5,14.9,14.7c0,8.5-6.2,15.1-14.9,15.1c-8.7,0-14.9-6.6-14.9-15.1
			C1587.7,586.7,1593.9,580.2,1602.6,580.2z M1602.6,605.3c5.5,0,9.5-4.5,9.5-10.3c0-5.6-4-9.9-9.5-9.9s-9.5,4.3-9.5,9.9
			C1593.1,600.8,1597.1,605.3,1602.6,605.3z"/>
		<path class="st103" d="M1621.7,582.4c0-1.1,0.6-1.7,1.7-1.7h1.7c1.1,0,1.7,0.6,1.7,1.7v7.5c0,1-0.1,1.7-0.1,1.7h0.1
			c0,0,1.8-3.3,6.3-3.3c5.5,0,9.1,4.4,9.1,10.8c0,6.6-4.1,10.9-9.5,10.9c-4.7,0-6.3-3.5-6.3-3.5h-0.1c0,0,0.1,0.3,0.1,0.9v0.7
			c0,0.9-0.6,1.5-1.7,1.5h-1.4c-1.1,0-1.7-0.6-1.7-1.7V582.4z M1631.8,605.7c2.9,0,5.2-2.3,5.2-6.4c0-3.9-2.1-6.5-5.1-6.5
			c-2.7,0-5.2,2-5.2,6.4C1626.7,602.6,1628.5,605.7,1631.8,605.7z"/>
		<path class="st103" d="M1645.3,605.7l0.5-0.7c0.6-0.9,1.3-0.9,2.3-0.4c1,0.5,2.5,1.4,4.6,1.4c1.8,0,2.9-0.8,2.9-2.1
			c0-3.4-10.3-2.1-10.3-9.2c0-4.1,3.6-6.2,7.9-6.2c2.8,0,4.7,0.9,5.8,1.5c0.9,0.5,1.1,1.3,0.6,2.3l-0.4,0.7c-0.5,1-1.3,1.1-2.3,0.7
			c-0.9-0.4-2.2-1-3.9-1c-1.8,0-2.8,0.7-2.8,2c0,3.4,10.3,2.1,10.3,9.1c0,3.7-3.1,6.4-7.9,6.4c-3.3,0-5.7-1.3-6.9-2.1
			C1644.8,607.4,1644.7,606.5,1645.3,605.7z"/>
		<path class="st103" d="M1673.7,588.4c5.9,0,9.2,4.2,9.2,9.9c0,0.9-0.8,1.7-1.8,1.7h-12.6c0.3,3.7,3.1,5.7,6.2,5.7
			c1.9,0,3.5-0.7,4.5-1.3c1-0.5,1.7-0.4,2.3,0.6l0.5,0.8c0.5,0.9,0.3,1.7-0.6,2.3c-1.3,0.9-3.8,2.1-7,2.1c-6.9,0-11.1-5-11.1-10.9
			C1663.1,592.8,1667.4,588.4,1673.7,588.4z M1677.7,596.9c-0.1-2.9-1.8-4.6-4.2-4.6c-2.6,0-4.5,1.8-5,4.6H1677.7z"/>
		<path class="st103" d="M1686.6,590.6c0-1.1,0.6-1.7,1.7-1.7h1.6c1.1,0,1.7,0.6,1.7,1.7v2c0,0.8-0.1,1.4-0.1,1.4h0.1
			c0.8-2.5,3.1-5.2,6-5.2c1.1,0,1.5,0.6,1.5,1.7v1.6c0,1.1-0.7,1.7-1.7,1.7c-3.8,0-5.6,3.7-5.6,7.5v6.7c0,1.1-0.6,1.7-1.7,1.7h-1.8
			c-1.1,0-1.7-0.6-1.7-1.7V590.6z"/>
		<path class="st103" d="M1700,590.8c-0.4-1.2,0.1-2,1.3-2h1.9c1,0,1.6,0.4,1.9,1.4l3.9,11.4c0.4,1.2,0.8,3.1,0.8,3.1h0.1
			c0,0,0.3-1.9,0.7-3.1l3.9-11.4c0.3-1,0.9-1.4,1.9-1.4h1.9c1.3,0,1.8,0.8,1.4,2l-6.3,17.4c-0.3,1-0.9,1.4-1.9,1.4h-3.3
			c-1,0-1.6-0.4-1.9-1.4L1700,590.8z"/>
		<path class="st103" d="M1732.2,588.4c5.9,0,9.2,4.2,9.2,9.9c0,0.9-0.8,1.7-1.8,1.7H1727c0.3,3.7,3.1,5.7,6.2,5.7
			c1.9,0,3.5-0.7,4.5-1.3c1-0.5,1.7-0.4,2.3,0.6l0.5,0.8c0.5,0.9,0.3,1.7-0.6,2.3c-1.3,0.9-3.8,2.1-7,2.1c-6.9,0-11.1-5-11.1-10.9
			C1721.7,592.8,1726,588.4,1732.2,588.4z M1736.3,596.9c-0.1-2.9-1.8-4.6-4.2-4.6c-2.6,0-4.5,1.8-5,4.6H1736.3z"/>
	</g>
	<g>
		<path class="st103" d="M1613.4,653.6l0.9-1.3c0.7-0.9,1.3-0.9,2.4-0.4c0.9,0.7,3,2.1,5.9,2.1c2.7,0,4.3-1.3,4.3-3.3
			c0-5.5-13.5-4.3-13.5-13.3c0-5.1,4.2-8.4,9.7-8.4c3.4,0,6.2,1.3,7.4,2.2c0.9,0.7,1,1.4,0.5,2.3l-0.7,1.3c-0.6,1.2-1.5,1-2.3,0.6
			c-1.2-0.7-2.8-1.6-5-1.6c-2.7,0-4.4,1.3-4.4,3.3c0,5.4,13.5,4,13.5,13.2c0,4.7-3.5,8.5-9.6,8.5c-4.1,0-7.4-1.8-8.9-2.9
			C1613,655.4,1612.6,654.7,1613.4,653.6z"/>
		<path class="st103" d="M1646.2,637.2c3.3,0,5.6,1.2,6.8,2.1c0.9,0.6,0.9,1.4,0.3,2.3l-0.5,0.8c-0.6,0.9-1.3,0.9-2.3,0.4
			c-0.9-0.6-2.2-1.3-4-1.3c-3.8,0-6.3,2.9-6.3,6.4c0,3.5,2.5,6.5,6.5,6.5c2,0,3.7-0.9,4.6-1.6c1-0.6,1.8-0.4,2.3,0.5l0.4,0.8
			c0.5,0.9,0.4,1.7-0.4,2.3c-1.3,0.9-3.8,2.4-7.4,2.4c-6.9,0-11.3-4.8-11.3-10.9C1634.9,642.1,1639.3,637.2,1646.2,637.2z"/>
		<path class="st103" d="M1667.9,637.2c6.3,0,11.4,4.5,11.4,10.9c0,6.4-5.1,10.9-11.4,10.9c-6.3,0-11.4-4.5-11.4-10.9
			C1656.5,641.7,1661.6,637.2,1667.9,637.2z M1667.9,654.5c3.4,0,6.2-2.6,6.2-6.5c0-3.8-2.8-6.5-6.2-6.5s-6.1,2.6-6.1,6.5
			C1661.7,651.9,1664.5,654.5,1667.9,654.5z"/>
		<path class="st103" d="M1683.1,639.3c0-1.1,0.6-1.7,1.7-1.7h1.6c1.1,0,1.7,0.6,1.7,1.7v2c0,0.8-0.1,1.4-0.1,1.4h0.1
			c0.8-2.5,3.1-5.2,6-5.2c1.1,0,1.5,0.6,1.5,1.7v1.6c0,1.1-0.7,1.7-1.7,1.7c-3.8,0-5.6,3.7-5.6,7.5v6.7c0,1.1-0.6,1.7-1.7,1.7h-1.8
			c-1.1,0-1.7-0.6-1.7-1.7V639.3z"/>
	</g>
	<g>
		<path class="st103" d="M1706.7,637.2c5.9,0,9.2,4.2,9.2,9.9c0,0.9-0.8,1.7-1.8,1.7h-12.6c0.3,3.7,3.1,5.7,6.2,5.7
			c1.9,0,3.5-0.7,4.5-1.3c1-0.5,1.7-0.4,2.3,0.6l0.5,0.8c0.5,0.9,0.3,1.7-0.6,2.3c-1.3,0.9-3.8,2.1-7,2.1c-6.9,0-11.1-5-11.1-10.9
			C1696.1,641.6,1700.5,637.2,1706.7,637.2z M1710.7,645.6c-0.1-2.9-1.8-4.6-4.2-4.6c-2.6,0-4.5,1.8-5,4.6H1710.7z"/>
	</g>
	<rect x="2200.8" y="555" class="st77" width="268.2" height="131.8"/>
	<rect x="2200.8" y="555" class="st108" width="268.2" height="131.8"/>
	<g>
		<path class="st103" d="M2278.9,580.2c4.7,0,7.9,1.8,9.4,2.9c0.9,0.7,0.9,1.5,0.3,2.4l-0.7,1.2c-0.6,0.9-1.3,1-2.3,0.4
			c-1.3-0.8-3.5-2-6.5-2c-6.3,0-9.7,4.6-9.7,9.9c0,5.4,3.5,10.3,9.7,10.3c3.3,0,5.7-1.5,7.1-2.5c0.9-0.7,1.7-0.7,2.4,0.3l0.8,1.1
			c0.6,0.8,0.6,1.7-0.2,2.4c-1.6,1.3-5.1,3.6-10.2,3.6c-9.1,0-14.9-6.5-14.9-15C2264,586.7,2270.2,580.2,2278.9,580.2z"/>
		<path class="st103" d="M2293.6,582.4c0-1.1,0.6-1.7,1.7-1.7h1.7c1.1,0,1.7,0.6,1.7,1.7v8.4c0,1-0.1,1.7-0.1,1.7h0.1
			c1-2,3.6-4.2,7.2-4.2c4.6,0,7.2,2.4,7.2,7.9v11.6c0,1.1-0.6,1.7-1.7,1.7h-1.7c-1.1,0-1.7-0.6-1.7-1.7v-10.6c0-2.5-0.7-4.2-3.3-4.2
			c-3.6,0-6,2.9-6,6.9v7.9c0,1.1-0.6,1.7-1.7,1.7h-1.7c-1.1,0-1.7-0.6-1.7-1.7V582.4z"/>
		<path class="st103" d="M2328.5,596.8h0.9v-0.5c0-2.7-1.7-3.7-3.9-3.7c-1.7,0-3.3,0.7-4.3,1.2c-1,0.4-1.8,0.3-2.3-0.7l-0.4-0.8
			c-0.5-0.9-0.3-1.7,0.7-2.3c1.3-0.7,3.7-1.7,6.8-1.7c5.4,0,8.6,3,8.6,8.3v11.3c0,1.1-0.6,1.7-1.7,1.7h-1.4c-1.1,0-1.7-0.6-1.7-1.7
			v-0.8c0-0.6,0.1-0.9,0.1-0.9h-0.1c0,0-2,3.9-6.5,3.9c-3.8,0-6.9-2.4-6.9-6.2C2316.3,597.8,2323.8,596.8,2328.5,596.8z
			 M2324.6,606.1c2.9,0,4.8-2.9,4.8-5.4v-0.8h-0.9c-2.6,0-7,0.4-7,3.5C2321.5,604.8,2322.5,606.1,2324.6,606.1z"/>
		<path class="st103" d="M2339.3,590.6c0-1.1,0.6-1.7,1.7-1.7h1.6c1.1,0,1.7,0.6,1.7,1.7v1.3c0,0.4-0.1,0.9-0.1,0.9h0.1
			c0.9-1.7,3.2-4.4,7.4-4.4c4.6,0,7.2,2.4,7.2,7.9v11.6c0,1.1-0.6,1.7-1.7,1.7h-1.7c-1.1,0-1.7-0.6-1.7-1.7v-10.6
			c0-2.5-0.7-4.2-3.3-4.2c-3.7,0-6,3-6,6.8v8c0,1.1-0.6,1.7-1.7,1.7h-1.8c-1.1,0-1.7-0.6-1.7-1.7V590.6z"/>
		<path class="st103" d="M2367.5,613c1,0.4,2.3,0.8,4.2,0.8c3.2,0,5.9-1.3,5.9-5v-1.5c0-0.5,0.1-1.1,0.1-1.1h-0.1
			c-1.1,2-2.9,3.1-5.7,3.1c-6.1,0-9.4-4.8-9.4-10.5c0-5.7,3.2-10.3,9.3-10.3c4.8,0,6.1,3.2,6.1,3.2h0.1c0,0,0-0.2,0-0.5v-0.8
			c0-0.8,0.6-1.4,1.7-1.4h1.4c1.1,0,1.7,0.6,1.7,1.7v17.8c0,7.1-5.6,9.8-10.7,9.8c-2.3,0-4.6-0.5-6.1-1.1c-1.1-0.4-1.3-1.1-0.9-2.2
			l0.3-0.9C2365.8,612.9,2366.4,612.6,2367.5,613z M2377.6,598.8c0-4.8-2.4-6-5-6c-3.2,0-5,2.3-5,5.7c0,3.7,1.9,6.4,5.2,6.4
			C2375.3,604.8,2377.6,603.4,2377.6,598.8z"/>
		<path class="st103" d="M2397.1,588.4c5.9,0,9.2,4.2,9.2,9.9c0,0.9-0.8,1.7-1.8,1.7h-12.6c0.3,3.7,3.1,5.7,6.2,5.7
			c1.9,0,3.5-0.7,4.5-1.3c1-0.5,1.7-0.4,2.3,0.6l0.5,0.8c0.5,0.9,0.3,1.7-0.6,2.3c-1.3,0.9-3.8,2.1-7,2.1c-6.9,0-11.1-5-11.1-10.9
			C2386.5,592.8,2390.8,588.4,2397.1,588.4z M2401.1,596.9c-0.1-2.9-1.8-4.6-4.2-4.6c-2.6,0-4.5,1.8-5,4.6H2401.1z"/>
	</g>
	<g>
		<path class="st103" d="M2261.5,653.6l0.9-1.3c0.7-0.9,1.3-0.9,2.4-0.4c0.9,0.7,3,2.1,5.9,2.1c2.7,0,4.3-1.3,4.3-3.3
			c0-5.5-13.5-4.3-13.5-13.3c0-5.1,4.2-8.4,9.7-8.4c3.4,0,6.2,1.3,7.4,2.2c0.9,0.7,1,1.4,0.5,2.3l-0.7,1.3c-0.6,1.2-1.5,1-2.3,0.6
			c-1.2-0.7-2.8-1.6-5-1.6c-2.7,0-4.4,1.3-4.4,3.3c0,5.4,13.5,4,13.5,13.2c0,4.7-3.5,8.5-9.6,8.5c-4.1,0-7.4-1.8-8.9-2.9
			C2261.1,655.4,2260.7,654.7,2261.5,653.6z"/>
		<path class="st103" d="M2293.6,637.2c5.9,0,9.2,4.2,9.2,9.9c0,0.9-0.8,1.7-1.8,1.7h-12.6c0.3,3.7,3.1,5.7,6.2,5.7
			c1.9,0,3.5-0.7,4.5-1.3c1-0.5,1.7-0.4,2.3,0.6l0.5,0.8c0.5,0.9,0.3,1.7-0.6,2.3c-1.3,0.9-3.8,2.1-7,2.1c-6.9,0-11.1-5-11.1-10.9
			C2283,641.6,2287.4,637.2,2293.6,637.2z M2297.6,645.6c-0.1-2.9-1.8-4.6-4.2-4.6c-2.6,0-4.5,1.8-5,4.6H2297.6z"/>
		<path class="st103" d="M2307.6,642h-1.1c-1.1,0-1.7-0.6-1.7-1.7v-0.7c0-1.1,0.6-1.7,1.7-1.7h1.2v-4.2c0-1.1,0.6-1.7,1.7-1.7h1.6
			c1.1,0,1.7,0.6,1.7,1.7v4.2h3c1.1,0,1.7,0.6,1.7,1.7v0.7c0,1.1-0.6,1.7-1.7,1.7h-3v8c0,3.1,1.9,3.7,3.3,3.9
			c1.3,0.1,1.7,0.5,1.7,1.7v1.3c0,1.2-0.7,1.7-2.1,1.7c-3.7,0-8.1-2-8.1-7.6V642z"/>
		<path class="st103" d="M2322.4,642h-1.1c-1.1,0-1.7-0.6-1.7-1.7v-0.7c0-1.1,0.6-1.7,1.7-1.7h1.2v-4.2c0-1.1,0.6-1.7,1.7-1.7h1.6
			c1.1,0,1.7,0.6,1.7,1.7v4.2h3c1.1,0,1.7,0.6,1.7,1.7v0.7c0,1.1-0.6,1.7-1.7,1.7h-3v8c0,3.1,1.9,3.7,3.3,3.9
			c1.3,0.1,1.7,0.5,1.7,1.7v1.3c0,1.2-0.7,1.7-2.1,1.7c-3.7,0-8.1-2-8.1-7.6V642z"/>
		<path class="st103" d="M2336.1,632.4v-1.2c0-1.1,0.6-1.7,1.7-1.7h1.8c1.1,0,1.7,0.6,1.7,1.7v1.2c0,1.1-0.6,1.7-1.7,1.7h-1.8
			C2336.7,634.1,2336.1,633.5,2336.1,632.4z M2336.1,639.3c0-1.1,0.6-1.7,1.7-1.7h1.8c1.1,0,1.7,0.6,1.7,1.7v17.3
			c0,1.1-0.6,1.7-1.7,1.7h-1.8c-1.1,0-1.7-0.6-1.7-1.7V639.3z"/>
		<path class="st103" d="M2346.3,639.3c0-1.1,0.6-1.7,1.7-1.7h1.6c1.1,0,1.7,0.6,1.7,1.7v1.3c0,0.4-0.1,0.9-0.1,0.9h0.1
			c0.9-1.7,3.2-4.4,7.4-4.4c4.6,0,7.2,2.4,7.2,7.9v11.6c0,1.1-0.6,1.7-1.7,1.7h-1.7c-1.1,0-1.7-0.6-1.7-1.7v-10.6
			c0-2.5-0.7-4.2-3.3-4.2c-3.7,0-6,3-6,6.8v8c0,1.1-0.6,1.7-1.7,1.7h-1.8c-1.1,0-1.7-0.6-1.7-1.7V639.3z"/>
		<path class="st103" d="M2374.5,661.7c1,0.4,2.3,0.8,4.2,0.8c3.2,0,5.9-1.3,5.9-5v-1.5c0-0.5,0.1-1.1,0.1-1.1h-0.1
			c-1.1,2-2.9,3.1-5.7,3.1c-6.1,0-9.4-4.8-9.4-10.5c0-5.7,3.2-10.3,9.3-10.3c4.8,0,6.1,3.2,6.1,3.2h0.1c0,0,0-0.2,0-0.5V639
			c0-0.8,0.6-1.4,1.7-1.4h1.4c1.1,0,1.7,0.6,1.7,1.7v17.8c0,7.1-5.6,9.8-10.7,9.8c-2.3,0-4.6-0.5-6.1-1.1c-1.1-0.4-1.3-1.1-0.9-2.2
			l0.3-0.9C2372.8,661.7,2373.4,661.4,2374.5,661.7z M2384.7,647.6c0-4.8-2.4-6-5-6c-3.2,0-5,2.3-5,5.7c0,3.7,1.9,6.4,5.2,6.4
			C2382.3,653.6,2384.7,652.2,2384.7,647.6z"/>
		<path class="st103" d="M2394,654.4l0.5-0.7c0.6-0.9,1.3-0.9,2.3-0.4c1,0.5,2.5,1.4,4.6,1.4c1.8,0,2.9-0.8,2.9-2.1
			c0-3.4-10.3-2.1-10.3-9.2c0-4.1,3.6-6.2,7.9-6.2c2.8,0,4.7,0.9,5.8,1.5c0.9,0.5,1.1,1.3,0.6,2.3l-0.4,0.7c-0.5,1-1.3,1.1-2.3,0.7
			c-0.9-0.4-2.2-1-3.9-1c-1.8,0-2.8,0.7-2.8,2c0,3.4,10.3,2.1,10.3,9.1c0,3.7-3.1,6.4-7.9,6.4c-3.3,0-5.7-1.3-6.9-2.1
			C2393.4,656.2,2393.4,655.3,2394,654.4z"/>
	</g>
	<rect x="324.8" y="580.3" class="st77" width="268.2" height="131.8"/>
	<rect x="324.8" y="580.3" class="st108" width="268.2" height="131.8"/>
	<g>
		<path class="st103" d="M397.3,605.6c8.7,0,14.9,6.5,14.9,14.7c0,8.5-6.2,15.1-14.9,15.1c-8.7,0-14.9-6.6-14.9-15.1
			C382.4,612,388.6,605.6,397.3,605.6z M397.3,630.6c5.5,0,9.5-4.5,9.5-10.3c0-5.6-4-9.9-9.5-9.9s-9.5,4.3-9.5,9.9
			C387.8,626.2,391.8,630.6,397.3,630.6z"/>
		<path class="st103" d="M416.4,607.8c0-1.1,0.6-1.7,1.7-1.7h1.7c1.1,0,1.7,0.6,1.7,1.7v7.5c0,1-0.1,1.7-0.1,1.7h0.1
			c0,0,1.8-3.3,6.3-3.3c5.5,0,9.1,4.4,9.1,10.8c0,6.6-4.1,10.9-9.5,10.9c-4.7,0-6.3-3.5-6.3-3.5h-0.1c0,0,0.1,0.3,0.1,0.9v0.7
			c0,0.9-0.6,1.5-1.7,1.5h-1.4c-1.1,0-1.7-0.6-1.7-1.7V607.8z M426.5,631.1c2.9,0,5.2-2.3,5.2-6.4c0-3.9-2.1-6.5-5.1-6.5
			c-2.7,0-5.2,2-5.2,6.4C421.4,627.9,423.1,631.1,426.5,631.1z"/>
		<path class="st103" d="M440,631l0.5-0.7c0.6-0.9,1.3-0.9,2.3-0.4c1,0.5,2.5,1.4,4.6,1.4c1.8,0,2.9-0.8,2.9-2.1
			c0-3.4-10.3-2.1-10.3-9.2c0-4.1,3.6-6.2,7.9-6.2c2.8,0,4.7,0.9,5.8,1.5c0.9,0.5,1.1,1.3,0.6,2.3l-0.4,0.7c-0.5,1-1.3,1.1-2.3,0.7
			c-0.9-0.4-2.2-1-3.9-1c-1.8,0-2.8,0.7-2.8,2c0,3.4,10.3,2.1,10.3,9.1c0,3.7-3.1,6.4-7.9,6.4c-3.3,0-5.7-1.3-6.9-2.1
			C439.5,632.8,439.4,631.9,440,631z"/>
		<path class="st103" d="M468.3,613.7c5.9,0,9.2,4.2,9.2,9.9c0,0.9-0.8,1.7-1.8,1.7h-12.6c0.3,3.7,3.1,5.7,6.2,5.7
			c1.9,0,3.5-0.7,4.5-1.3c1-0.5,1.7-0.4,2.3,0.6l0.5,0.8c0.5,0.9,0.3,1.7-0.6,2.3c-1.3,0.9-3.8,2.1-7,2.1c-6.9,0-11.1-5-11.1-10.9
			C457.8,618.2,462.1,613.7,468.3,613.7z M472.4,622.2c-0.1-2.9-1.8-4.6-4.2-4.6c-2.6,0-4.5,1.8-5,4.6H472.4z"/>
		<path class="st103" d="M481.3,615.9c0-1.1,0.6-1.7,1.7-1.7h1.6c1.1,0,1.7,0.6,1.7,1.7v2c0,0.8-0.1,1.4-0.1,1.4h0.1
			c0.8-2.5,3.1-5.2,6-5.2c1.1,0,1.5,0.6,1.5,1.7v1.6c0,1.1-0.7,1.7-1.7,1.7c-3.8,0-5.6,3.7-5.6,7.5v6.7c0,1.1-0.6,1.7-1.7,1.7h-1.8
			c-1.1,0-1.7-0.6-1.7-1.7V615.9z"/>
		<path class="st103" d="M494.7,616.2c-0.4-1.2,0.1-2,1.3-2h1.9c1,0,1.6,0.4,1.9,1.4l3.9,11.4c0.4,1.2,0.8,3.1,0.8,3.1h0.1
			c0,0,0.3-1.9,0.7-3.1l3.9-11.4c0.3-1,0.9-1.4,1.9-1.4h1.9c1.3,0,1.8,0.8,1.4,2l-6.3,17.4c-0.3,1-0.9,1.4-1.9,1.4h-3.3
			c-1,0-1.6-0.4-1.9-1.4L494.7,616.2z"/>
		<path class="st103" d="M526.9,613.7c5.9,0,9.2,4.2,9.2,9.9c0,0.9-0.8,1.7-1.8,1.7h-12.6c0.3,3.7,3.1,5.7,6.2,5.7
			c1.9,0,3.5-0.7,4.5-1.3c1-0.5,1.7-0.4,2.3,0.6l0.5,0.8c0.5,0.9,0.3,1.7-0.6,2.3c-1.3,0.9-3.8,2.1-7,2.1c-6.9,0-11.1-5-11.1-10.9
			C516.4,618.2,520.7,613.7,526.9,613.7z M531,622.2c-0.1-2.9-1.8-4.6-4.2-4.6c-2.6,0-4.5,1.8-5,4.6H531z"/>
	</g>
	<g>
		<path class="st103" d="M422,654.4c4.8,0,8.2,1.8,9.4,2.6c0.9,0.7,1,1.4,0.4,2.4l-0.7,1.1c-0.6,0.9-1.3,1-2.4,0.4
			c-1.3-0.7-3.3-1.8-6.4-1.8c-6.3,0-9.8,4.6-9.8,10c0,6.1,4.3,10.2,9.6,10.2c4.8,0,7.3-3.2,7.3-3.2V673h-2.8c-1.1,0-1.7-0.6-1.7-1.7
			v-1.1c0-1.1,0.6-1.7,1.7-1.7h5.8c1.1,0,1.7,0.6,1.7,1.7V682c0,1.1-0.6,1.7-1.7,1.7h-1c-1.1,0-1.7-0.6-1.7-1.4v-0.7
			c0-0.4,0-0.7,0-0.7h-0.1c0,0-2.9,3.3-8.5,3.3c-7.6,0-14.2-6-14.2-14.8C407.1,660.8,413.4,654.4,422,654.4z"/>
		<path class="st103" d="M448.7,662.5c6.3,0,11.4,4.5,11.4,10.9c0,6.4-5.1,10.9-11.4,10.9c-6.3,0-11.4-4.5-11.4-10.9
			C437.4,667,442.4,662.5,448.7,662.5z M448.7,679.8c3.4,0,6.2-2.6,6.2-6.5c0-3.8-2.8-6.5-6.2-6.5c-3.4,0-6.1,2.6-6.1,6.5
			C442.6,677.2,445.4,679.8,448.7,679.8z"/>
		<path class="st103" d="M474.5,670.9h0.9v-0.5c0-2.7-1.7-3.7-3.9-3.7c-1.7,0-3.3,0.7-4.3,1.2c-1,0.4-1.8,0.3-2.3-0.7l-0.4-0.8
			c-0.5-0.9-0.3-1.7,0.7-2.3c1.3-0.7,3.7-1.7,6.8-1.7c5.4,0,8.6,3,8.6,8.3V682c0,1.1-0.6,1.7-1.7,1.7h-1.4c-1.1,0-1.7-0.6-1.7-1.7
			v-0.8c0-0.6,0.1-0.9,0.1-0.9h-0.1c0,0-2,3.9-6.5,3.9c-3.8,0-6.9-2.4-6.9-6.2C462.4,671.9,469.8,670.9,474.5,670.9z M470.6,680.3
			c2.9,0,4.8-2.9,4.8-5.4V674h-0.9c-2.6,0-7,0.4-7,3.5C467.5,678.9,468.5,680.3,470.6,680.3z"/>
		<path class="st103" d="M485.2,656.6c0-1.1,0.6-1.7,1.7-1.7h1.8c1.1,0,1.7,0.6,1.7,1.7v20.3c0,2,0.9,2.4,1.6,2.5
			c0.7,0.1,1.3,0.5,1.3,1.5v1.4c0,1.1-0.5,1.7-1.7,1.7c-2.8,0-6.3-0.7-6.3-6.7V656.6z"/>
		<path class="st103" d="M495.7,679.8l0.5-0.7c0.6-0.9,1.3-0.9,2.3-0.4c1,0.5,2.5,1.4,4.6,1.4c1.8,0,2.9-0.8,2.9-2.1
			c0-3.4-10.3-2.1-10.3-9.2c0-4.1,3.6-6.2,7.9-6.2c2.8,0,4.7,0.9,5.8,1.5c0.9,0.5,1.1,1.3,0.6,2.3l-0.4,0.7c-0.5,1-1.3,1.1-2.3,0.7
			c-0.9-0.4-2.2-1-3.9-1c-1.8,0-2.8,0.7-2.8,2c0,3.4,10.3,2.1,10.3,9.1c0,3.7-3.1,6.4-7.9,6.4c-3.3,0-5.6-1.3-6.9-2.1
			C495.2,681.6,495.1,680.7,495.7,679.8z"/>
	</g>
	<rect x="1834.9" y="555" class="st77" width="268.2" height="131.8"/>
	<rect x="1834.9" y="555" class="st108" width="268.2" height="131.8"/>
	<g>
		<path class="st103" d="M1895.9,609.5c0-1.1,0.6-1.7,1.7-1.7h13.9c1.1,0,1.7,0.6,1.7,1.7v1.1c0,1.1-0.6,1.7-1.7,1.7h-10.4v7.6h8
			c1.1,0,1.7,0.6,1.7,1.7v1.1c0,1.1-0.6,1.7-1.7,1.7h-8v7.8h11c1.1,0,1.7,0.6,1.7,1.7v1.1c0,1.1-0.6,1.7-1.7,1.7h-14.6
			c-1.1,0-1.7-0.6-1.7-1.7V609.5z"/>
		<path class="st103" d="M1917.8,617.7c0-1.1,0.6-1.7,1.7-1.7h1.6c1.1,0,1.7,0.6,1.7,1.7v1.3c0,0.4-0.1,0.9-0.1,0.9h0.1
			c0.9-1.7,3.2-4.4,7.4-4.4c4.6,0,7.2,2.4,7.2,7.9V635c0,1.1-0.6,1.7-1.7,1.7h-1.7c-1.1,0-1.7-0.6-1.7-1.7v-10.6
			c0-2.5-0.7-4.2-3.3-4.2c-3.7,0-6,3-6,6.8v8c0,1.1-0.6,1.7-1.7,1.7h-1.8c-1.1,0-1.7-0.6-1.7-1.7V617.7z"/>
		<path class="st103" d="M1950.3,615.5c4.6,0,6.1,3,6.1,3h0.1c0,0-0.1-0.5-0.1-1.2v-7.7c0-1.1,0.6-1.7,1.7-1.7h1.8
			c1.1,0,1.7,0.6,1.7,1.7V635c0,1.1-0.6,1.7-1.7,1.7h-1.5c-1.1,0-1.7-0.5-1.7-1.5v-0.8c0-0.4,0.1-0.7,0.1-0.7h-0.1
			c0,0-1.7,3.6-6.5,3.6c-5.6,0-9.2-4.4-9.2-10.9C1940.9,619.7,1944.8,615.5,1950.3,615.5z M1951.3,632.8c2.7,0,5.2-2,5.2-6.5
			c0-3.2-1.7-6.4-5.2-6.4c-2.8,0-5.2,2.3-5.2,6.4C1946.1,630.3,1948.2,632.8,1951.3,632.8z"/>
		<path class="st103" d="M1977.6,609.5c0-1.1,0.6-1.7,1.7-1.7h8.2c8.9,0,14.7,5.3,14.7,14.4s-5.8,14.5-14.7,14.5h-8.2
			c-1.1,0-1.7-0.6-1.7-1.7V609.5z M1987.1,632.2c5.9,0,9.6-3.5,9.6-10c0-6.4-3.8-9.9-9.6-9.9h-4.3v19.8H1987.1z"/>
		<path class="st103" d="M2016.9,623.9h0.9v-0.5c0-2.7-1.7-3.7-3.9-3.7c-1.7,0-3.3,0.7-4.3,1.2c-1,0.4-1.8,0.3-2.3-0.7l-0.4-0.8
			c-0.5-0.9-0.3-1.7,0.7-2.3c1.3-0.7,3.7-1.7,6.8-1.7c5.4,0,8.6,3,8.6,8.3V635c0,1.1-0.6,1.7-1.7,1.7h-1.4c-1.1,0-1.7-0.6-1.7-1.7
			v-0.8c0-0.6,0.1-0.9,0.1-0.9h-0.1c0,0-2,3.9-6.5,3.9c-3.8,0-6.9-2.4-6.9-6.2C2004.8,624.9,2012.3,623.9,2016.9,623.9z
			 M2013.1,633.2c2.9,0,4.8-2.9,4.8-5.4V627h-0.9c-2.6,0-7,0.4-7,3.5C2009.9,631.9,2011,633.2,2013.1,633.2z"/>
	</g>
	<g>
		<path class="st103" d="M2027.4,640.6c0.4,0.2,0.9,0.4,1.5,0.4c1.5,0,2.7-1.3,3.3-2.8l0.8-1.8l-7.9-18.4c-0.5-1.2,0-2,1.3-2h2.2
			c1,0,1.6,0.4,1.9,1.4l3.9,10.6c0.4,1.1,0.8,2.8,0.8,2.8h0.1c0,0,0.4-1.6,0.7-2.7l3.7-10.6c0.3-1,0.9-1.4,1.9-1.4h2
			c1.3,0,1.8,0.8,1.4,2l-8.5,21.9c-1.4,3.8-4.4,5.4-7.5,5.4c-1.1,0-2.2-0.3-2.9-0.6c-1-0.4-1.2-1.3-0.8-2.2l0.4-0.9
			C2026,640.6,2026.7,640.4,2027.4,640.6z"/>
	</g>
	<rect x="1834.9" y="768" class="st77" width="268.2" height="131.8"/>
	<rect x="1834.9" y="768" class="st108" width="268.2" height="131.8"/>
	<g>
		<path class="st103" d="M1864,822.5c0-1.1,0.6-1.7,1.7-1.7h7.8c2.8,0,4.3,0.2,5.5,0.8c2.9,1.2,4.8,4,4.8,7.9c0,3.4-1.8,6.7-4.8,7.9
			v0.1c0,0,0.4,0.4,0.9,1.5l4.8,8.7c0.7,1.2,0.2,2-1.2,2h-2.2c-0.9,0-1.5-0.4-2-1.2l-5.1-9.6h-5v9.1c0,1.1-0.6,1.7-1.7,1.7h-1.9
			c-1.1,0-1.7-0.6-1.7-1.7V822.5z M1873.9,834.4c2.8,0,4.6-1.7,4.6-4.6c0-1.8-0.7-3.3-2.3-3.9c-0.7-0.3-1.6-0.5-3.1-0.5h-3.9v9
			H1873.9z"/>
		<path class="st103" d="M1897.9,828.5c5.9,0,9.2,4.2,9.2,9.9c0,0.9-0.8,1.7-1.8,1.7h-12.6c0.3,3.7,3.1,5.7,6.2,5.7
			c1.9,0,3.5-0.7,4.5-1.3c1-0.5,1.7-0.4,2.3,0.6l0.5,0.8c0.5,0.9,0.3,1.7-0.6,2.3c-1.3,0.9-3.8,2.1-7,2.1c-6.9,0-11.1-5-11.1-10.9
			C1887.4,833,1891.7,828.5,1897.9,828.5z M1902,837c-0.1-2.9-1.8-4.6-4.2-4.6c-2.6,0-4.5,1.8-5,4.6H1902z"/>
		<path class="st103" d="M1920.8,828.5c3.3,0,5.6,1.2,6.8,2.1c0.9,0.6,0.9,1.4,0.3,2.3l-0.5,0.8c-0.6,0.9-1.3,0.9-2.3,0.4
			c-0.9-0.6-2.2-1.3-4-1.3c-3.8,0-6.3,2.9-6.3,6.4c0,3.5,2.5,6.5,6.5,6.5c2,0,3.7-0.9,4.6-1.6c1-0.6,1.8-0.4,2.3,0.5l0.4,0.8
			c0.5,0.9,0.4,1.7-0.4,2.3c-1.3,0.9-3.8,2.4-7.4,2.4c-6.9,0-11.3-4.8-11.3-10.9C1909.6,833.4,1914,828.5,1920.8,828.5z"/>
		<path class="st103" d="M1942.9,836.9h0.9v-0.5c0-2.7-1.7-3.7-3.9-3.7c-1.7,0-3.3,0.7-4.3,1.2c-1,0.4-1.8,0.3-2.3-0.7l-0.4-0.8
			c-0.5-0.9-0.3-1.7,0.7-2.3c1.3-0.7,3.7-1.7,6.8-1.7c5.4,0,8.6,3,8.6,8.3V848c0,1.1-0.6,1.7-1.7,1.7h-1.4c-1.1,0-1.7-0.6-1.7-1.7
			v-0.8c0-0.6,0.1-0.9,0.1-0.9h-0.1c0,0-2,3.9-6.5,3.9c-3.8,0-6.9-2.4-6.9-6.2C1930.8,837.9,1938.3,836.9,1942.9,836.9z
			 M1939.1,846.2c2.9,0,4.8-2.9,4.8-5.4V840h-0.9c-2.6,0-7,0.4-7,3.5C1935.9,844.9,1937,846.2,1939.1,846.2z"/>
		<path class="st103" d="M1953.7,830.7c0-1.1,0.6-1.7,1.7-1.7h1.3c1.1,0,1.7,0.6,1.7,1.4v0.9c0,0.4,0,0.8,0,0.8h0.1
			c0,0,1.8-3.7,6.7-3.7c5.6,0,9.2,4.4,9.2,10.9c0,6.6-4.1,10.9-9.5,10.9c-4.3,0-6-3.2-6-3.2h-0.1c0,0,0.1,0.7,0.1,1.8v7.3
			c0,1.1-0.6,1.7-1.7,1.7h-1.7c-1.1,0-1.7-0.6-1.7-1.7V830.7z M1963.9,845.8c2.8,0,5.2-2.3,5.2-6.4c0-3.9-2.1-6.5-5.1-6.5
			c-2.7,0-5.2,2-5.2,6.5C1958.7,842.7,1960.5,845.8,1963.9,845.8z"/>
		<path class="st103" d="M1989.2,822.5c0-1.1,0.6-1.7,1.7-1.7h9.4c5.4,0,9.2,3.8,9.2,9.4c0,5.6-3.8,9.5-9.2,9.5h-5.9v8.3
			c0,1.1-0.6,1.7-1.7,1.7h-1.9c-1.1,0-1.7-0.6-1.7-1.7V822.5z M1999.3,835.2c3.1,0,4.8-2,4.8-5c0-3-1.7-4.9-4.8-4.9h-5v9.8H1999.3z"
			/>
		<path class="st103" d="M2023.5,836.9h0.9v-0.5c0-2.7-1.7-3.7-3.9-3.7c-1.7,0-3.3,0.7-4.3,1.2c-1,0.4-1.8,0.3-2.3-0.7l-0.4-0.8
			c-0.5-0.9-0.3-1.7,0.7-2.3c1.3-0.7,3.7-1.7,6.8-1.7c5.4,0,8.6,3,8.6,8.3V848c0,1.1-0.6,1.7-1.7,1.7h-1.4c-1.1,0-1.7-0.6-1.7-1.7
			v-0.8c0-0.6,0.1-0.9,0.1-0.9h-0.1c0,0-2,3.9-6.5,3.9c-3.8,0-6.9-2.4-6.9-6.2C2011.4,837.9,2018.9,836.9,2023.5,836.9z
			 M2019.6,846.2c2.9,0,4.8-2.9,4.8-5.4V840h-0.9c-2.6,0-7,0.4-7,3.5C2016.5,844.9,2017.6,846.2,2019.6,846.2z"/>
		<path class="st103" d="M2038.2,853.1c1,0.4,2.3,0.8,4.2,0.8c3.2,0,5.9-1.3,5.9-5v-1.5c0-0.5,0.1-1.1,0.1-1.1h-0.1
			c-1.1,2-2.9,3.1-5.7,3.1c-6.1,0-9.4-4.8-9.4-10.5c0-5.7,3.2-10.3,9.3-10.3c4.8,0,6.1,3.2,6.1,3.2h0.1c0,0,0-0.2,0-0.5v-0.8
			c0-0.8,0.6-1.4,1.7-1.4h1.4c1.1,0,1.7,0.6,1.7,1.7v17.8c0,7.1-5.6,9.8-10.7,9.8c-2.3,0-4.6-0.5-6.1-1.1c-1.1-0.4-1.3-1.1-0.9-2.2
			l0.3-0.9C2036.5,853,2037.1,852.7,2038.2,853.1z M2048.3,838.9c0-4.8-2.4-6-5-6c-3.2,0-5,2.3-5,5.7c0,3.7,1.9,6.4,5.2,6.4
			C2046,844.9,2048.3,843.5,2048.3,838.9z"/>
		<path class="st103" d="M2067.8,828.5c5.9,0,9.2,4.2,9.2,9.9c0,0.9-0.8,1.7-1.8,1.7h-12.6c0.3,3.7,3.1,5.7,6.2,5.7
			c1.9,0,3.5-0.7,4.5-1.3c1-0.5,1.7-0.4,2.3,0.6l0.5,0.8c0.5,0.9,0.3,1.7-0.6,2.3c-1.3,0.9-3.8,2.1-7,2.1c-6.9,0-11.1-5-11.1-10.9
			C2057.2,833,2061.5,828.5,2067.8,828.5z M2071.8,837c-0.1-2.9-1.8-4.6-4.2-4.6c-2.6,0-4.5,1.8-5,4.6H2071.8z"/>
	</g>
	<g>
		<defs>
			<rect id="SVGID_70_" x="135.6" y="90.4" width="2475.5" height="1698.7"/>
		</defs>
		<clipPath id="SVGID_12_">
			<use xlink:href="#SVGID_70_"  style="overflow:visible;"/>
		</clipPath>
		<path style="clip-path:url(#SVGID_12_);fill:none;stroke:#E396B5;stroke-width:7.9131;stroke-miterlimit:10;" d="M1906.6,264.8
			c-44.1,0-79.8,35.7-79.8,79.8 M2593.2,240.7c0-44.1-35.7-79.8-79.8-79.8 M2593.2,1636.7c0,74.9-60.6,135.5-135.6,135.5
			 M1554.4,1672.2c0,55.3,44.8,100.1,100.1,100.1 M1554.4,1555.6v116.5 M1075.5,1672.2c0,55.3,44.8,100.1,100.1,100.1 M1370.7,160.9
			h1145.2 M2593.2,1641.8v-1401 M1168,1772.2h1292.2 M1075.5,1363.1v309.1 M956.5,668.9V476.4 M1316.2,668.9V476.4 M2334.8,476.4
			v78.5 M1969.9,686.6v81.1 M1969.9,476.4v78.5 M1663.4,476.4v78.5 M401.9,974.6l-128.1,117.1 M509,974.6l122.8,117.1 M459.9,580.2
			V476.4 M457.3,712v124.1 M1316.2,929.9V803.2 M1371.6,1061.3l183.9,169.8 M1262.4,1069.9l-186.5,161.1 M1554.4,1363.1v60.8
			 M866.5,409.2H734.8 M1403.7,409.2h144.4 M1134.7,226.4l0,118"/>
	</g>
	<polygon class="st103" points="1151.6,297.5 1147.9,293.9 1134.1,307.7 1120.3,293.9 1116.7,297.5 1130.5,311.3 1130.5,311.4 
		1134.1,315 1134.1,315 1134.1,315 1137.8,311.4 1137.8,311.3 	"/>
	<polygon class="st103" points="1334,558.5 1330.4,554.9 1316.6,568.7 1302.7,554.9 1299.1,558.5 1312.9,572.3 1312.9,572.3 
		1316.6,576 1316.6,576 1316.6,576 1320.2,572.3 1320.2,572.3 	"/>
	<polygon class="st103" points="1334,860.1 1330.4,856.4 1316.6,870.2 1302.7,856.4 1299.1,860.1 1312.9,873.9 1312.9,873.9 
		1316.6,877.5 1316.6,877.5 1316.6,877.5 1320.2,873.9 1320.2,873.9 	"/>
	<polygon class="st103" points="1459.4,1117.4 1454.4,1117.4 1454.4,1137.6 1434.1,1137.6 1434.1,1142.7 1454.4,1142.7 
		1459.4,1142.7 1459.4,1137.6 	"/>
	<polygon class="st103" points="1201,1145.2 1201,1140.2 1180.7,1140.2 1180.7,1119.9 1175.6,1119.9 1175.6,1140.2 1175.6,1145.2 
		1180.7,1145.2 	"/>
	<polygon class="st103" points="974.2,566.1 970.6,562.5 956.7,576.3 942.9,562.5 939.3,566.1 953.1,579.9 953.1,579.9 956.7,583.6 
		956.7,583.6 956.8,583.6 960.4,579.9 960.4,579.9 	"/>
	<polygon class="st103" points="477.6,518 473.9,514.3 460.1,528.2 446.3,514.3 442.6,518 456.5,531.8 456.4,531.8 460.1,535.4 
		460.1,535.4 460.1,535.4 463.7,531.8 463.7,531.8 	"/>
	<polygon class="st103" points="475,766.3 471.4,762.7 457.6,776.5 443.7,762.7 440.1,766.3 453.9,780.1 453.9,780.1 457.5,783.8 
		457.6,783.8 457.6,783.8 461.2,780.1 461.2,780.1 	"/>
	<polygon class="st103" points="576.8,1016.5 571.7,1017 574.2,1036.3 554.8,1038.7 555.5,1043.8 575.1,1041.3 575.1,1041.3 
		580.1,1040.7 580.1,1041.3 579.9,1041.3 579.3,1036.3 579.3,1036.3 	"/>
	<polygon class="st103" points="359.1,1034.5 358.7,1029.4 339.3,1031.8 336.9,1012.4 331.8,1013.7 334.3,1033.7 334.3,1033.7 
		335,1038.8 334.3,1038.8 334.3,1037.6 339.4,1036.9 339.4,1036.9 	"/>
	<polygon class="st103" points="1502.2,390.9 1498.6,394.5 1512.4,408.3 1498.6,422.2 1502.2,425.8 1516.1,412 1516.1,412 
		1519.7,408.3 1519.7,408.3 1519.7,408.3 1516.1,404.7 1516.1,404.7 	"/>
	<polygon class="st103" points="1450.2,425.8 1453.8,422.2 1440,408.3 1453.8,394.5 1450.2,390.9 1436.4,404.7 1436.3,404.7 
		1432.7,408.3 1432.7,408.3 1432.7,408.3 1436.3,412 1436.4,412 	"/>
	<polygon class="st103" points="1681.2,507.8 1677.5,504.2 1663.7,518 1649.9,504.2 1646.3,507.8 1660.1,521.7 1660.1,521.7 
		1663.7,525.3 1663.7,525.3 1663.7,525.3 1667.4,521.7 1667.4,521.7 	"/>
	<polygon class="st103" points="1987.8,507.8 1984.2,504.2 1970.3,518 1956.5,504.2 1952.9,507.8 1966.7,521.7 1966.7,521.7 
		1970.3,525.3 1970.3,525.3 1970.3,525.3 1974,521.7 1974,521.7 	"/>
	<polygon class="st103" points="1987.8,720.7 1984.2,717.1 1970.3,730.9 1956.5,717.1 1952.9,720.7 1966.7,734.5 1966.7,734.5 
		1970.3,738.2 1970.3,738.1 1970.3,738.2 1974,734.5 1974,734.5 	"/>
	<polygon class="st103" points="1572.2,1387.1 1568.6,1383.5 1554.8,1397.3 1540.9,1383.5 1537.3,1387.1 1551.1,1400.9 1551.1,1401 
		1554.8,1404.6 1554.8,1404.6 1554.8,1404.6 1558.4,1401 1558.4,1400.9 	"/>
	<polygon class="st103" points="1093.3,1470.7 1089.7,1467.1 1075.8,1480.9 1062,1467.1 1058.4,1470.7 1072.2,1484.6 1072.2,1484.6 
		1075.8,1488.2 1075.8,1488.2 1075.9,1488.2 1079.5,1484.6 1079.5,1484.6 	"/>
	<polygon class="st103" points="1572.2,1607.6 1568.6,1603.9 1554.8,1617.8 1540.9,1603.9 1537.3,1607.6 1551.1,1621.4 
		1551.1,1621.4 1554.8,1625 1554.8,1625 1554.8,1625 1558.4,1621.4 1558.4,1621.4 	"/>
	<polygon class="st103" points="1822.7,177.5 1826.3,173.8 1812.5,160 1826.3,146.2 1822.7,142.5 1808.8,156.4 1808.8,156.4 
		1805.2,160 1805.2,160 1805.2,160 1808.8,163.6 1808.8,163.6 	"/>
	<polygon class="st103" points="2301.6,177.5 2305.2,173.8 2291.4,160 2305.2,146.2 2301.6,142.5 2287.8,156.4 2287.8,156.4 
		2284.1,160 2284.1,160 2284.1,160 2287.8,163.6 2287.8,163.6 	"/>
	<g>
		<defs>
			<rect id="SVGID_72_" x="135.6" y="90.4" width="2475.5" height="1698.7"/>
		</defs>
		<clipPath id="SVGID_14_">
			<use xlink:href="#SVGID_72_"  style="overflow:visible;"/>
		</clipPath>
		<path style="clip-path:url(#SVGID_14_);fill:none;stroke:#E396B5;stroke-width:7.9131;stroke-miterlimit:10;" d="M2339.8,344.5
			c0-44-35.7-79.7-79.8-79.7 M534.5,264.8h1728"/>
	</g>
	<polygon class="st103" points="1555.4,246.4 1551.8,250.1 1565.6,263.9 1551.8,277.7 1555.4,281.4 1569.3,267.5 1569.3,267.5 
		1572.9,263.9 1572.9,263.9 1572.9,263.9 1569.3,260.2 1569.3,260.3 	"/>
	<polygon class="st103" points="785.1,246.4 781.5,250.1 795.3,263.9 781.5,277.7 785.1,281.4 798.9,267.5 799,267.5 802.6,263.9 
		802.6,263.9 802.6,263.9 799,260.2 798.9,260.3 	"/>
	<polygon class="st103" points="1821.8,296.4 1821.8,301.4 1842.1,301.4 1842.1,321.7 1847.1,321.7 1847.1,301.4 1847.1,296.4 
		1842.1,296.4 	"/>
	<g>
		<defs>
			<rect id="SVGID_74_" x="135.6" y="90.4" width="2475.5" height="1698.7"/>
		</defs>
		<clipPath id="SVGID_15_">
			<use xlink:href="#SVGID_74_"  style="overflow:visible;"/>
		</clipPath>
		<path style="clip-path:url(#SVGID_15_);fill:none;stroke:#E396B5;stroke-width:7.9131;stroke-miterlimit:10;" d="M540.9,264.8
			c-44,0-79.7,35.6-79.7,79.7"/>
	</g>
	<polygon class="st103" points="456,296.4 456,301.4 476.3,301.4 476.3,321.7 481.3,321.7 481.3,301.4 481.3,296.4 476.3,296.4 	"/>
	<g>
		<defs>
			<rect id="SVGID_76_" x="135.6" y="90.4" width="2475.5" height="1698.7"/>
		</defs>
		<clipPath id="SVGID_16_">
			<use xlink:href="#SVGID_76_"  style="overflow:visible;"/>
		</clipPath>
		<path style="clip-path:url(#SVGID_16_);fill:none;stroke:#E396B5;stroke-width:7.9131;stroke-miterlimit:10;" d="M1341.6,264.8
			c-44,0-79.7,35.6-79.7,79.7"/>
	</g>
	<polygon class="st103" points="1256.7,296.4 1256.7,301.4 1277,301.4 1277,321.7 1282.1,321.7 1282.1,301.4 1282.1,296.4 
		1277,296.4 	"/>
	<polygon class="st103" points="2107.8,246.4 2104.2,250.1 2118,263.9 2104.2,277.7 2107.8,281.4 2121.7,267.5 2121.7,267.5 
		2125.3,263.9 2125.3,263.9 2125.3,263.9 2121.7,260.2 2121.7,260.3 	"/>
	<polygon class="st103" points="2593.7,942.6 2593.7,942.6 2590,946.2 2590,946.2 2576.2,960 2579.9,963.7 2593.7,949.9 
		2607.5,963.7 2611.1,960 2597.3,946.2 2597.3,946.2 2593.7,942.6 	"/>
	<polygon class="st103" points="2593.7,1462 2593.7,1462 2590,1465.7 2590,1465.7 2576.2,1479.5 2579.9,1483.1 2593.7,1469.3 
		2607.5,1483.1 2611.1,1479.5 2597.3,1465.7 2597.3,1465.7 2593.7,1462 	"/>
	<polygon class="st103" points="2033.3,1757.8 2047.1,1771.6 2033.3,1785.4 2036.9,1789.1 2050.7,1775.2 2050.7,1775.2 
		2054.4,1771.6 2054.4,1771.6 2054.4,1771.6 2050.7,1768 2050.7,1768 2036.9,1754.1 	"/>
	<polygon class="st103" points="1361.8,1757.8 1375.6,1771.6 1361.8,1785.4 1365.4,1789.1 1379.2,1775.2 1379.2,1775.2 
		1382.9,1771.6 1382.9,1771.6 1382.9,1771.6 1379.2,1768 1379.2,1768 1365.4,1754.1 	"/>
	<polygon class="st103" points="2352.7,507.8 2349,504.2 2335.2,518 2321.4,504.2 2317.8,507.8 2331.6,521.7 2331.6,521.7 
		2335.2,525.3 2335.2,525.3 2335.2,525.3 2338.9,521.7 2338.9,521.7 	"/>
	<polygon class="st103" points="825.7,390.9 822,394.5 835.9,408.3 822,422.2 825.7,425.8 839.5,412 839.5,412 843.1,408.3 
		843.1,408.3 843.1,408.3 839.5,404.7 839.5,404.7 	"/>
	<polygon class="st103" points="773.6,425.8 777.3,422.2 763.4,408.3 777.3,394.5 773.6,390.9 759.8,404.7 759.8,404.7 756.1,408.3 
		756.2,408.3 756.1,408.3 759.8,412 759.8,412 	"/>
</g>
<g id="Isolation_Mode">
</g>
</svg>
