<?xml version="1.0" encoding="utf-8"?>
<!-- Generator: Adobe Illustrator 19.2.0, SVG Export Plug-In . SVG Version: 6.00 Build 0)  -->
<svg version="1.1" xmlns="http://www.w3.org/2000/svg" xmlns:xlink="http://www.w3.org/1999/xlink" x="0px" y="0px"
	 viewBox="0 0 189.1 64.5" style="enable-background:new 0 0 189.1 64.5;" xml:space="preserve">
<style type="text/css">
	.st0{fill:#FFFFFF;}
	.st1{opacity:0.65;fill:#FEFAD6;}
	.st2{fill:#EF3D3B;}
	.st3{fill:#BE1E2D;}
	.st4{fill:#939598;}
	.st5{fill:#E6E7E8;}
	.st6{opacity:0.22;}
	.st7{clip-path:url(#SVGID_2_);}
	.st8{fill:none;}
	.st9{fill:#414042;}
	.st10{fill:#A01622;}
	.st11{fill:#4D69A2;stroke:#000000;stroke-width:1.6207;stroke-miterlimit:10;}
	.st12{fill:#EAECEE;}
	.st13{opacity:0.6;}
	.st14{stroke:#000000;stroke-width:1.1459;stroke-miterlimit:10;}
	.st15{fill:#F1F2F2;}
	.st16{fill:#4D69A2;}
	.st17{fill:#939598;stroke:#939598;stroke-width:0.781;stroke-miterlimit:10;}
	.st18{fill:#87171E;}
	.st19{opacity:0.52;fill:#35004E;}
	.st20{fill:none;stroke:#000000;stroke-width:1.6207;stroke-miterlimit:10;}
	.st21{opacity:0.43;fill:#F1F2F2;stroke:#BCBEC0;}
	.st22{fill:#F1F2F2;stroke:#BCBEC0;}
	.st23{opacity:0.43;fill:#F1F2F2;stroke:#BCBEC0;stroke-width:0.5555;}
	.st24{fill:#F1F2F2;stroke:#BCBEC0;stroke-width:0.5555;}
	.st25{opacity:0.43;fill:#F1F2F2;stroke:#BCBEC0;stroke-width:0.803;}
	.st26{fill:#F1F2F2;stroke:#BCBEC0;stroke-width:0.803;}
	.st27{fill:#EF6160;}
	.st28{fill:none;stroke:#EF6160;stroke-width:5;stroke-miterlimit:10;}
	.st29{fill:none;stroke:#CA3339;stroke-width:5;stroke-miterlimit:10;}
	.st30{fill:none;stroke:#BE1E2D;stroke-width:5;stroke-miterlimit:10;}
	.st31{fill:none;stroke:#FFFFFF;stroke-width:5;stroke-miterlimit:10;}
	.st32{fill:none;stroke:#414042;stroke-width:5;stroke-miterlimit:10;}
	.st33{fill:none;stroke:url(#SVGID_3_);stroke-width:5;stroke-miterlimit:10;}
	.st34{fill:none;stroke:url(#SVGID_4_);stroke-width:5;stroke-miterlimit:10;}
	.st35{fill:#EDEEF0;}
	.st36{fill:#39B54A;}
	.st37{fill:#F1F2F2;stroke:#F1F2F2;stroke-width:0.6177;stroke-miterlimit:10;}
	.st38{fill:none;stroke:#F1F2F2;stroke-width:1.0187;stroke-miterlimit:10;}
	.st39{fill:#F1F2F2;stroke:#F1F2F2;stroke-width:0.5402;stroke-miterlimit:10;}
	.st40{fill:none;stroke:#F1F2F2;stroke-width:4.9981;stroke-miterlimit:10;}
	.st41{fill:#F1F2F2;stroke:#F1F2F2;stroke-width:2.6505;stroke-miterlimit:10;}
	.st42{fill:none;stroke:#EF6160;stroke-width:5.2058;stroke-miterlimit:10;}
	.st43{fill:none;stroke:#CA3339;stroke-width:5.2058;stroke-miterlimit:10;}
	.st44{fill:none;stroke:url(#SVGID_5_);stroke-width:5.2058;stroke-miterlimit:10;}
	.st45{fill:#010101;}
	.st46{fill:none;stroke:#000000;stroke-width:1.6206;stroke-miterlimit:10;}
	.st47{fill:none;stroke:#414042;stroke-width:1.0256;stroke-miterlimit:10;}
	.st48{fill:none;stroke:#414042;stroke-width:4.6324;stroke-miterlimit:10;}
	.st49{fill:none;stroke:#414042;stroke-width:5.6268;stroke-miterlimit:10;}
	.st50{fill:none;stroke:#414042;stroke-width:4;stroke-miterlimit:10;}
	.st51{fill:none;stroke:#F1F2F2;stroke-width:4;stroke-miterlimit:10;}
	.st52{fill:none;stroke:#414042;stroke-width:2;stroke-miterlimit:10;}
	.st53{fill:none;stroke:#FFFFFF;stroke-width:1.6206;stroke-miterlimit:10;}
	.st54{clip-path:url(#SVGID_7_);}
	.st55{fill:#F1F2F2;stroke:#939598;stroke-miterlimit:10;}
	.st56{fill:none;stroke:#FFFFFF;stroke-width:2;stroke-miterlimit:10;}
	.st57{fill:none;stroke:#FFFFFF;stroke-width:11;stroke-miterlimit:10;}
	.st58{fill:none;stroke:#FFFFFF;stroke-width:1.4766;stroke-miterlimit:10;}
	.st59{fill:none;stroke:#FFFFFF;stroke-width:2.1964;stroke-miterlimit:10;}
	.st60{fill:none;stroke:#FFFFFF;stroke-width:0.4447;stroke-miterlimit:10;}
	.st61{fill:#EF3A3C;}
	.st62{fill:#58595B;}
	.st63{fill:none;stroke:#FFFFFF;stroke-width:1.8397;stroke-miterlimit:10;}
	.st64{fill:#BCBEC0;}
	.st65{opacity:0.69;}
</style>
<g id="background">
</g>
<g id="Layer_1">
</g>
<g id="accents">
</g>
<g id="text">
</g>
<g id="svg2">
</g>
<g id="Isolation_Mode">
	<g>
		<rect x="16.5" y="8.7" class="st3" width="50.8" height="45.3"/>
		<g>
			<path class="st0" d="M66,7.4l-12.1,9.8c-0.4,0.3-0.5,0.9-0.2,1.3c1.2,1.7,1.9,3.8,1.9,6.1c0,2.2-0.7,4.3-1.9,6.1
				c-0.3,0.4-0.2,1,0.2,1.4L66,41.8c0.4,0.3,1,0.3,1.4,0c9.4-8.4,9.9-25.1,0-34.3C67.1,7.1,66.4,7.1,66,7.4z M65.1,31.9
				c-0.9,0.2-1.7-0.6-1.6-1.6c0.1-0.6,0.5-1,1.1-1.1c0.9-0.2,1.7,0.6,1.6,1.6C66.1,31.3,65.6,31.8,65.1,31.9z M66.4,21.3l-0.8,6.2
				c0,0.1-0.1,0.1-0.1,0.1h-1.2c-0.1,0-0.1,0-0.1-0.1l-0.8-6.3l0-3.9c0-0.1,0.1-0.1,0.1-0.1h2.8c0.1,0,0.1,0.1,0.1,0.1L66.4,21.3z"
				/>
			<path class="st58" d="M51,34c-0.1-0.1-0.2-0.1-0.3,0c-1.6,0.8-3.3,1.1-5.2,1.1c-1.9,0-3.7-0.5-5.3-1.4c-0.1-0.1-0.2-0.1-0.3,0
				c-1.8,1.4-3.1,4.2-3.1,7.4l0,6.5c0,0.2,0.1,0.3,0.3,0.3h16.8c0.2,0,0.3-0.1,0.3-0.3v-6.5C54.2,38,52.8,35.4,51,34z"/>
			<circle class="st58" cx="45.6" cy="24.6" r="6.7"/>
		</g>
	</g>
</g>
<g id="_x3C_Layer_x3E_">
	<g>
		<path class="st0" d="M88.2,42.1v-18h3.4v6.6c1-1.3,2.5-2,4-2c3.3,0,5.8,2.6,5.8,6.9c0,4.3-2.5,6.8-5.8,6.8c-1.6,0-3-0.7-4-2v1.7
			H88.2z M94.6,39.4c2,0,3.3-1.5,3.3-3.8c0-2.3-1.3-3.8-3.3-3.8c-1.1,0-2.4,0.6-2.9,1.5v4.6C92.2,38.7,93.5,39.4,94.6,39.4z"/>
		<path class="st0" d="M103.2,35.6c0-3.8,2.8-6.8,6.7-6.8c3.9,0,6.5,2.9,6.5,7.2v0.8h-9.7c0.2,1.6,1.5,3,3.8,3
			c1.1,0,2.6-0.5,3.5-1.3l1.5,2.2c-1.3,1.2-3.3,1.8-5.4,1.8C106.2,42.4,103.2,39.7,103.2,35.6z M110,31.4c-2.1,0-3.1,1.6-3.2,2.9
			h6.4C113.1,33.1,112.2,31.4,110,31.4z"/>
		<path class="st0" d="M126.8,42.1v-1.3c-0.9,1.1-2.4,1.7-4.1,1.7c-2.1,0-4.5-1.4-4.5-4.3c0-3,2.5-4.2,4.5-4.2
			c1.7,0,3.3,0.6,4.1,1.6v-1.8c0-1.3-1.1-2.2-2.9-2.2c-1.4,0-2.7,0.5-3.8,1.5l-1.3-2.3c1.6-1.4,3.6-2.1,5.7-2.1c3,0,5.7,1.2,5.7,4.9
			v8.4H126.8z M126.8,39v-1.6c-0.6-0.8-1.6-1.1-2.8-1.1c-1.3,0-2.5,0.7-2.5,2c0,1.2,1.1,1.9,2.5,1.9C125.2,40.1,126.2,39.7,126.8,39
			z"/>
		<path class="st0" d="M132.8,35.6c0-4,2.9-6.8,6.9-6.8c2.7,0,4.3,1.2,5.2,2.3l-2.2,2.1c-0.6-0.9-1.6-1.4-2.8-1.4
			c-2.1,0-3.5,1.5-3.5,3.8s1.5,3.8,3.5,3.8c1.2,0,2.1-0.5,2.8-1.4l2.2,2.1c-0.9,1.2-2.5,2.4-5.2,2.4
			C135.7,42.4,132.8,39.6,132.8,35.6z"/>
		<path class="st0" d="M146.3,35.6c0-3.7,2.6-6.8,6.9-6.8c4.3,0,6.9,3.1,6.9,6.8c0,3.7-2.6,6.9-6.9,6.9
			C148.9,42.4,146.3,39.3,146.3,35.6z M156.5,35.6c0-2-1.2-3.8-3.3-3.8c-2.1,0-3.3,1.8-3.3,3.8c0,2.1,1.2,3.8,3.3,3.8
			C155.3,39.4,156.5,37.6,156.5,35.6z"/>
		<path class="st0" d="M171.4,42.1v-7.9c0-1.8-0.9-2.4-2.4-2.4c-1.3,0-2.4,0.8-3,1.5v8.8h-3.4V29h3.4v1.7c0.8-1,2.4-2,4.6-2
			c2.9,0,4.2,1.6,4.2,4.2v9.2H171.4z"/>
	</g>
</g>
</svg>
