<?xml version="1.0" encoding="utf-8"?>
<!-- Generator: Adobe Illustrator 19.2.0, SVG Export Plug-In . SVG Version: 6.00 Build 0)  -->
<svg version="1.1" xmlns="http://www.w3.org/2000/svg" xmlns:xlink="http://www.w3.org/1999/xlink" x="0px" y="0px"
	 viewBox="0 0 432 236" style="enable-background:new 0 0 432 236;" xml:space="preserve">
<style type="text/css">
	.st0{fill:#F1F1F2;}
	.st1{fill:none;stroke:#E6E6E6;stroke-width:2;stroke-miterlimit:10;}
	.st2{clip-path:url(#SVGID_4_);}
	.st3{fill:#FFFFFF;}
	.st4{fill:#91D4D8;}
	.st5{fill:#71BFBD;}
	.st6{fill-rule:evenodd;clip-rule:evenodd;fill:#FFFFFF;}
	.st7{opacity:0.39;}
	.st8{fill-rule:evenodd;clip-rule:evenodd;fill:#2D3441;}
	.st9{opacity:0.35;}
	.st10{fill:#2D3441;}
	.st11{opacity:0.48;fill:#2D3441;}
	.st12{opacity:0.48;}
	.st13{fill-rule:evenodd;clip-rule:evenodd;fill:#91D4D8;}
	.st14{fill:#DE71AB;}
	.st15{fill:#454E5E;}
	.st16{fill:#78CBC9;}
	.st17{fill:#C34F8F;}
	.st18{fill:none;stroke:#FFFFFF;stroke-miterlimit:10;}
	.st19{clip-path:url(#SVGID_20_);}
	.st20{clip-path:url(#SVGID_24_);}
	.st21{clip-path:url(#SVGID_26_);}
	.st22{clip-path:url(#SVGID_28_);}
	.st23{clip-path:url(#SVGID_30_);}
	.st24{clip-path:url(#SVGID_32_);}
	.st25{clip-path:url(#SVGID_34_);}
	.st26{clip-path:url(#SVGID_36_);}
	.st27{clip-path:url(#SVGID_38_);}
	.st28{clip-path:url(#SVGID_40_);}
	.st29{clip-path:url(#SVGID_42_);}
	.st30{clip-path:url(#SVGID_44_);}
	.st31{clip-path:url(#SVGID_46_);}
	.st32{clip-path:url(#SVGID_48_);}
	.st33{opacity:0.51;clip-path:url(#SVGID_50_);}
	.st34{fill:#545F71;}
	.st35{fill:#E14496;}
	.st36{opacity:0.49;}
	.st37{fill:#F5F0E4;}
	.st38{fill:none;stroke:#454E5E;stroke-width:4;stroke-miterlimit:10;}
	.st39{clip-path:url(#SVGID_52_);}
	.st40{opacity:0.49;fill:#2D3441;}
	.st41{opacity:0.77;}
	.st42{clip-path:url(#SVGID_56_);}
	.st43{clip-path:url(#SVGID_58_);}
	.st44{clip-path:url(#SVGID_60_);}
	.st45{clip-path:url(#SVGID_62_);}
	.st46{clip-path:url(#SVGID_64_);}
	.st47{clip-path:url(#SVGID_66_);}
	.st48{clip-path:url(#SVGID_68_);}
	.st49{clip-path:url(#SVGID_70_);}
	.st50{clip-path:url(#SVGID_72_);}
	.st51{clip-path:url(#SVGID_74_);}
	.st52{clip-path:url(#SVGID_76_);}
	.st53{clip-path:url(#SVGID_78_);}
	.st54{clip-path:url(#SVGID_80_);}
</style>
<g id="Layer_3">
	<g>
		<g>
			<defs>
				<path id="SVGID_49_" d="M32.1-1251.8c0-1.7,1.3-3,3-3H835c1.7,0,3,1.3,3,3v429.2c0,1.6-1.3,3-3,3H35.1c-1.7,0-3-1.4-3-3V-1251.8
					z"/>
			</defs>
			<clipPath id="SVGID_2_">
				<use xlink:href="#SVGID_49_"  style="overflow:visible;"/>
			</clipPath>
			<g style="opacity:0.51;clip-path:url(#SVGID_2_);">

					
			</g>
		</g>
	</g>
</g>
<g id="Layer_1">
	<g>
		<g>
			<g>
				<g>
					<g>
						<g>
							<path class="st10" d="M106.5,91.1c8.9-0.5,17.2,2.1,23.9,6.9v42.2l-22.7-3l4.6,12.5H78.1c-4.6-6.7-7.2-14.9-6.6-23.8
								C72.7,107.3,87.9,92.2,106.5,91.1z"/>
						</g>
					</g>
					<g>
						<g>
							<g>
								<path class="st10" d="M107.3,107.9c8.9-0.5,18.4,2.1,18.4,2.1c2.6,0.7,4.8,3.6,4.8,6.4v28.4c0,2.8-2.3,5-5,5H98.9
									c-2.8,0-5.6-2.2-6.2-4.8c0,0-1.9-7.4-1.3-16.3C92.5,109.9,88.6,109,107.3,107.9z"/>
							</g>
						</g>
					</g>
				</g>
				<g>
					<g>
						<g>
							<path class="st16" d="M58.9,88.4l71.6-3.5v13c-6.7-4.8-15-7.4-23.9-6.9c-18.7,1.1-33.8,16.2-35,34.8
								c-0.6,8.9,2,17.1,6.6,23.8H62.3L58.9,88.4z"/>
						</g>
						<g>
							<path class="st16" d="M58.9,83.1c0-2.8,2.3-5,5-5h61.6c2.8,0,5,2.3,5,5v2.5c0,2.8-2.2,4.5-4.9,4c0,0-15.8-3.3-24.7-2.7
								c-18.7,1.1-35.8,29-37.1,47.7c-0.6,8.9,9.7,13.3,9.7,13.3c2.5,1.1,2.3,2-0.4,2h-9.3c-2.8,0-5-2.3-5-5V83.1z"/>
						</g>
					</g>
				</g>
				<g>
					<g>
						<path class="st17" d="M98,128.6c0,7,5.6,12.6,12.6,12.6c7,0,12.6-5.6,12.6-12.6c0-7-5.6-12.6-12.6-12.6
							C103.6,116,98,121.6,98,128.6z M109.2,128.6c0-0.8,0.6-1.4,1.4-1.4c0.8,0,1.4,0.6,1.4,1.4c0,0.8-0.6,1.4-1.4,1.4
							C109.8,130,109.2,129.3,109.2,128.6z"/>
					</g>
				</g>
			</g>
		</g>
		<g>
			<g>
				<path class="st10" d="M194,126.2l-3.3,23.5h-10.5l3.1-20.9c0.4-3-0.4-3.6-1.5-3.6c-1.6,0-3.7,2.7-5.4,6.9l-2.4,17.6h-10.6
					l3.1-20.9c0.5-3-0.4-3.6-1.4-3.6c-1.7,0-3.8,2.7-5.4,7.2l-2.4,17.3h-10.6l4.5-32.2h9.2l-0.1,5c2.5-3.8,6.2-6.1,9.8-6.1
					c3.9,0,6.5,2.1,7.2,5.8c2.5-3.6,6.2-5.8,9.6-5.8C192,116.4,194.9,120.1,194,126.2z"/>
				<path class="st10" d="M196,149.7l4.5-32.2H211l-4.5,32.2H196z M213.4,106.4c-0.4,3.2-3.3,5.7-6.8,5.7c-3.6,0-5.8-2.7-5.4-6.1
					c0.5-3.3,3.3-5.7,6.8-5.7C211.7,100.2,213.8,102.9,213.4,106.4z"/>
				<path class="st10" d="M224.8,142.3c0.4,0,0.9-0.1,1.4-0.2l1.1,7.5c-1.8,0.8-4.2,1.2-6.5,1.2c-5.7,0-8.7-3.4-7.8-9.9l5.1-36
					l10.6-1.1l-5.1,36.4C223.3,141.9,223.9,142.3,224.8,142.3z"/>
				<path class="st10" d="M253.9,116.4c5.5,0,8.9,3.1,8.9,7.7c0,5-2.7,8.7-8.3,11.2l5.6,14.3h-11.5l-5.3-15.4c6.9-2.3,8.9-5,8.9-8.1
					c0-1.6-1-2.4-2.5-2.4c-2.2,0-4.7,1.6-7.3,5.8l-2.8,20.1h-10.6l6.3-44.8l10.7-1.1l-2.4,17.6C246.6,117.8,250.1,116.4,253.9,116.4
					z"/>
				<path class="st10" d="M288.7,117.1l-3,10.4c-1-0.3-1.8-0.5-2.8-0.5c-3.9,0-5.9,3.8-7.5,8.5l-2,14.2h-10.6l4.5-32.2h9.2l-0.1,5.9
					c2.1-4.2,5.7-6.8,9-6.8C286.8,116.6,287.7,116.7,288.7,117.1z"/>
				<path class="st10" d="M318.5,120l-2.9,19.9c-0.1,0.5-0.1,1-0.1,1.4c0,1.4,0.5,2,1.6,2.4l-3,6.9c-3.7-0.2-6.9-1.9-8-5.3
					c-2.1,3.2-5.1,5.5-9.5,5.5c-7.1,0-10.6-5-10.6-12.9c0-9.3,4.9-21.4,18.8-21.4C309.2,116.4,314.1,117.5,318.5,120z M296.8,137.9
					c0,4.2,1.4,5.2,3.2,5.2c1.9,0,3.7-1.4,5.3-4l2.2-14.6c-1.1-0.4-1.9-0.5-3.1-0.5C298.8,123.9,296.8,131.9,296.8,137.9z"/>
				<path class="st10" d="M338.2,141.4l2.7,7c-2.8,1.6-6.5,2.4-9.3,2.4c-7.5,0-10.4-4.3-9.4-12.4l1.9-13.5h-4.1l1-7.4h4.6l2-7
					l9.2-1.1l-1.1,8.1h7.1l-2.1,7.4h-6.1l-1.9,13.5c-0.5,3.1,0.3,3.9,1.9,3.9C336,142.3,337,142,338.2,141.4z"/>
				<path class="st10" d="M352.6,138.1c0.2,3.7,2.4,4.9,5.3,4.9c2.7,0,5.1-1,8.1-3l3.7,6.3c-3.6,2.5-8,4.4-13.2,4.4
					c-9.8,0-14.4-5.6-14.4-13.7c0-8.8,4.8-20.6,18.6-20.6c8.1,0,12.4,3.9,12.4,9C373.1,134.4,362.3,137.2,352.6,138.1z M362.5,126.1
					c0-1.5-0.7-2.7-2.9-2.7c-3.9,0-5.8,4.2-6.6,8.4C360.8,131.3,362.5,128,362.5,126.1z"/>
			</g>
		</g>
	</g>
</g>
<g id="Layer_2">
</g>
</svg>
