<?xml version="1.0" encoding="utf-8"?>
<!-- Generator: Adobe Illustrator 19.2.0, SVG Export Plug-In . SVG Version: 6.00 Build 0)  -->
<svg version="1.1" xmlns="http://www.w3.org/2000/svg" xmlns:xlink="http://www.w3.org/1999/xlink" x="0px" y="0px"
	 viewBox="0 0 410.6 149.3" style="enable-background:new 0 0 410.6 149.3;" xml:space="preserve">
<style type="text/css">
	.st0{fill:#F1F1F2;}
	.st1{fill:#404041;}
	.st2{fill:#3B3A3C;}
	.st3{fill:#F1F1F1;}
	.st4{fill:#FFFFFF;}
	.st5{fill:#87AF9A;}
	.st6{fill:#9CCCB2;}
	.st7{fill:#58595B;}
	.st8{fill:#6D6E70;}
	.st9{fill:#A6A8AB;}
	.st10{fill:#3CE6AD;}
	.st11{fill:#FFFFFF;stroke:#231F20;stroke-width:0.7067;stroke-miterlimit:10;}
	.st12{fill:none;stroke:#231F20;stroke-width:2;stroke-miterlimit:10;}
	.st13{fill:#F1F1F1;stroke:#FFFFFF;stroke-miterlimit:10;}
	.st14{fill:#58595B;stroke:#58595B;stroke-miterlimit:10;}
	.st15{fill:#3CE6AD;stroke:#3CE6AD;stroke-miterlimit:10;}
</style>
<g id="background">
</g>
<g id="Layer_1">
	<rect x="64.3" y="46.4" class="st10" width="38.1" height="56.6"/>
	<path class="st4" d="M58.5,40.9v67.5h293.5V40.9H58.5z M95.9,85.6c-2.6,14.2-9.2,13.2-14,13.3c-4.8-0.1-11.4,0.9-14-13.3
		c-1.7-16.8,10.4-34.9,14-35.3C85.5,50.7,97.6,68.9,95.9,85.6z"/>
	<g>
		<path class="st7" d="M127.2,67.1c-0.6,0.5-0.8,1.1-0.8,1.8c0,0.8,0.3,1.4,1,1.8s2.3,1,4.8,1.6s4.4,1.5,5.8,2.8
			c1.4,1.2,2.1,3,2.1,5.4c0,2.3-0.9,4.3-2.6,5.7c-1.8,1.5-4.1,2.2-7,2.2c-4.1,0-7.9-1.5-11.2-4.6l3.5-4.3c2.8,2.5,5.4,3.7,7.8,3.7
			c1.1,0,1.9-0.2,2.5-0.7c0.6-0.5,0.9-1.1,0.9-1.9c0-0.8-0.3-1.4-1-1.9c-0.7-0.5-1.9-0.9-3.9-1.4c-3-0.7-5.3-1.7-6.7-2.8
			s-2.1-3-2.1-5.5c0-2.5,0.9-4.4,2.7-5.8s4-2,6.7-2c1.7,0,3.5,0.3,5.2,0.9c1.8,0.6,3.3,1.4,4.6,2.5l-3,4.3c-2.3-1.7-4.6-2.6-7-2.6
			C128.6,66.4,127.8,66.6,127.2,67.1z"/>
		<path class="st7" d="M163.2,64.2c1.8,1.6,2.8,4,2.8,7.2c0,3.2-0.9,5.6-2.8,7.1c-1.9,1.5-4.8,2.2-8.6,2.2H151v7.3h-5.8V61.9h9.3
			C158.5,61.9,161.4,62.6,163.2,64.2z M159,74.5c0.7-0.8,1-1.9,1-3.4c0-1.5-0.5-2.6-1.4-3.2c-0.9-0.6-2.3-1-4.3-1H151v8.8h3.9
			C156.9,75.7,158.3,75.3,159,74.5z"/>
		<path class="st7" d="M191.8,70.6c0,4.2-1.7,6.9-5,8.1l6.6,9.4h-7.2l-5.8-8.4h-4v8.4h-5.8V61.9h9.9c4.1,0,7,0.7,8.7,2.1
			C191,65.3,191.8,67.5,191.8,70.6z M184.8,73.7c0.7-0.6,1.1-1.7,1.1-3.1c0-1.4-0.4-2.4-1.1-2.9s-2.1-0.8-3.9-0.8h-4.4v7.8h4.3
			C182.7,74.6,184.1,74.3,184.8,73.7z"/>
		<path class="st7" d="M219.5,84.4c-2.6,2.6-5.9,3.9-9.8,3.9s-7.1-1.3-9.8-3.9c-2.6-2.6-4-5.8-4-9.7c0-3.8,1.3-7.1,4-9.7
			s5.9-3.9,9.8-3.9s7.1,1.3,9.8,3.9c2.6,2.6,4,5.8,4,9.7C223.4,78.6,222.1,81.9,219.5,84.4z M217.5,74.8c0-2.3-0.8-4.3-2.2-6
			c-1.5-1.6-3.3-2.5-5.5-2.5c-2.2,0-4,0.8-5.5,2.5c-1.5,1.6-2.2,3.6-2.2,6c0,2.3,0.7,4.3,2.2,6c1.5,1.6,3.3,2.5,5.5,2.5
			c2.2,0,4-0.8,5.5-2.5C216.7,79.1,217.5,77.1,217.5,74.8z"/>
		<path class="st7" d="M235.3,81.3c1,1.2,2.3,1.8,3.9,1.8s3-0.6,3.9-1.8s1.4-2.9,1.4-5V61.9h5.8v14.7c0,3.8-1,6.7-3.1,8.8
			c-2.1,2-4.8,3.1-8.1,3.1c-3.3,0-6-1-8.1-3.1c-2.1-2-3.2-5-3.2-8.7V61.9h5.8v14.5C233.9,78.4,234.3,80.1,235.3,81.3z"/>
		<path class="st7" d="M267.4,66.9v21.1h-5.8V66.9h-7.4v-5.1h20.7v5.1H267.4z"/>
		<path class="st7" d="M297.7,61.9v5.2h-13v5.4h11.7v5h-11.7v5.4h13.5v5.2h-19.3V61.9H297.7z"/>
		<path class="st7" d="M323.6,65.3c2.5,2.3,3.7,5.5,3.7,9.5c0,4.1-1.2,7.3-3.7,9.7c-2.4,2.4-6.2,3.6-11.2,3.6h-9V61.9h9.3
			C317.5,61.9,321.1,63,323.6,65.3z M319.3,80.9c1.4-1.3,2.2-3.3,2.2-5.9s-0.7-4.6-2.2-5.9c-1.4-1.4-3.6-2.1-6.6-2.1h-3.3v15.9h3.7
			C315.8,82.9,317.9,82.2,319.3,80.9z"/>
	</g>
</g>
<g id="Isolation_Mode">
</g>
</svg>
